<?xml version="1.0" encoding="UTF-8"?>
<svg xmlns="http://www.w3.org/2000/svg">
    <metadata>
Created by FontPrep 20130207 at Sun Apr  5 09:41:50 2015
 By Wolfgang Meier
Copyright (c) 2001-2012 by Peter S. Baker
</metadata>
    <defs>
        <font id="a4a3a01371cff8e72df79cb557f6a57d" horiz-adv-x="1024">
            <font-face font-family="Junicode-Bold" font-weight="700" font-stretch="normal" units-per-em="2048" panose-1="2 4 8 2 0 0 0 0 0 0" ascent="1638" descent="-410" x-height="854" cap-height="1363" bbox="-1782 -840 3342 2088" underline-thickness="70" underline-position="-100" unicode-range="U+000D-1034A"/>
            <missing-glyph horiz-adv-x="1024" d="M68 -132v1640h864v-1640h-864zM534 86q0 39 -20 71q-36 56 -100 56q-38 0 -68 -21q-50 -37 -50 -106q0 -37 29 -77t77 -40t78 17q54 33 54 100zM354 1194q292 0 292 -199q0 -89 -116 -151l-106 -56q-114 -62 -114 -144t76 -218q8 -8 26 -6t18 18q-20 70 -20 122t74 93 l166 88q82 43 81 196t-117 294q-114 131 -244 131q-84 0 -84 -84t68 -84z"/>
            <glyph glyph-name="IJ" unicode="IJ" horiz-adv-x="1452" d="M784 -419q-68 0 -125 37q-57 36 -57 106t65 102q33 17 76 17q74 0 128 -58q25 -27 38 -62q33 24 56 82q26 88 26 448v901q0 116 -171 116q-14 0 -14 46t14 47q48 -5 294 -5t294 5q14 -1 14 -47t-14 -46q-172 0 -172 -116v-525q0 -107 -10 -434q-2 -227 -82 -361 t-206 -205q-86 -48 -154 -48zM481 202q0 -116 159 -116q14 0 14 -46t-14 -47q-133 7 -286 7t-279 -7q-15 1 -15 47t15 46q162 0 162 116v952q0 116 -161 116q-14 0 -14 46t14 47q48 -5 284 -5t284 5q14 -1 14 -47t-14 -46q-163 0 -163 -116v-952z"/>
            <glyph glyph-name="ij" unicode="ij" horiz-adv-x="1024" d="M891 682v-543q0 -186 -11 -268q-24 -175 -104 -283q-106 -144 -296 -143q-48 0 -98 39t-51 93q0 54 51 84q26 15 66 15t78 -62t74 -63q46 1 56 91q5 43 5 129v786q0 125 -92 125q-15 0 -15 37t15 37q51 0 151 50t118 63q17 14 32 14q28 0 29 -27q-8 -92 -8 -174z M897 1187q0 -71 -59 -112q-39 -27 -100 -27q-60 0 -96 46t-36 104q0 56 48 92t109 36t97 -48t37 -91zM401 1185q0 -71 -59 -111q-38 -26 -100 -26t-103 58q-26 36 -26 92q-1 56 47 91t111 35t97 -49t33 -90zM278 0q-134 0 -219 -8q-15 0 -15 38t15 38q105 0 105 75v414 q0 125 -92 125q-16 0 -16 37t16 37q50 0 150 50t116 63q16 14 35 14q28 0 26 -27q-6 -88 -6 -174v-539q0 -75 103 -75q15 0 15 -38t-15 -38q-84 8 -218 8z"/>
            <glyph glyph-name="uni01C4" unicode="DŽ" horiz-adv-x="2884" d="M1933 1759q-1 7 9 23t19 16q2 0 3 -1l268 -124q20 -9 38 -9t36 9l266 124l3 1q11 -4 21 -19t10 -21t-3 -11l-283 -250q-26 -23 -51 -23t-49 23l-283 250q-4 4 -4 12zM2851 1326q0 -24 -25 -58l-833 -1144q-7 -10 -7 -17q0 -21 33 -21q411 0 593 13q53 4 138 150 q40 69 51 106q1 7 27 7t40 -12t13 -20q-44 -172 -44 -311q0 -48 -16 -48q-25 -1 -117 14t-543 15h-448q-70 0 -70 49q0 26 17 48l871 1139q10 13 10 21q0 17 -40 17h-513q-44 0 -71 -27q-39 -31 -83 -139t-47 -134q-1 -12 -21 -12q-59 -1 -62 26q31 235 31 332q0 48 41 48 l121 -16h507l382 6q65 1 65 -32zM481 273q0 -150 87 -186q39 -16 130 -16q218 0 368 170t149 475q-1 214 -153 389t-426 175h-79q-76 0 -76 -79v-928zM60 40q0 46 15 46q162 0 162 116v954q0 109 -172 109q-14 1 -14 47t14 46q143 -6 239 -6l414 6q330 0 550 -169t219 -463 q0 -338 -199 -536t-522 -197l-456 7q-103 0 -235 -7q-15 1 -15 47z"/>
            <glyph glyph-name="uni01C5" unicode="Dž" horiz-adv-x="2337" d="M1960 1020q-32 0 -49 31l-229 412q-2 3 -2 13t19 20q19 11 25 11t11 -5l182 -213q33 -39 43 -39t43 39l182 213q5 5 12 5q7 -1 25 -13t19 -20q0 -8 -2 -11l-230 -412q-17 -31 -49 -31zM2306 16q0 -41 -39 -41q-11 1 -79 13t-109 12h-443q-41 0 -41 37q0 13 9 31l356 659 q9 17 9 27q0 20 -29 20h-111q-63 0 -124 -128l-46 -103q-5 -9 -21 -9t-31 10t-15 25q29 252 30 256q7 43 31 45q158 -20 211 -20h348q46 0 46 -33q0 -18 -8 -32l-359 -666q-4 -7 -4 -15q0 -24 28 -24h109q132 0 225 205q5 11 21 11q64 0 63 -32l-24 -188q-3 -34 -3 -60z M481 273q0 -150 87 -186q39 -16 130 -16q218 0 368 170t149 475q-1 214 -153 389t-426 175h-79q-76 0 -76 -79v-928zM60 40q0 46 15 46q162 0 162 116v954q0 109 -172 109q-14 1 -14 47t14 46q143 -6 239 -6l414 6q330 0 550 -169t219 -463q0 -338 -199 -536t-522 -197 l-456 7q-103 0 -235 -7q-15 1 -15 47z"/>
            <glyph glyph-name="uni01C6" unicode="dž" horiz-adv-x="1806" d="M1429 1020q-32 0 -49 31l-229 412q-2 3 -2 13t19 20q20 11 26 11t10 -5l182 -213q33 -39 43 -39t43 39l182 213q5 5 12 5q8 -1 26 -13t18 -20t-2 -11l-230 -412q-17 -31 -49 -31zM1775 16q0 -41 -39 -41q-12 1 -80 13t-108 12h-443q-41 0 -41 37q0 13 9 31l356 659 q9 17 9 27q0 20 -29 20h-111q-63 0 -124 -128l-46 -103q-4 -9 -20 -9t-32 10q-15 10 -15 25q29 252 30 256q7 43 31 45q158 -20 211 -20h348q46 0 46 -33q0 -18 -8 -32l-359 -666q-4 -7 -4 -15q0 -24 28 -24h109q132 0 225 205q4 11 20 11q64 0 64 -32l-24 -188 q-3 -34 -3 -60zM674 141v553q0 44 -4 53t-17 17q-47 29 -112 29q-134 0 -196 -144q-38 -88 -38 -205q0 -193 79 -302q58 -81 144 -81t130 52q14 17 14 28zM723 -35q-10 0 -10 45v29q1 22 -11 22t-28 -14q-94 -70 -195 -70q-244 0 -355 174q-71 111 -71 277t122 292 q147 150 392 150q49 0 78 -4t29 23v272q0 125 -92 125q-16 0 -16 37t16 37q50 0 150 50t116 63q16 14 31 14q30 0 30 -33q-6 -70 -6 -168v-1030q0 -90 10 -117q14 -40 53 -40q13 0 33 5q16 4 27 -31q8 -37 -4 -42q-29 -12 -156 -35q-102 -26 -131 -31h-12z"/>
            <glyph glyph-name="uni01C7" unicode="LJ" horiz-adv-x="2077" d="M1409 -419q-68 0 -125 37q-57 36 -57 106t65 102q33 17 76 17q74 0 128 -58q25 -27 38 -62q33 24 56 82q26 88 26 448v901q0 116 -171 116q-14 0 -14 46t14 47q48 -5 294 -5t294 5q14 -1 14 -47t-14 -46q-172 0 -172 -116v-525q0 -107 -10 -434q-1 -227 -81 -361 t-207 -205q-86 -48 -154 -48zM60 40q0 46 15 46q162 0 162 126v942q0 116 -172 116q-14 0 -14 46t14 47q47 -5 285 -5t286 5q14 -1 14 -47t-14 -46q-155 0 -155 -116v-904q0 -110 67 -153q34 -19 75 -19l332 13q75 3 142 82q82 105 82 219q1 18 51 18t50 -18v-335 q0 -42 -15 -52q-9 -12 -102 -12l-808 7q-72 0 -280 -7q-15 1 -15 47z"/>
            <glyph glyph-name="uni01C8" unicode="Lj" horiz-adv-x="1858" d="M1726 682v-543q0 -186 -11 -268q-24 -175 -104 -283q-107 -144 -297 -143q-48 0 -98 39t-50 93t51 84q26 15 66 15t78 -62t74 -63q46 1 56 91q5 43 5 129v786q0 125 -92 125q-15 0 -15 37t15 37q52 0 152 50t117 63q17 14 32 14q28 0 29 -27q-8 -92 -8 -174zM1732 1187 q0 -71 -59 -112q-39 -27 -100 -27t-97 46t-35 104q0 56 48 92t109 36q62 0 98 -48t36 -91zM60 40q0 46 15 46q162 0 162 126v942q0 116 -172 116q-14 0 -14 46t14 47q47 -5 285 -5t286 5q14 -1 14 -47t-14 -46q-155 0 -155 -116v-904q0 -110 67 -153q34 -19 75 -19l332 13 q75 3 142 82q82 105 82 219q1 18 51 18t50 -18v-335q0 -42 -15 -52q-9 -12 -102 -12l-808 7q-72 0 -280 -7q-15 1 -15 47z"/>
            <glyph glyph-name="uni01C9" unicode="lj" horiz-adv-x="1023" d="M891 682v-543q0 -186 -11 -268q-24 -175 -104 -283q-106 -144 -296 -143q-48 0 -98 39t-51 93q0 54 51 84q26 15 66 15t78 -62t74 -63q46 1 56 91q5 43 5 129v786q0 125 -92 125q-15 0 -15 37t15 37q51 0 151 50t118 63q17 14 32 14q28 0 29 -27q-8 -92 -8 -174z M897 1187q0 -71 -59 -112q-39 -27 -100 -27q-60 0 -96 46t-36 104q0 56 48 92t109 36t97 -48t37 -91zM278 0q-134 0 -219 -8q-15 0 -15 38t15 38q105 0 105 67v1026q0 125 -92 125q-16 0 -16 37t16 37q50 0 150 50t116 63q16 14 31 14q30 0 30 -33q-6 -75 -6 -168v-1143 q0 -75 103 -75q15 0 15 -38t-15 -38q-84 8 -218 8z"/>
            <glyph glyph-name="uni01CA" unicode="NJ" horiz-adv-x="2200" d="M1532 -419q-68 0 -125 37q-57 36 -57 106t65 102q33 17 76 17q74 0 128 -58q25 -27 38 -62q33 24 56 82q26 88 26 448v901q0 116 -171 116q-14 0 -14 46t14 47q48 -5 294 -5t294 5q14 -1 14 -47t-14 -46q-172 0 -172 -116v-525q0 -107 -10 -434q-2 -227 -82 -361 t-206 -205q-86 -48 -154 -48zM1288 76q0 -97 -28 -97t-77 57l-822 978q-13 16 -23 16t-10 -22v-806q0 -116 151 -116q15 0 15 -47t-15 -46q-92 7 -197 7t-217 -7q-14 -3 -14 45t14 48q159 0 159 116v954q0 114 -173 114q-13 0 -13 46t13 47q49 -5 155 -5t120 -2 q59 -9 100 -57l711 -867q10 -14 24 -14q24 0 24 31v703q0 118 -153 118q-15 0 -15 46t15 47q102 -5 200 -5t191 5q14 -1 14 -47t-14 -46q-135 0 -135 -118v-1076z"/>
            <glyph glyph-name="uni01CB" unicode="Nj" horiz-adv-x="1981" d="M1849 682v-543q0 -186 -11 -268q-24 -175 -104 -283q-106 -144 -296 -143q-48 0 -98 39t-51 93q0 54 51 84q26 15 66 15t78 -62t74 -63q46 1 56 91q5 43 5 129v786q0 125 -92 125q-15 0 -15 37t15 37q51 0 151 50t118 63q17 14 32 14q28 0 29 -27q-8 -92 -8 -174z M1855 1187q0 -71 -59 -112q-39 -27 -100 -27q-60 0 -96 46t-36 104q0 56 48 92t109 36t97 -48t37 -91zM1288 76q0 -97 -28 -97t-77 57l-822 978q-13 16 -23 16t-10 -22v-806q0 -116 151 -116q15 0 15 -47t-15 -46q-92 7 -197 7t-217 -7q-14 -3 -14 45t14 48q159 0 159 116 v954q0 114 -173 114q-13 0 -13 46t13 47q49 -5 155 -5t120 -2q59 -9 100 -57l711 -867q10 -14 24 -14q24 0 24 31v703q0 118 -153 118q-15 0 -15 46t15 47q102 -5 200 -5t191 5q14 -1 14 -47t-14 -46q-135 0 -135 -118v-1076z"/>
            <glyph glyph-name="uni01CC" unicode="nj" horiz-adv-x="1586" d="M1454 682v-543q0 -186 -11 -268q-24 -175 -104 -283q-107 -144 -297 -143q-48 0 -98 39t-50 93t51 84q26 15 66 15t78 -62t74 -63q46 1 56 91q5 43 5 129v786q0 125 -92 125q-15 0 -15 37t15 37q52 0 152 50t117 63q17 14 32 14q28 0 29 -27q-8 -92 -8 -174zM1460 1187 q0 -71 -59 -112q-39 -27 -100 -27t-97 46t-35 104q0 56 48 92t109 36q62 0 98 -48t36 -91zM858 0q-104 0 -225 -8q-15 0 -15 38t15 38q101 0 101 62v407q0 149 -59 200q-29 25 -93 25t-127 -54q-62 -54 -62 -116v-449q0 -75 99 -75q15 0 15 -38t-15 -38q-84 8 -218 8 t-217 -8q-15 0 -15 38t15 38q107 0 107 75v406q0 133 -92 133q-16 0 -16 37t16 37q50 0 150 50t116 63q16 14 31 14q29 0 30 -27l-6 -68q0 -19 9 -19t18 9q42 55 138 81q41 11 95 11q189 0 274 -185q36 -73 36 -220v-329q0 -68 106 -68q16 0 16 -38t-16 -38q-107 8 -211 8z "/>
            <glyph glyph-name="uni01F1" unicode="DZ" horiz-adv-x="2884" d="M2851 1326q0 -24 -25 -58l-833 -1144q-7 -10 -7 -17q0 -21 33 -21q411 0 593 13q53 4 138 150q40 69 51 106q1 7 27 7t40 -12t13 -20q-44 -172 -44 -311q0 -48 -16 -48q-25 -1 -117 14t-543 15h-448q-70 0 -70 49q0 26 17 48l871 1139q10 13 10 21q0 17 -40 17h-513 q-44 0 -71 -27q-39 -31 -83 -139t-47 -134q-1 -12 -21 -12q-59 -1 -62 26q31 235 31 332q0 48 41 48l121 -16h507l382 6q65 1 65 -32zM481 273q0 -150 87 -186q39 -16 130 -16q218 0 368 170t149 475q-1 214 -153 389t-426 175h-79q-76 0 -76 -79v-928zM60 40q0 46 15 46 q162 0 162 116v954q0 109 -172 109q-14 1 -14 47t14 46q143 -6 239 -6l414 6q330 0 550 -169t219 -463q0 -338 -199 -536t-522 -197l-456 7q-103 0 -235 -7q-15 1 -15 47z"/>
            <glyph glyph-name="uni01F2" unicode="Dz" horiz-adv-x="2337" d="M2306 16q0 -41 -39 -41q-11 1 -79 13t-109 12h-443q-41 0 -41 37q0 13 9 31l356 659q9 17 9 27q0 20 -29 20h-111q-63 0 -124 -128l-46 -103q-5 -9 -21 -9t-31 10t-15 25q29 252 30 256q7 43 31 45q158 -20 211 -20h348q46 0 46 -33q0 -18 -8 -32l-359 -666q-4 -7 -4 -15 q0 -24 28 -24h109q132 0 225 205q5 11 21 11q64 0 63 -32l-24 -188q-3 -34 -3 -60zM481 273q0 -150 87 -186q39 -16 130 -16q218 0 368 170t149 475q-1 214 -153 389t-426 175h-79q-76 0 -76 -79v-928zM60 40q0 46 15 46q162 0 162 116v954q0 109 -172 109q-14 1 -14 47 t14 46q143 -6 239 -6l414 6q330 0 550 -169t219 -463q0 -338 -199 -536t-522 -197l-456 7q-103 0 -235 -7q-15 1 -15 47z"/>
            <glyph glyph-name="uni01F3" unicode="dz" horiz-adv-x="1806" d="M1775 16q0 -41 -39 -41q-12 1 -80 13t-108 12h-443q-41 0 -41 37q0 13 9 31l356 659q9 17 9 27q0 20 -29 20h-111q-63 0 -124 -128l-46 -103q-4 -9 -20 -9t-32 10q-15 10 -15 25q29 252 30 256q7 43 31 45q158 -20 211 -20h348q46 0 46 -33q0 -18 -8 -32l-359 -666 q-4 -7 -4 -15q0 -24 28 -24h109q132 0 225 205q4 11 20 11q64 0 64 -32l-24 -188q-3 -34 -3 -60zM674 141v553q0 44 -4 53t-17 17q-47 29 -112 29q-134 0 -196 -144q-38 -88 -38 -205q0 -193 79 -302q58 -81 144 -81t130 52q14 17 14 28zM723 -35q-10 0 -10 45v29 q1 22 -11 22t-28 -14q-94 -70 -195 -70q-244 0 -355 174q-71 111 -71 277t122 292q147 150 392 150q49 0 78 -4t29 23v272q0 125 -92 125q-16 0 -16 37t16 37q50 0 150 50t116 63q16 14 31 14q30 0 30 -33q-6 -70 -6 -168v-1030q0 -90 10 -117q14 -40 53 -40q13 0 33 5 q16 4 27 -31q8 -37 -4 -42q-29 -12 -156 -35q-102 -26 -131 -31h-12z"/>
            <glyph glyph-name="ellipsis" unicode="..." horiz-adv-x="2048" d="M1018 -25q-58 -1 -104 43t-46 107t42 109t117 45q75 1 115 -49t40 -121t-68 -112q-37 -22 -96 -22zM336 -25q-58 -1 -104 43t-46 107t42 109t117 45q75 1 115 -49t40 -121t-68 -112q-37 -22 -96 -22zM1702 -25q-58 -1 -104 43t-46 107t42 109t117 45q75 1 115 -49 t40 -121t-68 -112q-37 -22 -96 -22z"/>
            <glyph glyph-name="uniE1A6" unicode="ſb" horiz-adv-x="1610" d="M918 297q0 -109 61 -174.5t146 -65.5q162 0 162 371q0 154 -62.5 248t-162.5 94q-72 0 -108 -37t-36 -86v-350zM164 143v527q0 35 -31 35h-61q-15 0 -15 36.5t15 36.5q92 0 92 113q0 281 153 438.5t357 157.5q123 0 183.5 -58t60.5 -143v-446q0 -28 16 -28q9 0 19 7 q73 51 168 51q176 0 298 -122t122 -318t-111.5 -324.5t-332.5 -128.5q-58 0 -122 27t-112 27q-12 0 -55 -34l-19 -15q-4 -3 -24 -3q-19 1 -51 25t-31 31q6 38 6 244v882q0 130 -30 171.5t-101 41.5t-118 -87t-47 -284v-860q0 -75 96 -75q16 0 16 -38t-16 -38q-81 8 -216.5 8 t-217.5 -8q-15 0 -15 38t15 38q109 0 109 75z"/>
            <glyph glyph-name="uniE1A7" unicode="ſh" horiz-adv-x="1619" d="M1487 143q0 -77 119 -75q15 0 15 -38t-15 -38q-95 8 -223 8t-228 -8q-15 0 -15 38t15 38q102 0 102 75v412q0 86 -49.5 146.5t-113.5 60.5t-120 -34.5t-56 -100.5v-484q0 -76 102 -75q15 0 15 -38t-15 -38q-95 8 -209.5 8t-214.5 -8q-15 0 -15 38t15 38q92 0 92 75v1018 q0 134 -32 173.5t-100 39.5t-115.5 -87t-47.5 -284v-860q0 -75 96 -75q16 0 16 -38t-16 -38q-81 8 -216.5 8t-217.5 -8q-15 0 -15 38t15 38q109 0 109 75v527q0 35 -31 35h-61q-15 0 -15 36.5t15 36.5q92 0 92 113q0 281 153 438.5t357 157.5q125 0 184.5 -54.5t59.5 -146.5 v-465q0 -37 32 -12q80 61 198 61t190 -44t110.5 -120.5t38.5 -148.5v-414z"/>
            <glyph glyph-name="uniE1A8" unicode="ſi" horiz-adv-x="1089" d="M729 143v414q0 125 -92 125q-16 0 -16 37t16 37q50 0 150 50q101 50 117 63q16 14 34 14q28 0 26 -27q-6 -84 -6 -174v-539q0 -75 103 -75q15 0 15 -38t-15 -38q-85 8 -219 8t-218 -8q-15 0 -15 38t15 38q105 0 105 75zM164 143v527q0 35 -31 35h-61q-16 0 -16 36.5 t16 36.5q48 0 70 35.5t22 77.5q0 285 154 440.5t356 155.5q146 0 205 -41.5t59 -97.5t-40 -90.5t-74 -34.5q-76 0 -130.5 75.5t-116.5 75.5q-91 0 -137.5 -89t-46.5 -237v-905q0 -75 133 -75q16 0 16 -38t-16 -38q-80 8 -233.5 8t-237.5 -8q-15 0 -15 38t15 38q109 0 109 75 z"/>
            <glyph glyph-name="uniE1A9" unicode="ſk" horiz-adv-x="1599" d="M164 143v527q0 35 -31 35h-61q-15 0 -15 36.5t15 36.5q92 0 92 113q0 281 153 438.5t357 157.5q121 0 182.5 -53.5t61.5 -147.5v-758q0 -36 20 -36q45 0 80 38l156 170q76 84 -54 84q-16 0 -15.5 36t15.5 36q62 -6 211.5 -6t210.5 6q15 0 15 -36t-15 -36q-105 0 -182 -71 l-209 -189q-23 -20 0 -45l330 -358q49 -53 125 -53q15 0 15 -38t-15 -38q-82 8 -232.5 8t-232.5 -8q-15 0 -15 38t15 38q114 0 53 70l-201 231q-26 30 -63 30q-12 0 -12 -34v-222q0 -75 110 -75q15 0 15 -38t-15 -38q-82 8 -218 8t-218 -8q-15 0 -15 38t15 38q96 0 96 75 v1018q0 146 -34 179.5t-100 33.5t-113.5 -87t-47.5 -284v-860q0 -75 96 -75q16 0 16 -38t-16 -38q-81 8 -216.5 8t-217.5 -8q-15 0 -15 38t15 38q109 0 109 75z"/>
            <glyph glyph-name="uniE1AA" unicode="ſl" horiz-adv-x="1050" d="M164 143v527q0 35 -31 35h-61q-15 0 -15 36.5t15 36.5q92 0 92 113q0 281 153.5 438.5t356.5 157.5q114 0 179 -55.5t65 -145.5v-1143q0 -75 102 -75q15 0 15 -38t-15 -38q-82 8 -208 8t-208 -8q-15 0 -15 38t15 38q84 -1 84 75v1018q0 213 -129 213q-69 0 -117.5 -86.5 t-48.5 -284.5v-860q0 -75 96 -75q16 0 16 -38t-16 -38q-81 8 -216.5 8t-217.5 -8q-15 0 -15 38t15 38q109 0 109 75z"/>
            <glyph glyph-name="uniE1AB" unicode="ſſ" horiz-adv-x="1087" d="M164 143v527q0 35 -31 35h-61q-15 0 -15 36.5t15 36.5q48 0 70 33t22 80q0 281 149.5 432.5t324.5 151.5t253 -99q135 111 290 111t197.5 -51.5t42.5 -97.5t-39 -80.5t-73 -34.5q-88 0 -123 51l-54 78q-15 22 -49 22q-70 0 -118 -91t-48 -293v-847q0 -75 136 -75 q15 0 15 -38t-15 -38q-82 8 -223.5 8t-223.5 -8q-15 0 -15 38t15 38q82 0 82 75v527q0 35 -29 35h-61q-15 0 -15 36.5t15 36.5q44 0 67 31.5t23 81.5q0 196 76 332q-69 99 -108 125t-103 26t-112 -89.5t-48 -281.5v-860q0 -75 101 -75q15 0 15 -38t-15 -38q-82 8 -219.5 8 t-219.5 -8q-15 0 -15 38t15 38q109 0 109 75z"/>
            <glyph glyph-name="uniE1AC" unicode="ſſi" horiz-adv-x="1610" d="M1250 143v414q0 125 -92 125q-16 0 -16 37t16 37q50 0 150 50t116 63q16 14 35 14q28 0 26 -27q-6 -84 -6 -174v-539q0 -75 103 -75q15 0 15 -38t-15 -38q-84 8 -218.5 8t-218.5 -8q-15 0 -15 38t15 38q105 0 105 75zM1199 1487q261 -1 261 -149q0 -46 -39 -80.5 t-73 -34.5q-66 0 -109 51l-56 66q-29 34 -83 34q-90 0 -136.5 -88t-46.5 -231v-912q0 -75 136 -75q15 0 15 -38t-15 -38q-82 8 -223.5 8t-223.5 -8q-15 0 -15 38t15 38q82 0 82 75v527q0 35 -29 35h-61q-15 0 -15 36.5t15 36.5q44 0 67 31.5t23 81.5q0 196 76 332 q-69 99 -108 125t-103 26t-112 -89.5t-48 -281.5v-860q0 -75 101 -75q15 0 15 -38t-15 -38q-82 8 -219.5 8t-219.5 -8q-15 0 -15 38t15 38q109 0 109 75v527q0 35 -31 35h-61q-15 0 -15 36.5t15 36.5q48 0 70 33t22 80q0 281 149.5 432.5t324.5 151.5t253 -99 q135 111 308 111z"/>
            <glyph glyph-name="uniE1AD" unicode="ſſl" horiz-adv-x="1573" d="M164 143v527q0 35 -31 35h-61q-15 0 -15 36.5t15 36.5q48 0 70 33t22 80q0 281 149.5 432.5t324.5 151.5t253 -99q137 111 306 111q117 0 180.5 -56.5t63.5 -144.5v-1143q0 -75 102 -75q15 0 15 -38t-15 -38q-95 8 -205 8t-211 -8q-15 0 -15 38t15 38q84 0 84 75v1018 q0 213 -129 213q-70 0 -118 -89.5t-48 -281.5v-860q0 -75 97 -75q15 0 15 -38t-15 -38q-95 8 -214.5 8t-220.5 -8q-15 0 -15 38t15 38q109 0 109 75v527q0 35 -31 35h-61q-15 0 -15 36.5t15 36.5q92 0 92 113q0 202 75 335q-68 96 -106.5 122t-102.5 26t-112 -89.5 t-48 -281.5v-860q0 -75 101 -75q15 0 15 -38t-15 -38q-82 8 -219.5 8t-219.5 -8q-15 0 -15 38t15 38q109 0 109 75z"/>
            <glyph glyph-name="uniFB00" unicode="ff" horiz-adv-x="1156" d="M602 1356q-113 0 -161 -90t-48 -289v-96q0 -31 31 -31h281q32 0 32 82q0 144 62 258q-57 166 -197 166zM674 1466q171 0 241 -112q156 133 332 133q112 0 167.5 -43t55.5 -96t-37.5 -89t-74.5 -36q-89 0 -123 51l-49 74q-17 26 -53 26q-74 0 -120 -88.5t-46 -282.5v-122 q0 -31 30 -31h170q15 0 15 -52.5t-15 -52.5h-170q-30 0 -30 -30v-572q0 -75 133 -75q15 0 15 -38t-15 -38q-82 8 -236 8t-235 -8q-15 0 -15 38t15 38q108 0 108 75v568q0 34 -30 34h-283q-31 0 -31 -30v-572q0 -75 133 -75q15 0 15 -38t-15 -38q-82 8 -236 8t-235 -8 q-15 0 -15 38t15 38q109 0 109 75v568q0 34 -31 34h-61q-15 0 -15 37t15 37q92 0 92 113q0 140 76.5 271t193.5 197t240 66z"/>
            <glyph glyph-name="uniFB01" unicode="fi" horiz-adv-x="1088" d="M165 143v568q0 34 -30 34h-63q-16 0 -16 37t16 37q46 0 69 34t23 79q0 146 65.5 274t184 204.5t282.5 76.5q112 0 177 -43t65 -96t-38 -89t-74 -36q-77 0 -131 75.5t-104 75.5q-103 0 -149.5 -88.5t-46.5 -282.5v-122q0 -31 30 -31h258q138 0 192.5 16.5t61.5 16.5 q29 0 29 -31q-8 -91 -8 -178v-531q0 -75 102 -75q15 0 15 -38t-15 -38q-82 8 -218 8t-218 -8q-15 0 -15 38t15 38q104 0 104 75v535q0 67 -55 67h-248q-30 0 -30 -30v-572q0 -75 133 -75q15 0 15 -38t-15 -38q-82 8 -236 8t-235 -8q-15 0 -15 38t15 38q108 0 108 75z"/>
            <glyph glyph-name="uniFB02" unicode="fl" horiz-adv-x="1089" d="M164 136v573q0 36 -37 36h-55q-16 0 -16 37t16 37q44 0 68 32t24 81q0 146 64 271.5t183 204.5t245 79t190 -47q35 17 54.5 32t33.5 15q31 0 31 -33q-7 -112 -7 -168v-1143q0 -75 103 -75q15 0 15 -38t-15 -38q-113 8 -227 8t-209 -8q-16 -1 -16 37.5t16 38.5 q104 0 104 75v566q0 36 -37 36h-262q-37 0 -37 -36v-573q0 -68 133 -68q16 0 16 -38.5t-16 -37.5q-96 8 -234 8t-237 -8q-15 -1 -15 37.5t15 38.5q109 0 109 68zM393 887q0 -37 37 -37h266q33 0 33 35v276q0 112 -46.5 162.5t-118.5 50.5t-121.5 -84.5t-49.5 -241.5v-161z "/>
            <glyph glyph-name="uniFB03" unicode="ffi" horiz-adv-x="1661" d="M393 881q0 -31 31 -31h281q32 0 32 82q0 144 62 258q-57 166 -197 166q-113 0 -161 -90t-48 -289v-96zM674 1466q171 0 241 -112q150 133 353 133q112 0 177 -43t65 -96t-38 -89.5t-74 -35.5q-77 0 -131 75.5t-104 75.5q-103 0 -149.5 -88.5t-46.5 -282.5v-122 q0 -31 30 -31h258q138 0 192.5 16.5t61.5 16.5q29 0 29 -31q-8 -91 -8 -178v-531q0 -75 102 -75q15 0 15 -38t-15 -38q-82 8 -218 8t-218 -8q-15 0 -15 38t15 38q104 0 104 75v535q0 67 -55 67h-248q-30 0 -30 -30v-572q0 -75 133 -75q15 0 15 -38t-15 -38q-82 8 -236 8 t-235 -8q-15 0 -15 38t15 38q108 0 108 75v568q0 34 -30 34h-283q-31 0 -31 -30v-572q0 -75 133 -75q15 0 15 -38t-15 -38q-82 8 -236 8t-235 -8q-15 0 -15 38t15 38q109 0 109 75v568q0 34 -31 34h-61q-15 0 -15 37t15 37q92 0 92 113q0 140 76.5 271t193.5 197t240 66z "/>
            <glyph glyph-name="uniFB04" unicode="ffl" horiz-adv-x="1661" d="M967 881q0 -31 30 -31h269q35 0 34 33v278q0 213 -167 213q-74 0 -120 -88.5t-46 -282.5v-122zM393 881q0 -31 31 -31h281q32 0 32 82q0 144 62 258q-57 166 -197 166q-113 0 -161 -90t-48 -289v-96zM674 1466q171 0 241 -112q156 133 332 133q106 0 172 -47 q41 22 57 34.5t29 12.5q31 0 31 -33q-6 -87 -6 -168v-1143q0 -77 102 -75q15 0 15 -38t-15 -38q-96 8 -216 8t-220 -8q-15 0 -15 38t15 38q104 0 104 75v570q0 32 -36 32h-267q-30 0 -30 -30v-572q0 -75 133 -75q15 0 15 -38t-15 -38q-82 8 -236 8t-235 -8q-15 0 -15 38 t15 38q108 0 108 75v568q0 34 -30 34h-283q-31 0 -31 -30v-572q0 -75 133 -75q15 0 15 -38t-15 -38q-82 8 -236 8t-235 -8q-15 0 -15 38t15 38q109 0 109 75v568q0 34 -31 34h-61q-15 0 -15 37t15 37q92 0 92 113q0 140 76.5 271t193.5 197t240 66z"/>
            <glyph glyph-name="f_eth" unicode="fð" horiz-adv-x="1658" d="M164 136v573q0 36 -37 36h-55q-16 0 -16 37t16 37q48 0 70 34t22 79q0 126 61.5 266.5t156 214.5t208.5 74q72 0 127 -33.5t55 -79.5t-27 -78t-81 -32t-82 55t-64 55q-51 0 -88 -88t-37 -238v-161q0 -37 37 -37h143q15 0 15 -52.5t-15 -52.5h-143q-37 0 -37 -36v-573 q0 -68 133 -68q16 0 16 -38t-16 -38q-80 8 -233.5 8t-237.5 -8q-15 0 -15 38t15 38q109 0 109 68zM649 449q0 150 105 267q137 154 361 154q-76 76 -200 156q-17 11 -31 11t-33 -15l-184 -145q-14 -11 -60.5 63t-47.5 87q0 8 8 4q64 -33 90.5 -33t41.5 12l72 57q18 14 18 21 q0 13 -85 55q-18 9 6 58.5t42 41.5q66 -30 100 -48t47.5 -18t37.5 19l295 229q12 10 63 -53.5t60 -78.5q1 -11 -6 -9l-117 25q-15 3 -31 -9l-186 -147q-18 -14 -18 -24t22 -23q334 -196 448.5 -361t114.5 -294q0 -221 -124 -347.5t-332 -126.5t-342.5 127t-134.5 345z M1132.5 61q87.5 0 141.5 114t54 273t-64.5 252t-140 93t-148.5 -95t-73 -264.5t81 -283.5q62 -89 149.5 -89z"/>
            <glyph glyph-name="f_thorn" unicode="fþ" horiz-adv-x="1638" d="M1315 457q0 321 -178 321q-105 0 -166 -90q-12 -24 -12 -63v-525q0 -19 19 -19q4 0 9 1q132 16 211 112q117 143 117 263zM584 745h-154q-37 0 -37 -36v-573q0 -68 133 -68q16 0 16 -38.5t-16 -37.5q-96 8 -234 8t-237 -8q-15 -1 -15 37.5t15 38.5q109 0 109 68v573 q0 36 -37 36h-55q-16 0 -16 37t16 37q44 0 68 32t24 81q0 146 64 271.5t183 204.5t245 79t190 -47q35 17 54.5 32t33.5 15q31 0 31 -33q-6 -110 -6 -168v-461q0 -29 14 -23q15 6 18 9q65 59 207 59t246 -78q125 -94 125 -284q0 -264 -241 -416q-101 -63 -345 -104 q-24 -4 -24 -33v-348q0 -80 -82 -107l-174 -57q-29 -10 -51 33t1 59l62 43q14 10 14 31v1552q-1 101 -43 157t-118 56t-125.5 -84.5t-49.5 -241.5v-161q0 -37 37 -37h154q16 0 16 -52.5t-16 -52.5z"/>
            <glyph glyph-name="f_j" unicode="fj" horiz-adv-x="1089" d="M958 139q0 -186 -11 -268q-24 -175 -117.5 -300.5t-284.5 -125.5q-49 0 -98 39t-49 93t51 84q26 15 66 15t78 -62t74 -63q48 1 56 91q5 53 5 129v907q0 67 -56 67h-248q-31 0 -31 -30v-572q0 -75 133 -75q15 0 15 -38t-15 -38q-79 8 -229.5 8t-241.5 -8q-15 0 -15 38 t15 38q109 0 109 75v568q0 34 -31 34h-61q-16 0 -16 37t16 37q48 0 70 34t22 79q0 146 65 273t184 204.5t259 77.5t203 -45t63 -94t-35.5 -85.5t-77.5 -39.5q-72 0 -112 51l-45 57q-34 43 -103 43t-120.5 -79t-51.5 -248v-166q0 -31 31 -31h258q150 0 237 29q12 4 17 4 q29 0 29 -41q-7 -94 -7 -164v-539z"/>
            <glyph glyph-name="f_f_udieresis" unicode="ffü" horiz-adv-x="2184" d="M602 1356q-113 0 -161 -90t-48 -289v-96q0 -31 31 -31h281q32 0 32 103t60 242q-57 161 -195 161zM1512 649v-342q0 -123 50 -182q28 -33 95 -33t128 50t61 98v415q0 103 -84 103q-16 0 -16 36.5t16 36.5q110 -1 182 11t86 12q55 0 53 -36q-8 -131 -8 -156v-406 q0 -90 10 -117q14 -40 53 -40q13 0 33 5q19 5 27 -32q3 -14 3 -26q1 -12 -7 -15q-8 -2 -102 -20t-137 -32q-44 -14 -57 -14t-13 45v47q0 23 -12 23t-27 -14q-96 -89 -234 -89t-182 35q-147 118 -147 297v333q0 103 -84 103h-202q-30 0 -30 -30v-572q0 -75 133 -75 q15 0 15 -38t-15 -38q-82 8 -236 8t-235 -8q-15 0 -15 38t15 38q108 0 108 75v568q0 34 -30 34h-283q-31 0 -31 -30v-572q0 -75 133 -75q15 0 15 -38t-15 -38q-82 8 -236 8t-235 -8q-15 0 -15 38t15 38q109 0 109 75v568q0 34 -31 34h-61q-15 0 -15 37t15 37q92 0 92 113 q0 140 76.5 271t194 197t257.5 66t212 -96q1 -1 2 -3q106 120 257 120q76 0 136 -42.5t60 -92.5t-26.5 -81.5t-84.5 -31.5t-86.5 67.5t-70.5 67.5q-51 0 -87.5 -88t-36.5 -238v-167q0 -31 30 -31h170l305 4q49 0 47 -44q-7 -142 -7 -161zM1620 1179q0 -79 -60 -114 q-29 -17 -65 -17q-86 0 -116 63q-12 25 -13 58q0 74 57 111q32 20 72 20q68 0 104 -54q21 -32 21 -67zM1970 1179q0 -79 -60 -114q-29 -17 -65 -17q-84 0 -116 63q-12 25 -13 58q0 74 57 111q32 20 72 20q67 0 104 -54q21 -31 21 -67z"/>
            <glyph glyph-name="f_udieresis" unicode="fü" horiz-adv-x="1611" d="M939 649v-342q0 -123 50 -182q28 -33 95 -33t128 50t61 98v415q0 103 -84 103q-16 0 -16 36.5t16 36.5q111 -1 183 11t85 12q55 0 53 -36q-8 -131 -8 -156v-406q0 -90 10 -117q14 -40 53 -40q13 0 33 5q19 5 27 -32q3 -14 3 -26t-8 -15q-8 -2 -101 -20q-94 -18 -137 -32 q-44 -14 -57 -14t-13 45v47q0 23 -12 23t-27 -14q-95 -89 -233 -89t-183 35q-147 118 -147 297v333q0 103 -84 103h-196q-37 0 -37 -36v-573q0 -68 133 -68q16 0 16 -38t-16 -38q-80 8 -233.5 8t-237.5 -8q-15 0 -15 38t15 38q109 0 109 68v573q0 36 -37 36h-55 q-16 0 -16 37t16 37q48 0 70 34t22 79q0 126 61.5 266.5t156 214.5t189.5 74t154.5 -42.5t59.5 -92.5t-26.5 -81.5t-84.5 -31.5t-86 67.5t-70 67.5q-51 0 -88 -88t-37 -238v-161q0 -37 37 -37h164l177 2q177 2 175 -42q-7 -142 -7 -161zM1047 1179q0 -79 -60 -114 q-29 -17 -65 -17q-86 0 -116 63q-12 25 -13 58q0 74 57 111q32 20 72 20q68 0 104 -54q21 -32 21 -67zM1397 1179q0 -79 -60 -114q-29 -17 -65 -17q-84 0 -116 63q-12 25 -13 58q0 74 57 111q32 20 72 20q67 0 104 -54q21 -31 21 -67z"/>
            <glyph glyph-name="f_odieresis" unicode="fö" horiz-adv-x="1615" d="M1404 1179q0 -79 -60 -114q-29 -17 -65 -17q-84 0 -116 63q-12 25 -13 58q0 74 57 111q32 20 72 20q67 0 104 -54q21 -31 21 -67zM1054 1179q0 -79 -60 -114q-29 -17 -65 -17q-86 0 -116 63q-12 25 -13 58q0 74 57 111q32 20 72 20q68 0 104 -54q21 -32 21 -67zM1552 426 q0 -209 -121 -329t-318 -120q-197 1 -331 127t-133 316q0 190 134 325h-353q-37 0 -37 -36v-573q0 -68 133 -68q16 0 16 -38t-16 -38q-80 8 -233.5 8t-237.5 -8q-15 0 -15 38t15 38q109 0 109 68v573q0 36 -37 36h-55q-16 0 -16 37t16 37q48 0 70 34t22 79q0 126 61.5 266.5 t156 214.5t189.5 74t154.5 -42.5t59.5 -92.5t-26.5 -81.5t-84.5 -31.5t-86 67.5t-70 67.5q-51 0 -88 -88t-37 -238v-161q0 -37 37 -37h527q66 20 142 20q218 0 351 -158q102 -122 102 -286zM1099 61q95 1 147 107t52 271t-71 273q-53 81 -131 81q-78 -1 -136 -107t-58 -278 t73 -275q52 -72 124 -72z"/>
            <glyph glyph-name=".notdef" horiz-adv-x="1024" d="M68 -132v1640h864v-1640h-864zM534 86q0 39 -20 71q-36 56 -100 56q-38 0 -68 -21q-50 -37 -50 -106q0 -37 29 -77t77 -40t78 17q54 33 54 100zM354 1194q292 0 292 -199q0 -89 -116 -151l-106 -56q-114 -62 -114 -144t76 -218q8 -8 26 -6t18 18q-20 70 -20 122t74 93 l166 88q82 43 81 196t-117 294q-114 131 -244 131q-84 0 -84 -84t68 -84z"/>
            <glyph glyph-name=".null" horiz-adv-x="1024" d="M68 -132v1640h864v-1640h-864zM534 86q0 39 -20 71q-36 56 -100 56q-38 0 -68 -21q-50 -37 -50 -106q0 -37 29 -77t77 -40t78 17q54 33 54 100zM354 1194q292 0 292 -199q0 -89 -116 -151l-106 -56q-114 -62 -114 -144t76 -218q8 -8 26 -6t18 18q-20 70 -20 122t74 93 l166 88q82 43 81 196t-117 294q-114 131 -244 131q-84 0 -84 -84t68 -84z"/>
            <glyph glyph-name="nonmarkingreturn" unicode="&#xD;" horiz-adv-x="559"/>
            <glyph glyph-name="space" unicode=" " horiz-adv-x="559"/>
            <glyph glyph-name="exclam" unicode="!" horiz-adv-x="520" d="M401 1280q0 -118 -69 -594q-13 -90 -21 -246q-1 -20 -51 -20t-51 20q-2 102 -41 438.5t-39 368.5q0 71 42 111.5t101 40.5t94 -35t35 -84zM418 118q0 -64 -44.5 -103.5t-111.5 -39.5t-112.5 43.5t-45.5 105t41 108.5t117.5 47t116 -48.5t39.5 -112.5z"/>
            <glyph glyph-name="quotedbl" unicode="&#34;" horiz-adv-x="757" d="M348 1374q0 -16 -36 -206t-36 -224q0 -15 -60 -15t-60 15q0 61 -36 231t-36 197q0 109 132 109t132 -107zM676 1374q0 -16 -36 -206t-36 -224q0 -15 -60 -15t-60 15q0 61 -36 231t-36 197q0 109 132 109t132 -107z"/>
            <glyph glyph-name="numbersign" unicode="#" horiz-adv-x="1015" d="M645 803h-180l-76 -289h180zM993 934v-131h-213l-78 -289h181v-133h-215l-99 -371h-135l98 371h-180l-98 -371h-135l100 371h-194v133h229l76 289h-195v131h230l84 315h135l-84 -315h180l84 315h135l-84 -315h178z"/>
            <glyph glyph-name="dollar" unicode="$" horiz-adv-x="1030" d="M737 301q0 159 -174 231v-458q174 42 174 227zM297 1045q0 -150 141 -205v405q-141 -50 -141 -200zM936 408q0 -190 -104.5 -301.5t-268.5 -122.5v-134q0 -17 -62.5 -15t-62.5 15v136q-151 20 -280 90q-53 148 -53 282q0 10 1 17q2 25 46.5 26t46.5 -20q8 -108 78.5 -187 t160.5 -106v492q-179 65 -259.5 154t-80.5 261q0 105 89 209.5t251 124.5v137q0 16 62.5 15.5t62.5 -15.5v-137q93 -5 142.5 -17t64 -12t29.5 3q46 -131 45 -271q1 -13 -41.5 -19t-46.5 9q-24 110 -82 159t-111 60v-444q249 -76 311 -178t62 -211z"/>
            <glyph glyph-name="percent" unicode="%" horiz-adv-x="1822" d="M1452 67q142 0 142 338t-142 338q-137 0 -137 -338t137 -338zM1801 400q0 -157 -78 -275q-95 -146 -263 -146t-270 146q-82 119 -82 275t73 275q96 156 273 156t273 -155q74 -119 74 -276zM1432 1370l-875 -1452q-8 -13 -57 18t-41 44l872 1447q7 12 58 -16t43 -41z M442 635q142 0 142 338t-142 338q-137 0 -137 -338t137 -338zM791 968q0 -157 -78 -275q-95 -146 -263 -146t-270 146q-82 119 -82 275t73 275q96 156 272 156t274 -155q74 -119 74 -276z"/>
            <glyph glyph-name="ampersand" unicode="&amp;" horiz-adv-x="1703" d="M258 414q0 -136 88 -230t238 -94t319 189q-196 296 -431 457q-214 -127 -214 -322zM676 1102q0 172 -126 172q-118 0 -118 -164q0 -101 164 -203q80 78 80 195zM1670 205q8 -1 24 -15t15 -23q0 -9 -4 -14q-96 -126 -261 -167q-60 -15 -121 -15q-203 0 -365 227 q-224 -226 -466 -226t-362 151q-91 115 -91 250q0 242 345 420q-163 117 -163 261t103 231t233 87q167 0 265 -122q48 -60 48 -154q0 -140 -179 -247q196 -139 360 -371q167 238 167 282q0 59 -124 59q-16 0 -16 50t16 50q84 -7 272 -7t242 7q15 0 15 -50t-15 -50 q-140 0 -213 -59q-59 -56 -129 -162t-153 -216q166 -247 347 -247q131 0 197 66q5 4 13 4z"/>
            <glyph glyph-name="quotesingle" unicode="'" horiz-adv-x="421" d="M344 1374q0 -16 -36 -206t-36 -224q0 -15 -60 -15t-60 15q0 61 -36 231t-36 197q0 109 132 109t132 -107z"/>
            <glyph glyph-name="parenleft" unicode="(" horiz-adv-x="675" d="M653 1483q0 -22 -30 -60q-285 -286 -285 -840t285 -833q26 -26 26 -59q0 -45 -43 -45q-34 0 -63 24q-120 112 -180 186q-240 298 -240 732q0 259 141 553q93 198 279 364q26 25 63 25q47 0 47 -47z"/>
            <glyph glyph-name="parenright" unicode=")" horiz-adv-x="675" d="M553 588q0 -255 -141 -553q-93 -197 -279 -365q-26 -24 -63 -24q-43 0 -43 41q0 31 26 57q173 175 245 480q40 172 40 364q0 370 -142 640q-62 117 -143 197q-24 25 -24 65t39 40t65 -25q116 -108 172 -176q248 -302 248 -741z"/>
            <glyph glyph-name="asterisk" unicode="*" horiz-adv-x="829" d="M356 641v274l-235 -137l-55 96l235 138l-235 135l55 96l235 -135v272h111v-272l235 135l55 -96l-235 -135l235 -138l-55 -96l-235 137v-274h-111z"/>
            <glyph glyph-name="plus" unicode="+" horiz-adv-x="1064" d="M944 362h-319v-362h-181v362h-321v148h321v326h181v-326h319v-148z"/>
            <glyph glyph-name="comma" unicode="," horiz-adv-x="520" d="M453 49q0 -133 -94.5 -249t-213.5 -173q-23 -11 -36 9t0 34q137 162 137 266q0 21 -33 32t-77 57.5t-44 106.5t48 98t115.5 38t132.5 -61.5t65 -157.5z"/>
            <glyph glyph-name="hyphen" unicode="-" horiz-adv-x="827" d="M698 610q20 0 20 -65.5t-22 -65.5h-571q-19 0 -19 65.5t19 65.5h573z"/>
            <glyph glyph-name="period" unicode="." horiz-adv-x="520" d="M418 116q0 -64 -45 -103t-110 -38.5t-112 44t-47 106.5t41.5 108.5t117.5 45.5t115.5 -49.5t39.5 -113.5z"/>
            <glyph glyph-name="slash" unicode="/" horiz-adv-x="716" d="M88 -27q-28 0 -66 23t-37 37q0 3 1 6l610 1440q3 7 32 7t66 -21t40 -34l-1 -8l-612 -1441q-5 -9 -33 -9z"/>
            <glyph glyph-name="zero" unicode="0" horiz-adv-x="956" d="M481 1243q-200 1 -200 -583q-1 -584 195 -584t196 495v62q0 274 -40 442t-151 168zM924 657q0 -217 -70 -387q-118 -286 -382 -286t-375 291q-64 168 -64 396t77 401q116 261 374 261t371 -284q69 -175 69 -392z"/>
            <glyph glyph-name="one" unicode="1" horiz-adv-x="956" d="M614 283q0 -127 36 -171t126 -44q15 0 15 -38t-15 -38q-80 8 -284 8t-283 -8q-15 0 -15 38t15 38q109 0 143 48t35 165v806q0 65 -21 57q-105 -35 -161 -63q-20 -10 -31 22t8 38q132 55 348 213q27 20 48 20q43 0 43 -53q-7 -71 -7 -160v-878z"/>
            <glyph glyph-name="two" unicode="2" horiz-adv-x="956" d="M473 0h-80q-161 0 -342 -8q-53 0 -53 47q0 21 20 41q160 160 315 370q255 347 255 529q-5 205 -172 205q-149 0 -242 -164q-12 -22 -44 -2t-21 37q81 158 210 231q84 47 177 47q164 0 256 -103t92 -241q0 -191 -275 -499q-59 -66 -290 -297h296q115 0 161 20t75 78 q11 21 53 4q39 -15 34 -29l-99 -235q-17 -39 -80 -39q-135 8 -246 8z"/>
            <glyph glyph-name="three" unicode="3" horiz-adv-x="956" d="M856 426q0 -174 -124 -301q-144 -148 -361 -148q-144 0 -228 46t-84 120q0 97 122 97q45 0 92 -55l51 -60q46 -47 100 -47q101 0 154 133q34 87 34 205t-73 188t-172 70q-59 0 -107 -17q-28 -1 -28 53t22 54q154 0 241 84q68 64 68 162t-47 146t-104 48q-121 0 -224 -155 q-14 -21 -45 3t-20 42q95 141 177 190t179 49q133 -1 221 -91t88 -210q0 -171 -172 -272q240 -71 240 -334z"/>
            <glyph glyph-name="four" unicode="4" horiz-adv-x="956" d="M768 156q0 -88 102 -88q15 0 15 -38t-15 -38q-80 8 -234 8t-237 -8q-15 0 -15 38t15 38q142 0 142 88v215h-461q-87 0 -87 58q0 49 52 122l289 383q188 249 238 329l94 150q15 17 44 17q85 0 85 -53q0 -9 -4 -17l-617 -815q-9 -12 -9 -22q0 -19 19 -19h357v428 q-1 22 113 22t114 -22v-428h123q15 0 15 -66t-15 -67h-123v-215z"/>
            <glyph glyph-name="five" unicode="5" horiz-adv-x="956" d="M55 126q0 104 121 105q55 0 99 -53q74 -86 143 -86q106 -2 173 98t68 207q0 153 -105 237q-84 68 -210 68q-65 0 -109 -12t-55 -13q-36 0 -32 34q43 278 96 551q10 55 69 55h502q6 1 6 -19t-11 -94t-30 -74h-415q-35 0 -37 -14q-23 -93 -32 -191q-1 -16 15 -13q41 6 72 6 q231 0 349 -118t118 -304t-117 -329q-150 -183 -399 -183q-147 0 -213 44q-66 42 -66 98z"/>
            <glyph glyph-name="six" unicode="6" horiz-adv-x="956" d="M682 358q0 92 -59 188q-61 97 -153 97t-161 -78q-8 -40 -8 -92q0 -385 197 -385q106 0 155 113q29 65 29 157zM549 797q162 0 257 -121t95 -278q-1 -158 -117 -286t-311 -128q-225 0 -335 187q-75 129 -75 304q0 255 178 502q205 282 521 408q3 1 5 1q14 0 23 -22t9 -30 q0 -10 -6 -13q-240 -132 -372 -387q-62 -120 -91 -248q59 75 156 102q32 9 63 9z"/>
            <glyph glyph-name="seven" unicode="7" horiz-adv-x="956" d="M312 -22q-86 0 -133 25q-5 4 -5 17l549 1121h-297q-115 0 -176 -30t-90 -99q-6 -17 -50 -17t-40 23l51 242q8 39 18 48q11 9 37 9h682q56 0 56 -33q0 -9 -5 -21l-503 -1263q-8 -22 -94 -22z"/>
            <glyph glyph-name="eight" unicode="8" horiz-adv-x="956" d="M672 281q0 165 -245 315q-130 -75 -130 -244q1 -116 61 -196t150 -80t137 89q27 52 27 116zM633 981q0 138 -68 207q-45 45 -123 45t-122 -79q-25 -45 -25 -101q0 -136 230 -272q108 62 108 200zM889 348q0 -158 -122 -261q-121 -103 -291 -103t-289 94t-119 264t254 319 q-218 133 -218 328q0 145 108 245t277 99t263 -91t94 -224q0 -180 -211 -302q254 -151 254 -368z"/>
            <glyph glyph-name="nine" unicode="9" horiz-adv-x="956" d="M653 852q0 375 -200 375q-107 0 -149 -133q-19 -62 -19 -151t56 -179q57 -90 149 -90t151 59q12 46 12 119zM893 854q0 -306 -236 -571q-177 -199 -442 -324q-19 -7 -35 25t-15 44q0 12 7 15q202 113 296 245t157 339q-48 -48 -111 -70t-98 -22q-166 0 -264 112t-97 246 q0 189 115 315q116 126 318 125q202 0 314 -166q91 -135 91 -313z"/>
            <glyph glyph-name="colon" unicode=":" horiz-adv-x="593" d="M483 109q0 -62 -42.5 -99t-105 -37t-106 41.5t-43.5 100.5t39.5 103t110.5 44t109 -45.5t38 -107.5zM483 699q0 -62 -42.5 -99t-105 -37t-106 41.5t-43.5 100.5t39.5 103t111 44t109 -45.5t37.5 -107.5z"/>
            <glyph glyph-name="semicolon" unicode=";" horiz-adv-x="593" d="M455 706q0 -61 -42.5 -102t-104.5 -41t-107 41.5t-45 104t41.5 105t110 42.5t108 -44.5t39.5 -105.5zM527 49q0 -137 -95 -251.5t-213 -170.5q-23 -11 -36 9t0 34q137 162 137 266q0 21 -33 32t-77 57.5t-44 106.5t48 98t115.5 38t132.5 -61.5t65 -157.5z"/>
            <glyph glyph-name="less" unicode="&lt;" horiz-adv-x="1024" d="M344 422l604 -260v-185l-870 379v129l870 381v-184z"/>
            <glyph glyph-name="equal" unicode="=" horiz-adv-x="999" d="M897 268h-829v142h829v-142zM897 575h-829v142h829v-142z"/>
            <glyph glyph-name="greater" unicode="&gt;" horiz-adv-x="1024" d="M946 356l-870 -379v185l604 260l-604 260v184l870 -381v-129z"/>
            <glyph glyph-name="question" unicode="?" horiz-adv-x="751" d="M492 118q0 -64 -44.5 -103.5t-111.5 -39.5t-112.5 43.5t-45.5 105t41 108.5t117.5 47t116 -48.5t39.5 -112.5zM694 936q0 -178 -102 -229l-166 -82q-72 -36 -72 -58q-2 -53 17 -127q-3 -25 -53 -25q-17 0 -21 7q-80 148 -80 227t39.5 112t77.5 52l104 53q125 64 125 113 q0 58 -42.5 98t-162.5 50l-79 6q-31 2 -68 35.5t-37 83.5t36 80t85 30q94 0 181.5 -60.5t152.5 -159t65 -206.5z"/>
            <glyph glyph-name="at" unicode="@" horiz-adv-x="1597" d="M883 967q-80 -1 -167 -159t-87 -290q0 -69 30 -69q54 0 166 131q62 71 99 192l43 148q-21 47 -84 47zM780 -33q-238 0 -424 115q-284 174 -284 520q0 297 189 508q245 274 640 274q281 0 453 -154t172 -382q0 -174 -115 -309q-158 -187 -436 -187q-102 0 -130 37 q-14 19 -14 47t19 82l-10 6q-151 -166 -250 -166q-113 0 -113 136q1 116 83 264t201 217q69 39 135 39t95 -31l21 51q13 32 74 15q49 -14 42 -39l-141 -478q-9 -30 -9 -66t23 -36q162 0 279 115t117 298t-139 319t-383 136t-417 -173q-204 -204 -204 -521q0 -181 96 -322 q155 -227 494 -227q158 0 323 72q19 7 31 -17t-4 -34q-176 -109 -414 -109z"/>
            <glyph glyph-name="A" unicode="A" horiz-adv-x="1401" d="M633.5 1084q-10.5 0 -16.5 -16l-159 -434q-3 -8 -4 -16q0 -11 21 -11h293q28 0 28 22q0 6 -3 15l-144 424q-5 16 -15.5 16zM1398 86q15 0 15 -46.5t-15 -46.5q-115 7 -265 7t-275 -7q-15 0 -15 46.5t15 46.5q96 0 96 65q0 21 -10 51l-100 297q-7 22 -34 24h-373 q-21 0 -32 -29l-109 -293q-9 -24 -9 -42q0 -73 147 -73q13 0 13 -46.5t-13 -46.5q-83 7 -233 7t-228 -7q-14 0 -14 46.5t14 46.5q152 0 202 131l370 968q13 30 13 38t-14.5 22t-14.5 23q0 15 33 26t103.5 53t89.5 42q33 0 44 -47.5t53 -164.5l344 -975q41 -116 202 -116z "/>
            <glyph glyph-name="B" unicode="B" horiz-adv-x="1300" d="M481 250q0 -175 150 -175q278 10 278 295q0 139 -93 220.5t-310 83.5q-25 0 -25 -34v-390zM481 797q0 -20 18 -24t53 -4q145 0 216.5 67.5t71.5 187.5t-86.5 188t-254.5 68q-18 0 -18 -18v-465zM60 39.5q0 46.5 15 46.5q83 0 122.5 36.5t39.5 79.5v954q0 109 -172 109 q-14 0 -14 46.5t14 46.5q143 -6 167 -6l407 6q217 0 331 -92.5t114 -248.5q0 -87 -52 -157.5t-128 -107.5q-19 -11 -19 -18t21 -16q117 -38 195 -134.5t78 -213.5q0 -151 -113 -264t-422 -113l-176 3q-177 4 -393 -3q-15 0 -15 46.5z"/>
            <glyph glyph-name="C" unicode="C" horiz-adv-x="1349" d="M55 657q0 304 204.5 516t535.5 212q130 0 338 -43q56 -11 107 -13q33 -90 40 -326q0 -18 -46.5 -21t-47.5 13q-10 110 -89.5 206t-297.5 96q-217 0 -344 -168.5t-127 -444.5t140.5 -446.5t316.5 -170.5q343 -1 440 277q7 19 51.5 8.5t43.5 -31.5q-5 -57 -42 -153 t-61 -132q-47 -7 -88 -19q-153 -44 -358 -44q-292 0 -504 190t-212 494z"/>
            <glyph glyph-name="D" unicode="D" horiz-adv-x="1567" d="M481 273q0 -150 87 -186q39 -16 130 -16q218 0 367.5 170t149.5 475q0 214 -152.5 389t-426.5 175h-79q-76 0 -76 -79v-928zM60 39.5q0 46.5 15 46.5q162 0 162 116v954q0 109 -172 109q-14 0 -14 46.5t14 46.5q143 -6 167 -6l486 6q330 0 549.5 -169t219.5 -463 q0 -338 -199 -535.5t-522 -197.5l-280 3q-279 4 -411 -3q-15 0 -15 46.5z"/>
            <glyph glyph-name="E" unicode="E" horiz-adv-x="1250" d="M60 39.5q0 46.5 15 46.5q162 0 162 116v954q0 109 -172 109q-14 0 -14 46.5t14 46.5q143 -6 299 -6l708 6q57 0 57 -51v-306q0 -17 -50.5 -17t-50.5 17q0 130 -99 205q-61 47 -125 49l-296 10q-27 1 -27 -40v-509q0 -29 29 -29h135q123 0 123 91v99q0 14 52.5 14 t52.5 -14q-7 -67 -7 -231t7 -227q0 -15 -52.5 -15t-52.5 15v86q0 89 -123 89h-135q-29 0 -29 -31v-341q0 -77 75 -116q39 -20 81 -20l223 5q157 2 205 137q18 50 18 116q0 17 51 17t51 -17v-287q0 -64 -117 -64l-696 7q-162 0 -297 -7q-15 0 -15 46.5z"/>
            <glyph glyph-name="F" unicode="F" horiz-adv-x="1191" d="M1129 1307v-306q0 -17 -50.5 -17t-50.5 17q0 112 -71.5 181t-152.5 73q-215 10 -296 10q-27 0 -27 -40v-470q0 -30 29 -30h135q93 0 93 90v138q0 14 52 14t52 -14q-7 -67 -7 -275.5t7 -278.5q0 -13 -52 -13t-52 13v144q0 89 -93 89h-135q-29 0 -29 -30v-400 q0 -116 153 -116q14 0 14 -46.5t-14 -46.5q-94 7 -274 7t-285 -7q-15 0 -15 46.5t15 46.5q162 0 162 116v954q0 109 -172 109q-14 0 -14 46.5t14 46.5q143 -6 179 -6l825 6q60 0 60 -51z"/>
            <glyph glyph-name="G" unicode="G" horiz-adv-x="1443" d="M832 523.5q0 45.5 14 45.5q60 -6 272 -6t273 6q13 0 13 -45.5t-13 -45.5q-108 0 -108 -77v-241q0 -45 42 -45q15 0 15 -40t-15 -40q-50 0 -236 -31t-318 -31q-263 -3 -463 153q-253 198 -253 521q0 266 152 463q212 275 588 275q131 0 259 -28t186 -28q28 -59 38 -275 l2 -51q0 -18 -46 -21t-48 13q-19 209 -211 275q-79 27 -186 27q-207 0 -334 -168t-127 -424q0 -324 171 -503q129 -135 286 -135q111 0 192 26q62 24 62 66v242q0 77 -114 77h-79q-14 0 -14 45.5z"/>
            <glyph glyph-name="H" unicode="H" horiz-adv-x="1686" d="M1432 202q0 -116 159 -116q14 0 14 -46.5t-14 -46.5q-126 7 -279 7t-286 -7q-15 0 -15 46.5t15 46.5q162 0 162 116v417q0 34 -34 34h-638q-35 0 -35 -34v-417q0 -116 159 -116q14 0 14 -46.5t-14 -46.5q-133 7 -286 7t-279 -7q-15 0 -15 46.5t15 46.5q162 0 162 116v952 q0 116 -161 116q-14 0 -14 46.5t14 46.5q48 -5 284 -5t284 5q14 0 14 -46.5t-14 -46.5q-163 0 -163 -116v-372q0 -35 35 -35h638q34 0 34 35v372q0 116 -160 116q-15 0 -15 46.5t15 46.5q44 -5 282 -5t285 5q15 0 15 -46.5t-15 -46.5q-163 0 -163 -116v-952z"/>
            <glyph glyph-name="I" unicode="I" horiz-adv-x="734" d="M481 202q0 -116 159 -116q14 0 14 -46.5t-14 -46.5q-133 7 -286 7t-279 -7q-15 0 -15 46.5t15 46.5q162 0 162 116v952q0 116 -161 116q-14 0 -14 46.5t14 46.5q48 -5 284 -5t284 5q14 0 14 -46.5t-14 -46.5q-163 0 -163 -116v-952z"/>
            <glyph glyph-name="J" unicode="J" horiz-adv-x="718" d="M50 -419q-68 0 -125 37q-57 36 -57 106t65 102q33 17 76 17q74 0 128 -58q25 -27 38 -62q33 24 56 82q26 88 26 448v901q0 116 -171 116q-14 0 -14 46.5t14 46.5q48 -5 294 -5t294 5q14 0 14 -46.5t-14 -46.5q-172 0 -172 -116v-525q0 -107 -10 -434q-2 -227 -82 -361 t-206 -205q-86 -48 -154 -48z"/>
            <glyph glyph-name="K" unicode="K" horiz-adv-x="1382" d="M1383 86q14 0 14 -46.5t-14 -46.5q-133 7 -286 7t-293 -7q-14 0 -14 46.5t14 46.5q84 0 85 39q0 26 -41 77l-259 323q-63 72 -85 72t-23 -28v-367q0 -116 155 -116q14 0 14 -46.5t-14 -46.5q-133 7 -284 7t-277 -7q-15 0 -15 46.5t15 46.5q162 0 162 116v952 q0 116 -172 116q-14 0 -14 46.5t14 46.5q47 -5 288 -5t289 5q14 0 14 -46.5t-14 -46.5q-161 0 -161 -116v-357q0 -27 16 -27q28 0 76 55l277 331q53 63 53 89q-9 24 -61 25q-13 0 -13 46.5t13 46.5q50 -5 199 -5t197 5q14 0 14 -46.5t-14 -46.5q-88 0 -132 -20t-82 -65 l-337 -392q-16 -19 -16 -35t15 -34l458 -533q78 -91 179 -102q22 -3 60 -3z"/>
            <glyph glyph-name="L" unicode="L" horiz-adv-x="1359" d="M60 39.5q0 46.5 15 46.5q162 0 162 126v942q0 116 -172 116q-14 0 -14 46.5t14 46.5q47 -5 285 -5t286 5q14 0 14 -46.5t-14 -46.5q-155 0 -155 -116v-904q0 -110 67 -153q34 -19 75 -19l332 13q75 3 142 82q82 105 82 219q0 18 50.5 18t50.5 -18v-335q0 -42 -15 -52 q-9 -12 -102 -12l-808 7q-72 0 -280 -7q-15 0 -15 46.5z"/>
            <glyph glyph-name="M" unicode="M" horiz-adv-x="1815" d="M1770 86q15 0 15 -46.5t-15 -46.5q-126 7 -268 7t-281 -7q-15 0 -15 46.5t15 46.5q153 0 153 122l-5 669q0 21 -8 21t-16 -18l-451 -876q-12 -23 -32 -23t-29 23l-459 964q-10 21 -16 21t-10 -26l-50 -757v-31q0 -89 170 -89q14 0 14 -46.5t-14 -46.5q-134 7 -250 7 t-178 -7q-14 -2 -14 45.5t14 47.5q147 0 153 124l61 906v45q0 109 -174 109q-13 0 -13 46.5t13 46.5q82 -5 174 -5h97q66 0 117 -88l440 -913q10 -21 24 -21t27 23l468 917q42 82 111 82h53q104 0 164 5q15 0 15 -46.5t-15 -46.5q-105 0 -132 -44t-25 -101l10 -917 q2 -122 162 -122z"/>
            <glyph glyph-name="N" unicode="N" horiz-adv-x="1482" d="M1288 76q0 -97 -28 -97t-77 57l-822 978q-13 16 -23 16t-10 -22v-806q0 -116 151 -116q15 0 15 -47t-15 -46q-92 7 -197 7t-217 -7q-14 -2 -14 45.5t14 47.5q159 0 159 116v954q0 114 -173 114q-13 0 -13 46.5t13 46.5q49 -5 155 -5t120 -2q59 -9 100 -57l711 -867 q10 -14 24 -14q24 0 24 31v703q0 118 -153 118q-15 0 -15 46.5t15 46.5q102 -5 200 -5t191 5q14 0 14 -46.5t-14 -46.5q-135 0 -135 -118v-1076z"/>
            <glyph glyph-name="O" unicode="O" horiz-adv-x="1524" d="M1157 649q0 255 -124 438q-142 211 -294 211t-266 -131q-145 -167 -145 -457t153 -481q129 -162 274 -162q265 0 358 279q44 130 44 303zM1430 663q0 -220 -145 -417q-202 -273 -544 -273q-225 0 -405 124q-281 194 -281 570q-1 251 185 485t505 233q246 0 426 -155 q259 -224 259 -567z"/>
            <glyph glyph-name="P" unicode="P" horiz-adv-x="1214" d="M924 968q0 120 -90 215t-271 95q-65 0 -73 -10t-9 -19v-533q0 -31 31 -36q36 -4 80 -4q249 0 312 172q20 53 20 120zM1179 962q0 -186 -171 -285q-139 -81 -355 -81q-90 0 -131 3t-41 -30v-367q0 -116 168 -116q15 0 15 -46.5t-15 -46.5q-126 7 -281 7t-288 -7 q-13 0 -13 46.5t13 46.5q157 0 157 116v954q0 109 -170 109q-14 0 -14 46.5t14 46.5q143 -6 288 -6l304 6q218 0 369 -105t151 -291z"/>
            <glyph glyph-name="Q" unicode="Q" horiz-adv-x="1489" d="M1157 642q0 252 -125 454t-292 201q-197 0 -313 -193q-99 -162 -99 -388q0 -308 154 -496q126 -155 274 -155q253 0 350 265q51 138 51 312zM1430 659q0 -216 -147 -422q-70 -99 -191 -178q-23 -15 -23 -27t23 -28q258 -170 541 -252q1 0 27 -8t25 -26q0 -19 -3 -33 q-14 -49 -41 -44q-402 76 -988 300l-154 59q-32 12 -159 90t-206 232t-79 339q0 263 178 478q204 246 512 246q260 0 426 -155q259 -239 259 -571z"/>
            <glyph glyph-name="R" unicode="R" horiz-adv-x="1420" d="M959 968q-1 136 -113 223t-283 87q-62 0 -72 -8t-10 -34v-523q0 -33 25 -39q47 -9 86 -9q264 0 340 167q27 60 27 136zM1213 968q0 -251 -283 -336q-18 -4 -18 -16t12 -31q131 -224 325 -423q95 -101 180 -116q26 -5 26 -36t-24 -31l-91 -3q-155 1 -238 55 q-142 88 -263 260l-130 187q-63 75 -83 92t-59 17h-67q-19 0 -19 -19v-366q0 -116 155 -116q14 0 14 -46.5t-14 -46.5q-134 7 -280 7t-281 -7q-15 0 -15 46.5t15 46.5q162 0 162 116v954q0 109 -172 109q-14 0 -14 46.5t14 46.5q143 -6 290 -6l304 6q337 0 481 -175 q73 -90 73 -215z"/>
            <glyph glyph-name="S" unicode="S" horiz-adv-x="1077" d="M980 403q0 -181 -114 -305t-312 -125q-144 0 -246 36l-144 62q-53 160 -53 313q0 24 47 26t50 -18q10 -116 90 -207q105 -118 273 -118q72 -1 136 63t64 178q0 206 -270 275q-397 101 -397 450q0 142 129 258q105 94 292 94q121 -1 195 -17t80 -16l36 2h1 q37 -118 49 -271q2 -27 -44 -33t-51 12q-61 239 -273 239q-107 0 -166 -84q-40 -56 -40 -142q0 -181 247 -241q421 -102 421 -431z"/>
            <glyph glyph-name="T" unicode="T" horiz-adv-x="1300" d="M773 202q0 -116 171 -116q13 0 13 -46.5t-13 -46.5q-85 7 -292.5 7t-302.5 -7q-14 0 -14 46.5t14 46.5q180 0 180 116v1034q0 29 -27 29h-143q-86 0 -154.5 -72.5t-68.5 -184.5q0 -16 -50.5 -16t-50.5 16v299q0 34 14 41q24 10 98 10q188 -6 496 -6t520 6q84 0 94 -14 t10 -37v-299q0 -16 -51 -16t-51 16q0 129 -78 193t-153 64h-128q-33 0 -33 -29v-1034z"/>
            <glyph glyph-name="U" unicode="U" horiz-adv-x="1512" d="M1322 880q0 -276 -12 -416q-16 -245 -148 -368t-389 -123q-156 0 -268 42q-157 61 -214 177t-67 353v609q0 116 -157 116q-14 0 -14 46.5t14 46.5q147 -5 287 -5t288 5q14 0 14 -46.5t-14 -46.5q-174 0 -174 -116v-468l11 -281q3 -124 55 -203q90 -135 270 -135 q180 -1 276 99q97 100 97 330v658q0 116 -157 116q-14 0 -14 46.5t14 46.5q138 -5 230 -5t226 5q15 0 15 -46.5t-15 -46.5q-154 0 -154 -116v-274z"/>
            <glyph glyph-name="V" unicode="V" horiz-adv-x="1358" d="M645 -38q-32 0 -49 45l-423 1147q-41 116 -142 116q-15 0 -15 46.5t15 46.5q45 -5 242 -5t245 5q13 0 13 -46.5t-13 -46.5q-124 0 -124 -64q0 -22 11 -52l282 -775q9 -20 25 -20t26 23l294 764q11 30 11 53q-5 71 -99 71q-15 0 -15 46.5t15 46.5q48 -5 210 -5t210 5 q14 0 14 -46.5t-14 -46.5q-148 0 -183 -85l-483 -1178q-21 -45 -53 -45z"/>
            <glyph glyph-name="W" unicode="W" horiz-adv-x="2012" d="M1272 -38q-26 0 -57 63l-205 456q-8 18 -16 18t-16 -20l-216 -472q-22 -45 -50 -45t-57 63l-506 1129q-51 116 -143 116q-14 0 -14 46.5t14 46.5q48 -5 225 -5t225 5q15 0 15 -46.5t-15 -46.5q-69 0 -70 -45q4 -40 19 -71l351 -780q8 -17 21 -17t21 17l121 266q6 15 6 23 t-6 23l-235 522q-28 62 -82 62q-14 0 -14 46.5t14 46.5q48 -5 206 -5t206 5q14 0 14 -46.5t-14 -46.5q-70 0 -70 -41q0 -32 20 -75l75 -163q7 -18 19 -18t23 24l69 149q26 56 26 85q0 39 -53 39q-14 0 -14 46.5t14 46.5q51 -5 181 -5t178 5q15 0 15 -46.5t-15 -46.5 q-145 0 -183 -85l-158 -347q-11 -24 -11 -38t5 -25l181 -399q8 -18 22 -18t20 16l352 772q21 46 21 75q-1 49 -65 49q-15 0 -15 46.5t15 46.5q44 -5 186 -5t190 5q14 0 14 -46.5t-14 -46.5q-145 0 -183 -85l-537 -1178q-24 -45 -50 -45z"/>
            <glyph glyph-name="X" unicode="X" horiz-adv-x="1382" d="M1369 86q15 0 15 -46.5t-15 -46.5q-79 7 -264 7t-280 -7q-14 0 -14 46.5t14 46.5q108 0 108 47q0 29 -35 75l-243 319q-11 15 -24 15t-24 -15l-171 -227q-66 -88 -68 -144q-2 -70 100 -70q14 0 14 -46.5t-14 -46.5q-78 7 -268 7t-233 -7q-13 0 -13 46.5t13 46.5 q151 0 222 86l365 459q13 15 13 31t-13 33l-356 499q-54 76 -177 76q-14 0 -14 46.5t14 46.5q47 -5 290 -5t291 5q14 0 14 -46.5t-14 -46.5q-124 0 -124 -55q0 -23 27 -61l198 -275q11 -14 21 -14t21 14l216 267q34 42 34 71q0 53 -82 53q-14 0 -14 46.5t14 46.5 q47 -5 221 -5t222 5q15 0 15 -46.5t-15 -46.5q-117 0 -210 -85q-33 -30 -84 -93l-252 -310q-17 -21 -17 -36t11 -33l348 -511q81 -116 217 -116z"/>
            <glyph glyph-name="Y" unicode="Y" horiz-adv-x="1325" d="M758 202q0 -116 148 -116q13 0 13 -46.5t-13 -46.5q-66 7 -266 7t-273 -7q-14 0 -14 46.5t14 46.5q147 0 147 116v292q0 68 -9 92t-56 98l-298 470q-52 82 -101 104q-28 12 -63 12q-15 0 -15 46.5t15 46.5q47 -5 262 -5t265 5q14 0 14 -46.5t-14 -46.5q-110 0 -110 -53 q0 -31 20 -63l254 -405q10 -17 20 -17t22 19l268 395q23 34 23 60q0 64 -105 64q-15 0 -15 46.5t15 46.5q46 -5 226 -5t228 5q14 0 14 -46.5t-14 -46.5q-108 0 -179 -68l-33 -35l-337 -481q-37 -56 -45 -81t-8 -106v-297z"/>
            <glyph glyph-name="Z" unicode="Z" horiz-adv-x="1317" d="M1284 1326q0 -24 -25 -58l-833 -1144q-7 -10 -7 -17q0 -21 33 -21q411 0 593 13q53 4 138 150q40 69 51 106q2 7 28 7t39 -12q14 -12 13 -20q-44 -172 -44 -311q0 -48 -16 -48q-26 -1 -118 14t-542 15h-448q-70 0 -70 49q0 26 17 48l871 1139q10 13 10 21q0 17 -40 17 h-513q-44 0 -71 -27q-40 -31 -84 -139t-46 -134q-2 -12 -22 -12q-59 -1 -61 26q31 235 31 332q0 48 41 48l121 -16h507l382 6q65 1 65 -32z"/>
            <glyph glyph-name="bracketleft" unicode="[" horiz-adv-x="798" d="M754 -354h-437q-22 0 -22 22v1843q0 19 20 19h439q20 0 20 -48t-20 -48h-226q-20 0 -20 -23v-1640q0 -29 14 -29h232q20 0 20 -48t-20 -48z"/>
            <glyph glyph-name="backslash" unicode="\" horiz-adv-x="716" d="M618 -28q-20 0 -24 10l-608 1443q-12 28 57 57q29 12 53 12t29 -13l606 -1450q10 -24 -67 -50q-26 -9 -46 -9z"/>
            <glyph glyph-name="bracketright" unicode="]" horiz-adv-x="798" d="M504 -332q0 -22 -23 -22h-434q-20 0 -20 48t20 48h232q14 0 14 25v1644q0 23 -19 23h-227q-20 0 -20 48t20 48h436q21 0 21 -19v-1843z"/>
            <glyph glyph-name="asciicircum" unicode="^" horiz-adv-x="1095" d="M1044 535h-219l-276 577l-279 -577h-221l422 837h154z"/>
            <glyph glyph-name="underscore" unicode="_" horiz-adv-x="1024" d="M1024 -266h-1024v121h1024v-121z"/>
            <glyph glyph-name="grave" unicode="`" horiz-adv-x="569" d="M469 1074q0 -54 -42 -54q-35 0 -69 49l-169 249q-5 8 -5 16q0 32 50 59t78 27t32 -14l117 -292q8 -22 8 -40z"/>
            <glyph glyph-name="a" unicode="a" horiz-adv-x="860" d="M461 193v182q0 23 -14 23q-7 0 -13 -3q-141 -71 -141 -189t72 -118q96 0 96 105zM676 -25q-92 0 -162 82q-14 19 -24 19t-25 -17q-82 -82 -203 -82t-173 85q-26 43 -26 100q0 121 212 231l151 72q35 20 35 47v190q0 72 -105 72q-79 0 -116 -51q-9 -14 -9.5 -62t-5.5 -65 q-25 -88 -92 -88q-90 0 -90 78q0 67 43.5 127.5t77.5 81.5q120 75 248.5 75t202 -50t75.5 -113v-508q0 -114 67 -114q30 -3 72 36q8 8 25 -7.5t12 -25.5q-58 -113 -190 -113z"/>
            <glyph glyph-name="b" unicode="b" horiz-adv-x="1050" d="M727 428q0 158 -63 250t-162 92q-71 0 -107.5 -37t-36.5 -86v-350q0 -116 64.5 -178t142.5 -62q162 0 162 371zM561 870q176 0 298 -122t122 -318.5t-111.5 -324.5t-332.5 -128q-58 0 -122 27t-112 27q-17 0 -55 -34l-19 -15q-4 -3 -24 -3t-51 24t-31 32q6 30 6 244v882 q0 125 -94 125q-16 0 -16 37t16 37q50 0 152 49.5t118.5 63.5t32.5 14q26 0 29 -25l-9 -176v-446q0 -28 16 -28q9 0 19 7q73 51 168 51z"/>
            <glyph glyph-name="c" unicode="c" horiz-adv-x="880" d="M805 726q0 -38 -33 -72t-66.5 -34t-52.5 29l-39 66q-39 59 -116 59t-140 -97.5t-63 -235.5t83.5 -227t188.5 -89t183 55q17 12 46 -30q26 -43 9 -54l-82 -53q-116 -66 -261 -66t-256 99q-140 123 -140 302t106 316q136 176 350 176q135 0 223 -45q39 -20 54 -45 q6 -16 6 -54z"/>
            <glyph glyph-name="d" unicode="d" horiz-adv-x="1036" d="M674 141v553q0 44 -4.5 53t-16.5 17q-47 29 -112 29q-134 0 -196 -144q-38 -88 -38 -205q0 -193 79 -302q59 -81 144.5 -81t129.5 52q14 17 14 28zM723 -35q-10 0 -10 45v29q0 22 -11.5 22t-27.5 -14q-94 -70 -195 -70q-244 0 -355 174q-71 111 -71 277.5t122 291.5 q147 150 392 150q49 0 78 -3.5t29 22.5v272q0 125 -92 125q-16 0 -16 37t16 37q50 0 150 49.5t116.5 63.5t30.5 14q30 0 30 -33q-6 -70 -6 -168v-1030q0 -90 10 -117q14 -40 53 -40q13 0 33 5q16 4 27 -31q8 -37 -4 -42q-29 -12 -156 -35q-102 -26 -131 -31h-12z"/>
            <glyph glyph-name="e" unicode="e" horiz-adv-x="876" d="M309 653q0 -26 37 -26h203q37 0 37 24q0 67 -55 112q-34 28 -83 28t-98 -43q-41 -40 -41 -95zM809 612q0 -75 -90 -75h-385q-37 0 -37 -27q0 -237 112 -334q61 -53 147 -53t171 55q19 11 47 -25t17 -47q-48 -49 -135 -89q-88 -40 -212 -40t-232 109q-144 144 -144 350 q0 166 114 300t286 134q171 0 276 -119q65 -89 65 -139z"/>
            <glyph glyph-name="f" unicode="f" horiz-adv-x="583" d="M594 850q15 0 15 -52.5t-15 -52.5h-164q-37 0 -37 -36v-573q0 -68 133 -68q16 0 16 -38t-16 -38q-80 8 -233.5 8t-237.5 -8q-15 0 -15 38t15 38q109 0 109 68v573q0 36 -37 36h-55q-16 0 -16 37t16 37q47 0 69.5 33t22.5 80q0 146 68 279q33 65 77 110q158 166 365 166 q123 0 185 -59q38 -36 38 -88t-42 -84.5t-71 -32.5q-101 0 -147 89q-29 58 -78 62q-58 0 -96 -53q-70 -96 -70 -273v-161q0 -37 37 -37h164z"/>
            <glyph glyph-name="g" unicode="g" horiz-adv-x="948" d="M811 -242q0 131 -236 131h-212q-21 0 -41 -14q-63 -46 -63.5 -122t63.5 -134.5t182 -58.5q251 0 298 140q9 27 9 58zM592 522q0 177 -71 242q-31 29 -75 29q-72 0 -114.5 -78t-42.5 -182.5t52.5 -171t119.5 -66.5q89 0 119 119q12 48 12 108zM981 -139.5 q0 -163.5 -147 -281.5q-173 -138 -422 -138q-300 0 -372 148q-20 41 -20 92q0 81 103 166q34 28 64 43t30 21t-16 13q-133 56 -133 174q0 75 145 138q16 7 16 12.5t-18 17.5q-154 97 -154 250t110.5 253.5t274.5 100.5q111 0 199 -35.5t114 -37.5h193q16 0 16 -57.5 t-16 -57.5h-92q-31 0 -31 -29v-78q0 -169 -111.5 -263.5t-283.5 -94.5q-50 0 -84 4t-45 -4q-37 -30 -37 -59.5t36.5 -47.5t90.5 -18h254q129 0 192 -21q144 -47 144 -210.5z"/>
            <glyph glyph-name="h" unicode="h" horiz-adv-x="1093" d="M854 0q-145 0 -225 -8q-16 0 -16 38t16 38q104 0 104 64v423q0 75 -47 141t-129 66t-135 -63q-29 -35 -29 -72v-484q0 -75 103 -75q15 0 15 -38t-15 -38q-84 8 -222.5 8t-222.5 -8q-15 0 -15 37.5t15 38.5q113 0 113 69v1024q0 125 -92 125q-16 0 -16 37t16 37 q50 0 150 49.5t116.5 63.5t32.5 14q27 0 28 -27q-2 -85 -6 -174v-465q0 -23 9.5 -23t23.5 11q82 61 211 61q180 0 270 -136q56 -84 56 -177v-414q7 -75 116 -75q16 0 16 -38t-16 -38q-80 8 -225 8z"/>
            <glyph glyph-name="i" unicode="i" horiz-adv-x="524" d="M401 1185q0 -71 -59 -111q-38 -26 -99.5 -26t-103.5 58q-26 36 -26 92t47.5 91t110.5 35t96.5 -49t33.5 -90zM277.5 0q-134.5 0 -218.5 -8q-15 0 -15 38t15 38q105 0 105 75v414q0 125 -92 125q-16 0 -16 37t16 37q50 0 150 49.5t116.5 63.5t34.5 14q28 0 26 -27 q-6 -88 -6 -174v-539q0 -75 103 -75q15 0 15 -37.5t-15 -38.5q-84 8 -218.5 8z"/>
            <glyph glyph-name="j" unicode="j" horiz-adv-x="499" d="M367 682v-543q0 -186 -11 -268q-24 -175 -104 -283q-106 -144 -296 -143q-48 0 -98.5 39t-50.5 93t51 84q26 15 66 15t78 -62.5t74 -62.5q46 1 56 91q5 43 5 129v786q0 125 -92 125q-15 0 -15 37t15 37q51 0 151.5 49.5t117.5 63.5t32 14q28 0 29 -27q-8 -92 -8 -174z M373 1187q0 -71 -59 -112q-39 -27 -100 -27t-96.5 46.5t-35.5 103.5t48 92.5t109 35.5t97.5 -47.5t36.5 -91.5z"/>
            <glyph glyph-name="k" unicode="k" horiz-adv-x="1073" d="M849.5 0q-149.5 0 -233.5 -8q-15 0 -15 38t15 38q74 0 75 29q0 16 -27 48l-195 224q-25 30 -59 30q-17 0 -17 -34v-222q0 -75 109 -75q15 0 15 -38t-15 -38q-84 8 -226.5 8t-226.5 -8q-15 0 -15 38t15 38q115 0 115 71v1022q-9 118 -92 125q-16 0 -16 37t16 37 q50 0 150 49.5t116.5 63.5t32.5 14q27 0 28 -27q-6 -87 -6 -173v-759q0 -36 21 -36q44 0 80 38l153 170q32 36 32 54q0 30 -83 30q-16 0 -16 36t16 36q60 -6 208.5 -6t211.5 6q15 0 15 -36t-15 -36q-105 0 -182 -71l-209 -189q-11 -10 -11 -21.5t11 -23.5l329 -358 q47 -53 125 -53q16 0 16 -38t-16 -38q-80 8 -229.5 8z"/>
            <glyph glyph-name="l" unicode="l" horiz-adv-x="524" d="M277.5 0q-134.5 0 -218.5 -8q-15 0 -15 38t15 38q105 0 105 67v1026q0 125 -92 125q-16 0 -16 37t16 37q50 0 150 49.5t116.5 63.5t30.5 14q30 0 30 -33q-6 -75 -6 -168v-1143q0 -75 103 -75q15 0 15 -38t-15 -38q-84 8 -218.5 8z"/>
            <glyph glyph-name="m" unicode="m" horiz-adv-x="1630" d="M1369 0q-138 0 -218 -8q-16 0 -16 38t16 38q100 0 100 67v475q0 152 -151 152q-69 0 -116.5 -59t-47.5 -134v-429q0 -72 104 -72q16 0 16 -38t-16 -38q-80 8 -215 8t-219 -8q-15 0 -15 38t15 38q101 0 101 64v433q0 134 -45 175q-26 22 -87.5 22t-106.5 -32 q-75 -58 -75 -126v-471q0 -65 99 -65q15 0 15 -38t-15 -38q-84 8 -220.5 8t-220.5 -8q-15 0 -15 38t15 38q113 0 113 69v414q0 131 -92 131q-16 0 -16 37t16 37q50 0 150 49.5t116.5 63.5t32.5 14q28 0 28 -24l-6 -71q-1 -19 8.5 -19t18.5 9q81 92 220.5 92t213.5 -127 q9 -16 18 -16t25 18q79 84 186 113q44 12 84 12q128 0 205 -69q109 -96 109 -248v-413q0 -72 106 -72q16 0 16 -38t-16 -38q-80 8 -218 8z"/>
            <glyph glyph-name="n" unicode="n" horiz-adv-x="1087" d="M857.5 0q-104.5 0 -224.5 -8q-15 -1 -15 37.5t15 38.5q101 0 101 62v407q0 149 -59 200q-29 25 -93.5 25t-126.5 -54t-62 -116v-449q0 -75 99 -75q15 0 15 -38t-15 -38q-84 8 -217.5 8t-217.5 -8q-15 0 -15 38t15 38q107 0 107 75v406q0 133 -92 133q-16 0 -16 37t16 37 q50 0 150 49.5t116.5 63.5t30.5 14q29 0 30 -27l-6 -68q0 -19 9 -19t18 9q42 55 138 81q41 11 95 11q189 0 274 -185q36 -73 36 -220v-329q0 -68 106 -68q16 0 16 -38t-16 -38q-107 8 -211.5 8z"/>
            <glyph glyph-name="o" unicode="o" horiz-adv-x="1032" d="M516 61q94 0 146.5 106.5t52.5 271.5t-71 273q-53 81 -130.5 81t-136 -106.5t-58.5 -279t73 -274.5q52 -72 124 -72zM969 426q0 -209 -121 -329t-318 -120t-330.5 126.5t-133.5 308.5t110 308q132 150 345 150t346 -158q102 -122 102 -286z"/>
            <glyph glyph-name="p" unicode="p" horiz-adv-x="1009" d="M725 401q1 369 -213 369q-78 0 -133 -84q-12 -18 -12 -70v-438q7 -118 177 -119q88 0 144 140q37 92 37 202zM958 475q0 -349 -200 -452q-89 -46 -205.5 -46t-153.5 19q-8 4 -14 4q-18 0 -18 -27v-370q0 -86 141 -86q15 0 15 -38t-15 -38q-84 8 -239.5 8t-235.5 -8 q-16 0 -16 38t16 38q103 0 104 84v948q0 133 -92 133q-15 0 -15 37t15 37q55 0 151.5 50t113.5 63.5t37 13.5t24 -21l-4 -47q-1 -24 12 -24t35 25.5t65 39.5t81 14q150 0 241 -66q157 -114 157 -329z"/>
            <glyph glyph-name="q" unicode="q" horiz-adv-x="980" d="M487 59q177 0 177 121v463q0 23 -8 35q-67 92 -148 92q-209 0 -209 -350q0 -154 49.5 -257.5t138.5 -103.5zM780.5 -551q-155.5 0 -239.5 -8q-15 0 -15 38t15 38q123 0 123 86v391q-61 -17 -150 -17q-448 0 -448 504q0 172 111.5 280.5t277 108.5t256.5 -52q7 -4 14 -7 l109 53q35 17 62.5 -22.5t12 -53.5t-15.5 -172v-1015q0 -84 123 -84q16 0 16 -38t-16 -38q-80 8 -235.5 8z"/>
            <glyph glyph-name="r" unicode="r" horiz-adv-x="755" d="M610 870q70 0 108 -37.5t38 -88.5t-34.5 -81t-77 -30t-79.5 37t-71 37t-67.5 -56.5t-33.5 -128.5v-379q0 -75 103 -75q15 0 15 -38t-15 -38q-84 8 -218.5 8t-218.5 -8q-15 0 -15 38t15 38q105 0 105 75v406q0 133 -92 133q-16 0 -16 37t16 37q51 0 150.5 50t116 63.5 t36.5 13.5t24 -20l-6 -75q0 -23 13 -23t36 26q68 79 168 79z"/>
            <glyph glyph-name="s" unicode="s" horiz-adv-x="749" d="M78 258q0 19 36 19t40 -17q4 -54 68 -128.5t157 -74.5q49 0 86 38t37 79q0 120 -174 166q-264 70 -265 272q0 114 96.5 186t223.5 72t221 -36q39 -105 39 -191q0 -19 -31 -19t-34 11q-18 51 -80 113q-41 40 -113.5 40t-110.5 -50q-23 -31 -22 -64q0 -100 164 -141 t221 -110t57 -165q0 -133 -111 -214q-93 -69 -238 -68t-239 61q-28 67 -28 221z"/>
            <glyph glyph-name="t" unicode="t" horiz-adv-x="671" d="M154 233v481q0 31 -31 31h-55q-16 0 -16 37t16 37q61 0 131.5 58t93.5 127q4 12 45 0.5t47 -29.5v-94q0 -31 31 -31h215q15 0 15 -52.5t-15 -52.5h-215q-31 0 -31 -31v-415q0 -121 30.5 -155.5t86.5 -34.5t131 47q11 8 33.5 -19.5t22.5 -35.5t-3 -11q-108 -113 -274 -113 q-258 2 -258 256z"/>
            <glyph glyph-name="u" unicode="u" horiz-adv-x="1028" d="M742 -35q-13 0 -13 45v47q0 23 -12 23t-27 -14q-92 -89 -232 -89t-184 35q-147 118 -147 297v346q0 103 -84 103q-15 0 -15 36.5t15 36.5q112 0 183.5 11.5t90.5 11.5q46 0 46 -44q-7 -98 -7 -161v-342q0 -123 50 -182q28 -33 95 -33t128 49.5t61 98.5v415q0 103 -84 103 q-16 0 -16 36.5t16 36.5q111 0 182.5 11.5t85.5 11.5q53 0 53 -36q-8 -95 -8 -156v-406q0 -90 10 -117q14 -40 53 -40q13 0 31 4.5t25 -20.5t7 -37t-7 -15q-8 -2 -104.5 -20.5t-137.5 -32t-54 -13.5z"/>
            <glyph glyph-name="v" unicode="v" horiz-adv-x="925" d="M12 784q-15 0 -15 36t15 36q63 -6 206 -6t206 6q15 0 15 -36t-15 -36q-70 0 -70 -45q0 -19 2 -26l146 -457q4 -14 12 -14t14 14l156 451q5 13 5 24q0 53 -91 53q-15 0 -15 36t15 36q60 -6 166.5 -6t169.5 6q15 0 15 -36t-15 -36q-99 0 -125 -71l-258 -674 q-26 -62 -78 -62t-74 52l-286 684q-30 71 -101 71z"/>
            <glyph glyph-name="w" unicode="w" horiz-adv-x="1458" d="M12 784q-15 0 -15 36t15 36q63 -6 206 -6t206 6q15 0 15 -36t-15 -36q-70 0 -70 -45q0 -19 6 -39l142 -444q5 -14 12.5 -14t13.5 14l123 358q4 13 4 23t-4 22l-22 54q-30 71 -88 71q-16 0 -16 36t16 36q60 -6 199.5 -6t199.5 6q16 0 16 -36t-16 -36q-69 0 -70 -46 q0 -14 7 -38l141 -444q5 -14 13 -14t13 14l156 451q5 13 5 24q0 53 -91 53q-15 0 -15 36t15 36q63 -6 169.5 -6t166.5 6q15 0 15 -36t-15 -36q-99 0 -125 -71l-258 -674q-23 -62 -76.5 -62t-75.5 52l-178 426q-5 13 -13 13t-13 -13l-160 -416q-24 -62 -75.5 -62t-76.5 52 l-286 684q-30 71 -101 71z"/>
            <glyph glyph-name="x" unicode="x" horiz-adv-x="950" d="M946 68q16 0 16 -38t-16 -38q-80 8 -224 8t-224 -8q-16 0 -16 38t16 38q82 0 82 24q0 11 -31 55l-105 152q-6 8 -16 8t-18 -10l-111 -133q-47 -56 -47 -73q0 -24 59 -23q16 0 16 -38t-16 -38q-80 8 -162.5 8t-162.5 -8q-16 0 -16 38t16 38q100 0 155 67l205 250 q11 12 11 25t-7 24l-221 281q-54 69 -113 69q-15 0 -15 36t15 36q63 -6 214.5 -6t211.5 6q16 0 16 -36t-16 -36q-61 0 -61 -28q0 -18 25 -54l75 -106q7 -11 17.5 -11t19.5 11l72 90q33 42 33 65q0 33 -72 33q-16 0 -16 36t16 36q60 -6 165.5 -6t168.5 6q15 0 15 -36t-15 -36 q-63 0 -120 -65l-181 -217q-10 -12 -10 -23t10 -24l227 -301q64 -86 135 -86z"/>
            <glyph glyph-name="y" unicode="y" horiz-adv-x="884" d="M14 -442q0 61 59 91q30 15 66 15q104 0 121 39l78 182q7 18 7 35t-7 35l-270 758q-26 71 -107 71q-15 0 -15 36t15 36q63 -6 207 -6t207 6q15 0 15 -36t-15 -36q-80 0 -80 -47q0 -15 8 -37l152 -424q7 -20 18.5 -20t20.5 23l165 421q5 13 5 23q0 61 -121 61q-16 0 -16 36 t16 36q60 -6 184 -6t184 6q16 0 16 -36t-16 -36q-92 0 -125 -59l-448 -1124q-60 -154 -210 -154q-49 0 -81.5 36.5t-32.5 74.5z"/>
            <glyph glyph-name="z" unicode="z" horiz-adv-x="770" d="M739 16q0 -41 -39 -41q-11 0 -79.5 12.5t-108.5 12.5h-443q-41 0 -41 37q0 13 9 31l356 659q9 17 9 27q0 20 -29 20h-111q-63 0 -124 -128l-46 -103q-4 -9 -20.5 -9t-31.5 10.5t-15 24.5q29 252 30 256q7 43 31 45q158 -20 211 -20h348q46 0 46 -33q0 -18 -8 -32 l-359 -666q-4 -7 -4 -15q0 -24 28 -24h109q132 0 225 205q4 11 20 11q64 0 64 -32l-24 -188q-3 -34 -3 -60z"/>
            <glyph glyph-name="braceleft" unicode="{" horiz-adv-x="784" d="M715 -319q-176 0 -239 10q-139 24 -190 124q-36 72 -36 191v424q0 115 -76 144q-31 12 -78 12q-15 0 -15 30t15 31q117 0 144 78q10 29 10 72v325q0 219 81 297q61 60 206 70q54 4 176 4q15 0 15 -38t-13 -38q-133 0 -185 -37q-69 -48 -69 -196v-234q0 -144 -17 -201 q-25 -84 -110 -133q91 -56 114 -153q13 -56 13 -158v-266q0 -163 43 -223t209 -59q17 0 17 -38t-15 -38z"/>
            <glyph glyph-name="bar" unicode="|" horiz-adv-x="536" d="M197 -334v1768h194v-1768h-194z"/>
            <glyph glyph-name="braceright" unicode="}" horiz-adv-x="784" d="M80 -319q-16 0 -16 38t16 38q136 0 185 35q67 50 67 247v266q0 147 31 209t98 102q-91 53 -114 149q-13 54 -13 185v234q0 152 -75 200q-52 33 -179 33q-16 0 -16 38t16 38q194 0 267 -17q116 -26 156 -115t40 -239v-325q0 -112 77 -139q31 -11 76 -11q17 -1 17 -31 t-15 -30q-113 0 -141 -75q-12 -32 -12 -81v-424q0 -203 -120 -279q-73 -46 -345 -46z"/>
            <glyph glyph-name="asciitilde" unicode="~" horiz-adv-x="743" d="M481 346q-52 0 -143 43t-116 46t-34 3q-46 0 -112 -56l-16 -14q-5 -5 -12 -5l-14 3q-23 11 -30 33l-1 12q1 3 3 5l63 72q83 85 191 85q52 0 143 -43t112 -45t26 -2q46 0 88 36t51 42l11 2q27 -2 47 -36l-2 -8l-78 -88q-84 -85 -177 -85z"/>
            <glyph glyph-name="uni00A0" unicode="&#160;" horiz-adv-x="559"/>
            <glyph glyph-name="exclamdown" unicode="¡" horiz-adv-x="520" d="M136 -438q0 118 41 401t49 439q1 20 50.5 20t51.5 -20q2 -102 41 -439t39 -369q0 -71 -42 -111.5t-102 -40.5t-94 35.5t-34 84.5zM118 724q0 64 45 103t112 39t112 -43t45 -105t-41 -109t-117 -47t-116 49t-40 113z"/>
            <glyph glyph-name="cent" unicode="¢" horiz-adv-x="880" d="M295 680q0 -118 72 -213l96 551q-77 -25 -123 -123q-46 -97 -45 -215zM457 219h-21l-33 -190q-1 -8 -19 -8q-18 -1 -54 5q-38 6 -36 19l34 199q-131 49 -203 171q-59 99 -59 218q0 173 113 321t300 164l35 193q1 7 23 7t55 -10t33 -18l-31 -174q143 -10 205 -86 q6 -17 6 -56q0 -40 -33 -72t-65 -32t-54 29q-6 8 -38 67q-10 18 -40 38l-110 -625q47 -21 78 -21q128 0 207 64q20 13 46 -30t9 -54l-82 -53q-116 -66 -266 -66z"/>
            <glyph glyph-name="sterling" unicode="£" horiz-adv-x="1263" d="M284 195q-84 0 -114 -47q-10 -16 -10 -33q0 -45 47 -68q26 -12 61 -12q121 0 189 110q-89 50 -173 50zM688 489q0 -162 -74 -307q117 -41 236 -41t223 70q63 43 78 43q38 0 38 -30q0 -14 -9 -36q-54 -135 -168 -194q-67 -35 -146 -35q-135 0 -315 129 q-117 -129 -283 -129q-117 0 -172 73q-28 37 -28 81q0 73 63 113q121 76 356 -5q45 170 -45 420h-239q-16 0 -16 49t16 49h203q-50 121 -50 267t122 255t302 109q65 0 173 -34q154 -48 155 -107q0 -86 -17 -188q-11 -66 -47 -66q-44 0 -73 115q-13 48 -13 49 q-47 159 -188 159q-201 0 -201 -219q0 -88 84 -340h289q16 0 16 -49t-16 -49h-268q14 -75 14 -152z"/>
            <glyph glyph-name="currency" unicode="¤" horiz-adv-x="1024" d="M201 656q0 -116 91 -208t221 -92t221 92t91 220q1 130 -91 220t-222 91q-130 0 -221 -92l-28 -32q-62 -83 -62 -199zM946 668q0 -144 -88 -262l78 -78l1 -7q-4 -22 -44 -57l-24 -18l-13 -4q-2 0 -4 2l-78 78q-118 -89 -262 -89t-260 91l-80 -80l-7 -2q-21 4 -53 41 t-24 45l80 80q-88 114 -88 260t88 260l-80 80l-1 7q4 21 40 53t45 24l80 -80q118 90 261 90t261 -88l78 78l7 1q21 -4 57 -44l17 -24l5 -14l-80 -81q88 -118 88 -262z"/>
            <glyph glyph-name="yen" unicode="¥" horiz-adv-x="1421" d="M176 514q-15 0 -15 70t15 71h352q-17 33 -47 78l-55 88h-250q-15 0 -15 71t15 71h160l-174 274q-55 87 -107 111q-31 14 -69 14q-15 0 -16 49l3 32q5 19 13 19q60 -6 281 -6t284 6q15 0 15 -50l-3 -33q-5 -17 -12 -17q-112 0 -118 -58l2 -22l11 -29q4 -8 9 -16l272 -434 q11 -17 22 -17t23 19l287 424q25 37 25 65q0 68 -113 68q-15 0 -16 49l3 32q5 19 13 19q59 -6 243 -6t244 6q15 0 16 -49l-3 -32l-6 -15q-3 -4 -7 -4q-115 0 -190 -71q-39 -37 -116 -149l-124 -179h182q15 0 16 -70l-4 -46l-6 -21q-2 -5 -6 -5h-280l-60 -86q-37 -54 -47 -80 h387q15 0 16 -68l-3 -47l-7 -21q-2 -5 -6 -5h-397v-297q0 -86 59 -110q35 -15 99 -15q15 0 15 -50t-15 -50q-84 8 -289 8t-289 -8q-15 0 -15 50t15 50q103 0 131 30t27 95v297h-375z"/>
            <glyph glyph-name="brokenbar" unicode="¦" horiz-adv-x="536" d="M391 109h-194v579h194v-579zM391 795h-194v577h194v-577z"/>
            <glyph glyph-name="section" unicode="§" horiz-adv-x="956" d="M727 421q0 101 -215 216q-93 51 -197 121q-73 -68 -73 -154t161 -182q134 -76 261 -160q63 58 63 159zM915 481q0 -172 -178 -270q127 -123 127 -261t-120 -245q-120 -108 -289 -108q-83 0 -197 42q-176 64 -176 158q0 43 48 77t78 34t69 -59l57 -84q56 -84 142 -84 t134 67q48 68 49 150q0 82 -122 169q-51 35 -199 119t-214 164t-67 190q0 110 98 209q37 36 83 62q-105 107 -105 241t112 230q112 98 265 98q84 0 172 -37q135 -59 143 -131q1 -46 -39 -78t-72 -32t-61 50l-43 71q-44 73 -122 73t-122 -57t-44 -117q0 -88 118 -170 q30 -20 176 -102t223 -166q76 -84 76 -203z"/>
            <glyph glyph-name="dieresis" unicode="¨" horiz-adv-x="778" d="M341 1179q0 -79 -60 -114q-29 -17 -65 -17q-86 0 -116 63q-12 25 -13 58q0 74 57 111q32 20 72 20q68 0 104 -54q21 -32 21 -67zM691 1179q0 -79 -60 -114q-29 -17 -65 -17q-84 0 -116 63q-12 25 -13 58q0 74 57 111q32 20 72 20q67 0 104 -54q21 -31 21 -67z"/>
            <glyph glyph-name="copyright" unicode="©" horiz-adv-x="1611" d="M1079 581q20 0 29 -20q-3 -37 -34 -109l-18 -38l-3 -4q-33 -7 -85 -21t-153 -14q-163 0 -271 102t-114 247v13q0 170 110 283t285 113q63 -1 135 -15t105 -14q17 -37 22 -162v-14q0 -11 -28 -12l-18 3q-4 2 -5 5q-15 154 -197 161h-16q-126 0 -195 -113q-53 -86 -53 -204 q0 -195 114 -290q63 -52 132 -52q186 0 236 149q2 6 22 6zM1430 748q0 218 -132 382t-329 216q-77 20 -158 20q-219 0 -388 -137q-52 -41 -93 -93q-137 -170 -137 -388t132 -382t328 -217q77 -20 158 -20q219 1 383 133t216 328q20 77 20 158zM1532 748q0 -244 -148 -438 q-59 -76 -134 -134q-194 -149 -438 -149q-244 1 -431 143q-186 142 -256 355q-35 108 -35 223q0 243 142 429t356 256q108 35 223 35q243 0 429 -142t257 -355q35 -108 35 -223z"/>
            <glyph glyph-name="ordfeminine" unicode="ª" horiz-adv-x="532" d="M285 938v113q0 14 -8 16l-9 -2q-86 -47 -86 -119t43 -72t56 39q4 12 4 25zM428 805q-68 0 -109 49q-10 12 -14 13l-9 -4q-58 -58 -139 -58t-109 66q-9 22 -9 49q0 75 138 146l87 42q21 10 21 29v118q-7 39 -61 41t-74 -28q-7 -9 -8 -40q-3 -93 -60 -93q-52 5 -55 47 q0 50 43 101q15 19 32 30q74 45 159 45t126 -34t41 -67v-315q0 -54 28 -67l15 -3q19 1 43 23l6 1q11 -3 17 -15v-7q-41 -69 -109 -69z"/>
            <glyph glyph-name="guillemotleft" unicode="«" horiz-adv-x="867" d="M430 436.5q0 18.5 17 37.5l317 359q12 14 32 -3t14 -28l-166 -334q-15 -30 -4 -53l170 -348q7 -15 -14 -29.5t-32 -1.5l-317 363q-17 19 -17 37.5zM75 436.5q0 18.5 17 37.5l317 359q12 14 32 -3t14 -28l-167 -334q-14 -28 -2 -53l169 -348q7 -15 -14 -29.5t-32 -1.5 l-317 363q-17 19 -17 37.5z"/>
            <glyph glyph-name="logicalnot" unicode="¬" horiz-adv-x="1366" d="M1180 0v483h-1180v174h1366v-657h-186z"/>
            <glyph glyph-name="registered" unicode="®" horiz-adv-x="1611" d="M758 758q196 0 196 164q0 73 -59 119t-152 46q-37 0 -42 -7q-3 -8 -3 -12v-284q0 -19 13 -20q24 -6 47 -6zM1092 922q0 -120 -152 -181q-12 -5 -10 -11q21 -78 180 -241q55 -57 96 -63q15 -2 15 -19t-15 -17h-63q-61 0 -123 35t-141 150q-17 25 -59 83t-67 57h-8 q-3 -1 -25 1t-22 -11v-195q0 -50 42 -58q16 -3 40 -3q10 0 10 -26t-7 -26q-34 4 -148 4t-154 -4q-9 1 -9 25t7 24q88 0 88 64v510q0 59 -92 59q-7 1 -7 25t7 24q130 -4 156 -4l162 6q179 0 254 -86q45 -51 45 -122zM1430 748q0 218 -132 382t-329 216q-77 20 -158 20 q-219 0 -388 -137q-52 -41 -93 -93q-137 -170 -137 -388t132 -382t328 -217q77 -20 158 -20q219 1 383 133t216 328q20 77 20 158zM1532 748q0 -244 -148 -438q-59 -76 -134 -134q-194 -149 -438 -149q-244 1 -431 143q-186 142 -256 355q-35 108 -35 223q0 243 142 429 t356 256q108 35 223 35q243 0 429 -142t257 -355q35 -108 35 -223z"/>
            <glyph glyph-name="macron" unicode="¯" horiz-adv-x="608" d="M528 1240q27 0 27 -56t-31 -56h-446q-23 0 -23 56t23 56h450z"/>
            <glyph glyph-name="degree" unicode="°" horiz-adv-x="712" d="M485 1047q0 97 -63 139q-30 20 -66 20q-67 0 -104 -61q-25 -41 -25 -98q0 -97 63 -140q30 -20 66 -20q69 0 105 62q24 41 24 98zM342 782q-114 0 -186 77q-74 77 -74 195t85 188q85 69 198 69q113 1 189 -77t77 -201q0 -123 -102 -198q-73 -53 -187 -53z"/>
            <glyph glyph-name="plusminus" unicode="±" horiz-adv-x="1064" d="M924 -6h-781v147h781v-147zM924 629h-299v-342h-181v342h-301v147h301v305h181v-305h299v-147z"/>
            <glyph glyph-name="uni00B2" unicode="²" horiz-adv-x="626" d="M320 520h-49q-100 0 -212 -5q-33 0 -33 29q0 13 12 26q99 99 195 229q158 215 159 328q-3 127 -107 127q-92 0 -150 -102q-7 -14 -27 -1t-13 23q50 98 130 143q52 29 110 29q103 0 159 -64t56 -149q0 -118 -170 -309q-37 -41 -180 -184h184q72 0 100 12t46 48q7 13 33 3 q24 -9 21 -18l-62 -146q-11 -24 -49 -24q-84 5 -153 5z"/>
            <glyph glyph-name="uni00B3" unicode="³" horiz-adv-x="956" d="M531 784q0 -108 -83 -193t-218 -85q-89 0 -141 28t-52 75q0 60 75 60q28 0 57 -34l32 -37q29 -29 62 -30q63 0 95 83q21 54 21 127q0 72 -45 116t-94 44t-79 -11q-17 -1 -17 33t13 34q95 0 143 46t49 106q0 60 -29 91q-29 29 -75 29t-94 -51q-19 -20 -34 -45 q-9 -13 -29 2t-12 26q59 87 110 118q51 30 122 30t126 -56t55 -130q0 -106 -107 -169q149 -44 149 -207z"/>
            <glyph glyph-name="acute" unicode="´" horiz-adv-x="569" d="M186 1020q-42 0 -42 53q0 21 8 41l120 302q8 17 34 17q26 -1 76 -35t51 -55q0 -6 -3 -11l-176 -263q-32 -49 -68 -49z"/>
            <glyph glyph-name="uni00B5" unicode="µ" horiz-adv-x="1073" d="M356 307q0 -99 41 -157t101 -58q96 0 152 50t57 98v415q0 81 -58 99l-25 4h-1q-15 0 -16 36l4 24q4 13 12 13q111 -1 183 11t85 12q47 0 53 -36v-30q-8 -86 -8 -126v-406q0 -90 10 -117q14 -40 53 -40q13 0 33 5l8 -1q16 -9 21 -45v-20q-2 -6 -12 -10t-123 -26l-27 -6 q-102 -26 -131 -31h-12q-11 4 -11 45v47q0 22 -11 23q-17 -5 -27 -14q-98 -89 -254 -89q-55 0 -113 23q-6 -75 -6 -76l8 -285v-1q0 -58 -46 -94t-108 -36t-96 61q-14 26 -14 58t24 243t25 409v376q0 93 -66 102q-9 1 -21 1t-12 36l3 24q4 13 12 13q99 -1 177 11t97 12 q45 0 46 -44l-7 -161v-342z"/>
            <glyph glyph-name="paragraph" unicode="¶" horiz-adv-x="1118" d="M653 145q0 -77 72 -77t72 75v1065q0 74 -66 74q-78 0 -78 -74v-1063zM1097 1320q0 -38 -16 -38q-118 0 -118 -74v-1063q0 -77 118 -77q16 0 16 -38t-16 -38q-80 8 -194 8h-307q-129 0 -209 -8q-16 0 -16 38t16 38q116 0 116 75v414q0 22 -24 22q-212 0 -329.5 109.5 t-117.5 282.5t129.5 280t317.5 107l285 -3q285 -3 333 3q16 0 16 -38z"/>
            <glyph glyph-name="periodcentered" unicode="·" horiz-adv-x="593" d="M492 512q0 -78 -63 -121q-39 -26 -99 -26q-60 -1 -107 43t-47 107t42 110t130 47q87 0 128 -85q16 -34 16 -75z"/>
            <glyph glyph-name="cedilla" unicode="¸" horiz-adv-x="778" d="M618 -324q0 -86 -81 -138t-192 -52t-138 61q-6 13 -6 29q0 42 36 61q13 7 37 7t66 -38q44 -38 66 -38q53 0 53 51q0 77 -142 142q-20 9 -20 15t6 15l141 209h109l-78 -106q-9 -12 -9 -20t28 -24q124 -66 124 -174z"/>
            <glyph glyph-name="uni00B9" unicode="¹" horiz-adv-x="667" d="M102 1238q0 22 7 24q192 63 284 112q6 4 16 4t11 -12v-6q-2 -18 -2 -107v-555q0 -80 18 -98t80 -18q9 0 9 -30l-3 -24q-3 -6 -6 -6q-40 4 -196 4t-195 -4q-9 0 -9 30t9 30q73 0 93 24t20 92v510q0 28 -20 29l-21 -4q-52 -18 -74 -23q-21 6 -21 28z"/>
            <glyph glyph-name="ordmasculine" unicode="º" horiz-adv-x="624" d="M442 1098q0 102 -54 171q-34 42 -82 42t-87 -73l-18 -40q-19 -55 -19 -119q0 -117 56 -182q33 -39 75 -39q63 0 100 79q29 59 29 161zM586 1083q0 -145 -92 -220q-70 -58 -185 -58t-191 84t-77 197q1 112 81 192t197 80t192 -84t75 -191z"/>
            <glyph glyph-name="guillemotright" unicode="»" horiz-adv-x="867" d="M455 432.5q0 -18.5 -17 -37.5l-317 -359q-12 -14 -32 3t-14 28l167 334q14 28 2 53l-169 348q-7 15 14 29.5t32 1.5l317 -363q17 -19 17 -37.5zM810 432.5q0 -18.5 -17 -37.5l-317 -359q-12 -14 -32 3t-14 28l166 334q15 30 4 53l-170 348q-7 15 14 29.5t32 1.5l317 -363 q17 -19 17 -37.5z"/>
            <glyph glyph-name="onequarter" unicode="¼" horiz-adv-x="1509" d="M1044 1300l-454 -1300h-127l455 1300h126zM1370 97q0 -55 63 -55q9 0 9.5 -23.5t-9.5 -23.5q-50 5 -145 5t-147 -5q-9 0 -9 23.5t9 23.5q88 0 88 55v133h-285q-54 0 -54 36q0 30 32 76l179 237q117 154 148 204l58 93q9 11 27 11q53 0 53 -33q0 -6 -3 -11l-382 -505 q-6 -6 -6 -16t12 -10h221v266q0 14 70.5 13.5t70.5 -13.5v-266h76q9 0 9.5 -41t-9.5 -41h-76v-133zM402 700q0 -79 22 -106t78 -27q9 0 9 -23.5t-9 -23.5q-50 5 -176 5t-175 -5q-9 0 -9.5 23.5t9.5 23.5q68 0 89 29.5t21 102.5v500q0 40 -13 35q-65 -22 -100 -39 q-12 -6 -19 14t5 23q82 34 216 132q17 12 29 13q27 -1 25 -39t-2 -93v-545z"/>
            <glyph glyph-name="onehalf" unicode="½" horiz-adv-x="1509" d="M1044 1300l-454 -1300h-127l455 1300h126zM402 700q0 -79 22 -106t78 -27q9 0 9 -23.5t-9 -23.5q-50 5 -176 5t-175 -5q-9 0 -9.5 23.5t9.5 23.5q68 0 89 29.5t21 102.5v500q0 40 -13 35q-65 -22 -100 -39q-12 -6 -19 14t5 23q82 34 216 132q17 12 29 13q27 -1 25 -39 t-2 -93v-545zM1190 0h-49q-100 0 -212 -5q-33 0 -33 29q0 13 12 26q99 99 195 229q158 215 159 328q-3 127 -107 127q-92 0 -150 -102q-7 -14 -27 -1t-13 23q50 98 130 143q52 29 110 29q103 0 159 -64t56 -149q0 -118 -170 -309q-37 -41 -180 -184h184q72 0 100 12t46 48 q7 13 33 3q24 -9 21 -18l-62 -146q-11 -24 -49 -24q-84 5 -153 5z"/>
            <glyph glyph-name="threequarters" unicode="¾" horiz-adv-x="1509" d="M1044 1300l-454 -1300h-127l455 1300h126zM1370 97q0 -55 63 -55q9 0 9.5 -23.5t-9.5 -23.5q-50 5 -145 5t-147 -5q-9 0 -9 23.5t9 23.5q88 0 88 55v133h-285q-54 0 -54 36q0 30 32 76l179 237q117 154 148 204l58 93q9 11 27 11q53 0 53 -33q0 -6 -3 -11l-382 -505 q-6 -6 -6 -16t12 -10h221v266q0 14 70.5 13.5t70.5 -13.5v-266h76q9 0 9.5 -41t-9.5 -41h-76v-133zM531 789q0 -109 -83 -194t-218 -84q-89 1 -141 29t-52 74q0 60 75 60q28 0 57 -34l32 -38q29 -29 62 -29q63 0 95 83q21 54 21 127t-45 117t-94 43q-49 0 -79 -11 q-17 0 -17 34t13 33q95 0 143 46q48 47 49 107q0 60 -29 90t-75 30t-94 -52q-19 -20 -34 -45q-9 -13 -29 2t-12 26q59 87 110 118t122 31t126 -57q55 -56 55 -130q0 -106 -107 -169q149 -44 149 -207z"/>
            <glyph glyph-name="questiondown" unicode="¿" horiz-adv-x="751" d="M376 706q0 64 44.5 104t111 40t112.5 -44t46 -105t-41 -108t-117.5 -47t-116 48t-39.5 112zM174 -112q0 178 102 230l166 82q72 36 72 58q2 52 -18 126q4 26 54 26q16 0 20 -8q80 -148 80 -227t-39 -112t-77 -51l-104 -54q-126 -64 -126 -112q0 -58 43 -98t163 -50l78 -6 q31 -2 68.5 -36t37.5 -84t-36 -80t-86 -30q-94 0 -181 61t-152 159t-65 206z"/>
            <glyph glyph-name="Agrave" unicode="À" horiz-adv-x="1401" d="M839 1522q0 -48 -50 -48q-22 0 -54 14l-274 126q-18 10 -18 34q-1 24 21 60q39 66 73 66q7 0 12 -4l251 -190q39 -32 39 -58zM634 1084q-10 0 -17 -16l-159 -434q-3 -8 -4 -16q0 -11 21 -11h293q28 0 28 22q0 6 -3 15l-144 424q-5 16 -15 16zM1398 86q15 0 15 -46 t-15 -47q-115 7 -265 7t-275 -7q-15 1 -15 47t15 46q96 0 96 65q0 21 -10 51l-100 297q-7 22 -34 24h-373q-21 0 -32 -29l-109 -293q-9 -24 -9 -42q0 -73 147 -73q13 0 13 -46t-13 -47q-83 7 -233 7t-228 -7q-14 1 -14 47t14 46q152 0 202 131l370 968q13 30 13 38t-14 22 t-15 23q0 15 33 26q34 11 104 53t89 42q33 1 44 -47t53 -165l344 -975q41 -116 202 -116z"/>
            <glyph glyph-name="Aacute" unicode="Á" horiz-adv-x="1401" d="M545 1486q-16 11 -16 37t40 57l259 197q7 6 15 6q23 0 56 -51t33 -76t-12 -32l-287 -135q-54 -26 -88 -3zM634 1084q-10 0 -17 -16l-159 -434q-3 -8 -4 -16q0 -11 21 -11h293q28 0 28 22q0 6 -3 15l-144 424q-5 16 -15 16zM1398 86q15 0 15 -46t-15 -47q-115 7 -265 7 t-275 -7q-15 1 -15 47t15 46q96 0 96 65q0 21 -10 51l-100 297q-7 22 -34 24h-373q-21 0 -32 -29l-109 -293q-9 -24 -9 -42q0 -73 147 -73q13 0 13 -46t-13 -47q-83 7 -233 7t-228 -7q-14 1 -14 47t14 46q152 0 202 131l370 968q13 30 13 38t-14 22t-15 23q0 15 33 26 q34 11 104 53t89 42q33 1 44 -47t53 -165l344 -975q41 -116 202 -116z"/>
            <glyph glyph-name="Acircumflex" unicode="Â" horiz-adv-x="1401" d="M1030 1512q0 -8 -10 -22q-10 -16 -18 -16q-2 0 -3 1l-267 124q-36 17 -75 0l-266 -124l-2 -1q-11 4 -24 24t-4 26l283 251q26 23 50 23t49 -23l283 -251q4 -4 4 -12zM634 1084q-10 0 -17 -16l-159 -434q-3 -8 -4 -16q0 -11 21 -11h293q28 0 28 22q0 6 -3 15l-144 424 q-5 16 -15 16zM1398 86q15 0 15 -46t-15 -47q-115 7 -265 7t-275 -7q-15 1 -15 47t15 46q96 0 96 65q0 21 -10 51l-100 297q-7 22 -34 24h-373q-21 0 -32 -29l-109 -293q-9 -24 -9 -42q0 -73 147 -73q13 0 13 -46t-13 -47q-83 7 -233 7t-228 -7q-14 1 -14 47t14 46 q152 0 202 131l370 968q13 30 13 38t-14 22t-15 23q0 15 33 26q34 11 104 53t89 42q33 1 44 -47t53 -165l344 -975q41 -116 202 -116z"/>
            <glyph glyph-name="Atilde" unicode="Ã" horiz-adv-x="1401" d="M801 1548q-41 0 -131 32t-123 32q-63 0 -112 -59q-3 -3 -10 -3t-21 14t-15 21q0 6 2 8q106 160 218 160q50 0 129 -30t114 -30q64 0 122 62q2 3 8 3t23 -14t17 -22q0 -7 -2 -10q-110 -164 -219 -164zM634 1084q-10 0 -17 -16l-159 -434q-3 -8 -4 -16q0 -11 21 -11h293 q28 0 28 22q0 6 -3 15l-144 424q-5 16 -15 16zM1398 86q15 0 15 -46t-15 -47q-115 7 -265 7t-275 -7q-15 1 -15 47t15 46q96 0 96 65q0 21 -10 51l-100 297q-7 22 -34 24h-373q-21 0 -32 -29l-109 -293q-9 -24 -9 -42q0 -73 147 -73q13 0 13 -46t-13 -47q-83 7 -233 7 t-228 -7q-14 1 -14 47t14 46q152 0 202 131l370 968q13 30 13 38t-14 22t-15 23q0 15 33 26q34 11 104 53t89 42q33 1 44 -47t53 -165l344 -975q41 -116 202 -116z"/>
            <glyph glyph-name="Adieresis" unicode="Ä" horiz-adv-x="1401" d="M601 1632q0 -80 -60 -114q-29 -18 -65 -18q-84 0 -116 64q-12 24 -13 58q0 74 57 110q32 20 72 20q68 0 104 -54q21 -32 21 -66zM1031 1632q0 -80 -60 -114q-29 -18 -65 -18q-84 0 -116 64q-12 24 -13 58q0 74 57 110q32 20 72 20q67 0 104 -54q21 -30 21 -66zM634 1084 q-10 0 -17 -16l-159 -434q-3 -8 -4 -16q0 -11 21 -11h293q28 0 28 22q0 6 -3 15l-144 424q-5 16 -15 16zM1398 86q15 0 15 -46t-15 -47q-115 7 -265 7t-275 -7q-15 1 -15 47t15 46q96 0 96 65q0 21 -10 51l-100 297q-7 22 -34 24h-373q-21 0 -32 -29l-109 -293 q-9 -24 -9 -42q0 -73 147 -73q13 0 13 -46t-13 -47q-83 7 -233 7t-228 -7q-14 1 -14 47t14 46q152 0 202 131l370 968q13 30 13 38t-14 22t-15 23q0 15 33 26q34 11 104 53t89 42q33 1 44 -47t53 -165l344 -975q41 -116 202 -116z"/>
            <glyph glyph-name="Aring" unicode="Å" horiz-adv-x="1401" d="M634 1084q-10 0 -17 -16l-158 -426q-5 -11 -5 -18l3 -10q6 -7 24 -7h287q28 0 28 22q0 7 -3 15l-144 424q-5 16 -15 16zM789 1530q0 82 -52 118q-22 14 -50 16q-64 -4 -89 -71q-11 -28 -11 -63q0 -79 48 -114q23 -16 52 -16q64 0 90 66q12 29 12 64zM1398 86q15 0 15 -46 t-15 -47q-133 7 -270 7t-270 -7q-15 1 -15 47t15 46q95 0 96 65q0 22 -10 51l-100 297q-9 24 -34 24h-373q-25 0 -32 -29l-109 -293q-9 -24 -9 -40t4 -27q26 -47 143 -48q13 0 14 -46t-14 -47q-140 7 -230 7t-231 -7q-14 1 -14 47t14 46q152 0 202 131l425 1117 q-89 31 -125 115q-16 39 -16 81q0 92 67 150t174 59q107 0 173 -84l20 -30l15 -36q9 -29 9 -59q0 -95 -73 -157q-21 -18 -46 -30q22 -76 54 -166l344 -975q22 -63 106 -96q48 -20 96 -20z"/>
            <glyph glyph-name="AE" unicode="Æ" horiz-adv-x="1848" d="M831 713v498q-1 17 -11 17t-20 -17l-286 -498q-4 -7 -4 -13q0 -16 17 -16h273q31 0 31 29zM1688 1010q0 -16 -50.5 -16t-50.5 16q0 252 -229 257l-250 5q-31 1 -31 -44v-515q0 -29 29 -29h181q77 0 77 176q0 14 48 14t48 -14q-7 -90 -7 -220t7 -201q0 -13 -48 -13t-48 13 q0 157 -77 161h-181q-29 0 -29 -33v-294q0 -195 130 -195l244 8q217 7 217 250q0 17 50.5 17t50.5 -17v-287q0 -27 -6 -35q-19 -21 -93 -21l-730 7q-156 0 -262 -7q-14 0 -14 46.5t14 46.5q153 0 153 109v374q0 31 -29 31h-334q-26 0 -36 -19l-206 -394q-14 -27 -14 -46 q0 -55 141 -55q14 0 14 -46.5t-14 -46.5q-117 7 -241 7t-225 -7q-14 0 -14 46.5t14 46.5q91 0 130 36t71 90l571 967q18 29 18 47q0 39 -83 39q-14 0 -14 46.5t14 46.5q142 -6 378 -6l614 6q72 0 86 -6t16 -39v-303z"/>
            <glyph glyph-name="Ccedilla" unicode="Ç" horiz-adv-x="1349" d="M947 -336q0 -86 -81 -138t-192 -52t-138 61q-6 13 -6 29q0 42 36 61q12 7 36 7t68 -38t65 -38q53 0 53 51q0 77 -142 142q-20 9 -20 15t6 15l131 194q-287 3 -497 191t-211 493q0 304 204.5 516t535.5 212q130 0 338 -43q56 -11 107 -13q33 -90 40 -326q0 -18 -46.5 -21 t-47.5 13q-10 110 -89.5 206t-297.5 96q-217 0 -344 -168.5t-127 -444.5t140.5 -446.5t316.5 -170.5q343 -1 440 277q7 19 51.5 8.5t43.5 -31.5q-5 -57 -42 -153t-61 -132q-47 -8 -125 -30t-219 -30l-69 -94q-9 -12 -9 -20t28 -24q124 -66 124 -174z"/>
            <glyph glyph-name="Egrave" unicode="È" horiz-adv-x="1250" d="M854 1522q0 -48 -50 -48q-22 0 -54 14l-274 126q-18 10 -18 34t22 60q39 66 72 66q7 0 12 -4l251 -190q39 -32 39 -58zM60 40q0 46 15 46q162 0 162 116v954q0 109 -172 109q-14 1 -14 47t14 46q143 -6 299 -6l708 6q57 0 57 -51v-306q-1 -17 -51 -17t-50 17 q0 130 -99 205q-61 47 -125 49l-296 10q-27 1 -27 -40v-509q0 -29 29 -29h135q123 0 123 91v99q0 14 52 14t53 -14q-7 -67 -7 -231t7 -227q-1 -15 -53 -15t-52 15v86q0 89 -123 89h-135q-29 0 -29 -31v-341q0 -77 75 -116q39 -20 81 -20l223 5q157 2 205 137q18 50 18 116 q0 17 51 17t51 -17v-287q0 -64 -117 -64l-696 7q-162 0 -297 -7q-15 1 -15 47z"/>
            <glyph glyph-name="Eacute" unicode="É" horiz-adv-x="1250" d="M480 1486q-16 11 -16 37t40 57l259 197q7 6 15 6q23 0 56 -51t33 -76t-12 -32l-287 -135q-54 -26 -88 -3zM60 40q0 46 15 46q162 0 162 116v954q0 109 -172 109q-14 1 -14 47t14 46q143 -6 299 -6l708 6q57 0 57 -51v-306q-1 -17 -51 -17t-50 17q0 130 -99 205 q-61 47 -125 49l-296 10q-27 1 -27 -40v-509q0 -29 29 -29h135q123 0 123 91v99q0 14 52 14t53 -14q-7 -67 -7 -231t7 -227q-1 -15 -53 -15t-52 15v86q0 89 -123 89h-135q-29 0 -29 -31v-341q0 -77 75 -116q39 -20 81 -20l223 5q157 2 205 137q18 50 18 116q0 17 51 17 t51 -17v-287q0 -64 -117 -64l-696 7q-162 0 -297 -7q-15 1 -15 47z"/>
            <glyph glyph-name="Ecircumflex" unicode="Ê" horiz-adv-x="1250" d="M974 1512q0 -8 -10 -22q-10 -16 -18 -16q-2 0 -3 1l-267 124q-36 17 -75 0l-266 -124l-2 -1q-11 4 -24 24t-4 26l283 251q26 23 50 23t49 -23l283 -251q4 -4 4 -12zM60 40q0 46 15 46q162 0 162 116v954q0 109 -172 109q-14 1 -14 47t14 46q143 -6 299 -6l708 6 q57 0 57 -51v-306q-1 -17 -51 -17t-50 17q0 130 -99 205q-61 47 -125 49l-296 10q-27 1 -27 -40v-509q0 -29 29 -29h135q123 0 123 91v99q0 14 52 14t53 -14q-7 -67 -7 -231t7 -227q-1 -15 -53 -15t-52 15v86q0 89 -123 89h-135q-29 0 -29 -31v-341q0 -77 75 -116 q39 -20 81 -20l223 5q157 2 205 137q18 50 18 116q0 17 51 17t51 -17v-287q0 -64 -117 -64l-696 7q-162 0 -297 -7q-15 1 -15 47z"/>
            <glyph glyph-name="Edieresis" unicode="Ë" horiz-adv-x="1250" d="M526 1632q0 -80 -60 -114q-29 -18 -65 -18q-84 0 -116 64q-12 24 -13 58q0 74 57 110q32 20 72 20q68 0 104 -54q21 -32 21 -66zM956 1632q0 -80 -60 -114q-29 -18 -65 -18q-84 0 -116 64q-12 24 -13 58q0 74 57 110q32 20 72 20q67 0 104 -54q21 -30 21 -66zM60 40 q0 46 15 46q162 0 162 116v954q0 109 -172 109q-14 1 -14 47t14 46q143 -6 299 -6l708 6q57 0 57 -51v-306q-1 -17 -51 -17t-50 17q0 130 -99 205q-61 47 -125 49l-296 10q-27 1 -27 -40v-509q0 -29 29 -29h135q123 0 123 91v99q0 14 52 14t53 -14q-7 -67 -7 -231t7 -227 q-1 -15 -53 -15t-52 15v86q0 89 -123 89h-135q-29 0 -29 -31v-341q0 -77 75 -116q39 -20 81 -20l223 5q157 2 205 137q18 50 18 116q0 17 51 17t51 -17v-287q0 -64 -117 -64l-696 7q-162 0 -297 -7q-15 1 -15 47z"/>
            <glyph glyph-name="Igrave" unicode="Ì" horiz-adv-x="734" d="M494 1522q0 -48 -50 -48q-22 0 -54 14l-274 126q-18 10 -18 34t22 60q39 66 72 66q7 0 12 -4l251 -190q39 -32 39 -58zM481 202q0 -116 159 -116q14 0 14 -46t-14 -47q-133 7 -286 7t-279 -7q-15 1 -15 47t15 46q162 0 162 116v952q0 116 -161 116q-14 0 -14 46t14 47 q48 -5 284 -5t284 5q14 -1 14 -47t-14 -46q-163 0 -163 -116v-952z"/>
            <glyph glyph-name="Iacute" unicode="Í" horiz-adv-x="734" d="M220 1486q-16 11 -16 37t40 57l259 197q7 6 15 6q23 0 56 -51t33 -76t-12 -32l-287 -135q-54 -26 -88 -3zM481 202q0 -116 159 -116q14 0 14 -46t-14 -47q-133 7 -286 7t-279 -7q-15 1 -15 47t15 46q162 0 162 116v952q0 116 -161 116q-14 0 -14 46t14 47q48 -5 284 -5 t284 5q14 -1 14 -47t-14 -46q-163 0 -163 -116v-952z"/>
            <glyph glyph-name="Icircumflex" unicode="Î" horiz-adv-x="734" d="M694 1512q0 -8 -10 -22q-10 -16 -18 -16q-2 0 -3 1l-267 124q-36 17 -75 0l-266 -124l-2 -1q-11 4 -24 24t-4 26l283 251q26 23 50 23t49 -23l283 -251q4 -4 4 -12zM481 202q0 -116 159 -116q14 0 14 -46t-14 -47q-133 7 -286 7t-279 -7q-15 1 -15 47t15 46 q162 0 162 116v952q0 116 -161 116q-14 0 -14 46t14 47q48 -5 284 -5t284 5q14 -1 14 -47t-14 -46q-163 0 -163 -116v-952z"/>
            <glyph glyph-name="Idieresis" unicode="Ï" horiz-adv-x="734" d="M276 1632q0 -80 -60 -114q-29 -18 -65 -18q-84 0 -116 64q-12 24 -13 58q0 74 57 110q32 20 72 20q68 0 104 -54q21 -32 21 -66zM706 1632q0 -80 -60 -114q-29 -18 -65 -18q-84 0 -116 64q-12 24 -13 58q0 74 57 110q32 20 72 20q67 0 104 -54q21 -30 21 -66zM481 202 q0 -116 159 -116q14 0 14 -46t-14 -47q-133 7 -286 7t-279 -7q-15 1 -15 47t15 46q162 0 162 116v952q0 116 -161 116q-14 0 -14 46t14 47q48 -5 284 -5t284 5q14 -1 14 -47t-14 -46q-163 0 -163 -116v-952z"/>
            <glyph glyph-name="Eth" unicode="Ð" horiz-adv-x="1567" d="M1215 716q0 177 -99 324q-164 240 -480 240h-79q-76 0 -76 -79v-454q0 -29 27 -29h230q13 0 13 -46.5t-13 -46.5h-230q-27 0 -27 -31v-321q0 -150 87 -186q39 -16 130 -16q213 0 353 153q164 178 164 492zM1487 716q0 -328 -199 -526t-522 -197l-426 7q-165 0 -265 -7 q-15 0 -15 46.5t15 46.5q162 0 162 116v392q0 31 -29 31h-179q-15 0 -15 46.5t15 46.5h179q29 0 29 29v409q0 109 -172 109q-14 0 -14 46.5t14 46.5q143 -6 288 -6l365 6q303 0 510 -139q259 -175 259 -503z"/>
            <glyph glyph-name="Ntilde" unicode="Ñ" horiz-adv-x="1482" d="M834 1548q-41 0 -131 32t-123 32q-63 0 -112 -59q-3 -3 -10 -3q-8 0 -22 14t-14 21q0 6 2 8q106 160 218 160q50 0 129 -30t114 -30q64 0 122 62q2 3 8 3t23 -14t17 -22q0 -7 -2 -10q-110 -164 -219 -164zM1288 76q0 -97 -28 -97t-77 57l-822 978q-13 16 -23 16t-10 -22 v-806q0 -116 151 -116q15 0 15 -47t-15 -46q-92 7 -197 7t-217 -7q-14 -3 -14 45t14 48q159 0 159 116v954q0 114 -173 114q-13 0 -13 46t13 47q49 -5 155 -5t120 -2q59 -9 100 -57l711 -867q10 -14 24 -14q24 0 24 31v703q0 118 -153 118q-15 0 -15 46t15 47q102 -5 200 -5 t191 5q14 -1 14 -47t-14 -46q-135 0 -135 -118v-1076z"/>
            <glyph glyph-name="Ograve" unicode="Ò" horiz-adv-x="1524" d="M889 1522q0 -48 -50 -48q-22 0 -54 14l-274 126q-18 10 -18 34q-1 24 21 60q39 66 73 66q7 0 12 -4l251 -190q39 -32 39 -58zM1157 649q0 255 -124 438q-142 211 -294 211t-266 -131q-145 -167 -145 -457t153 -481q129 -162 274 -162q265 0 358 279q44 130 44 303z M1430 663q0 -220 -145 -417q-202 -273 -544 -273q-225 0 -405 124q-281 194 -281 570q-1 251 185 485t505 233q246 0 426 -155q259 -224 259 -567z"/>
            <glyph glyph-name="Oacute" unicode="Ó" horiz-adv-x="1524" d="M610 1486q-16 11 -16 37t40 57l259 197q7 6 15 6q23 0 56 -51t33 -76t-12 -32l-287 -135q-54 -26 -88 -3zM1157 649q0 255 -124 438q-142 211 -294 211t-266 -131q-145 -167 -145 -457t153 -481q129 -162 274 -162q265 0 358 279q44 130 44 303zM1430 663 q0 -220 -145 -417q-202 -273 -544 -273q-225 0 -405 124q-281 194 -281 570q-1 251 185 485t505 233q246 0 426 -155q259 -224 259 -567z"/>
            <glyph glyph-name="Ocircumflex" unicode="Ô" horiz-adv-x="1524" d="M1074 1512q0 -8 -10 -22q-10 -16 -18 -16q-2 0 -3 1l-267 124q-36 17 -75 0l-266 -124l-2 -1q-11 4 -24 24t-4 26l283 251q26 23 50 23t49 -23l283 -251q4 -4 4 -12zM1157 649q0 255 -124 438q-142 211 -294 211t-266 -131q-145 -167 -145 -457t153 -481 q129 -162 274 -162q265 0 358 279q44 130 44 303zM1430 663q0 -220 -145 -417q-202 -273 -544 -273q-225 0 -405 124q-281 194 -281 570q-1 251 185 485t505 233q246 0 426 -155q259 -224 259 -567z"/>
            <glyph glyph-name="Otilde" unicode="Õ" horiz-adv-x="1524" d="M842 1548q-41 0 -131 32t-123 32q-63 0 -112 -59q-3 -3 -10 -3q-8 0 -22 14t-14 21q0 6 2 8q106 160 218 160q50 0 129 -30t114 -30q64 0 122 62q2 3 8 3t23 -14t17 -22q0 -7 -2 -10q-110 -164 -219 -164zM1157 649q0 255 -124 438q-142 211 -294 211t-266 -131 q-145 -167 -145 -457t153 -481q129 -162 274 -162q265 0 358 279q44 130 44 303zM1430 663q0 -220 -145 -417q-202 -273 -544 -273q-225 0 -405 124q-281 194 -281 570q-1 251 185 485t505 233q246 0 426 -155q259 -224 259 -567z"/>
            <glyph glyph-name="Odieresis" unicode="Ö" horiz-adv-x="1524" d="M636 1632q0 -80 -60 -114q-29 -18 -65 -18q-84 0 -116 64q-12 24 -13 58q0 74 57 110q32 20 72 20q68 0 104 -54q21 -32 21 -66zM1066 1632q0 -80 -60 -114q-29 -18 -65 -18q-84 0 -116 64q-12 24 -13 58q0 74 57 110q32 20 72 20q67 0 104 -54q21 -30 21 -66zM1157 649 q0 255 -124 438q-142 211 -294 211t-266 -131q-145 -167 -145 -457t153 -481q129 -162 274 -162q265 0 358 279q44 130 44 303zM1430 663q0 -220 -145 -417q-202 -273 -544 -273q-225 0 -405 124q-281 194 -281 570q-1 251 185 485t505 233q246 0 426 -155 q259 -224 259 -567z"/>
            <glyph glyph-name="multiply" unicode="×" horiz-adv-x="786" d="M778 98l-137 -137l-244 242l-241 -242l-138 137l242 244l-242 242l138 137l241 -242l244 242l137 -137l-243 -242z"/>
            <glyph glyph-name="Oslash" unicode="Ø" horiz-adv-x="1524" d="M328 724q0 -230 87 -395l573 819q-121 150 -261 150t-254 -131q-145 -166 -145 -443zM755 67q265 0 358 279q44 130 44 324t-87 356l-572 -818q121 -141 257 -141zM266 -100q-17 0 -55 29t-38 41t2 15l107 153q-227 191 -227 529q-1 251 185 485t505 233q191 0 343 -94 l95 136q3 4 22 4t57 -30q38 -31 37 -39q0 -8 -2 -11l-101 -144q234 -218 234 -544q0 -220 -145 -417q-202 -273 -544 -273q-189 0 -346 87l-107 -153q-5 -7 -22 -7z"/>
            <glyph glyph-name="Ugrave" unicode="Ù" horiz-adv-x="1512" d="M959 1522q0 -48 -50 -48q-22 0 -54 14l-274 126q-18 10 -18 34q-1 24 21 60q39 66 73 66q7 0 12 -4l251 -190q39 -32 39 -58zM1322 880q0 -276 -12 -416q-16 -245 -148 -368t-389 -123q-156 0 -268 42q-157 61 -214 177t-67 353v609q0 116 -157 116q-14 0 -14 46t14 47 q147 -5 287 -5t288 5q14 -1 14 -47t-14 -46q-174 0 -174 -116v-468l11 -281q3 -124 55 -203q90 -135 270 -135q180 -1 276 99q97 100 97 330v658q0 116 -157 116q-14 0 -14 46t14 47q138 -5 230 -5t226 5q15 -1 15 -47t-15 -46q-154 0 -154 -116v-274z"/>
            <glyph glyph-name="Uacute" unicode="Ú" horiz-adv-x="1512" d="M685 1486q-16 11 -16 37t40 57l259 197q7 6 15 6q23 0 56 -51t33 -76t-12 -32l-287 -135q-54 -26 -88 -3zM1322 880q0 -276 -12 -416q-16 -245 -148 -368t-389 -123q-156 0 -268 42q-157 61 -214 177t-67 353v609q0 116 -157 116q-14 0 -14 46t14 47q147 -5 287 -5t288 5 q14 -1 14 -47t-14 -46q-174 0 -174 -116v-468l11 -281q3 -124 55 -203q90 -135 270 -135q180 -1 276 99q97 100 97 330v658q0 116 -157 116q-14 0 -14 46t14 47q138 -5 230 -5t226 5q15 -1 15 -47t-15 -46q-154 0 -154 -116v-274z"/>
            <glyph glyph-name="Ucircumflex" unicode="Û" horiz-adv-x="1512" d="M1145 1512q1 -8 -9 -22q-10 -16 -19 -16q-2 0 -3 1l-267 124q-36 17 -75 0l-266 -124l-2 -1q-11 4 -24 24t-4 26l283 251q27 23 51 23t48 -23l283 -251q4 -4 4 -12zM1322 880q0 -276 -12 -416q-16 -245 -148 -368t-389 -123q-156 0 -268 42q-157 61 -214 177t-67 353v609 q0 116 -157 116q-14 0 -14 46t14 47q147 -5 287 -5t288 5q14 -1 14 -47t-14 -46q-174 0 -174 -116v-468l11 -281q3 -124 55 -203q90 -135 270 -135q180 -1 276 99q97 100 97 330v658q0 116 -157 116q-14 0 -14 46t14 47q138 -5 230 -5t226 5q15 -1 15 -47t-15 -46 q-154 0 -154 -116v-274z"/>
            <glyph glyph-name="Udieresis" unicode="Ü" horiz-adv-x="1512" d="M731 1632q0 -80 -60 -114q-29 -18 -65 -18q-84 0 -116 64q-12 24 -13 58q0 74 57 110q32 20 72 20q68 0 104 -54q21 -32 21 -66zM1161 1632q0 -80 -60 -114q-29 -18 -65 -18q-84 0 -116 64q-12 24 -13 58q0 74 57 110q32 20 72 20q67 0 104 -54q21 -30 21 -66zM1322 880 q0 -276 -12 -416q-16 -245 -148 -368t-389 -123q-156 0 -268 42q-157 61 -214 177t-67 353v609q0 116 -157 116q-14 0 -14 46t14 47q147 -5 287 -5t288 5q14 -1 14 -47t-14 -46q-174 0 -174 -116v-468l11 -281q3 -124 55 -203q90 -135 270 -135q180 -1 276 99q97 100 97 330 v658q0 116 -157 116q-14 0 -14 46t14 47q138 -5 230 -5t226 5q15 -1 15 -47t-15 -46q-154 0 -154 -116v-274z"/>
            <glyph glyph-name="Yacute" unicode="Ý" horiz-adv-x="1325" d="M615 1486q-16 11 -16 37t40 57l259 197q7 6 15 6q23 0 56 -51t33 -76t-12 -32l-287 -135q-54 -26 -88 -3zM758 202q0 -116 148 -116q13 0 13 -46t-13 -47q-66 7 -266 7t-273 -7q-14 1 -14 47t14 46q147 0 147 116v292q0 68 -9 92t-56 98l-298 470q-52 82 -101 104 q-28 12 -63 12q-15 0 -15 46t15 47q47 -5 262 -5t265 5q14 -1 14 -47t-14 -46q-110 0 -110 -53q0 -31 20 -63l254 -405q10 -17 20 -17t22 19l268 395q23 34 23 60q0 64 -105 64q-15 0 -15 46t15 47q46 -5 226 -5t228 5q14 -1 14 -47t-14 -46q-108 0 -179 -68l-33 -35 l-337 -481q-37 -56 -45 -81t-8 -106v-297z"/>
            <glyph glyph-name="Thorn" unicode="Þ" horiz-adv-x="1225" d="M862 728q0 282 -153 444q-18 20 -30 20t-20 -6q-7 -6 -71 -62q-64 -57 -136 -94q-22 -12 -22 -46v-866q0 -36 28 -36q7 0 16 2q202 57 307 273q81 167 81 371zM1135 728q-1 -215 -137 -405t-339 -280q-93 -41 -191 -56q-36 -7 -36 -38v-193q0 -71 -142 -173l-144 -99 q-6 -4 -12 -4q-39 0 -77 61q-14 23 -14 35t5 17q82 71 110 107t28 92v1300q0 136 -159 136q-15 0 -15 46.5t15 46.5q176 0 326 60q20 8 41 8q40 0 43 -35l-7 -197q0 -23 17 -23q11 0 23 6t124 98t195 91q43 0 77 -22q157 -122 226 -322q43 -123 43 -257z"/>
            <glyph glyph-name="germandbls" unicode="ß" horiz-adv-x="1153" d="M1124 258q0 -144 -108 -224q-80 -59 -196 -59t-202 62q-28 71 -28 180q0 19 38 19t38 -17q0 -48 56 -105t116 -57q94 -1 94 123t-137 201q-236 132 -236 293q0 128 163 243q120 85 120 222q0 89 -52 171t-143 81q-131 0 -205 -190q-49 -126 -49 -308v-750q0 -75 133 -75 q16 0 16 -38t-16 -38q-80 8 -234 8t-237 -8q-15 0 -15 38t15 38q109 0 109 75v527q0 35 -31 35h-61q-16 1 -16 37t16 36q92 0 92 113q0 276 150 436t349 160q198 0 308 -105q88 -84 88 -210t-197 -264q-114 -80 -114 -171t139 -165q237 -126 237 -314z"/>
            <glyph glyph-name="agrave" unicode="à" horiz-adv-x="860" d="M460 1074q0 -54 -42 -54q-35 0 -69 49l-169 249q-5 8 -5 16q0 32 50 59t78 27t32 -14l117 -292q8 -22 8 -40zM461 193v182q0 23 -14 23q-7 0 -13 -3q-141 -71 -141 -189t72 -118q96 0 96 105zM676 -25q-92 0 -162 82q-14 19 -24 19t-25 -17q-82 -82 -203 -82t-173 85 q-26 43 -26 100q0 121 212 231l151 72q35 20 35 47v190q0 72 -105 72q-79 0 -116 -51q-10 -14 -10 -62t-5 -65q-25 -88 -92 -88q-90 0 -90 78q-1 68 43 128t78 81q120 75 248 75t202 -50t76 -113v-508q0 -114 67 -114q30 -3 72 36q8 9 25 -7t12 -26q-58 -113 -190 -113z"/>
            <glyph glyph-name="aacute" unicode="á" horiz-adv-x="860" d="M390 1020q-42 0 -42 53q0 21 8 41l120 302q8 17 34 17q26 -1 76 -35t51 -55q0 -6 -3 -11l-176 -263q-32 -49 -68 -49zM461 193v182q0 23 -14 23q-7 0 -13 -3q-141 -71 -141 -189t72 -118q96 0 96 105zM676 -25q-92 0 -162 82q-14 19 -24 19t-25 -17q-82 -82 -203 -82 t-173 85q-26 43 -26 100q0 121 212 231l151 72q35 20 35 47v190q0 72 -105 72q-79 0 -116 -51q-10 -14 -10 -62t-5 -65q-25 -88 -92 -88q-90 0 -90 78q-1 68 43 128t78 81q120 75 248 75t202 -50t76 -113v-508q0 -114 67 -114q30 -3 72 36q8 9 25 -7t12 -26 q-58 -113 -190 -113z"/>
            <glyph glyph-name="acircumflex" unicode="â" horiz-adv-x="860" d="M661 1051q-1 -7 -19 -19t-26 -12t-11 4l-182 213q-25 28 -43 28t-43 -28l-182 -213q-4 -4 -12 -4q-7 0 -25 12t-18 19q0 8 2 12l229 412q16 31 49 31t49 -31l230 -412q2 -4 2 -12zM461 193v182q0 23 -14 23q-7 0 -13 -3q-141 -71 -141 -189t72 -118q96 0 96 105zM676 -25 q-92 0 -162 82q-14 19 -24 19t-25 -17q-82 -82 -203 -82t-173 85q-26 43 -26 100q0 121 212 231l151 72q35 20 35 47v190q0 72 -105 72q-79 0 -116 -51q-10 -14 -10 -62t-5 -65q-25 -88 -92 -88q-90 0 -90 78q-1 68 43 128t78 81q120 75 248 75t202 -50t76 -113v-508 q0 -114 67 -114q30 -3 72 36q8 9 25 -7t12 -26q-58 -113 -190 -113z"/>
            <glyph glyph-name="atilde" unicode="ã" horiz-adv-x="860" d="M504 1048q-41 0 -131 32t-123 32q-63 0 -112 -59q-3 -3 -10 -3q-8 0 -22 14t-14 21q0 6 2 8q106 160 218 160q50 0 129 -30t114 -30q64 0 122 62q2 3 8 3t23 -14t17 -22q0 -7 -2 -10q-110 -164 -219 -164zM461 193v182q0 23 -14 23q-7 0 -13 -3q-141 -71 -141 -189 t72 -118q96 0 96 105zM676 -25q-92 0 -162 82q-14 19 -24 19t-25 -17q-82 -82 -203 -82t-173 85q-26 43 -26 100q0 121 212 231l151 72q35 20 35 47v190q0 72 -105 72q-79 0 -116 -51q-10 -14 -10 -62t-5 -65q-25 -88 -92 -88q-90 0 -90 78q-1 68 43 128t78 81 q120 75 248 75t202 -50t76 -113v-508q0 -114 67 -114q30 -3 72 36q8 9 25 -7t12 -26q-58 -113 -190 -113z"/>
            <glyph glyph-name="adieresis" unicode="ä" horiz-adv-x="860" d="M343 1179q0 -79 -60 -114q-29 -17 -65 -17q-86 0 -116 63q-12 25 -13 58q0 74 57 111q32 20 72 20q68 0 104 -54q21 -32 21 -67zM693 1179q0 -79 -60 -114q-29 -17 -65 -17q-84 0 -116 63q-12 25 -13 58q0 74 57 111q32 20 72 20q67 0 104 -54q21 -31 21 -67zM461 193 v182q0 23 -14 23q-7 0 -13 -3q-141 -71 -141 -189t72 -118q96 0 96 105zM676 -25q-92 0 -162 82q-14 19 -24 19t-25 -17q-82 -82 -203 -82t-173 85q-26 43 -26 100q0 121 212 231l151 72q35 20 35 47v190q0 72 -105 72q-79 0 -116 -51q-10 -14 -10 -62t-5 -65 q-25 -88 -92 -88q-90 0 -90 78q-1 68 43 128t78 81q120 75 248 75t202 -50t76 -113v-508q0 -114 67 -114q30 -3 72 36q8 9 25 -7t12 -26q-58 -113 -190 -113z"/>
            <glyph glyph-name="aring" unicode="å" horiz-adv-x="860" d="M524 1245q0 78 -53 124q-22 19 -56 19q-64 0 -96 -75q-12 -29 -12 -68q0 -86 52 -122q25 -17 56 -17q68 0 96 68q13 32 13 71zM661 1245q0 -112 -102 -185q-57 -40 -144 -40q-126 0 -197 88q-49 60 -49 146t71 150q70 64 186 64t187 -88q48 -59 48 -135zM461 193v182 q0 23 -14 23q-7 0 -13 -3q-141 -71 -141 -189t72 -118q96 0 96 105zM676 -25q-92 0 -162 82q-14 19 -24 19t-25 -17q-82 -82 -203 -82t-173 85q-26 43 -26 100q0 121 212 231l151 72q35 20 35 47v190q0 72 -105 72q-79 0 -116 -51q-10 -14 -10 -62t-5 -65q-25 -88 -92 -88 q-90 0 -90 78q-1 68 43 128t78 81q120 75 248 75t202 -50t76 -113v-508q0 -114 67 -114q30 -3 72 36q8 9 25 -7t12 -26q-58 -113 -190 -113z"/>
            <glyph glyph-name="ae" unicode="æ" horiz-adv-x="1239" d="M457 389q-10 0 -21 -6q-139 -77 -139 -193q0 -61 44 -87q19 -11 40 -11q45 0 98 68q19 24 19 39t-9.5 39.5t-19.5 128.5q-2 22 -12 22zM975 718q0 24 -35.5 47t-84.5 23t-101 -67.5t-54 -114.5q0 -16 15 -16l243 98q17 6 17 30zM815 -23q-104 0 -196 69 q-28 21 -47.5 44.5t-28 23.5t-33.5 -22q-60 -67 -109 -84.5t-104 -17.5q-151 0 -206 87q-23 37 -23 85q0 153 159 219l207 90q35 15 35 59v148q0 110 -98 110q-65 0 -111 -61q-9 -12 -9 -49l1 -41q0 -75 -46 -110q-25 -19 -59 -19q-88 0 -88 80q0 65 42.5 122.5t74.5 77.5 q138 82 246 82t181 -56q26 -25 38.5 -25t34.5 20q77 61 180 61q183 0 276 -88q39 -40 39 -66t-57 -50l-387 -162q-41 -16 -41 -92.5t53 -161.5q74 -117 195 -117q79 0 159 48q15 9 26 20t39 -11q27 -26 18 -36q-148 -177 -361 -177z"/>
            <glyph glyph-name="ccedilla" unicode="ç" horiz-adv-x="880" d="M576 -338q0 -86 -81 -138t-192 -52t-138 61q-6 13 -6 29q0 42 36 61q13 7 37 7t66 -38q44 -38 66 -38q53 0 53 51q0 77 -142 142q-20 9 -20 15t6 15l138 204q-105 17 -193 95q-140 123 -140 302t106 316q136 176 350 176q135 0 223 -45q39 -20 54 -45q6 -16 6 -54 t-33 -72q-32 -34 -66 -34t-53 29l-39 66q-39 59 -116 59t-140 -98t-63 -235q-1 -138 83 -227t189 -89t183 55q17 12 46 -30q26 -43 9 -54l-82 -53q-97 -55 -217 -64l-73 -99q-9 -12 -9 -20t28 -24q124 -66 124 -174z"/>
            <glyph glyph-name="egrave" unicode="è" horiz-adv-x="876" d="M541 1074q0 -54 -42 -54q-35 0 -69 49l-169 249q-5 8 -5 16q0 32 50 59t78 27t32 -14l117 -292q8 -22 8 -40zM309 653q0 -26 37 -26h203q37 0 37 24q0 67 -55 112q-34 28 -83 28t-98 -43q-41 -40 -41 -95zM809 612q0 -75 -90 -75h-385q-37 0 -37 -27q0 -237 112 -334 q61 -53 147 -53t171 55q19 11 47 -25t17 -47q-48 -49 -135 -89q-88 -40 -212 -40t-232 109q-144 144 -144 350q0 166 114 300t286 134q171 0 276 -119q65 -89 65 -139z"/>
            <glyph glyph-name="eacute" unicode="é" horiz-adv-x="876" d="M452 1020q-42 0 -42 53q0 21 8 41l120 302q8 17 34 17q26 -1 76 -35t51 -55q0 -6 -3 -11l-176 -263q-32 -49 -68 -49zM309 653q0 -26 37 -26h203q37 0 37 24q0 67 -55 112q-34 28 -83 28t-98 -43q-41 -40 -41 -95zM809 612q0 -75 -90 -75h-385q-37 0 -37 -27 q0 -237 112 -334q61 -53 147 -53t171 55q19 11 47 -25t17 -47q-48 -49 -135 -89q-88 -40 -212 -40t-232 109q-144 144 -144 350q0 166 114 300t286 134q171 0 276 -119q65 -89 65 -139z"/>
            <glyph glyph-name="ecircumflex" unicode="ê" horiz-adv-x="876" d="M742 1051q0 -7 -18 -19t-27 -12q-8 0 -11 4l-182 213q-25 28 -43 28t-43 -28l-182 -213q-4 -4 -12 -4t-26 12t-17 19q0 8 2 12l229 412q16 31 49 31t49 -31l230 -412q2 -4 2 -12zM309 653q0 -26 37 -26h203q37 0 37 24q0 67 -55 112q-34 28 -83 28t-98 -43 q-41 -40 -41 -95zM809 612q0 -75 -90 -75h-385q-37 0 -37 -27q0 -237 112 -334q61 -53 147 -53t171 55q19 11 47 -25t17 -47q-48 -49 -135 -89q-88 -40 -212 -40t-232 109q-144 144 -144 350q0 166 114 300t286 134q171 0 276 -119q65 -89 65 -139z"/>
            <glyph glyph-name="edieresis" unicode="ë" horiz-adv-x="876" d="M413 1179q0 -79 -60 -114q-29 -17 -65 -17q-86 0 -116 63q-12 25 -13 58q0 74 57 111q32 20 72 20q68 0 104 -54q21 -32 21 -67zM763 1179q0 -79 -60 -114q-29 -17 -65 -17q-84 0 -116 63q-12 25 -13 58q0 74 57 111q32 20 72 20q67 0 104 -54q21 -31 21 -67zM309 653 q0 -26 37 -26h203q37 0 37 24q0 67 -55 112q-34 28 -83 28t-98 -43q-41 -40 -41 -95zM809 612q0 -75 -90 -75h-385q-37 0 -37 -27q0 -237 112 -334q61 -53 147 -53t171 55q19 11 47 -25t17 -47q-48 -49 -135 -89q-88 -40 -212 -40t-232 109q-144 144 -144 350q0 166 114 300 t286 134q171 0 276 -119q65 -89 65 -139z"/>
            <glyph glyph-name="igrave" unicode="ì" horiz-adv-x="524" d="M377 1074q0 -54 -42 -54q-35 0 -69 49l-169 249q-5 8 -5 16q0 32 50 59t78 27t32 -14l117 -292q8 -22 8 -40zM393 143q0 -75 103 -75q15 0 15 -38t-15 -38q-84 8 -218 8t-219 -8q-15 0 -15 38t15 38q105 0 105 75v414q0 125 -92 125q-16 0 -16 37t16 37q50 0 150 50 t116 63q16 14 35 14q28 0 26 -27q-6 -84 -6 -174v-539z"/>
            <glyph glyph-name="iacute" unicode="í" horiz-adv-x="524" d="M211 1020q-42 0 -42 53q0 21 8 41l120 302q7 17 33 17q26 -1 78 -35q50 -34 50 -55q0 -6 -3 -11l-176 -263q-32 -49 -68 -49zM393 143q0 -75 103 -75q15 0 15 -38t-15 -38q-84 8 -218 8t-219 -8q-15 0 -15 38t15 38q105 0 105 75v414q0 125 -92 125q-16 0 -16 37t16 37 q50 0 150 50t116 63q16 14 35 14q28 0 26 -27q-6 -84 -6 -174v-539z"/>
            <glyph glyph-name="icircumflex" unicode="î" horiz-adv-x="524" d="M562 1051q0 -7 -18 -19t-27 -12q-8 0 -11 4l-182 213q-25 28 -43 28t-43 -28l-182 -213q-4 -4 -12 -4t-26 12t-17 19q0 8 2 12l229 412q16 31 49 31t49 -31l230 -412q2 -4 2 -12zM393 143q0 -75 103 -75q15 0 15 -38t-15 -38q-84 8 -218 8t-219 -8q-15 0 -15 38t15 38 q105 0 105 75v414q0 125 -92 125q-16 0 -16 37t16 37q50 0 150 50t116 63q16 14 35 14q28 0 26 -27q-6 -84 -6 -174v-539z"/>
            <glyph glyph-name="idieresis" unicode="ï" horiz-adv-x="524" d="M212 1179q0 -79 -60 -114q-29 -17 -65 -17q-86 0 -116 63q-12 25 -13 58q0 74 57 111q32 20 72 20q68 0 104 -54q21 -32 21 -67zM562 1179q0 -79 -60 -114q-29 -17 -65 -17q-84 0 -116 63q-12 25 -13 58q0 74 57 111q32 20 72 20q67 0 104 -54q21 -31 21 -67zM393 143 q0 -75 103 -75q15 0 15 -38t-15 -38q-84 8 -218 8t-219 -8q-15 0 -15 38t15 38q105 0 105 75v414q0 125 -92 125q-16 0 -16 37t16 37q50 0 150 50t116 63q16 14 35 14q28 0 26 -27q-6 -84 -6 -174v-539z"/>
            <glyph glyph-name="eth" unicode="ð" horiz-adv-x="1075" d="M999 451q0 -221 -124 -347.5t-332 -126.5t-342.5 127t-134.5 345q0 150 105 267q137 154 361 154q-76 76 -200 156q-17 11 -31 11t-33 -15l-200 -158q-13 -9 -60 64t-48 86q0 8 8 4q64 -33 90.5 -33t41.5 12l88 70q18 14 18 22.5t-18 18.5q-130 68 -180 88q-18 7 4 55.5 t41 40.5q151 -62 200.5 -88.5t63 -26.5t37.5 19l295 229q14 10 64 -53.5t59 -78.5q1 -9 -6 -9l-117 25q-20 0 -31 -9l-186 -147q-18 -14 -18 -24t22 -23q334 -196 448.5 -361t114.5 -294zM549.5 61q87.5 0 141.5 114t54 273t-64.5 252t-140 93t-148.5 -95t-73 -264.5 t81 -283.5q62 -89 149.5 -89z"/>
            <glyph glyph-name="ntilde" unicode="ñ" horiz-adv-x="1087" d="M646 1048q-41 0 -131 32t-123 32q-63 0 -112 -59q-3 -3 -10 -3q-8 0 -22 14t-14 21q0 6 2 8q106 160 218 160q50 0 129 -30t114 -30q64 0 122 62q2 3 8 3t23 -14t17 -22q0 -7 -2 -10q-110 -164 -219 -164zM858 0q-104 0 -225 -8q-15 0 -15 38t15 38q101 0 101 62v407 q0 149 -59 200q-29 25 -93 25t-127 -54q-62 -54 -62 -116v-449q0 -75 99 -75q15 0 15 -38t-15 -38q-84 8 -218 8t-217 -8q-15 0 -15 38t15 38q107 0 107 75v406q0 133 -92 133q-16 0 -16 37t16 37q50 0 150 50t116 63q16 14 31 14q29 0 30 -27l-6 -68q0 -19 9 -19t18 9 q42 55 138 81q41 11 95 11q189 0 274 -185q36 -73 36 -220v-329q0 -68 106 -68q16 0 16 -38t-16 -38q-107 8 -211 8z"/>
            <glyph glyph-name="ograve" unicode="ò" horiz-adv-x="1032" d="M588 1074q0 -54 -42 -54q-35 0 -69 49l-169 249q-5 8 -5 16q0 32 50 59t78 27t32 -14l117 -292q8 -22 8 -40zM516 61q94 1 146 107t53 271q0 165 -71 273q-52 81 -130 81q-78 -1 -136 -107t-59 -278q0 -172 73 -275q52 -72 124 -72zM969 426q0 -209 -121 -329t-318 -120 q-196 1 -330 127t-134 308t110 308q132 150 345 150t346 -158q102 -122 102 -286z"/>
            <glyph glyph-name="oacute" unicode="ó" horiz-adv-x="1032" d="M483 1020q-42 0 -42 53q0 21 8 41l120 302q7 17 33 17q26 -1 78 -35q50 -34 50 -55q0 -6 -3 -11l-176 -263q-32 -49 -68 -49zM516 61q94 1 146 107t53 271q0 165 -71 273q-52 81 -130 81q-78 -1 -136 -107t-59 -278q0 -172 73 -275q52 -72 124 -72zM969 426 q0 -209 -121 -329t-318 -120q-196 1 -330 127t-134 308t110 308q132 150 345 150t346 -158q102 -122 102 -286z"/>
            <glyph glyph-name="ocircumflex" unicode="ô" horiz-adv-x="1032" d="M793 1051q-1 -7 -19 -19t-26 -12t-11 4l-182 213q-25 28 -43 28t-43 -28l-182 -213q-4 -4 -12 -4q-7 0 -25 12t-18 19q0 8 2 12l229 412q16 31 49 31t49 -31l230 -412q2 -4 2 -12zM516 61q94 1 146 107t53 271q0 165 -71 273q-52 81 -130 81q-78 -1 -136 -107t-59 -278 q0 -172 73 -275q52 -72 124 -72zM969 426q0 -209 -121 -329t-318 -120q-196 1 -330 127t-134 308t110 308q132 150 345 150t346 -158q102 -122 102 -286z"/>
            <glyph glyph-name="otilde" unicode="õ" horiz-adv-x="1032" d="M612 1048q-41 0 -131 32t-123 32q-63 0 -112 -59q-3 -3 -10 -3q-8 0 -22 14t-14 21q0 6 2 8q106 160 218 160q50 0 129 -30t114 -30q64 0 122 62q2 3 8 3t23 -14t17 -22q0 -7 -2 -10q-110 -164 -219 -164zM516 61q94 1 146 107t53 271q0 165 -71 273q-52 81 -130 81 q-78 -1 -136 -107t-59 -278q0 -172 73 -275q52 -72 124 -72zM969 426q0 -209 -121 -329t-318 -120q-196 1 -330 127t-134 308t110 308q132 150 345 150t346 -158q102 -122 102 -286z"/>
            <glyph glyph-name="odieresis" unicode="ö" horiz-adv-x="1032" d="M468 1179q0 -79 -60 -114q-29 -17 -65 -17q-86 0 -116 63q-12 25 -13 58q0 74 57 111q32 20 72 20q68 0 104 -54q21 -32 21 -67zM818 1179q0 -79 -60 -114q-29 -17 -65 -17q-84 0 -116 63q-12 25 -13 58q0 74 57 111q32 20 72 20q67 0 104 -54q21 -31 21 -67zM516 61 q94 1 146 107t53 271q0 165 -71 273q-52 81 -130 81q-78 -1 -136 -107t-59 -278q0 -172 73 -275q52 -72 124 -72zM969 426q0 -209 -121 -329t-318 -120q-196 1 -330 127t-134 308t110 308q132 150 345 150t346 -158q102 -122 102 -286z"/>
            <glyph glyph-name="divide" unicode="÷" horiz-adv-x="1050" d="M659 125q0 -73 -62 -107l-28 -11q-19 -5 -39 -5q-64 0 -102 38t-37 93q0 55 37 91t102 36t97 -44t32 -91zM971 383h-889v158h889v-158zM530 922q65 0 97 -44t32 -104t-60 -93q-31 -17 -83 -17t-88 38q-37 38 -37 93t37 91t102 36z"/>
            <glyph glyph-name="oslash" unicode="ø" horiz-adv-x="1032" d="M516 61q94 1 146 107t53 222q0 116 -16 186l-313 -435l6 -8q52 -72 124 -72zM521 793q-85 -1 -143 -107t-59 -238q0 -132 23 -211l320 445q-56 111 -141 111zM66 424q0 170 110 296q132 150 340 150q135 0 237 -60l78 108q5 8 17 8t44 -20t15 -42l-79 -110q21 -19 39 -42 q102 -122 102 -286q0 -209 -121 -329t-330 -120q-119 0 -214 50l-83 -115q-5 -7 -16 -7t-39 23t-19 37l81 113q-162 135 -162 346z"/>
            <glyph glyph-name="ugrave" unicode="ù" horiz-adv-x="1028" d="M594 1074q0 -54 -42 -54q-35 0 -69 49l-169 249q-5 8 -5 16q0 32 50 59t78 27t32 -14l117 -292q8 -22 8 -40zM742 -35q-13 0 -13 45v47q0 23 -12 23t-27 -14q-92 -89 -232 -89t-184 35q-147 118 -147 297v346q0 103 -84 103q-15 0 -15 36t15 37q111 -1 183 11t91 12 q46 0 46 -44q-7 -98 -7 -161v-342q0 -123 50 -182q28 -33 95 -33t128 50t61 98v415q0 103 -84 103q-16 0 -16 36t16 37q110 -1 182 11t86 12q53 0 53 -36q-8 -95 -8 -156v-406q0 -90 10 -117q14 -40 53 -40q13 1 31 5t25 -21t7 -37t-7 -15q-8 -2 -105 -21t-137 -32 q-41 -13 -54 -13z"/>
            <glyph glyph-name="uacute" unicode="ú" horiz-adv-x="1028" d="M469 1020q-42 0 -42 53q0 21 8 41l120 302q7 17 33 17q26 -1 78 -35q50 -34 50 -55q0 -6 -3 -11l-176 -263q-32 -49 -68 -49zM742 -35q-13 0 -13 45v47q0 23 -12 23t-27 -14q-92 -89 -232 -89t-184 35q-147 118 -147 297v346q0 103 -84 103q-15 0 -15 36t15 37 q111 -1 183 11t91 12q46 0 46 -44q-7 -98 -7 -161v-342q0 -123 50 -182q28 -33 95 -33t128 50t61 98v415q0 103 -84 103q-16 0 -16 36t16 37q110 -1 182 11t86 12q53 0 53 -36q-8 -95 -8 -156v-406q0 -90 10 -117q14 -40 53 -40q13 1 31 5t25 -21t7 -37t-7 -15 q-8 -2 -105 -21t-137 -32q-41 -13 -54 -13z"/>
            <glyph glyph-name="ucircumflex" unicode="û" horiz-adv-x="1028" d="M783 1051q-1 -7 -19 -19t-26 -12t-11 4l-182 213q-25 28 -43 28t-43 -28l-182 -213q-4 -4 -12 -4q-7 0 -25 12t-18 19q0 8 2 12l229 412q16 31 49 31t49 -31l230 -412q2 -4 2 -12zM742 -35q-13 0 -13 45v47q0 23 -12 23t-27 -14q-92 -89 -232 -89t-184 35 q-147 118 -147 297v346q0 103 -84 103q-15 0 -15 36t15 37q111 -1 183 11t91 12q46 0 46 -44q-7 -98 -7 -161v-342q0 -123 50 -182q28 -33 95 -33t128 50t61 98v415q0 103 -84 103q-16 0 -16 36t16 37q110 -1 182 11t86 12q53 0 53 -36q-8 -95 -8 -156v-406q0 -90 10 -117 q14 -40 53 -40q13 1 31 5t25 -21t7 -37t-7 -15q-8 -2 -105 -21t-137 -32q-41 -13 -54 -13z"/>
            <glyph glyph-name="udieresis" unicode="ü" horiz-adv-x="1028" d="M445 1179q0 -79 -60 -114q-29 -17 -65 -17q-86 0 -116 63q-12 25 -13 58q0 74 57 111q32 20 72 20q68 0 104 -54q21 -32 21 -67zM795 1179q0 -79 -60 -114q-29 -17 -65 -17q-84 0 -116 63q-12 25 -13 58q0 74 57 111q32 20 72 20q67 0 104 -54q21 -31 21 -67zM742 -35 q-13 0 -13 45v47q0 23 -12 23t-27 -14q-92 -89 -232 -89t-184 35q-147 118 -147 297v346q0 103 -84 103q-15 0 -15 36t15 37q111 -1 183 11t91 12q46 0 46 -44q-7 -98 -7 -161v-342q0 -123 50 -182q28 -33 95 -33t128 50t61 98v415q0 103 -84 103q-16 0 -16 36t16 37 q110 -1 182 11t86 12q53 0 53 -36q-8 -95 -8 -156v-406q0 -90 10 -117q14 -40 53 -40q13 1 31 5t25 -21t7 -37t-7 -15q-8 -2 -105 -21t-137 -32q-41 -13 -54 -13z"/>
            <glyph glyph-name="yacute" unicode="ý" horiz-adv-x="884" d="M436 1020q-42 0 -42 53q0 21 8 41l120 302q8 17 34 17q26 -1 76 -35t51 -55q0 -6 -3 -11l-176 -263q-32 -49 -68 -49zM14 -442q0 61 59 91q30 15 66 15q104 0 121 39l78 182q7 18 7 35t-7 35l-270 758q-26 71 -107 71q-15 0 -15 36t15 36q63 -6 207 -6t207 6q15 0 15 -36 t-15 -36q-80 0 -80 -47q0 -15 8 -37l152 -424q7 -20 19 -20t20 23l165 421q5 13 5 23q0 61 -121 61q-16 0 -16 36t16 36q60 -6 184 -6t184 6q16 0 16 -36t-16 -36q-92 0 -125 -59l-448 -1124q-60 -154 -210 -154q-50 1 -82 37t-32 74z"/>
            <glyph glyph-name="thorn" unicode="þ" horiz-adv-x="1046" d="M723 457q0 321 -178 321q-105 0 -166 -90q-12 -24 -12 -63v-525q0 -19 19 -19q4 0 9 1q132 16 211 112q117 143 117 263zM977 508q0 -264 -241 -416q-105 -66 -345 -104q-24 -4 -24 -33v-348q0 -80 -82 -107l-174 -57q-29 -7 -51 35t1 57l62 43q14 8 14 31v1544 q0 133 -92 133q-15 0 -15 37t15 37q44 0 148 50t124 67q15 10 29 10q29 0 29 -29q-8 -131 -8 -229v-404q0 -23 14 -23q8 0 18 9q69 59 209 59t244 -78q125 -94 125 -284z"/>
            <glyph glyph-name="ydieresis" unicode="ÿ" horiz-adv-x="884" d="M409 1179q0 -79 -60 -114q-29 -17 -65 -17q-86 0 -116 63q-12 25 -13 58q0 74 57 111q32 20 72 20q68 0 104 -54q21 -32 21 -67zM759 1179q0 -79 -60 -114q-29 -17 -65 -17q-84 0 -116 63q-12 25 -13 58q0 74 57 111q32 20 72 20q67 0 104 -54q21 -31 21 -67zM14 -442 q0 61 59 91q30 15 66 15q104 0 121 39l78 182q7 18 7 35t-7 35l-270 758q-26 71 -107 71q-15 0 -15 36t15 36q63 -6 207 -6t207 6q15 0 15 -36t-15 -36q-80 0 -80 -47q0 -15 8 -37l152 -424q7 -20 19 -20t20 23l165 421q5 13 5 23q0 61 -121 61q-16 0 -16 36t16 36 q60 -6 184 -6t184 6q16 0 16 -36t-16 -36q-92 0 -125 -59l-448 -1124q-60 -154 -210 -154q-50 1 -82 37t-32 74z"/>
            <glyph glyph-name="Amacron" unicode="Ā" horiz-adv-x="1401" d="M1011 1660q27 0 25 -52t-28 -53h-591q-25 1 -25 53t25 52h594zM634 1084q-10 0 -17 -16l-159 -434q-3 -8 -4 -16q0 -11 21 -11h293q28 0 28 22q0 6 -3 15l-144 424q-5 16 -15 16zM1398 86q15 0 15 -46t-15 -47q-115 7 -265 7t-275 -7q-15 1 -15 47t15 46q96 0 96 65 q0 21 -10 51l-100 297q-7 22 -34 24h-373q-21 0 -32 -29l-109 -293q-9 -24 -9 -42q0 -73 147 -73q13 0 13 -46t-13 -47q-83 7 -233 7t-228 -7q-14 1 -14 47t14 46q152 0 202 131l370 968q13 30 13 38t-14 22t-15 23q0 15 33 26q34 11 104 53t89 42q33 1 44 -47t53 -165 l344 -975q41 -116 202 -116z"/>
            <glyph glyph-name="amacron" unicode="ā" horiz-adv-x="860" d="M645 1240q27 0 27 -56t-31 -56h-446q-23 0 -23 56t23 56h450zM461 193v182q0 23 -14 23q-7 0 -13 -3q-141 -71 -141 -189t72 -118q96 0 96 105zM676 -25q-92 0 -162 82q-14 19 -24 19t-25 -17q-82 -82 -203 -82t-173 85q-26 43 -26 100q0 121 212 231l151 72q35 20 35 47 v190q0 72 -105 72q-79 0 -116 -51q-9 -14 -9.5 -62t-5.5 -65q-25 -88 -92 -88q-90 0 -90 78q0 67 43.5 127.5t77.5 81.5q120 75 248.5 75t202 -50t75.5 -113v-508q0 -114 67 -114q30 -3 72 36q8 8 25 -7.5t12 -25.5q-58 -113 -190 -113z"/>
            <glyph glyph-name="Abreve" unicode="Ă" horiz-adv-x="1401" d="M971 1792q0 -307 -289 -307t-289 307q-1 8 29 8t33 -8q38 -172 227 -172t227 172q2 8 32 8t30 -8zM634 1084q-10 0 -17 -16l-159 -434q-3 -8 -4 -16q0 -11 21 -11h293q28 0 28 22q0 6 -3 15l-144 424q-5 16 -15 16zM1398 86q15 0 15 -46t-15 -47q-115 7 -265 7t-275 -7 q-15 1 -15 47t15 46q96 0 96 65q0 21 -10 51l-100 297q-7 22 -34 24h-373q-21 0 -32 -29l-109 -293q-9 -24 -9 -42q0 -73 147 -73q13 0 13 -46t-13 -47q-83 7 -233 7t-228 -7q-14 1 -14 47t14 46q152 0 202 131l370 968q13 30 13 38t-14 22t-15 23q0 15 33 26q34 11 104 53 t89 42q33 1 44 -47t53 -165l344 -975q41 -116 202 -116z"/>
            <glyph glyph-name="abreve" unicode="ă" horiz-adv-x="860" d="M688 1327q0 -307 -289 -307t-289 307q0 8 30 8t32 -8q38 -172 227 -172t227 172q2 8 32 8t30 -8zM461 193v182q0 23 -14 23q-7 0 -13 -3q-141 -71 -141 -189t72 -118q96 0 96 105zM676 -25q-92 0 -162 82q-14 19 -24 19t-25 -17q-82 -82 -203 -82t-173 85q-26 43 -26 100 q0 121 212 231l151 72q35 20 35 47v190q0 72 -105 72q-79 0 -116 -51q-10 -14 -10 -62t-5 -65q-25 -88 -92 -88q-90 0 -90 78q-1 68 43 128t78 81q120 75 248 75t202 -50t76 -113v-508q0 -114 67 -114q30 -3 72 36q8 9 25 -7t12 -26q-58 -113 -190 -113z"/>
            <glyph glyph-name="Aogonek" unicode="Ą" horiz-adv-x="1401" d="M1398 86q15 0 15 -46.5t-15 -46.5q-98 6 -223 7q-123 -142 -123 -246q0 -121 123 -121q61 0 103 31q20 -7 20 -39q-75 -113 -217 -113q-205 0 -205 184q0 142 181 304q-106 -1 -199 -7q-15 0 -15 46.5t15 46.5q96 0 96 65q0 21 -10 51l-100 297q-7 22 -34 24h-373 q-21 0 -32 -29l-109 -293q-9 -24 -9 -42q0 -73 147 -73q13 0 13 -46.5t-13 -46.5q-83 7 -233 7t-228 -7q-14 0 -14 46.5t14 46.5q152 0 202 131l370 968q13 30 13 38t-14.5 22t-14.5 23q0 15 33 26t103.5 53t89.5 42q33 0 44 -47.5t53 -164.5l344 -975q41 -116 202 -116z M633.5 1084q-10.5 0 -16.5 -16l-159 -434q-3 -8 -4 -16q0 -11 21 -11h293q28 0 28 22q0 6 -3 15l-144 424q-5 16 -15.5 16z"/>
            <glyph glyph-name="aogonek" unicode="ą" horiz-adv-x="860" d="M490 76q-10 0 -25 -17q-82 -82 -203 -82t-173 85q-26 43 -26 100q0 121 212 231l151 72q35 20 35 47v190q0 72 -105 72q-79 0 -116 -51q-10 -14 -10 -62t-5 -65q-25 -88 -92 -88q-90 0 -90 78q-1 68 43 128t78 81q120 75 248 75t202 -50t76 -113v-508q0 -114 67 -114 q30 -3 72 36q8 9 25 -7t12 -26q-58 -113 -189 -113q-103 -127 -103 -221q0 -121 123 -121q61 0 103 31q20 -7 20 -39q-75 -113 -217 -113q-205 0 -205 184q0 142 182 304q-36 20 -58 48t-32 28zM461 193v182q0 23 -14 23q-7 0 -13 -3q-141 -71 -141 -189t72 -118 q96 0 96 105z"/>
            <glyph glyph-name="Cacute" unicode="Ć" horiz-adv-x="1349" d="M700 1486q-16 11 -16 37t40 57l259 197q7 6 15 6q23 0 56 -51t33 -76t-12 -32l-287 -135q-54 -26 -88 -3zM55 657q1 304 205 516t535 212q130 0 338 -43q56 -11 107 -13q33 -90 40 -326q0 -18 -46 -21t-48 13q-10 110 -66 177q-104 125 -321 125t-344 -168 q-127 -169 -127 -445t140 -446t317 -171q343 -1 440 277q7 18 51 8t44 -31q-5 -57 -42 -153t-61 -132q-47 -7 -88 -19q-153 -44 -358 -44q-292 0 -504 190t-212 494z"/>
            <glyph glyph-name="cacute" unicode="ć" horiz-adv-x="880" d="M502 1020q-42 0 -42 53q0 21 8 41l120 302q8 17 34 17q26 -1 76 -35t51 -55q0 -6 -3 -11l-176 -263q-32 -49 -68 -49zM805 726q0 -38 -33 -72q-32 -34 -66 -34t-53 29l-39 66q-39 59 -116 59t-140 -98t-63 -235q-1 -138 83 -227t189 -89t183 55q17 12 46 -30 q26 -43 9 -54l-82 -53q-116 -66 -261 -66t-256 99q-140 123 -140 302t106 316q136 176 350 176q135 0 223 -45q39 -20 54 -45q6 -16 6 -54z"/>
            <glyph glyph-name="Ccircumflex" unicode="Ĉ" horiz-adv-x="1349" d="M1167 1512q1 -8 -9 -22q-10 -16 -19 -16q-2 0 -3 1l-267 124q-36 17 -75 0l-266 -124l-2 -1q-11 4 -24 24t-4 26l283 251q27 23 51 23t48 -23l283 -251q4 -4 4 -12zM55 657q1 304 205 516t535 212q130 0 338 -43q56 -11 107 -13q33 -90 40 -326q0 -18 -46 -21t-48 13 q-10 110 -66 177q-104 125 -321 125t-344 -168q-127 -169 -127 -445t140 -446t317 -171q343 -1 440 277q7 18 51 8t44 -31q-5 -57 -42 -153t-61 -132q-47 -7 -88 -19q-153 -44 -358 -44q-292 0 -504 190t-212 494z"/>
            <glyph glyph-name="ccircumflex" unicode="ĉ" horiz-adv-x="880" d="M775 1051q-1 -7 -19 -19t-26 -12t-11 4l-182 213q-25 28 -43 28t-43 -28l-182 -213q-4 -4 -12 -4q-7 0 -25 12t-18 19q0 8 2 12l229 412q16 31 49 31t49 -31l230 -412q2 -4 2 -12zM805 726q0 -38 -33 -72q-32 -34 -66 -34t-53 29l-39 66q-39 59 -116 59t-140 -98 t-63 -235q-1 -138 83 -227t189 -89t183 55q17 12 46 -30q26 -43 9 -54l-82 -53q-116 -66 -261 -66t-256 99q-140 123 -140 302t106 316q136 176 350 176q135 0 223 -45q39 -20 54 -45q6 -16 6 -54z"/>
            <glyph glyph-name="Cdotaccent" unicode="Ċ" horiz-adv-x="1349" d="M667 1703q0 58 41 99t99 41t99 -41t41 -99t-41 -99t-99 -41t-99 41t-41 99zM55 657q1 304 205 516t535 212q130 0 338 -43q56 -11 107 -13q33 -90 40 -326q0 -18 -46 -21t-48 13q-10 110 -66 177q-104 125 -321 125t-344 -168q-127 -169 -127 -445t140 -446t317 -171 q343 -1 440 277q7 18 51 8t44 -31q-5 -57 -42 -153t-61 -132q-47 -7 -88 -19q-153 -44 -358 -44q-292 0 -504 190t-212 494z"/>
            <glyph glyph-name="cdotaccent" unicode="ċ" horiz-adv-x="880" d="M370 1188q0 58 41 99t99 41t99 -41t41 -99t-41 -99t-99 -41t-99 41t-41 99zM805 726q0 -38 -33 -72q-32 -34 -66 -34t-53 29l-39 66q-39 59 -116 59t-140 -98t-63 -235q-1 -138 83 -227t189 -89t183 55q17 12 46 -30q26 -43 9 -54l-82 -53q-116 -66 -261 -66t-256 99 q-140 123 -140 302t106 316q136 176 350 176q135 0 223 -45q39 -20 54 -45q6 -16 6 -54z"/>
            <glyph glyph-name="Ccaron" unicode="Č" horiz-adv-x="1349" d="M477 1759q-1 7 9 23t19 16q2 0 3 -1l268 -124q20 -9 38 -9t36 9l266 124l3 1q11 -4 21 -19t10 -21t-3 -11l-283 -250q-26 -23 -51 -23t-49 23l-283 250q-4 4 -4 12zM55 657q1 304 205 516t535 212q130 0 338 -43q56 -11 107 -13q33 -90 40 -326q0 -18 -46 -21t-48 13 q-10 110 -66 177q-104 125 -321 125t-344 -168q-127 -169 -127 -445t140 -446t317 -171q343 -1 440 277q7 18 51 8t44 -31q-5 -57 -42 -153t-61 -132q-47 -7 -88 -19q-153 -44 -358 -44q-292 0 -504 190t-212 494z"/>
            <glyph glyph-name="ccaron" unicode="č" horiz-adv-x="880" d="M522 1020q-32 0 -49 31l-229 412q-2 3 -2 13t19 20q19 11 25 11t11 -5l182 -213q33 -39 43 -39t43 39l182 213q5 5 12 5q7 -1 25 -13t19 -20q0 -8 -2 -11l-230 -412q-17 -31 -49 -31zM805 726q0 -38 -33 -72q-32 -34 -66 -34t-53 29l-39 66q-39 59 -116 59t-140 -98 t-63 -235q-1 -138 83 -227t189 -89t183 55q17 12 46 -30q26 -43 9 -54l-82 -53q-116 -66 -261 -66t-256 99q-140 123 -140 302t106 316q136 176 350 176q135 0 223 -45q39 -20 54 -45q6 -16 6 -54z"/>
            <glyph glyph-name="Dcaron" unicode="Ď" horiz-adv-x="1567" d="M357 1759q-1 7 9 23t19 16q2 0 3 -1l268 -124q20 -9 38 -9t36 9l266 124l3 1q11 -4 21 -19t10 -21t-3 -11l-283 -250q-26 -23 -51 -23t-49 23l-283 250q-4 4 -4 12zM481 273q0 -150 87 -186q39 -16 130 -16q218 0 368 170t149 475q-1 214 -153 389t-426 175h-79 q-76 0 -76 -79v-928zM60 40q0 46 15 46q162 0 162 116v954q0 109 -172 109q-14 1 -14 47t14 46q143 -6 239 -6l414 6q330 0 550 -169t219 -463q0 -338 -199 -536t-522 -197l-456 7q-103 0 -235 -7q-15 1 -15 47z"/>
            <glyph glyph-name="dcaron" unicode="ď" horiz-adv-x="1036" d="M1048 1491q125 0 125 -47q0 -143 -95 -282q-38 -54 -68 -54t-29 35q0 20 19 65q19 46 19 112t-13 106t-13 42q0 23 55 23zM674 141v553q0 44 -4 53t-17 17q-47 29 -112 29q-134 0 -196 -144q-38 -88 -38 -205q0 -193 79 -302q58 -81 144 -81t130 52q14 17 14 28zM723 -35 q-10 0 -10 45v29q1 22 -11 22t-28 -14q-94 -70 -195 -70q-244 0 -355 174q-71 111 -71 277t122 292q147 150 392 150q49 0 78 -4t29 23v272q0 125 -92 125q-16 0 -16 37t16 37q50 0 150 50t116 63q16 14 31 14q30 0 30 -33q-6 -70 -6 -168v-1030q0 -90 10 -117 q14 -40 53 -40q13 0 33 5q16 4 27 -31q8 -37 -4 -42q-29 -12 -156 -35q-102 -26 -131 -31h-12z"/>
            <glyph glyph-name="Dcroat" unicode="Đ" horiz-adv-x="1567" d="M1215 716q0 177 -99 324q-164 240 -480 240h-79q-76 0 -76 -79v-454q0 -29 27 -29h230q13 0 13 -46t-13 -47h-230q-27 0 -27 -31v-321q0 -150 87 -186q39 -16 130 -16q213 0 353 153q164 178 164 492zM1487 716q0 -328 -199 -526t-522 -197l-426 7q-165 0 -265 -7 q-15 1 -15 47t15 46q162 0 162 116v392q0 31 -29 31h-179q-15 1 -15 47t15 46h179q29 0 29 29v409q0 109 -172 109q-14 1 -14 47t14 46q143 -6 288 -6l365 6q303 0 510 -139q259 -175 259 -503z"/>
            <glyph glyph-name="dcroat" unicode="đ" horiz-adv-x="1036" d="M674 141v553q0 44 -4 53t-17 17q-47 29 -112 29q-129 0 -197 -131q-49 -94 -49 -218q0 -181 80 -293q65 -90 153 -90t132 52q14 17 14 28zM903 1200q0 -37 37 -37h133q16 0 16 -52t-16 -52h-133q-37 0 -37 -37v-766q0 -90 10 -117q14 -40 53 -40q13 0 33 5q19 4 27 -32 t-4 -41q-122 -25 -208 -46q-86 -22 -94 -19t-7 44v29q0 22 -10 22t-29 -14q-94 -70 -195 -70q-231 0 -340 169q-73 113 -73 281t121 293q143 150 380 150q45 -1 99 -5q8 2 8 24v133q0 37 -37 37h-156q-15 0 -15 52t15 52h156q36 0 36 16q-10 107 -91 107q-16 0 -16 37t16 37 q50 0 150 50t116 63q16 14 31 14q30 0 30 -33l-6 -167v-87z"/>
            <glyph glyph-name="Emacron" unicode="Ē" horiz-adv-x="1250" d="M935 1660q27 0 25 -52t-28 -53h-591q-25 1 -25 53t25 52h594zM60 40q0 46 15 46q162 0 162 116v954q0 109 -172 109q-14 1 -14 47t14 46q143 -6 299 -6l708 6q57 0 57 -51v-306q-1 -17 -51 -17t-50 17q0 130 -99 205q-61 47 -125 49l-296 10q-27 1 -27 -40v-509 q0 -29 29 -29h135q123 0 123 91v99q0 14 52 14t53 -14q-7 -67 -7 -231t7 -227q-1 -15 -53 -15t-52 15v86q0 89 -123 89h-135q-29 0 -29 -31v-341q0 -77 75 -116q39 -20 81 -20l223 5q157 2 205 137q18 50 18 116q0 17 51 17t51 -17v-287q0 -64 -117 -64l-696 7 q-162 0 -297 -7q-15 1 -15 47z"/>
            <glyph glyph-name="emacron" unicode="ē" horiz-adv-x="876" d="M686 1240q27 0 27 -56t-31 -56h-446q-23 0 -23 56t23 56h450zM309 653q0 -26 37 -26h203q37 0 37 24q0 67 -55 112q-34 28 -83 28t-98 -43q-41 -40 -41 -95zM809 612q0 -75 -90 -75h-385q-37 0 -37 -27q0 -237 112 -334q61 -53 147 -53t171 55q19 11 47 -25t17 -47 q-48 -49 -135 -89q-88 -40 -212 -40t-232 109q-144 144 -144 350q0 166 114 300t286 134q171 0 276 -119q65 -89 65 -139z"/>
            <glyph glyph-name="Ebreve" unicode="Ĕ" horiz-adv-x="1250" d="M938 1792q0 -307 -289 -307t-289 307q0 8 30 8t32 -8q38 -172 227 -172t227 172q2 8 32 8t30 -8zM60 40q0 46 15 46q162 0 162 116v954q0 109 -172 109q-14 1 -14 47t14 46q143 -6 299 -6l708 6q57 0 57 -51v-306q-1 -17 -51 -17t-50 17q0 130 -99 205q-61 47 -125 49 l-296 10q-27 1 -27 -40v-509q0 -29 29 -29h135q123 0 123 91v99q0 14 52 14t53 -14q-7 -67 -7 -231t7 -227q-1 -15 -53 -15t-52 15v86q0 89 -123 89h-135q-29 0 -29 -31v-341q0 -77 75 -116q39 -20 81 -20l223 5q157 2 205 137q18 50 18 116q0 17 51 17t51 -17v-287 q0 -64 -117 -64l-696 7q-162 0 -297 -7q-15 1 -15 47z"/>
            <glyph glyph-name="ebreve" unicode="ĕ" horiz-adv-x="876" d="M750 1327q0 -307 -289 -307t-289 307q0 8 30 8t32 -8q38 -172 227 -172t227 172q2 8 32 8t30 -8zM309 653q0 -26 37 -26h203q37 0 37 24q0 67 -55 112q-34 28 -83 28t-98 -43q-41 -40 -41 -95zM809 612q0 -75 -90 -75h-385q-37 0 -37 -27q0 -237 112 -334q61 -53 147 -53 t171 55q19 11 47 -25t17 -47q-48 -49 -135 -89q-88 -40 -212 -40t-232 109q-144 144 -144 350q0 166 114 300t286 134q171 0 276 -119q65 -89 65 -139z"/>
            <glyph glyph-name="Edotaccent" unicode="Ė" horiz-adv-x="1250" d="M517 1703q0 58 41 99t99 41t99 -41t41 -99t-41 -99t-99 -41t-99 41t-41 99zM60 40q0 46 15 46q162 0 162 116v954q0 109 -172 109q-14 1 -14 47t14 46q143 -6 299 -6l708 6q57 0 57 -51v-306q-1 -17 -51 -17t-50 17q0 130 -99 205q-61 47 -125 49l-296 10q-27 1 -27 -40 v-509q0 -29 29 -29h135q123 0 123 91v99q0 14 52 14t53 -14q-7 -67 -7 -231t7 -227q-1 -15 -53 -15t-52 15v86q0 89 -123 89h-135q-29 0 -29 -31v-341q0 -77 75 -116q39 -20 81 -20l223 5q157 2 205 137q18 50 18 116q0 17 51 17t51 -17v-287q0 -64 -117 -64l-696 7 q-162 0 -297 -7q-15 1 -15 47z"/>
            <glyph glyph-name="edotaccent" unicode="ė" horiz-adv-x="876" d="M321 1188q0 58 41 99t99 41t99 -41t41 -99t-41 -99t-99 -41t-99 41t-41 99zM309 653q0 -26 37 -26h203q37 0 37 24q0 67 -55 112q-34 28 -83 28t-98 -43q-41 -40 -41 -95zM809 612q0 -75 -90 -75h-385q-37 0 -37 -27q0 -237 112 -334q61 -53 147 -53t171 55q19 11 47 -25 t17 -47q-48 -49 -135 -89q-88 -40 -212 -40t-232 109q-144 144 -144 350q0 166 114 300t286 134q171 0 276 -119q65 -89 65 -139z"/>
            <glyph glyph-name="Eogonek" unicode="Ę" horiz-adv-x="1250" d="M60 39.5q0 46.5 15 46.5q162 0 162 116v954q0 109 -172 109q-14 0 -14 46.5t14 46.5q143 -6 182 -6l825 6q57 0 57 -51v-306q0 -17 -50.5 -17t-50.5 17q0 130 -99 205q-61 47 -125 49l-296 10q-27 1 -27 -40v-509q0 -29 29 -29h135q123 0 123 91v99q0 14 52.5 14 t52.5 -14q-7 -67 -7 -231t7 -227q0 -15 -52.5 -15t-52.5 15v86q0 89 -123 89h-135q-29 0 -29 -31v-341q0 -77 75 -116q39 -20 81 -20l223 5q157 2 205 137q18 50 18 116q0 17 51 17t51 -17v-287q0 -64 -117 -64h-67q-118 -138 -118 -239q0 -121 123 -121q61 0 103 31 q20 -7 20 -39q-75 -113 -217 -113q-205 0 -205 184q0 140 175 298l-336 3q-336 3 -471 -4q-15 0 -15 46.5z"/>
            <glyph glyph-name="eogonek" unicode="ę" horiz-adv-x="876" d="M809 614q0 -77 -90 -77h-385q-37 0 -37 -27q0 -237 86.5 -312t172.5 -75t171 55q20 11 48.5 -26.5t15.5 -45.5q-120 -75 -184.5 -181.5t-64.5 -170.5q0 -121 123 -121q61 0 103 31q20 -7 20 -39q-75 -113 -217 -113q-88 0 -146.5 46t-58.5 124q0 148 166 281q28 22 -9 18 q-31 -4 -68 -4q-110 0 -248.5 109t-138.5 350q0 172 117 303t273 131q104 0 184 -40t123.5 -109t43.5 -107zM586 651q0 58 -41 99t-93 41t-97.5 -39t-45.5 -99q0 -26 37 -26h203q37 0 37 24z"/>
            <glyph glyph-name="Ecaron" unicode="Ě" horiz-adv-x="1250" d="M323 1759q-1 7 9 23t19 16q2 0 3 -1l268 -124q20 -9 38 -9t36 9l266 124l3 1q11 -4 21 -19t10 -21t-3 -11l-283 -250q-26 -23 -51 -23t-49 23l-283 250q-4 4 -4 12zM60 40q0 46 15 46q162 0 162 116v954q0 109 -172 109q-14 1 -14 47t14 46q143 -6 299 -6l708 6 q57 0 57 -51v-306q-1 -17 -51 -17t-50 17q0 130 -99 205q-61 47 -125 49l-296 10q-27 1 -27 -40v-509q0 -29 29 -29h135q123 0 123 91v99q0 14 52 14t53 -14q-7 -67 -7 -231t7 -227q-1 -15 -53 -15t-52 15v86q0 89 -123 89h-135q-29 0 -29 -31v-341q0 -77 75 -116 q39 -20 81 -20l223 5q157 2 205 137q18 50 18 116q0 17 51 17t51 -17v-287q0 -64 -117 -64l-696 7q-162 0 -297 -7q-15 1 -15 47z"/>
            <glyph glyph-name="ecaron" unicode="ě" horiz-adv-x="876" d="M461 1020q-32 0 -49 31l-229 412q-2 3 -2 13t19 20q20 11 26 11t10 -5l182 -213q33 -39 43 -39t43 39l182 213q5 5 12 5q8 -1 26 -13t18 -20t-2 -11l-230 -412q-17 -31 -49 -31zM309 653q0 -26 37 -26h203q37 0 37 24q0 67 -55 112q-34 28 -83 28t-98 -43 q-41 -40 -41 -95zM809 612q0 -75 -90 -75h-385q-37 0 -37 -27q0 -237 112 -334q61 -53 147 -53t171 55q19 11 47 -25t17 -47q-48 -49 -135 -89q-88 -40 -212 -40t-232 109q-144 144 -144 350q0 166 114 300t286 134q171 0 276 -119q65 -89 65 -139z"/>
            <glyph glyph-name="Gcircumflex" unicode="Ĝ" horiz-adv-x="1443" d="M1134 1512q0 -8 -10 -22q-10 -16 -18 -16q-2 0 -3 1l-267 124q-36 17 -75 0l-266 -124l-2 -1q-11 4 -24 24t-4 26l283 251q26 23 50 23t49 -23l283 -251q4 -4 4 -12zM832 524q0 46 14 45q60 -6 272 -6t273 6q13 1 13 -45t-13 -46q-108 0 -108 -77v-241q0 -45 42 -45 q15 0 15 -40t-15 -40q-50 0 -236 -31t-318 -31q-263 -3 -463 153q-253 198 -253 521q0 266 152 463q212 275 588 275q131 0 259 -28t186 -28q28 -59 38 -275l2 -51q0 -18 -46 -21t-48 13q-19 209 -211 275q-79 27 -186 27q-207 0 -334 -168t-127 -424q0 -324 171 -503 q129 -135 286 -135q111 0 192 26q62 24 62 66v242q0 77 -114 77h-79q-14 0 -14 46z"/>
            <glyph glyph-name="gcircumflex" unicode="ĝ" horiz-adv-x="948" d="M723 1051q-1 -7 -19 -19t-26 -12t-11 4l-182 213q-25 28 -43 28t-43 -28l-182 -213q-4 -4 -12 -4q-7 0 -25 12t-18 19q0 8 2 12l229 412q16 31 49 31t49 -31l230 -412q2 -4 2 -12zM811 -242q0 131 -236 131h-212q-21 0 -41 -14q-64 -46 -64 -122q0 -77 64 -135t182 -58 q251 0 298 140q9 27 9 58zM592 522q0 177 -71 242q-31 29 -75 29q-72 0 -114 -78q-42 -79 -43 -183q1 -104 53 -170t119 -67q89 0 119 119q12 48 12 108zM981 -140q0 -164 -147 -281q-173 -138 -422 -138q-300 0 -372 148q-20 41 -20 92q0 81 103 166q34 28 64 43t30 21 t-16 13q-133 56 -133 174q0 75 145 138q16 6 16 12t-18 18q-154 97 -154 250q1 154 111 254t274 100q111 0 199 -36t114 -37h193q16 1 16 -57t-16 -58h-92q-31 0 -31 -29v-78q1 -169 -111 -263t-284 -95q-50 0 -84 4t-45 -4q-37 -29 -37 -59t36 -48t91 -18h254 q129 0 192 -21q144 -47 144 -211z"/>
            <glyph glyph-name="Gbreve" unicode="Ğ" horiz-adv-x="1443" d="M1086 1792q0 -307 -289 -307t-289 307q0 8 30 8t32 -8q38 -172 227 -172t227 172q2 8 32 8t30 -8zM832 524q0 46 14 45q60 -6 272 -6t273 6q13 1 13 -45t-13 -46q-108 0 -108 -77v-241q0 -45 42 -45q15 0 15 -40t-15 -40q-50 0 -236 -31t-318 -31q-263 -3 -463 153 q-253 198 -253 521q0 266 152 463q212 275 588 275q131 0 259 -28t186 -28q28 -59 38 -275l2 -51q0 -18 -46 -21t-48 13q-19 209 -211 275q-79 27 -186 27q-207 0 -334 -168t-127 -424q0 -324 171 -503q129 -135 286 -135q111 0 192 26q62 24 62 66v242q0 77 -114 77h-79 q-14 0 -14 46z"/>
            <glyph glyph-name="gbreve" unicode="ğ" horiz-adv-x="948" d="M731 1327q0 -307 -289 -307t-289 307q-1 8 29 8t33 -8q38 -172 227 -172t227 172q2 8 32 8t30 -8zM811 -242q0 131 -236 131h-212q-21 0 -41 -14q-64 -46 -64 -122q0 -77 64 -135t182 -58q251 0 298 140q9 27 9 58zM592 522q0 177 -71 242q-31 29 -75 29q-72 0 -114 -78 q-42 -79 -43 -183q1 -104 53 -170t119 -67q89 0 119 119q12 48 12 108zM981 -140q0 -164 -147 -281q-173 -138 -422 -138q-300 0 -372 148q-20 41 -20 92q0 81 103 166q34 28 64 43t30 21t-16 13q-133 56 -133 174q0 75 145 138q16 6 16 12t-18 18q-154 97 -154 250 q1 154 111 254t274 100q111 0 199 -36t114 -37h193q16 1 16 -57t-16 -58h-92q-31 0 -31 -29v-78q1 -169 -111 -263t-284 -95q-50 0 -84 4t-45 -4q-37 -29 -37 -59t36 -48t91 -18h254q129 0 192 -21q144 -47 144 -211z"/>
            <glyph glyph-name="Gdotaccent" unicode="Ġ" horiz-adv-x="1443" d="M672 1653q0 58 41 99t99 41t99 -41t41 -99t-41 -99t-99 -41t-99 41t-41 99zM832 524q0 46 14 45q60 -6 272 -6t273 6q13 1 13 -45t-13 -46q-108 0 -108 -77v-241q0 -45 42 -45q15 0 15 -40t-15 -40q-50 0 -236 -31t-318 -31q-263 -3 -463 153q-253 198 -253 521 q0 266 152 463q212 275 588 275q131 0 259 -28t186 -28q28 -59 38 -275l2 -51q0 -18 -46 -21t-48 13q-19 209 -211 275q-79 27 -186 27q-207 0 -334 -168t-127 -424q0 -324 171 -503q129 -135 286 -135q111 0 192 26q62 24 62 66v242q0 77 -114 77h-79q-14 0 -14 46z"/>
            <glyph glyph-name="gdotaccent" unicode="ġ" horiz-adv-x="948" d="M302 1188q0 58 41 99t99 41t99 -41t41 -99t-41 -99t-99 -41t-99 41t-41 99zM811 -242q0 131 -236 131h-212q-21 0 -41 -14q-64 -46 -64 -122q0 -77 64 -135t182 -58q251 0 298 140q9 27 9 58zM592 522q0 177 -71 242q-31 29 -75 29q-72 0 -114 -78q-42 -79 -43 -183 q1 -104 53 -170t119 -67q89 0 119 119q12 48 12 108zM981 -140q0 -164 -147 -281q-173 -138 -422 -138q-300 0 -372 148q-20 41 -20 92q0 81 103 166q34 28 64 43t30 21t-16 13q-133 56 -133 174q0 75 145 138q16 6 16 12t-18 18q-154 97 -154 250q1 154 111 254t274 100 q111 0 199 -36t114 -37h193q16 1 16 -57t-16 -58h-92q-31 0 -31 -29v-78q1 -169 -111 -263t-284 -95q-50 0 -84 4t-45 -4q-37 -29 -37 -59t36 -48t91 -18h254q129 0 192 -21q144 -47 144 -211z"/>
            <glyph glyph-name="Gcommaaccent" unicode="Ģ" horiz-adv-x="1443" d="M947 -336q0 -86 -81 -138t-192 -52t-138 61q-6 13 -6 29q0 42 36 61q12 7 36 7t68 -38t65 -38q53 0 53 51q0 77 -142 142q-20 9 -20 15t6 15l131 194q-258 -1 -455 153q-253 198 -253 521q0 266 152 463q212 275 588 275q131 0 259 -28t186 -28q28 -59 38 -275l2 -51 q0 -18 -46 -21t-48 13q-19 209 -211 275q-79 27 -186 27q-207 0 -334 -168t-127 -424q0 -324 171 -503q129 -135 286 -135q111 0 192 26q62 24 62 66v242q0 77 -114 77h-79q-14 0 -14 45.5t14 45.5q60 -6 272 -6t273 6q13 0 13 -45.5t-13 -45.5q-108 0 -108 -77v-241 q0 -45 42 -45q15 0 15 -40t-15 -40q-51 -1 -197 -25t-254 -32l-70 -96q-9 -12 -9 -20t28 -24q124 -66 124 -174z"/>
            <glyph glyph-name="gcommaaccent" unicode="ģ" horiz-adv-x="948" d="M565 1156q1 -54 -43 -82q-44 -30 -105 -30t-112 59t-51 157t82 192q82 95 192 145q3 1 12 1t16 -10t7 -17q0 -6 -2 -8q-65 -59 -91 -124t-26 -103t13 -42q108 -38 108 -138zM811 -242q0 131 -236 131h-212q-21 0 -41 -14q-64 -46 -64 -122q0 -77 64 -135t182 -58 q251 0 298 140q9 27 9 58zM592 522q0 177 -71 242q-31 29 -75 29q-72 0 -114 -78q-42 -79 -43 -183q1 -104 53 -170t119 -67q89 0 119 119q12 48 12 108zM981 -140q0 -164 -147 -281q-173 -138 -422 -138q-300 0 -372 148q-20 41 -20 92q0 81 103 166q34 28 64 43t30 21 t-16 13q-133 56 -133 174q0 75 145 138q16 6 16 12t-18 18q-154 97 -154 250q1 154 111 254t274 100q111 0 199 -36t114 -37h193q16 1 16 -57t-16 -58h-92q-31 0 -31 -29v-78q1 -169 -111 -263t-284 -95q-50 0 -84 4t-45 -4q-37 -29 -37 -59t36 -48t91 -18h254 q129 0 192 -21q144 -47 144 -211z"/>
            <glyph glyph-name="Hcircumflex" unicode="Ĥ" horiz-adv-x="1686" d="M1162 1512q0 -8 -10 -22q-10 -16 -18 -16q-2 0 -3 1l-267 124q-36 17 -75 0l-266 -124l-2 -1q-11 4 -24 24t-4 26l283 251q26 23 50 23t49 -23l283 -251q4 -4 4 -12zM1432 202q0 -116 159 -116q14 0 14 -46t-14 -47q-126 7 -279 7t-286 -7q-15 1 -15 47t15 46 q162 0 162 116v417q0 34 -34 34h-638q-35 0 -35 -34v-417q0 -116 159 -116q14 0 14 -46t-14 -47q-133 7 -286 7t-279 -7q-15 1 -15 47t15 46q162 0 162 116v952q0 116 -161 116q-14 0 -14 46t14 47q48 -5 284 -5t284 5q14 -1 14 -47t-14 -46q-163 0 -163 -116v-372 q0 -35 35 -35h638q34 0 34 35v372q0 116 -160 116q-15 0 -15 46t15 47q44 -5 282 -5t285 5q15 -1 15 -47t-15 -46q-163 0 -163 -116v-952z"/>
            <glyph glyph-name="hcircumflex" unicode="ĥ" horiz-adv-x="1093" d="M622 1512q0 -8 -10 -22q-10 -16 -18 -16q-2 0 -3 1l-267 124q-36 17 -75 0l-266 -124l-2 -1q-11 4 -24 24t-4 26l283 251q26 23 50 23t49 -23l283 -251q4 -4 4 -12zM854 0q-145 0 -225 -8q-16 0 -16 38t16 38q104 0 104 64v423q0 75 -47 141t-129 66t-135 -63 q-29 -35 -29 -72v-484q0 -75 103 -75q15 0 15 -38t-15 -38q-84 8 -222 8t-223 -8q-15 0 -15 38t15 38q113 0 113 69v1024q0 125 -92 125q-16 0 -16 37t16 37q50 0 150 50t116 63q16 14 33 14q27 0 28 -27q-2 -85 -6 -174v-465q-1 -23 9 -23t24 11q82 61 211 61 q180 0 270 -136q56 -84 56 -177v-414q7 -75 116 -75q16 0 16 -38t-16 -38q-80 8 -225 8z"/>
            <glyph glyph-name="Hbar" unicode="Ħ" horiz-adv-x="1686" d="M1188 953h-707v-171q0 -35 35 -35h638q34 0 34 35v171zM1432 202q0 -116 159 -116q14 0 14 -46.5t-14 -46.5q-126 7 -279 7t-286 -7q-15 0 -15 46.5t15 46.5q162 0 162 116v417q0 34 -34 34h-638q-35 0 -35 -34v-417q0 -116 159 -116q14 0 14 -46.5t-14 -46.5 q-133 7 -286 7t-279 -7q-15 0 -15 46.5t15 46.5q162 0 162 116v751h-66q-19 0 -19 49.5t19 49.5h66v102q0 116 -161 116q-14 0 -14 46.5t14 46.5q48 -5 284 -5t284 5q14 0 14 -46.5t-14 -46.5q-163 0 -163 -116v-102h707v102q0 116 -160 116q-15 0 -15 46.5t15 46.5 q44 -5 282 -5t285 5q15 0 15 -46.5t-15 -46.5q-163 0 -163 -116v-102h80q20 0 20 -49.5t-22 -49.5h-78v-751z"/>
            <glyph glyph-name="hbar" unicode="ħ" horiz-adv-x="1093" d="M164 137v947h-184q-16 0 -16 45t16 45h184q-5 112 -92 112q-16 0 -16 37t16 37q49 0 145 47t117 63t37 17q30 0 28 -27q-6 -75 -6 -174v-112h176q16 0 16 -45t-16 -45h-176v-263q-1 -23 9 -23t24 11q82 61 200 61t187 -43.5t109.5 -117.5t40.5 -152v-414q0 -75 116 -75 q16 0 16 -38t-16 -38q-80 8 -225 8t-225 -8q-16 0 -16 38t16 38q104 0 104 64v423q0 75 -47 141t-129 66t-135 -63q-29 -35 -29 -72v-484q0 -75 103 -75q15 0 15 -38t-15 -38q-84 8 -222 8t-223 -8q-15 0 -15 37.5t15 38.5q113 0 113 69z"/>
            <glyph glyph-name="Itilde" unicode="Ĩ" horiz-adv-x="734" d="M482 1548q-41 0 -131 32t-123 32q-63 0 -112 -59q-3 -3 -10 -3q-8 0 -22 14t-14 21q0 6 2 8q106 160 218 160q50 0 129 -30t114 -30q64 0 122 62q2 3 8 3t23 -14t17 -22q0 -7 -2 -10q-110 -164 -219 -164zM481 202q0 -116 159 -116q14 0 14 -46t-14 -47q-133 7 -286 7 t-279 -7q-15 1 -15 47t15 46q162 0 162 116v952q0 116 -161 116q-14 0 -14 46t14 47q48 -5 284 -5t284 5q14 -1 14 -47t-14 -46q-163 0 -163 -116v-952z"/>
            <glyph glyph-name="itilde" unicode="ĩ" horiz-adv-x="524" d="M375 1048q-41 0 -131 32t-123 32q-63 0 -112 -59q-3 -3 -10 -3t-21 14t-15 21q0 6 2 8q106 160 218 160q50 0 129 -30t114 -30q64 0 122 62q2 3 8 3t23 -14t17 -22q0 -7 -2 -10q-110 -164 -219 -164zM393 143q0 -75 103 -75q15 0 15 -38t-15 -38q-84 8 -218 8t-219 -8 q-15 0 -15 38t15 38q105 0 105 75v414q0 125 -92 125q-16 0 -16 37t16 37q50 0 150 50t116 63q16 14 35 14q28 0 26 -27q-6 -84 -6 -174v-539z"/>
            <glyph glyph-name="Imacron" unicode="Ī" horiz-adv-x="734" d="M665 1660q27 0 25 -52t-28 -53h-591q-25 1 -25 53t25 52h594zM481 202q0 -116 159 -116q14 0 14 -46t-14 -47q-133 7 -286 7t-279 -7q-15 1 -15 47t15 46q162 0 162 116v952q0 116 -161 116q-14 0 -14 46t14 47q48 -5 284 -5t284 5q14 -1 14 -47t-14 -46 q-163 0 -163 -116v-952z"/>
            <glyph glyph-name="imacron" unicode="ī" horiz-adv-x="524" d="M504 1240q27 0 27 -56t-31 -56h-446q-23 0 -23 56t23 56h450zM393 143q0 -75 103 -75q15 0 15 -38t-15 -38q-84 8 -218 8t-219 -8q-15 0 -15 38t15 38q105 0 105 75v414q0 125 -92 125q-16 0 -16 37t16 37q50 0 150 50t116 63q16 14 35 14q28 0 26 -27q-6 -84 -6 -174 v-539z"/>
            <glyph glyph-name="Ibreve" unicode="Ĭ" horiz-adv-x="734" d="M647 1792q0 -307 -289 -307t-289 307q-1 8 29 8t33 -8q38 -172 227 -172t227 172q2 8 32 8t30 -8zM481 202q0 -116 159 -116q14 0 14 -46t-14 -47q-133 7 -286 7t-279 -7q-15 1 -15 47t15 46q162 0 162 116v952q0 116 -161 116q-14 0 -14 46t14 47q48 -5 284 -5t284 5 q14 -1 14 -47t-14 -46q-163 0 -163 -116v-952z"/>
            <glyph glyph-name="ibreve" unicode="ĭ" horiz-adv-x="524" d="M567 1327q0 -307 -289 -307t-289 307q-1 8 29 8t33 -8q38 -172 227 -172t227 172q2 8 32 8t30 -8zM393 143q0 -75 103 -75q15 0 15 -38t-15 -38q-84 8 -218 8t-219 -8q-15 0 -15 38t15 38q105 0 105 75v414q0 125 -92 125q-16 0 -16 37t16 37q50 0 150 50t116 63 q16 14 35 14q28 0 26 -27q-6 -84 -6 -174v-539z"/>
            <glyph glyph-name="Iogonek" unicode="Į" horiz-adv-x="734" d="M481 202q0 -116 159 -116q14 0 14 -46.5t-14 -46.5q-111 6 -232 7q-123 -142 -123 -246q0 -121 123 -121q61 0 103 31q20 -7 20 -39q-75 -113 -217 -113q-205 0 -205 184q0 142 181 304q-118 -1 -215 -7q-15 0 -15 46.5t15 46.5q162 0 162 116v952q0 116 -161 116 q-14 0 -14 46.5t14 46.5q48 -5 284 -5t284 5q14 0 14 -46.5t-14 -46.5q-163 0 -163 -116v-952z"/>
            <glyph glyph-name="iogonek" unicode="į" horiz-adv-x="524" d="M44 30q0 38 15 38q105 0 105 75v414q0 125 -92 125q-16 0 -16 37t16 37q50 0 150 50t116 63q16 14 35 14q28 0 26 -27q-6 -88 -6 -174v-539q0 -75 103 -75q15 0 15 -38t-15 -38q-72 7 -174 8q-123 -142 -123 -246q0 -121 123 -121q61 0 103 31q20 -7 20 -39 q-75 -113 -217 -113q-205 0 -205 184q0 142 181 303q-87 -2 -145 -7q-15 0 -15 38zM401 1185q0 -71 -59 -111q-38 -26 -100 -26t-103 58q-26 36 -26 92q-1 56 47 91t111 35t97 -49t33 -90z"/>
            <glyph glyph-name="Idotaccent" unicode="İ" horiz-adv-x="734" d="M231 1653q0 58 41 99t99 41t99 -41t41 -99t-41 -99t-99 -41t-99 41t-41 99zM481 202q0 -116 159 -116q14 0 14 -46t-14 -47q-133 7 -286 7t-279 -7q-15 1 -15 47t15 46q162 0 162 116v952q0 116 -161 116q-14 0 -14 46t14 47q48 -5 284 -5t284 5q14 -1 14 -47t-14 -46 q-163 0 -163 -116v-952z"/>
            <glyph glyph-name="dotlessi" unicode="ı" horiz-adv-x="524" d="M393 143q0 -75 103 -75q15 0 15 -38t-15 -38q-84 8 -218 8t-219 -8q-15 0 -15 38t15 38q105 0 105 75v414q0 125 -92 125q-16 0 -16 37t16 37q50 0 150 50t116 63q16 14 35 14q28 0 26 -27q-6 -84 -6 -174v-539z"/>
            <glyph glyph-name="Jcircumflex" unicode="Ĵ" horiz-adv-x="718" d="M694 1512q0 -8 -10 -22q-10 -16 -18 -16q-2 0 -3 1l-267 124q-36 17 -75 0l-266 -124l-2 -1q-11 4 -24 24t-4 26l283 251q26 23 50 23t49 -23l283 -251q4 -4 4 -12zM50 -419q-68 0 -125 37q-57 36 -57 106t65 102q33 17 76 17q74 0 128 -58q25 -27 38 -62q33 24 56 82 q26 88 26 448v901q0 116 -171 116q-14 0 -14 46t14 47q48 -5 294 -5t294 5q14 -1 14 -47t-14 -46q-172 0 -172 -116v-525q0 -107 -10 -434q-2 -227 -82 -361t-206 -205q-86 -48 -154 -48z"/>
            <glyph glyph-name="jcircumflex" unicode="ĵ" horiz-adv-x="499" d="M367 682v-543q0 -186 -11 -268q-24 -175 -104 -283q-106 -144 -296 -143q-48 0 -98 39t-51 93q0 54 51 84q26 15 66 15t78 -62t74 -63q46 1 56 91q5 43 5 129v786q0 125 -92 125q-15 0 -15 37t15 37q51 0 151 50t118 63q17 14 32 14q28 0 29 -27q-8 -92 -8 -174z M533 1051q-1 -7 -19 -19t-26 -12t-11 4l-182 213q-25 28 -43 28t-43 -28l-182 -213q-4 -4 -12 -4q-7 0 -25 12t-18 19q0 8 2 12l229 412q16 31 49 31t49 -31l230 -412q2 -4 2 -12z"/>
            <glyph glyph-name="Kcommaaccent" unicode="Ķ" horiz-adv-x="1382" d="M714 -514q-111 0 -138 61q-6 13 -6 29q0 43 36 61q12 7 36 7t68 -39q80 -63 106 -19q12 18 12 33q0 81 -156 148l-6 16l86 123q144 -58 190 -112t45 -130q0 -74 -81 -126t-192 -52zM1383 86q14 0 14 -46t-14 -47q-133 7 -286 7t-293 -7q-14 1 -14 47t14 46q84 0 85 39 q0 26 -41 77l-259 323q-63 72 -85 72t-23 -28v-367q0 -116 155 -116q14 0 14 -46t-14 -47q-133 7 -284 7t-277 -7q-15 1 -15 47t15 46q162 0 162 116v952q0 116 -172 116q-14 0 -14 46t14 47q47 -5 288 -5t289 5q14 -1 14 -47t-14 -46q-161 0 -161 -116v-357q0 -27 16 -27 q28 0 76 55l277 331q53 63 53 89q-9 24 -61 25q-13 0 -13 46t13 47q50 -5 199 -5t197 5q14 -1 14 -47t-14 -46q-88 0 -132 -20t-82 -65l-337 -392q-16 -19 -16 -35t15 -34l458 -533q78 -91 179 -102q22 -3 60 -3z"/>
            <glyph glyph-name="kcommaaccent" unicode="ķ" horiz-adv-x="1073" d="M517 -514q-111 0 -138 61q-6 13 -6 29q0 43 36 61q13 7 37 7t67 -39q81 -63 107 -19q12 18 11 33q0 81 -156 148l-6 16l86 123q143 -58 189 -112t46 -130q0 -74 -81 -126t-192 -52zM850 0q-150 0 -234 -8q-15 0 -15 38t15 38q74 0 75 29q0 16 -27 48l-195 224 q-25 30 -59 30q-17 0 -17 -34v-222q0 -75 109 -75q15 0 15 -38t-15 -38q-84 8 -226 8t-227 -8q-15 0 -15 38t15 38q115 0 115 71v1022q-9 118 -92 125q-16 0 -16 37t16 37q50 0 150 50t116 63q16 14 33 14q27 0 28 -27q-6 -87 -6 -173v-759q0 -36 21 -36q44 0 80 38l153 170 q32 36 32 54q0 30 -83 30q-16 0 -16 36t16 36q60 -6 208 -6t212 6q15 0 15 -36t-15 -36q-105 0 -182 -71l-209 -189q-11 -10 -11 -22t11 -23l329 -358q47 -53 125 -53q16 0 16 -38t-16 -38q-79 8 -229 8z"/>
            <glyph glyph-name="Lacute" unicode="Ĺ" horiz-adv-x="1359" d="M220 1486q-16 11 -16 37t40 57l259 197q7 6 15 6q23 0 56 -51t33 -76t-12 -32l-287 -135q-54 -26 -88 -3zM60 40q0 46 15 46q162 0 162 126v942q0 116 -172 116q-14 0 -14 46t14 47q47 -5 285 -5t286 5q14 -1 14 -47t-14 -46q-155 0 -155 -116v-904q0 -110 67 -153 q34 -19 75 -19l332 13q75 3 142 82q82 105 82 219q1 18 51 18t50 -18v-335q0 -42 -15 -52q-9 -12 -102 -12l-808 7q-72 0 -280 -7q-15 1 -15 47z"/>
            <glyph glyph-name="lacute" unicode="ĺ" horiz-adv-x="524" d="M88 1522q-16 11 -16 37t40 57l259 197q7 6 15 6q23 0 56 -51t33 -76t-12 -32l-287 -135q-54 -26 -88 -3zM278 0q-134 0 -219 -8q-15 0 -15 38t15 38q105 0 105 67v1026q0 125 -92 125q-16 0 -16 37t16 37q50 0 150 50t116 63q16 14 31 14q30 0 30 -33q-6 -75 -6 -168 v-1143q0 -75 103 -75q15 0 15 -38t-15 -38q-84 8 -218 8z"/>
            <glyph glyph-name="Lcommaaccent" unicode="Ļ" horiz-adv-x="1359" d="M481 250q0 -110 67 -153q34 -21 75 -19l332 13q75 3 142 82q82 105 82 219q0 18 50.5 18t50.5 -18v-335q0 -42 -15 -52q-9 -12 -148 -12t-407 4l-76 -103q-9 -12 -9 -20t28 -24q124 -66 124 -174q0 -86 -81 -138t-192 -52t-138 61q-6 13 -6 29q0 42 36 61q12 7 36 7 t68 -38t65 -38q53 0 53 51q0 77 -142 142q-20 9 -20 15t6 15l140 207q-166 2 -242 2t-285 -7q-15 0 -15 46.5t15 46.5q162 0 162 126v942q0 116 -172 116q-14 0 -14 46.5t14 46.5q47 -5 285 -5t286 5q14 0 14 -46.5t-14 -46.5q-155 0 -155 -116v-904z"/>
            <glyph glyph-name="lcommaaccent" unicode="ļ" horiz-adv-x="524" d="M397 -315q0 -86 -81 -138t-192 -52t-138 61q-6 13 -6 29q0 42 36 61q12 7 36 7t68 -38t65 -38q53 0 53 51q0 77 -142 142q-20 10 -20 16t6 14l135 200q-80 0 -158 -8q-15 0 -15 38t15 38q105 0 105 67v1026q0 125 -92 125q-16 0 -16 37t16 37q50 0 150 50t116 63 q16 14 31 14q30 0 30 -33q-6 -75 -6 -168v-1143q0 -75 103 -75q15 0 15 -38t-15 -38q-71 8 -171 8l-71 -97q-9 -12 -9 -20t28 -24q124 -66 124 -174z"/>
            <glyph glyph-name="Lcaron" unicode="Ľ" horiz-adv-x="1359" d="M811 1491q125 0 125 -47q0 -143 -95 -282q-37 -54 -67 -54t-30 35q0 20 19 65q19 46 19 112t-13 106t-13 42q0 23 55 23zM60 40q0 46 15 46q162 0 162 126v942q0 116 -172 116q-14 0 -14 46t14 47q47 -5 285 -5t286 5q14 -1 14 -47t-14 -46q-155 0 -155 -116v-904 q0 -110 67 -153q34 -19 75 -19l332 13q75 3 142 82q82 105 82 219q1 18 51 18t50 -18v-335q0 -42 -15 -52q-9 -12 -102 -12l-808 7q-72 0 -280 -7q-15 1 -15 47z"/>
            <glyph glyph-name="lcaron" unicode="ľ" horiz-adv-x="524" d="M529 1491q125 0 125 -47q0 -143 -95 -282q-37 -54 -67 -54t-30 35q0 20 19 65q19 46 19 112t-13 106t-13 42q0 23 55 23zM278 0q-134 0 -219 -8q-15 0 -15 38t15 38q105 0 105 67v1026q0 125 -92 125q-16 0 -16 37t16 37q50 0 150 50t116 63q16 14 31 14q30 0 30 -33 q-6 -75 -6 -168v-1143q0 -75 103 -75q15 0 15 -38t-15 -38q-84 8 -218 8z"/>
            <glyph glyph-name="Ldot" unicode="Ŀ" horiz-adv-x="1359" d="M1175 732q0 -78 -63 -121q-39 -26 -99 -26q-60 -1 -107 43t-47 107q1 63 43 110t129 47t128 -85q16 -34 16 -75zM60 40q0 46 15 46q162 0 162 126v942q0 116 -172 116q-14 0 -14 46t14 47q47 -5 285 -5t286 5q14 -1 14 -47t-14 -46q-155 0 -155 -116v-904q0 -110 67 -153 q34 -19 75 -19l332 13q75 3 142 82q82 105 82 219q1 18 51 18t50 -18v-335q0 -42 -15 -52q-9 -12 -102 -12l-808 7q-72 0 -280 -7q-15 1 -15 47z"/>
            <glyph glyph-name="ldot" unicode="ŀ" horiz-adv-x="868" d="M849 512q0 -78 -63 -121q-39 -26 -99 -26q-60 -1 -107 43t-47 107q1 63 43 110t129 47t128 -85q16 -34 16 -75zM278 0q-134 0 -219 -8q-15 0 -15 38t15 38q105 0 105 67v1026q0 125 -92 125q-16 0 -16 37t16 37q50 0 150 50t116 63q16 14 31 14q30 0 30 -33 q-6 -75 -6 -168v-1143q0 -75 103 -75q15 0 15 -38t-15 -38q-84 8 -218 8z"/>
            <glyph glyph-name="Lslash" unicode="Ł" horiz-adv-x="1359" d="M60 39.5q0 46.5 15 46.5q162 0 162 126v271l-178 -111q-21 -13 -54 48q-16 28 -16 42t5 16l243 153v523q0 116 -172 116q-14 0 -14 46.5t14 46.5q47 -5 285 -5t286 5q14 0 14 -46.5t-14 -46.5q-155 0 -155 -116v-371l252 157q19 12 52 -40.5t13 -64.5l-317 -199v-386 q0 -110 48.5 -142t93.5 -30l332 13q75 3 125 63.5t74.5 114.5t24.5 123q0 18 50.5 18t50.5 -18v-335q0 -43 -15 -52q-24 -12 -102 -12l-412 3q-412 4 -676 -3q-15 0 -15 46.5z"/>
            <glyph glyph-name="lslash" unicode="ł" horiz-adv-x="524" d="M393 143q0 -75 103 -75q15 0 15 -37.5t-15 -38.5q-84 8 -218 8t-219 -8q-15 0 -15 37.5t15 38.5q105 0 105 75v357l-164 -121q-20 -15 -52 32q-13 19 -13 31t6 17l223 164v538q0 125 -92 125q-16 0 -16 37t16 37q50 0 150 49.5t116 63.5t31 14q30 0 30 -33l-6 -167v-494 l187 137q19 14 53 -34q12 -18 12 -30t-6 -16l-246 -182v-525z"/>
            <glyph glyph-name="Nacute" unicode="Ń" horiz-adv-x="1482" d="M640 1486q-16 11 -16 37t40 57l259 197q7 6 15 6q23 0 56 -51t33 -76t-12 -32l-287 -135q-54 -26 -88 -3zM1288 76q0 -97 -28 -97t-77 57l-822 978q-13 16 -23 16t-10 -22v-806q0 -116 151 -116q15 0 15 -47t-15 -46q-92 7 -197 7t-217 -7q-14 -3 -14 45t14 48 q159 0 159 116v954q0 114 -173 114q-13 0 -13 46t13 47q49 -5 155 -5t120 -2q59 -9 100 -57l711 -867q10 -14 24 -14q24 0 24 31v703q0 118 -153 118q-15 0 -15 46t15 47q102 -5 200 -5t191 5q14 -1 14 -47t-14 -46q-135 0 -135 -118v-1076z"/>
            <glyph glyph-name="nacute" unicode="ń" horiz-adv-x="1087" d="M560 1020q-42 0 -42 53q0 21 8 41l120 302q8 17 34 17q26 -1 76 -35t51 -55q0 -6 -3 -11l-176 -263q-32 -49 -68 -49zM858 0q-104 0 -225 -8q-15 0 -15 38t15 38q101 0 101 62v407q0 149 -59 200q-29 25 -93 25t-127 -54q-62 -54 -62 -116v-449q0 -75 99 -75q15 0 15 -38 t-15 -38q-84 8 -218 8t-217 -8q-15 0 -15 38t15 38q107 0 107 75v406q0 133 -92 133q-16 0 -16 37t16 37q50 0 150 50t116 63q16 14 31 14q29 0 30 -27l-6 -68q0 -19 9 -19t18 9q42 55 138 81q41 11 95 11q189 0 274 -185q36 -73 36 -220v-329q0 -68 106 -68q16 0 16 -38 t-16 -38q-107 8 -211 8z"/>
            <glyph glyph-name="Ncommaaccent" unicode="Ņ" horiz-adv-x="1482" d="M769 -514q-111 0 -138 61q-6 13 -6 29q0 43 36 61q13 7 37 7t67 -39q81 -63 107 -19q12 18 11 33q0 81 -156 148l-6 16l86 123q143 -58 189 -112t46 -130q0 -74 -81 -126t-192 -52zM1288 76q0 -97 -28 -97t-77 57l-822 978q-13 16 -23 16t-10 -22v-806q0 -116 151 -116 q15 0 15 -47t-15 -46q-92 7 -197 7t-217 -7q-14 -3 -14 45t14 48q159 0 159 116v954q0 114 -173 114q-13 0 -13 46t13 47q49 -5 155 -5t120 -2q59 -9 100 -57l711 -867q10 -14 24 -14q24 0 24 31v703q0 118 -153 118q-15 0 -15 46t15 47q102 -5 200 -5t191 5q14 -1 14 -47 t-14 -46q-135 0 -135 -118v-1076z"/>
            <glyph glyph-name="ncommaaccent" unicode="ņ" horiz-adv-x="1087" d="M511 -514q-111 0 -138 61q-6 13 -6 29q0 43 36 61q13 7 37 7t67 -39q81 -63 107 -19q12 18 11 33q0 81 -156 148l-6 16l86 123q143 -58 189 -112t46 -130q0 -74 -81 -126t-192 -52zM858 0q-104 0 -225 -8q-15 0 -15 38t15 38q101 0 101 62v407q0 149 -59 200 q-29 25 -93 25t-127 -54q-62 -54 -62 -116v-449q0 -75 99 -75q15 0 15 -38t-15 -38q-84 8 -218 8t-217 -8q-15 0 -15 38t15 38q107 0 107 75v406q0 133 -92 133q-16 0 -16 37t16 37q50 0 150 50t116 63q16 14 31 14q29 0 30 -27l-6 -68q0 -19 9 -19t18 9q42 55 138 81 q41 11 95 11q189 0 274 -185q36 -73 36 -220v-329q0 -68 106 -68q16 0 16 -38t-16 -38q-107 8 -211 8z"/>
            <glyph glyph-name="Ncaron" unicode="Ň" horiz-adv-x="1482" d="M406 1759q0 7 10 23t18 16q2 0 3 -1l268 -124q19 -9 37 -9t37 9l266 124l3 1q11 -4 21 -19t10 -21t-3 -11l-283 -250q-26 -23 -51 -23t-49 23l-283 250q-4 4 -4 12zM1288 76q0 -97 -28 -97t-77 57l-822 978q-13 16 -23 16t-10 -22v-806q0 -116 151 -116q15 0 15 -47 t-15 -46q-92 7 -197 7t-217 -7q-14 -3 -14 45t14 48q159 0 159 116v954q0 114 -173 114q-13 0 -13 46t13 47q49 -5 155 -5t120 -2q59 -9 100 -57l711 -867q10 -14 24 -14q24 0 24 31v703q0 118 -153 118q-15 0 -15 46t15 47q102 -5 200 -5t191 5q14 -1 14 -47t-14 -46 q-135 0 -135 -118v-1076z"/>
            <glyph glyph-name="ncaron" unicode="ň" horiz-adv-x="1087" d="M610 1020q-32 0 -49 31l-229 412q-2 3 -2 13t19 20q19 11 25 11t11 -5l182 -213q33 -39 43 -39t43 39l182 213q5 5 12 5q7 -1 25 -13t19 -20q0 -8 -2 -11l-230 -412q-17 -31 -49 -31zM858 0q-104 0 -225 -8q-15 0 -15 38t15 38q101 0 101 62v407q0 149 -59 200 q-29 25 -93 25t-127 -54q-62 -54 -62 -116v-449q0 -75 99 -75q15 0 15 -38t-15 -38q-84 8 -218 8t-217 -8q-15 0 -15 38t15 38q107 0 107 75v406q0 133 -92 133q-16 0 -16 37t16 37q50 0 150 50t116 63q16 14 31 14q29 0 30 -27l-6 -68q0 -19 9 -19t18 9q42 55 138 81 q41 11 95 11q189 0 274 -185q36 -73 36 -220v-329q0 -68 106 -68q16 0 16 -38t-16 -38q-107 8 -211 8z"/>
            <glyph glyph-name="napostrophe" unicode="ŉ" horiz-adv-x="1087" d="M387 1258q1 -98 -81 -193t-193 -145q-3 -1 -12 -1q-9 1 -16 11t-7 16t2 8q65 59 91 124q26 64 26 102t-13 43q-108 38 -108 139q0 52 44 82t104 29q61 0 112 -59q51 -58 51 -156zM858 0q-104 0 -225 -8q-15 0 -15 38t15 38q101 0 101 62v407q0 149 -59 200q-29 25 -93 25 t-127 -54q-62 -54 -62 -116v-449q0 -75 99 -75q15 0 15 -38t-15 -38q-84 8 -218 8t-217 -8q-15 0 -15 38t15 38q107 0 107 75v406q0 133 -92 133q-16 0 -16 37t16 37q50 0 150 50t116 63q16 14 31 14q29 0 30 -27l-6 -68q0 -19 9 -19t18 9q42 55 138 81q41 11 95 11 q189 0 274 -185q36 -73 36 -220v-329q0 -68 106 -68q16 0 16 -38t-16 -38q-107 8 -211 8z"/>
            <glyph glyph-name="Eng" unicode="Ŋ" horiz-adv-x="1482" d="M1288 1152v-1089l-2 -174q-1 -117 -58.5 -213t-123.5 -145.5t-179 -48.5q-59 0 -95 33.5t-36 70.5q0 101 92 101q60 0 97 -36.5t52 -36.5q39 0 90.5 78.5t51.5 172.5v178l-816 971q-13 16 -23 16t-10 -22v-806q0 -116 151 -116q15 0 15 -47t-15 -46q-105 7 -203 7 t-211 -7q-14 -2 -14 45.5t14 47.5q159 0 159 116v954q0 114 -173 114q-13 0 -13 46.5t13 46.5q49 -5 155 -5t120 -2q59 -9 100 -57l711 -867q10 -14 24 -14q24 0 24 31v703q0 118 -153 118q-15 0 -15 46.5t15 46.5q102 -5 200 -5t191 5q14 0 14 -46.5t-14 -46.5 q-135 0 -135 -118z"/>
            <glyph glyph-name="eng" unicode="ŋ" horiz-adv-x="1087" d="M578 -555q-76 0 -125 38.5t-49 86.5t33.5 77t78.5 29t83.5 -62.5t74.5 -62.5t48 58t12 162v766q0 149 -59 200q-29 25 -93 25t-127 -54q-62 -54 -62 -116v-449q0 -75 99 -75q15 0 15 -38t-15 -38q-84 8 -218 8t-217 -8q-15 0 -15 38t15 38q107 0 107 75v406 q0 133 -92 133q-16 0 -16 37t16 37q50 0 150 50t116 63q16 14 31 14q29 0 30 -27l-6 -68q0 -19 9 -19t18 9q42 55 138 81q41 11 95 11q189 0 274 -185q36 -73 36 -220l1 -326q1 -187 -14.5 -293t-70 -208t-140 -147.5t-161.5 -45.5z"/>
            <glyph glyph-name="Omacron" unicode="Ō" horiz-adv-x="1524" d="M1047 1660q27 0 25 -52t-28 -53h-591q-25 1 -25 53t25 52h594zM1157 649q0 255 -124 438q-142 211 -294 211t-266 -131q-145 -167 -145 -457t153 -481q129 -162 274 -162q265 0 358 279q44 130 44 303zM1430 663q0 -220 -145 -417q-202 -273 -544 -273q-225 0 -405 124 q-281 194 -281 570q-1 251 185 485t505 233q246 0 426 -155q259 -224 259 -567z"/>
            <glyph glyph-name="omacron" unicode="ō" horiz-adv-x="1032" d="M745 1240q27 0 27 -56t-31 -56h-446q-23 0 -23 56t23 56h450zM516 61q94 0 146.5 106.5t52.5 271.5t-71 273q-53 81 -130.5 81t-136 -106.5t-58.5 -279t73 -274.5q52 -72 124 -72zM969 426q0 -209 -121 -329t-318 -120t-330.5 126.5t-133.5 308.5t110 308 q132 150 345 150t346 -158q102 -122 102 -286z"/>
            <glyph glyph-name="Obreve" unicode="Ŏ" horiz-adv-x="1524" d="M1026 1792q0 -307 -289 -307t-289 307q0 8 30 8t32 -8q38 -172 227 -172t227 172q2 8 32 8t30 -8zM1157 649q0 255 -124 438q-142 211 -294 211t-266 -131q-145 -167 -145 -457t153 -481q129 -162 274 -162q265 0 358 279q44 130 44 303zM1430 663q0 -220 -145 -417 q-202 -273 -544 -273q-225 0 -405 124q-281 194 -281 570q-1 251 185 485t505 233q246 0 426 -155q259 -224 259 -567z"/>
            <glyph glyph-name="obreve" unicode="ŏ" horiz-adv-x="1032" d="M805 1327q0 -307 -289 -307t-289 307q-1 8 29 8t33 -8q38 -172 227 -172t227 172q2 8 32 8t30 -8zM516 61q94 1 146 107t53 271q0 165 -71 273q-52 81 -130 81q-78 -1 -136 -107t-59 -278q0 -172 73 -275q52 -72 124 -72zM969 426q0 -209 -121 -329t-318 -120 q-196 1 -330 127t-134 308t110 308q132 150 345 150t346 -158q102 -122 102 -286z"/>
            <glyph glyph-name="Ohungarumlaut" unicode="Ő" horiz-adv-x="1524" d="M436 1486q-16 11 -16 37t40 57l259 197q7 6 15 6q23 0 56 -51t33 -76t-12 -32l-287 -135q-54 -26 -88 -3zM844 1486q-16 11 -16 37t40 57l259 197q7 6 15 6q23 0 56 -51t33 -76t-12 -32l-287 -135q-54 -26 -88 -3zM1157 649q0 255 -124 438q-142 211 -294 211t-266 -131 q-145 -167 -145 -457t153 -481q129 -162 274 -162q265 0 358 279q44 130 44 303zM1430 663q0 -220 -145 -417q-202 -273 -544 -273q-225 0 -405 124q-281 194 -281 570q-1 251 185 485t505 233q246 0 426 -155q259 -224 259 -567z"/>
            <glyph glyph-name="ohungarumlaut" unicode="ő" horiz-adv-x="1032" d="M619 1020q-42 0 -42 53q0 21 8 41l120 302q7 17 33 17q26 -1 78 -35q50 -34 50 -55q0 -6 -3 -11l-176 -263q-32 -49 -68 -49zM279 1020q-42 0 -42 53q0 21 8 41l120 302q7 17 33 17q26 -1 78 -35q50 -34 50 -55q0 -6 -3 -11l-176 -263q-32 -49 -68 -49zM516 61 q94 1 146 107t53 271q0 165 -71 273q-52 81 -130 81q-78 -1 -136 -107t-59 -278q0 -172 73 -275q52 -72 124 -72zM969 426q0 -209 -121 -329t-318 -120q-196 1 -330 127t-134 308t110 308q132 150 345 150t346 -158q102 -122 102 -286z"/>
            <glyph glyph-name="OE" unicode="Œ" horiz-adv-x="2010" d="M997 202v954q0 53 -51.5 80.5t-114.5 31.5t-115 4q-155 0 -272.5 -152t-117.5 -424t138 -444t273 -172t197.5 27.5t62.5 94.5zM1889 1307v-306q0 -17 -50.5 -17t-50.5 17q0 130 -99 205q-61 46 -115 48t-306 11q-27 0 -27 -40v-509q6 -27 29 -29h136q121 0 122 91v99 q0 14 52.5 14t52.5 -14q-7 -67 -7 -231t7 -227q0 -15 -52.5 -15t-52.5 15v86q0 89 -122 89h-136q-29 0 -29 -31v-341q0 -76 74 -115q40 -21 87 -21l218 5q157 5 205 137q18 50 18 116q0 18 51 18t51 -18v-287q0 -42 -15 -52q-27 -12 -102 -12l-705 7l-405 -11 q-277 0 -471 190.5t-194 468.5t189.5 494t479.5 216l411 -6q141 0 651 6q83 0 94 -12t11 -39z"/>
            <glyph glyph-name="oe" unicode="œ" horiz-adv-x="1548" d="M504 61q94 0 146 107t52 272t-71 273q-52 80 -130 80t-136 -107t-58 -279t73 -274q52 -72 124 -72zM1122 791q-133 0 -153 -138q-4 -26 20 -26h234q26 0 22 24q-8 82 -65 121q-28 19 -58 19zM1114 -25q-152 0 -266 138q-119 -136 -342 -136q-184 0 -318 126t-135 309 q0 182 111 308q131 150 338 150t332 -139l6 -6q94 109 216 137q33 8 64 8q160 0 271 -114q72 -74 77 -144q0 -75 -90 -75h-411q-11 0 -11 -27q0 -194 70 -296t166 -101q96 0 194 65l10 2q22 0 34 -20t13 -29l-2 -10l-1 -2q-61 -66 -150 -105t-176 -39z"/>
            <glyph glyph-name="Racute" unicode="Ŕ" horiz-adv-x="1420" d="M550 1486q-16 11 -16 37t40 57l259 197q7 6 15 6q23 0 56 -51t33 -76t-12 -32l-287 -135q-54 -26 -88 -3zM959 968q-1 136 -113 223t-283 87q-62 0 -72 -8t-10 -34v-523q0 -33 25 -39q47 -9 86 -9q264 0 340 167q27 60 27 136zM1213 968q0 -251 -283 -336q-18 -4 -18 -16 t12 -31q131 -224 325 -423q95 -101 180 -116q26 -5 26 -36t-24 -31l-91 -3q-155 1 -238 55q-142 88 -263 260l-130 187q-63 75 -83 92t-59 17h-67q-19 0 -19 -19v-366q0 -116 155 -116q14 0 14 -46t-14 -47q-134 7 -280 7t-281 -7q-15 1 -15 47t15 46q162 0 162 116v954 q0 109 -172 109q-14 1 -14 47t14 46q143 -6 290 -6l304 6q337 0 481 -175q73 -90 73 -215z"/>
            <glyph glyph-name="racute" unicode="ŕ" horiz-adv-x="755" d="M400 1020q-42 0 -42 53q0 21 8 41l120 302q8 17 34 17q26 -1 76 -35t51 -55q0 -6 -3 -11l-176 -263q-32 -49 -68 -49zM610 870q70 0 108 -38t38 -88q0 -51 -34 -81t-78 -30q-42 0 -79 37t-71 37q-34 -1 -68 -57t-33 -128v-379q0 -75 103 -75q15 0 15 -38t-15 -38 q-84 8 -218 8t-219 -8q-15 0 -15 38t15 38q105 0 105 75v406q0 133 -92 133q-16 0 -16 37t16 37q50 0 150 50t116 64t37 13q20 0 24 -20l-6 -75q0 -23 13 -23t36 26q68 79 168 79z"/>
            <glyph glyph-name="Rcommaaccent" unicode="Ŗ" horiz-adv-x="1420" d="M898 -514q-111 0 -138 61q-6 13 -6 29q0 43 36 61q12 7 36 7t68 -39q80 -63 106 -19q12 18 12 33q0 81 -156 148l-6 16l86 123q144 -58 190 -112t45 -130q0 -74 -81 -126t-192 -52zM959 968q-1 136 -113 223t-283 87q-62 0 -72 -8t-10 -34v-523q0 -33 25 -39q47 -9 86 -9 q264 0 340 167q27 60 27 136zM1213 968q0 -251 -283 -336q-18 -4 -18 -16t12 -31q131 -224 325 -423q95 -101 180 -116q26 -5 26 -36t-24 -31l-91 -3q-155 1 -238 55q-142 88 -263 260l-130 187q-63 75 -83 92t-59 17h-67q-19 0 -19 -19v-366q0 -116 155 -116q14 0 14 -46 t-14 -47q-134 7 -280 7t-281 -7q-15 1 -15 47t15 46q162 0 162 116v954q0 109 -172 109q-14 1 -14 47t14 46q143 -6 290 -6l304 6q337 0 481 -175q73 -90 73 -215z"/>
            <glyph glyph-name="rcommaaccent" unicode="ŗ" horiz-adv-x="755" d="M429 -315q0 -86 -81 -138t-192 -52t-138 61q-6 13 -6 29q0 42 36 61q12 7 36 7t68 -38t65 -38q53 0 53 51q0 77 -142 142q-20 10 -20 16t6 14l135 200q-117 -1 -190 -8q-15 0 -15 38t15 38q105 0 105 75v406q0 133 -92 133q-16 0 -16 37t16 37q50 0 150 50t116 64t37 13 q20 0 24 -20l-6 -75q0 -23 13 -23t36 26q68 79 168 79q70 0 108 -38t38 -88q0 -51 -34 -81t-78 -30q-42 0 -79 37t-71 37q-34 -1 -68 -57t-33 -128v-379q0 -75 103 -75q15 0 15 -38t-15 -38q-59 6 -139 7l-71 -96q-9 -12 -9 -20t28 -24q124 -66 124 -174z"/>
            <glyph glyph-name="Rcaron" unicode="Ř" horiz-adv-x="1420" d="M291 1759q-1 7 9 23t19 16q2 0 3 -1l268 -124q20 -9 38 -9t36 9l266 124l3 1q11 -4 21 -19t10 -21t-3 -11l-283 -250q-26 -23 -51 -23t-49 23l-283 250q-4 4 -4 12zM959 968q-1 136 -113 223t-283 87q-62 0 -72 -8t-10 -34v-523q0 -33 25 -39q47 -9 86 -9q264 0 340 167 q27 60 27 136zM1213 968q0 -251 -283 -336q-18 -4 -18 -16t12 -31q131 -224 325 -423q95 -101 180 -116q26 -5 26 -36t-24 -31l-91 -3q-155 1 -238 55q-142 88 -263 260l-130 187q-63 75 -83 92t-59 17h-67q-19 0 -19 -19v-366q0 -116 155 -116q14 0 14 -46t-14 -47 q-134 7 -280 7t-281 -7q-15 1 -15 47t15 46q162 0 162 116v954q0 109 -172 109q-14 1 -14 47t14 46q143 -6 290 -6l304 6q337 0 481 -175q73 -90 73 -215z"/>
            <glyph glyph-name="rcaron" unicode="ř" horiz-adv-x="755" d="M400 1020q-32 0 -49 31l-229 412q-2 3 -2 13t19 20q19 11 25 11t11 -5l182 -213q33 -39 43 -39t43 39l182 213q5 5 12 5q7 -1 25 -13t19 -20q0 -8 -2 -11l-230 -412q-17 -31 -49 -31zM610 870q70 0 108 -38t38 -88q0 -51 -34 -81t-78 -30q-42 0 -79 37t-71 37 q-34 -1 -68 -57t-33 -128v-379q0 -75 103 -75q15 0 15 -38t-15 -38q-84 8 -218 8t-219 -8q-15 0 -15 38t15 38q105 0 105 75v406q0 133 -92 133q-16 0 -16 37t16 37q50 0 150 50t116 64t37 13q20 0 24 -20l-6 -75q0 -23 13 -23t36 26q68 79 168 79z"/>
            <glyph glyph-name="Sacute" unicode="Ś" horiz-adv-x="1077" d="M425 1486q-16 11 -16 37t40 57l259 197q7 6 15 6q23 0 56 -51t33 -76t-12 -32l-287 -135q-54 -26 -88 -3zM980 403q0 -181 -114 -305t-312 -125q-144 0 -246 36l-144 62q-53 160 -53 313q0 24 47 26t50 -18q10 -116 90 -207q105 -118 273 -118q72 -1 136 63t64 178 q0 206 -270 275q-397 101 -397 450q0 142 129 258q105 94 292 94q121 -1 195 -17t80 -16l36 2h1q37 -118 49 -271q2 -27 -44 -33t-51 12q-61 239 -273 239q-107 0 -166 -84q-40 -56 -40 -142q0 -181 247 -241q421 -102 421 -431z"/>
            <glyph glyph-name="sacute" unicode="ś" horiz-adv-x="749" d="M377 1020q-42 0 -42 53q0 21 8 41l120 302q7 17 33 17q26 -1 78 -35q50 -34 50 -55q0 -6 -3 -11l-176 -263q-32 -49 -68 -49zM78 258q0 19 36 19t40 -17q4 -54 68 -128t157 -75q49 0 86 38t37 79q0 120 -174 166q-264 70 -265 272q1 114 97 186t223 72t221 -36 q39 -105 39 -191q0 -19 -31 -19t-34 11q-18 51 -80 113q-42 40 -114 40t-110 -50q-23 -31 -22 -64q0 -100 164 -141t221 -110t57 -165q0 -133 -111 -214q-93 -69 -238 -68t-239 61q-28 67 -28 221z"/>
            <glyph glyph-name="Scircumflex" unicode="Ŝ" horiz-adv-x="1077" d="M859 1512q1 -8 -9 -22q-10 -16 -19 -16q-2 0 -3 1l-267 124q-36 17 -75 0l-266 -124l-2 -1q-11 4 -24 24t-4 26l283 251q27 23 51 23t48 -23l283 -251q4 -4 4 -12zM980 403q0 -181 -114 -305t-312 -125q-144 0 -246 36l-144 62q-53 160 -53 313q0 24 47 26t50 -18 q10 -116 90 -207q105 -118 273 -118q72 -1 136 63t64 178q0 206 -270 275q-397 101 -397 450q0 142 129 258q105 94 292 94q121 -1 195 -17t80 -16l36 2h1q37 -118 49 -271q2 -27 -44 -33t-51 12q-61 239 -273 239q-107 0 -166 -84q-40 -56 -40 -142q0 -181 247 -241 q421 -102 421 -431z"/>
            <glyph glyph-name="scircumflex" unicode="ŝ" horiz-adv-x="749" d="M668 1051q0 -7 -18 -19t-27 -12q-8 0 -11 4l-182 213q-25 28 -43 28t-43 -28l-182 -213q-4 -4 -12 -4t-26 12t-17 19q0 8 2 12l229 412q16 31 49 31t49 -31l230 -412q2 -4 2 -12zM78 258q0 19 36 19t40 -17q4 -54 68 -128t157 -75q49 0 86 38t37 79q0 120 -174 166 q-264 70 -265 272q1 114 97 186t223 72t221 -36q39 -105 39 -191q0 -19 -31 -19t-34 11q-18 51 -80 113q-42 40 -114 40t-110 -50q-23 -31 -22 -64q0 -100 164 -141t221 -110t57 -165q0 -133 -111 -214q-93 -69 -238 -68t-239 61q-28 67 -28 221z"/>
            <glyph glyph-name="Scedilla" unicode="Ş" horiz-adv-x="1077" d="M674 -334q0 -86 -81 -138t-192 -52t-138 61q-6 13 -6 29q0 42 36 61q13 7 37 7t66 -38q44 -38 66 -38q53 0 53 51q0 77 -142 142q-20 9 -20 15t6 15l131 194q-103 6 -182 34l-144 62q-53 160 -53 313q0 24 47 26t50 -18q10 -116 90 -207q105 -118 273 -118q72 -1 136 63 t64 178q0 206 -270 275q-397 101 -397 450q0 142 129 258q105 94 292 94q121 -1 195 -17t80 -16l36 2h1q37 -118 49 -271q2 -27 -44 -33t-51 12q-61 239 -273 239q-107 0 -166 -84q-40 -56 -40 -142q0 -181 247 -241q421 -102 421 -431q0 -181 -107 -298t-275 -130l-67 -91 q-9 -12 -9 -20t28 -24q124 -66 124 -174z"/>
            <glyph glyph-name="scedilla" unicode="ş" horiz-adv-x="749" d="M465 -331q0 -86 -81 -138t-192 -52t-138 61q-6 13 -6 29q0 42 36 61q12 7 36 7t68 -38t65 -38q53 0 53 51q0 77 -142 142q-20 10 -20 16t6 14l132 196q-104 11 -176 57q-28 67 -28 221q0 19 36 19t40 -17q4 -54 68 -128t157 -75q49 0 86 38t37 79q0 120 -174 166 q-264 70 -265 272q1 114 97 186t223 72t221 -36q39 -105 39 -191q0 -19 -31 -19t-34 11q-18 51 -80 113q-42 40 -114 40t-110 -50q-23 -31 -22 -64q0 -100 164 -141t221 -110t57 -165q0 -133 -111 -214q-79 -58 -194 -66l-67 -91q-9 -12 -9 -20t28 -24q124 -66 124 -174z "/>
            <glyph glyph-name="Scaron" unicode="Š" horiz-adv-x="1077" d="M203 1759q-1 7 9 23t19 16q2 0 3 -1l268 -124q20 -9 38 -9t36 9l266 124l3 1q11 -4 21 -19t10 -21t-3 -11l-283 -250q-26 -23 -51 -23t-49 23l-283 250q-4 4 -4 12zM980 403q0 -181 -114 -305t-312 -125q-144 0 -246 36l-144 62q-53 160 -53 313q0 24 47 26t50 -18 q10 -116 90 -207q105 -118 273 -118q72 -1 136 63t64 178q0 206 -270 275q-397 101 -397 450q0 142 129 258q105 94 292 94q121 -1 195 -17t80 -16l36 2h1q37 -118 49 -271q2 -27 -44 -33t-51 12q-61 239 -273 239q-107 0 -166 -84q-40 -56 -40 -142q0 -181 247 -241 q421 -102 421 -431z"/>
            <glyph glyph-name="scaron" unicode="š" horiz-adv-x="749" d="M387 1020q-32 0 -49 31l-229 412q-2 3 -2 12.5t19 20.5t25.5 11t10.5 -5l182 -213q33 -39 43 -39t43 39l182 213q5 5 12 5t25.5 -12.5t18.5 -20.5t-2 -11l-230 -412q-17 -31 -49 -31zM78 258q0 19 36 19t40 -17q4 -54 68 -128.5t157 -74.5q49 0 86 38t37 79 q0 120 -174 166q-264 70 -265 272q0 114 96.5 186t223.5 72t221 -36q39 -105 39 -191q0 -19 -31 -19t-34 11q-18 51 -80 113q-41 40 -113.5 40t-110.5 -50q-23 -31 -22 -64q0 -100 164 -141t221 -110t57 -165q0 -133 -111 -214q-93 -69 -238 -68t-239 61q-28 67 -28 221z "/>
            <glyph glyph-name="Tcommaaccent" unicode="Ţ" horiz-adv-x="1300" d="M764 -314q0 -86 -81 -138t-192 -52t-138 61q-6 13 -6 29q0 42 36 61q13 7 37 7t66 -38q44 -38 66 -38q53 0 53 51q0 77 -142 142q-20 9 -20 15t6 15l134 199q-129 0 -234 -7q-14 0 -14 46.5t14 46.5q180 0 180 116v1034q0 29 -27 29h-143q-86 0 -154.5 -72.5 t-68.5 -184.5q0 -16 -50.5 -16t-50.5 16v299q0 34 14 41q24 10 98 10q188 -6 496 -6t520 6q84 0 94 -14t10 -37v-299q0 -16 -51 -16t-51 16q0 129 -78 193t-153 64h-128q-33 0 -33 -29v-1034q0 -116 171 -116q13 0 13 -46.5t-13 -46.5q-110 7 -252 7l-71 -96q-9 -12 -9 -20 t28 -24q124 -66 124 -174z"/>
            <glyph glyph-name="tcommaaccent" unicode="ţ" horiz-adv-x="671" d="M154 233v481q0 31 -31 31h-55q-16 0 -16 37t16 37q62 0 132 58t93 127q4 12 45 0t47 -29v-94q0 -31 31 -31h215q15 0 15 -52.5t-15 -52.5h-215q-31 0 -31 -31v-415q1 -121 31 -155t86 -35q56 0 131 47q11 8 37 -24t16 -42q-94 -98 -232 -111l-66 -90q-9 -12 -9 -20 t28 -24q124 -66 124 -174q0 -86 -81 -138t-192 -52t-138 61q-6 13 -6 29q0 42 36 61q12 7 36 7t68 -38t65 -38q53 0 53 51q0 77 -142 142q-20 10 -20 16t6 14l132 196q-194 30 -194 251z"/>
            <glyph glyph-name="Tcaron" unicode="Ť" horiz-adv-x="1300" d="M325 1759q-1 7 9 23t19 16q2 0 3 -1l268 -124q20 -9 38 -9t36 9l266 124l3 1q11 -4 21 -19t10 -21t-3 -11l-283 -250q-26 -23 -51 -23t-49 23l-283 250q-4 4 -4 12zM773 202q0 -116 171 -116q13 0 13 -46t-13 -47q-84 7 -292 7t-303 -7q-14 1 -14 47t14 46q180 0 180 116 v1034q0 29 -27 29h-143q-87 -1 -155 -73t-68 -184q0 -16 -50 -16t-51 16v299q0 34 14 41q24 10 98 10q188 -6 496 -6t520 6q84 0 94 -14t10 -37v-299q0 -16 -51 -16t-51 16q0 129 -78 193t-153 64h-128q-33 0 -33 -29v-1034z"/>
            <glyph glyph-name="tcaron" unicode="ť" horiz-adv-x="671" d="M519 1341q125 0 125 -47q0 -143 -95 -282q-37 -54 -67 -54t-30 35q0 20 19 65q19 46 19 112t-13 106t-13 42q0 23 55 23zM154 233v481q0 31 -31 31h-55q-16 0 -16 37t16 37q62 0 132 58t93 127q4 12 45 0t47 -29v-94q0 -31 31 -31h215q15 0 15 -52t-15 -53h-215 q-31 0 -31 -31v-415q1 -121 31 -155t86 -35q56 0 131 47q11 8 33 -20t23 -35q0 -8 -3 -11q-108 -113 -274 -113q-258 2 -258 256z"/>
            <glyph glyph-name="Utilde" unicode="Ũ" horiz-adv-x="1512" d="M899 1548q-41 0 -131 32t-123 32q-63 0 -112 -59q-3 -3 -10 -3t-21 14t-15 21q0 6 2 8q106 160 218 160q50 0 129 -30t114 -30q64 0 122 62q2 3 8 3t23 -14t17 -22q0 -7 -2 -10q-110 -164 -219 -164zM1322 880q0 -276 -12 -416q-16 -245 -148 -368t-389 -123 q-156 0 -268 42q-157 61 -214 177t-67 353v609q0 116 -157 116q-14 0 -14 46t14 47q147 -5 287 -5t288 5q14 -1 14 -47t-14 -46q-174 0 -174 -116v-468l11 -281q3 -124 55 -203q90 -135 270 -135q180 -1 276 99q97 100 97 330v658q0 116 -157 116q-14 0 -14 46t14 47 q138 -5 230 -5t226 5q15 -1 15 -47t-15 -46q-154 0 -154 -116v-274z"/>
            <glyph glyph-name="utilde" unicode="ũ" horiz-adv-x="1028" d="M598 1048q-41 0 -131 32t-123 32q-63 0 -112 -59q-3 -3 -10 -3q-8 0 -22 14t-14 21q0 6 2 8q106 160 218 160q50 0 129 -30t114 -30q64 0 122 62q2 3 8 3t23 -14t17 -22q0 -7 -2 -10q-110 -164 -219 -164zM742 -35q-13 0 -13 45v47q0 23 -12 23t-27 -14q-92 -89 -232 -89 t-184 35q-147 118 -147 297v346q0 103 -84 103q-15 0 -15 36t15 37q111 -1 183 11t91 12q46 0 46 -44q-7 -98 -7 -161v-342q0 -123 50 -182q28 -33 95 -33t128 50t61 98v415q0 103 -84 103q-16 0 -16 36t16 37q110 -1 182 11t86 12q53 0 53 -36q-8 -95 -8 -156v-406 q0 -90 10 -117q14 -40 53 -40q13 1 31 5t25 -21t7 -37t-7 -15q-8 -2 -105 -21t-137 -32q-41 -13 -54 -13z"/>
            <glyph glyph-name="Umacron" unicode="Ū" horiz-adv-x="1512" d="M1129 1660q27 0 25 -52t-28 -53h-591q-25 1 -25 53t25 52h594zM1322 880q0 -276 -12 -416q-16 -245 -148 -368t-389 -123q-156 0 -268 42q-157 61 -214 177t-67 353v609q0 116 -157 116q-14 0 -14 46t14 47q147 -5 287 -5t288 5q14 -1 14 -47t-14 -46q-174 0 -174 -116 v-468l11 -281q3 -124 55 -203q90 -135 270 -135q180 -1 276 99q97 100 97 330v658q0 116 -157 116q-14 0 -14 46t14 47q138 -5 230 -5t226 5q15 -1 15 -47t-15 -46q-154 0 -154 -116v-274z"/>
            <glyph glyph-name="umacron" unicode="ū" horiz-adv-x="1028" d="M723 1240q27 0 27 -56t-31 -56h-446q-23 0 -23 56t23 56h450zM742 -35q-13 0 -13 45v47q0 23 -12 23t-27 -14q-92 -89 -232 -89t-184 35q-147 118 -147 297v346q0 103 -84 103q-15 0 -15 36.5t15 36.5q112 0 183.5 11.5t90.5 11.5q46 0 46 -44q-7 -98 -7 -161v-342 q0 -123 50 -182q28 -33 95 -33t128 49.5t61 98.5v415q0 103 -84 103q-16 0 -16 36.5t16 36.5q111 0 182.5 11.5t85.5 11.5q53 0 53 -36q-8 -95 -8 -156v-406q0 -90 10 -117q14 -40 53 -40q13 0 31 4.5t25 -20.5t7 -37t-7 -15q-8 -2 -104.5 -20.5t-137.5 -32t-54 -13.5z"/>
            <glyph glyph-name="Ubreve" unicode="Ŭ" horiz-adv-x="1512" d="M1116 1792q0 -307 -289 -307t-289 307q0 8 30 8t32 -8q38 -172 227 -172t227 172q2 8 32 8t30 -8zM1322 880q0 -276 -12 -416q-16 -245 -148 -368t-389 -123q-156 0 -268 42q-157 61 -214 177t-67 353v609q0 116 -157 116q-14 0 -14 46t14 47q147 -5 287 -5t288 5 q14 -1 14 -47t-14 -46q-174 0 -174 -116v-468l11 -281q3 -124 55 -203q90 -135 270 -135q180 -1 276 99q97 100 97 330v658q0 116 -157 116q-14 0 -14 46t14 47q138 -5 230 -5t226 5q15 -1 15 -47t-15 -46q-154 0 -154 -116v-274z"/>
            <glyph glyph-name="ubreve" unicode="ŭ" horiz-adv-x="1028" d="M766 1327q0 -307 -289 -307t-289 307q0 8 30 8t32 -8q38 -172 227 -172t227 172q2 8 32 8t30 -8zM742 -35q-13 0 -13 45v47q0 23 -12 23t-27 -14q-92 -89 -232 -89t-184 35q-147 118 -147 297v346q0 103 -84 103q-15 0 -15 36t15 37q111 -1 183 11t91 12q46 0 46 -44 q-7 -98 -7 -161v-342q0 -123 50 -182q28 -33 95 -33t128 50t61 98v415q0 103 -84 103q-16 0 -16 36t16 37q110 -1 182 11t86 12q53 0 53 -36q-8 -95 -8 -156v-406q0 -90 10 -117q14 -40 53 -40q13 1 31 5t25 -21t7 -37t-7 -15q-8 -2 -105 -21t-137 -32q-41 -13 -54 -13z"/>
            <glyph glyph-name="Uring" unicode="Ů" horiz-adv-x="1512" d="M931 1710q0 78 -53 124q-22 19 -56 19q-64 0 -96 -75q-12 -29 -12 -68q0 -86 52 -122q25 -17 56 -17q68 0 96 68q13 32 13 71zM1068 1710q0 -112 -102 -185q-57 -40 -144 -40q-126 0 -197 88q-49 61 -49 147t71 150t187 63q116 0 186 -88q48 -59 48 -135zM1322 880 q0 -276 -12 -416q-16 -245 -148 -368t-389 -123q-156 0 -268 42q-157 61 -214 177t-67 353v609q0 116 -157 116q-14 0 -14 46t14 47q147 -5 287 -5t288 5q14 -1 14 -47t-14 -46q-174 0 -174 -116v-468l11 -281q3 -124 55 -203q90 -135 270 -135q180 -1 276 99q97 100 97 330 v658q0 116 -157 116q-14 0 -14 46t14 47q138 -5 230 -5t226 5q15 -1 15 -47t-15 -46q-154 0 -154 -116v-274z"/>
            <glyph glyph-name="uring" unicode="ů" horiz-adv-x="1028" d="M582 1245q0 78 -53 124q-22 19 -56 19q-64 0 -96 -75q-12 -29 -12 -68q0 -86 52 -122q25 -17 56 -17q68 0 96 68q13 32 13 71zM719 1245q0 -112 -102 -185q-57 -40 -144 -40q-126 0 -197 88q-49 60 -49 146t71 150q70 64 186 64t187 -88q48 -59 48 -135zM742 -35 q-13 0 -13 45v47q0 23 -12 23t-27 -14q-92 -89 -232 -89t-184 35q-147 118 -147 297v346q0 103 -84 103q-15 0 -15 36t15 37q111 -1 183 11t91 12q46 0 46 -44q-7 -98 -7 -161v-342q0 -123 50 -182q28 -33 95 -33t128 50t61 98v415q0 103 -84 103q-16 0 -16 36t16 37 q110 -1 182 11t86 12q53 0 53 -36q-8 -95 -8 -156v-406q0 -90 10 -117q14 -40 53 -40q13 1 31 5t25 -21t7 -37t-7 -15q-8 -2 -105 -21t-137 -32q-41 -13 -54 -13z"/>
            <glyph glyph-name="Uhungarumlaut" unicode="Ű" horiz-adv-x="1512" d="M432 1486q-16 11 -16 37t40 57l259 197q7 6 15 6q23 0 56 -51t33 -76t-12 -32l-287 -135q-54 -26 -88 -3zM840 1486q-16 11 -16 37t40 57l259 197q7 6 15 6q23 0 56 -51t33 -76t-12 -32l-287 -135q-54 -26 -88 -3zM1322 880q0 -276 -12 -416q-16 -245 -148 -368 t-389 -123q-156 0 -268 42q-157 61 -214 177t-67 353v609q0 116 -157 116q-14 0 -14 46t14 47q147 -5 287 -5t288 5q14 -1 14 -47t-14 -46q-174 0 -174 -116v-468l11 -281q3 -124 55 -203q90 -135 270 -135q180 -1 276 99q97 100 97 330v658q0 116 -157 116q-14 0 -14 46 t14 47q138 -5 230 -5t226 5q15 -1 15 -47t-15 -46q-154 0 -154 -116v-274z"/>
            <glyph glyph-name="uhungarumlaut" unicode="ű" horiz-adv-x="1028" d="M625 1020q-42 0 -42 53q0 21 8 41l120 302q7 17 33 17q26 -1 78 -35q50 -34 50 -55q0 -6 -3 -11l-176 -263q-32 -49 -68 -49zM285 1020q-42 0 -42 53q0 21 8 41l120 302q7 17 33 17q26 -1 78 -35q50 -34 50 -55q0 -6 -3 -11l-176 -263q-32 -49 -68 -49zM742 -35 q-13 0 -13 45v47q0 23 -12 23t-27 -14q-92 -89 -232 -89t-184 35q-147 118 -147 297v346q0 103 -84 103q-15 0 -15 36t15 37q111 -1 183 11t91 12q46 0 46 -44q-7 -98 -7 -161v-342q0 -123 50 -182q28 -33 95 -33t128 50t61 98v415q0 103 -84 103q-16 0 -16 36t16 37 q110 -1 182 11t86 12q53 0 53 -36q-8 -95 -8 -156v-406q0 -90 10 -117q14 -40 53 -40q13 1 31 5t25 -21t7 -37t-7 -15q-8 -2 -105 -21t-137 -32q-41 -13 -54 -13z"/>
            <glyph glyph-name="Uogonek" unicode="Ų" horiz-adv-x="1512" d="M1322 880q0 -276 -14.5 -468.5t-151.5 -320.5q-55 -51 -136 -81q-250 -91 -250 -256q0 -121 123 -121q61 0 103 31q20 -7 20 -39q-75 -113 -217 -113q-108 0 -156.5 51t-48.5 133q0 161 188 277q-164 0 -299 51.5t-197 167t-62 353.5v609q0 116 -157 116q-14 0 -14 46.5 t14 46.5q147 -5 300 -5t275 5q14 0 14 -46.5t-14 -46.5q-174 0 -174 -116v-468q0 -408 78 -513.5t258 -105.5t276.5 99.5t96.5 329.5v658q0 116 -157 116q-14 0 -14 46.5t14 46.5q84 -5 228 -5t228 5q15 0 15 -46.5t-15 -46.5q-154 0 -154 -116v-274z"/>
            <glyph glyph-name="uogonek" unicode="ų" horiz-adv-x="1028" d="M919 256q0 -90 10 -117q14 -40 53 -40q13 0 33 5q16 4 25 -32q4 -16 4 -28t-7 -13t-105 -21t-155.5 -94.5t-57.5 -161.5q0 -121 123 -121q61 0 103 31q20 -7 20 -39q-75 -113 -217 -113q-205 0 -205 184q0 79 54.5 164.5t116.5 130.5q15 11 15 24v42q0 23 -12 23t-27 -14 q-92 -89 -232 -89t-184 35q-147 118 -147 297v346q0 103 -84 103q-15 0 -15 36.5t15 36.5q111 -1 183 11t91 12q46 0 46 -44q-7 -98 -7 -161v-342q0 -123 50 -182q28 -33 95 -33t128 50t61 98v415q0 103 -84 103q-16 0 -16 36.5t16 36.5q110 -1 182 11t86 12q53 0 53 -36 q-8 -95 -8 -156v-406z"/>
            <glyph glyph-name="Wcircumflex" unicode="Ŵ" horiz-adv-x="2012" d="M1390 1512q0 -8 -10 -22q-10 -16 -18 -16q-2 0 -3 1l-267 124q-36 17 -75 0l-266 -124l-2 -1q-11 4 -24 24t-4 26l283 251q26 23 50 23t49 -23l283 -251q4 -4 4 -12zM1272 -38q-26 0 -57 63l-205 456q-8 18 -16 18t-16 -20l-216 -472q-22 -45 -50 -45t-57 63l-506 1129 q-51 116 -143 116q-14 0 -14 46t14 47q48 -5 225 -5t225 5q15 -1 15 -47t-15 -46q-69 0 -70 -45q4 -40 19 -71l351 -780q8 -17 21 -17t21 17l121 266q6 15 6 23t-6 23l-235 522q-28 62 -82 62q-14 0 -14 46t14 47q48 -5 206 -5t206 5q14 -1 14 -47t-14 -46q-70 0 -70 -41 q0 -32 20 -75l75 -163q7 -18 19 -18t23 24l69 149q26 56 26 85q0 39 -53 39q-14 0 -14 46t14 47q51 -5 181 -5t178 5q15 -1 15 -47t-15 -46q-145 0 -183 -85l-158 -347q-11 -24 -11 -38t5 -25l181 -399q8 -18 22 -18t20 16l352 772q21 46 21 75q-1 49 -65 49q-15 0 -15 46 t15 47q44 -5 186 -5t190 5q14 -1 14 -47t-14 -46q-145 0 -183 -85l-537 -1178q-24 -45 -50 -45z"/>
            <glyph glyph-name="wcircumflex" unicode="ŵ" horiz-adv-x="1458" d="M1012 1051q0 -7 -18 -19t-27 -12q-8 0 -11 4l-182 213q-25 28 -43 28t-43 -28l-182 -213q-4 -4 -12 -4t-26 12t-17 19q0 8 2 12l229 412q16 31 49 31t49 -31l230 -412q2 -4 2 -12zM12 784q-15 0 -15 36t15 36q63 -6 206 -6t206 6q15 0 15 -36t-15 -36q-70 0 -70 -45 q0 -19 6 -39l142 -444q4 -14 12 -14t14 14l123 358q4 13 4 23t-4 22l-22 54q-30 71 -88 71q-16 0 -16 36t16 36q59 -6 199 -6t200 6q16 0 16 -36t-16 -36q-69 0 -70 -46q0 -14 7 -38l141 -444q5 -14 13 -14t13 14l156 451q5 13 5 24q0 53 -91 53q-15 0 -15 36t15 36 q64 -6 170 -6t166 6q15 0 15 -36t-15 -36q-99 0 -125 -71l-258 -674q-23 -62 -77 -62t-75 52l-178 426q-5 13 -13 13t-13 -13l-160 -416q-23 -62 -75 -62t-77 52l-286 684q-30 71 -101 71z"/>
            <glyph glyph-name="Ycircumflex" unicode="Ŷ" horiz-adv-x="1325" d="M1052 1512q0 -8 -10 -22q-10 -16 -18 -16q-2 0 -3 1l-267 124q-36 17 -75 0l-266 -124l-2 -1q-11 4 -24 24t-4 26l283 251q26 23 50 23t49 -23l283 -251q4 -4 4 -12zM758 202q0 -116 148 -116q13 0 13 -46t-13 -47q-66 7 -266 7t-273 -7q-14 1 -14 47t14 46 q147 0 147 116v292q0 68 -9 92t-56 98l-298 470q-52 82 -101 104q-28 12 -63 12q-15 0 -15 46t15 47q47 -5 262 -5t265 5q14 -1 14 -47t-14 -46q-110 0 -110 -53q0 -31 20 -63l254 -405q10 -17 20 -17t22 19l268 395q23 34 23 60q0 64 -105 64q-15 0 -15 46t15 47 q46 -5 226 -5t228 5q14 -1 14 -47t-14 -46q-108 0 -179 -68l-33 -35l-337 -481q-37 -56 -45 -81t-8 -106v-297z"/>
            <glyph glyph-name="ycircumflex" unicode="ŷ" horiz-adv-x="884" d="M747 1051q-1 -7 -19 -19t-26 -12t-11 4l-182 213q-25 28 -43 28t-43 -28l-182 -213q-4 -4 -12 -4q-7 0 -25 12t-18 19q0 8 2 12l229 412q16 31 49 31t49 -31l230 -412q2 -4 2 -12zM14 -442q0 61 59 91q30 15 66 15q104 0 121 39l78 182q7 18 7 35t-7 35l-270 758 q-26 71 -107 71q-15 0 -15 36t15 36q63 -6 207 -6t207 6q15 0 15 -36t-15 -36q-80 0 -80 -47q0 -15 8 -37l152 -424q7 -20 19 -20t20 23l165 421q5 13 5 23q0 61 -121 61q-16 0 -16 36t16 36q60 -6 184 -6t184 6q16 0 16 -36t-16 -36q-92 0 -125 -59l-448 -1124 q-60 -154 -210 -154q-50 1 -82 37t-32 74z"/>
            <glyph glyph-name="Ydieresis" unicode="Ÿ" horiz-adv-x="1325" d="M616 1632q0 -80 -60 -114q-29 -18 -65 -18q-84 0 -116 64q-12 24 -13 58q0 74 57 110q32 20 72 20q68 0 104 -54q21 -32 21 -66zM1046 1632q0 -80 -60 -114q-29 -18 -65 -18q-84 0 -116 64q-12 24 -13 58q0 74 57 110q32 20 72 20q67 0 104 -54q21 -30 21 -66zM758 202 q0 -116 148 -116q13 0 13 -46t-13 -47q-66 7 -266 7t-273 -7q-14 1 -14 47t14 46q147 0 147 116v292q0 68 -9 92t-56 98l-298 470q-52 82 -101 104q-28 12 -63 12q-15 0 -15 46t15 47q47 -5 262 -5t265 5q14 -1 14 -47t-14 -46q-110 0 -110 -53q0 -31 20 -63l254 -405 q10 -17 20 -17t22 19l268 395q23 34 23 60q0 64 -105 64q-15 0 -15 46t15 47q46 -5 226 -5t228 5q14 -1 14 -47t-14 -46q-108 0 -179 -68l-33 -35l-337 -481q-37 -56 -45 -81t-8 -106v-297z"/>
            <glyph glyph-name="Zacute" unicode="Ź" horiz-adv-x="1317" d="M640 1486q-16 11 -16 37t40 57l259 197q7 6 15 6q23 0 56 -51t33 -76t-12 -32l-287 -135q-54 -26 -88 -3zM1284 1326q0 -24 -25 -58l-833 -1144q-7 -10 -7 -17q0 -21 33 -21q411 0 593 13q53 4 138 150q40 69 51 106q2 7 28 7t39 -12q14 -12 13 -20q-44 -172 -44 -311 q0 -48 -16 -48q-26 -1 -118 14t-542 15h-448q-70 0 -70 49q0 26 17 48l871 1139q10 13 10 21q0 17 -40 17h-513q-44 0 -71 -27q-40 -31 -84 -139t-46 -134q-2 -12 -22 -12q-59 -1 -61 26q31 235 31 332q0 48 41 48l121 -16h507l382 6q65 1 65 -32z"/>
            <glyph glyph-name="zacute" unicode="ź" horiz-adv-x="770" d="M315 1020q-42 0 -42 53q0 21 8 41l120 302q7 17 33 17q26 -1 78 -35q50 -34 50 -55q0 -6 -3 -11l-176 -263q-32 -49 -68 -49zM739 16q0 -41 -39 -41q-12 1 -80 13t-108 12h-443q-41 0 -41 37q0 13 9 31l356 659q9 17 9 27q0 20 -29 20h-111q-63 0 -124 -128l-46 -103 q-4 -9 -20 -9t-32 10q-15 10 -15 25q29 252 30 256q7 43 31 45q158 -20 211 -20h348q46 0 46 -33q0 -18 -8 -32l-359 -666q-4 -7 -4 -15q0 -24 28 -24h109q132 0 225 205q4 11 20 11q64 0 64 -32l-24 -188q-3 -34 -3 -60z"/>
            <glyph glyph-name="Zdotaccent" unicode="Ż" horiz-adv-x="1317" d="M580 1703q0 58 41 99t99 41t99 -41t41 -99t-41 -99t-99 -41t-99 41t-41 99zM1284 1326q0 -24 -25 -58l-833 -1144q-7 -10 -7 -17q0 -21 33 -21q411 0 593 13q53 4 138 150q40 69 51 106q2 7 28 7t39 -12q14 -12 13 -20q-44 -172 -44 -311q0 -48 -16 -48q-26 -1 -118 14 t-542 15h-448q-70 0 -70 49q0 26 17 48l871 1139q10 13 10 21q0 17 -40 17h-513q-44 0 -71 -27q-40 -31 -84 -139t-46 -134q-2 -12 -22 -12q-59 -1 -61 26q31 235 31 332q0 48 41 48l121 -16h507l382 6q65 1 65 -32z"/>
            <glyph glyph-name="zdotaccent" unicode="ż" horiz-adv-x="770" d="M229 1188q0 58 41 99t99 41t99 -41t41 -99t-41 -99t-99 -41t-99 41t-41 99zM739 16q0 -41 -39 -41q-12 1 -80 13t-108 12h-443q-41 0 -41 37q0 13 9 31l356 659q9 17 9 27q0 20 -29 20h-111q-63 0 -124 -128l-46 -103q-4 -9 -20 -9t-32 10q-15 10 -15 25q29 252 30 256 q7 43 31 45q158 -20 211 -20h348q46 0 46 -33q0 -18 -8 -32l-359 -666q-4 -7 -4 -15q0 -24 28 -24h109q132 0 225 205q4 11 20 11q64 0 64 -32l-24 -188q-3 -34 -3 -60z"/>
            <glyph glyph-name="Zcaron" unicode="Ž" horiz-adv-x="1317" d="M379 1759q-1 7 9 23t19 16q2 0 3 -1l268 -124q20 -9 38 -9t36 9l266 124l3 1q11 -4 21 -19t10 -21t-3 -11l-283 -250q-26 -23 -51 -23t-49 23l-283 250q-4 4 -4 12zM1284 1326q0 -24 -25 -58l-833 -1144q-7 -10 -7 -17q0 -21 33 -21q411 0 593 13q53 4 138 150 q40 69 51 106q2 7 28 7t39 -12q14 -12 13 -20q-44 -172 -44 -311q0 -48 -16 -48q-26 -1 -118 14t-542 15h-448q-70 0 -70 49q0 26 17 48l871 1139q10 13 10 21q0 17 -40 17h-513q-44 0 -71 -27q-40 -31 -84 -139t-46 -134q-2 -12 -22 -12q-59 -1 -61 26q31 235 31 332 q0 48 41 48l121 -16h507l382 6q65 1 65 -32z"/>
            <glyph glyph-name="zcaron" unicode="ž" horiz-adv-x="770" d="M393 1020q-32 0 -49 31l-229 412q-2 3 -2 13t19 20q20 11 26 11t10 -5l182 -213q33 -39 43 -39t43 39l182 213q5 5 12 5q8 -1 26 -13t18 -20t-2 -11l-230 -412q-17 -31 -49 -31zM739 16q0 -41 -39 -41q-12 1 -80 13t-108 12h-443q-41 0 -41 37q0 13 9 31l356 659 q9 17 9 27q0 20 -29 20h-111q-63 0 -124 -128l-46 -103q-4 -9 -20 -9t-32 10q-15 10 -15 25q29 252 30 256q7 43 31 45q158 -20 211 -20h348q46 0 46 -33q0 -18 -8 -32l-359 -666q-4 -7 -4 -15q0 -24 28 -24h109q132 0 225 205q4 11 20 11q64 0 64 -32l-24 -188 q-3 -34 -3 -60z"/>
            <glyph glyph-name="longs" unicode="ſ" horiz-adv-x="563" d="M164 143v527q0 35 -31 35h-61q-16 0 -16 36.5t16 36.5q48 0 70 35.5t22 77.5q0 285 154 440.5t356 155.5q106 0 164.5 -41.5t58.5 -97.5t-39.5 -90.5t-73.5 -34.5q-96 0 -135.5 75.5t-89.5 75.5q-72 0 -119 -89t-47 -237v-905q0 -75 133 -75q16 0 16 -38t-16 -38 q-80 8 -234 8t-237 -8q-15 0 -15 38t15 38q109 0 109 75z"/>
            <glyph glyph-name="uni0180" unicode="ƀ" horiz-adv-x="1050" d="M727 428q0 158 -63 250t-162 92q-72 0 -108 -37t-36 -86v-350q0 -110 61.5 -175t145.5 -65q162 0 162 371zM981 430q0 -196 -111.5 -324.5t-332.5 -128.5q-58 0 -122 27t-112 27q-16 0 -44 -26t-51 -26q-22 0 -54 24t-31 32q6 33 6 244v753q0 37 -37 37h-147 q-16 0 -16 52.5t16 52.5h147q33 0 33 21q-10 91 -90 91q-16 0 -16 37t16 37q48 0 144.5 45t118.5 63t40 19q29 0 29 -25q-9 -111 -9 -176v-76q0 -36 37 -36h140q15 0 15 -52.5t-15 -52.5h-140q-37 0 -37 -37v-192q0 -28 16 -28q9 0 19 7q73 51 168 51q176 0 298 -122 t122 -318z"/>
            <glyph glyph-name="uni0186" unicode="Ɔ" horiz-adv-x="1349" d="M604 1385q263 0 458 -151q258 -199 258 -523q0 -270 -153 -467q-212 -271 -587 -271q-130 0 -338 43q-56 11 -107 13q-28 59 -38 275l-2 51q0 18 45.5 21t48.5 -13q19 -209 211 -275q79 -27 186 -27q207 0 334 168t127 424q0 324 -171 503q-129 135 -286 135 q-343 0 -440 -277q-7 -19 -51.5 -8.5t-43.5 31.5q5 57 42 153t61 132q47 7 88 19q153 44 358 44z"/>
            <glyph glyph-name="uni0190" unicode="Ɛ" horiz-adv-x="956" d="M850 928q0 -10 -41 -10t-41 12q0 112 -59.5 182t-137.5 70q-136 0 -188 -78q-29 -43 -29 -101q0 -122 102 -181q58 -33 212 -33q40 0 40 -62q0 -84 -43 -64q-45 17 -137 9t-144 -61q-79 -80 -79 -201.5t50 -195.5t94 -97.5t147 -20.5t186 69q12 10 40.5 -20.5t15.5 -43.5 q-122 -124 -277 -124q-202 0 -351 127t-149 317q0 278 284 333q31 6 31 14.5t-36 26.5q-204 104 -204 276q0 112 89 198t220 86t233 -78q44 -34 55 -34q21 0 31.5 26.5t10.5 50.5q0 14 37.5 14t37.5 -14v-392z"/>
            <glyph glyph-name="florin" unicode="ƒ" horiz-adv-x="583" d="M393 139q0 -186 -18 -306.5t-79 -216t-143 -133.5t-152 -38t-118.5 39t-48.5 89t34 76.5t78 26.5t82 -62.5t76 -62.5t49 68t11 152v938q0 36 -37 36h-55q-16 0 -16 37t16 37q50 0 71 35.5t21 77.5q0 280 172.5 417.5t337.5 137.5q109 0 166 -41t57 -93t-36 -91t-77 -39 q-102 0 -140 75.5t-90 75.5t-91 -53q-70 -96 -70 -273v-161q0 -37 37 -37h164q15 0 15 -52.5t-15 -52.5h-164q-37 0 -37 -36v-570z"/>
            <glyph glyph-name="uni0195" unicode="ƕ" horiz-adv-x="1675" d="M164 137v1024q0 125 -92 125q-16 0 -16 37t16 37q50 0 146 47t116 63q21 16 37 17q28 0 28 -27q-6 -75 -6 -174v-465q-1 -23 9 -23t24 11q78 61 188 61t180 -33t119.5 -113t49.5 -167v-245q0 -145 53.5 -198t118.5 -53q110 0 167 97t57 279q0 229 -213 291 q0 51 56.5 96.5t126.5 45.5q135 0 209.5 -142t74.5 -290t-53 -247.5t-150.5 -156.5t-277.5 -57t-289.5 90.5t-109.5 237.5v250q0 76 -39 141.5t-129 65.5t-143 -63q-29 -35 -29 -72v-484q0 -75 103 -75q15 0 15 -38t-15 -38q-98 8 -222 8t-223 -8q-15 0 -15 38t15 38 q113 0 113 69z"/>
            <glyph glyph-name="uni019D" unicode="Ɲ" horiz-adv-x="1482" d="M224 1156q0 114 -173 114q-13 0 -13 47t13 46q63 -5 162 -5t113 -2q61 -9 100 -57l711 -867q11 -14 24 -14q24 0 24 31v703q0 118 -153 118q-15 0 -15 46.5t15 46.5q98 -5 182 -5t209 5q14 0 14 -46.5t-14 -46.5q-135 0 -135 -118v-1076q0 -97 -28 -97t-77 57l-822 978 q-13 16 -23 16t-10 -22v-945l-2 -174q-1 -132 -96 -271q-95 -138 -258 -136q-58 1 -94 34t-36 82t30 69q30 21 76 19t82 -35q37 -34 52 -37q38 2 90 78t52 173v1291z"/>
            <glyph glyph-name="uni01BF" unicode="ƿ" horiz-adv-x="905" d="M604 434q0 224 -34 284t-88 60t-103 -90q-12 -24 -12 -63v-525q-1 -20 25 -20t76 49t93 130.5t43 174.5zM378 798q10 0 21 13q52 59 133 59q121 0 211.5 -93.5t90.5 -299.5q0 -122 -75 -228.5t-173 -174t-195 -86.5q-24 -5 -24 -33v-348q0 -80 -82 -107l-174 -57 q-3 -1 -19 -1t-30 28q-12 28 -12 43q0 14 11 22l62 43q14 8 14 31v940q0 90 -29 111.5t-63 21.5q-15 0 -15 37t15 37q51 0 149.5 50t115.5 64t32 13q29 0 29 -33l-4 -35q1 -17 11 -17z"/>
            <glyph glyph-name="uni01CD" unicode="Ǎ" horiz-adv-x="1401" d="M357 1759q-1 7 9 23t19 16q2 0 3 -1l268 -124q20 -9 38 -9t36 9l266 124l3 1q11 -4 21 -19t10 -21t-3 -11l-283 -250q-26 -23 -51 -23t-49 23l-283 250q-4 4 -4 12zM634 1084q-10 0 -17 -16l-159 -434q-3 -8 -4 -16q0 -11 21 -11h293q28 0 28 22q0 6 -3 15l-144 424 q-5 16 -15 16zM1398 86q15 0 15 -46t-15 -47q-115 7 -265 7t-275 -7q-15 1 -15 47t15 46q96 0 96 65q0 21 -10 51l-100 297q-7 22 -34 24h-373q-21 0 -32 -29l-109 -293q-9 -24 -9 -42q0 -73 147 -73q13 0 13 -46t-13 -47q-83 7 -233 7t-228 -7q-14 1 -14 47t14 46 q152 0 202 131l370 968q13 30 13 38t-14 22t-15 23q0 15 33 26q34 11 104 53t89 42q33 1 44 -47t53 -165l344 -975q41 -116 202 -116z"/>
            <glyph glyph-name="uni01CE" unicode="ǎ" horiz-adv-x="860" d="M388 1020q-32 0 -49 31l-229 412q-2 3 -2 13t19 20q19 11 25 11t11 -5l182 -213q33 -39 43 -39t43 39l182 213q5 5 12 5q7 -1 25 -13t19 -20q0 -8 -2 -11l-230 -412q-17 -31 -49 -31zM461 193v182q0 23 -14 23q-7 0 -13 -3q-141 -71 -141 -189t72 -118q96 0 96 105z M676 -25q-92 0 -162 82q-14 19 -24 19t-25 -17q-82 -82 -203 -82t-173 85q-26 43 -26 100q0 121 212 231l151 72q35 20 35 47v190q0 72 -105 72q-79 0 -116 -51q-10 -14 -10 -62t-5 -65q-25 -88 -92 -88q-90 0 -90 78q-1 68 43 128t78 81q120 75 248 75t202 -50t76 -113 v-508q0 -114 67 -114q30 -3 72 36q8 9 25 -7t12 -26q-58 -113 -190 -113z"/>
            <glyph glyph-name="uni01CF" unicode="Ǐ" horiz-adv-x="734" d="M21 1759q-1 7 9 23t19 16q2 0 3 -1l268 -124q20 -9 38 -9t36 9l266 124l3 1q11 -4 21 -19t10 -21t-3 -11l-283 -250q-26 -23 -51 -23t-49 23l-283 250q-4 4 -4 12zM481 202q0 -116 159 -116q14 0 14 -46t-14 -47q-133 7 -286 7t-279 -7q-15 1 -15 47t15 46q162 0 162 116 v952q0 116 -161 116q-14 0 -14 46t14 47q48 -5 284 -5t284 5q14 -1 14 -47t-14 -46q-163 0 -163 -116v-952z"/>
            <glyph glyph-name="uni01D0" unicode="ǐ" horiz-adv-x="524" d="M278 1020q-32 0 -49 31l-229 412q-2 3 -2 13t19 20q19 11 25 11t11 -5l182 -213q33 -39 43 -39t43 39l182 213q5 5 12 5q7 -1 25 -13t19 -20q0 -8 -2 -11l-230 -412q-17 -31 -49 -31zM393 143q0 -75 103 -75q15 0 15 -38t-15 -38q-84 8 -218 8t-219 -8q-15 0 -15 38 t15 38q105 0 105 75v414q0 125 -92 125q-16 0 -16 37t16 37q50 0 150 50t116 63q16 14 35 14q28 0 26 -27q-6 -84 -6 -174v-539z"/>
            <glyph glyph-name="uni01D1" unicode="Ǒ" horiz-adv-x="1524" d="M395 1759q-1 7 9 23t19 16q2 0 3 -1l268 -124q20 -9 38 -9t36 9l266 124l3 1q11 -4 21 -19t10 -21t-3 -11l-283 -250q-26 -23 -51 -23t-49 23l-283 250q-4 4 -4 12zM1157 649q0 255 -124 438q-142 211 -294 211t-266 -131q-145 -167 -145 -457t153 -481 q129 -162 274 -162q265 0 358 279q44 130 44 303zM1430 663q0 -220 -145 -417q-202 -273 -544 -273q-225 0 -405 124q-281 194 -281 570q-1 251 185 485t505 233q246 0 426 -155q259 -224 259 -567z"/>
            <glyph glyph-name="uni01D2" unicode="ǒ" horiz-adv-x="1032" d="M516 1020q-32 0 -49 31l-229 412q-2 3 -2 13t19 20q19 11 25 11t11 -5l182 -213q33 -39 43 -39t43 39l182 213q5 5 12 5q7 -1 25 -13t19 -20q0 -8 -2 -11l-230 -412q-17 -31 -49 -31zM516 61q94 1 146 107t53 271q0 165 -71 273q-52 81 -130 81q-78 -1 -136 -107 t-59 -278q0 -172 73 -275q52 -72 124 -72zM969 426q0 -209 -121 -329t-318 -120q-196 1 -330 127t-134 308t110 308q132 150 345 150t346 -158q102 -122 102 -286z"/>
            <glyph glyph-name="uni01D3" unicode="Ǔ" horiz-adv-x="1512" d="M483 1759q-1 7 9 23t19 16q2 0 3 -1l268 -124q20 -9 38 -9t36 9l266 124l3 1q11 -4 21 -19t10 -21t-3 -11l-283 -250q-26 -23 -51 -23t-49 23l-283 250q-4 4 -4 12zM1322 880q0 -276 -12 -416q-16 -245 -148 -368t-389 -123q-156 0 -268 42q-157 61 -214 177t-67 353v609 q0 116 -157 116q-14 0 -14 46t14 47q147 -5 287 -5t288 5q14 -1 14 -47t-14 -46q-174 0 -174 -116v-468l11 -281q3 -124 55 -203q90 -135 270 -135q180 -1 276 99q97 100 97 330v658q0 116 -157 116q-14 0 -14 46t14 47q138 -5 230 -5t226 5q15 -1 15 -47t-15 -46 q-154 0 -154 -116v-274z"/>
            <glyph glyph-name="uni01D4" unicode="ǔ" horiz-adv-x="1028" d="M487 1020q-32 0 -49 31l-229 412q-2 3 -2 13t19 20q20 11 26 11t10 -5l182 -213q33 -39 43 -39t43 39l182 213q5 5 12 5q8 -1 26 -13t18 -20t-2 -11l-230 -412q-17 -31 -49 -31zM742 -35q-13 0 -13 45v47q0 23 -12 23t-27 -14q-92 -89 -232 -89t-184 35 q-147 118 -147 297v346q0 103 -84 103q-15 0 -15 36t15 37q111 -1 183 11t91 12q46 0 46 -44q-7 -98 -7 -161v-342q0 -123 50 -182q28 -33 95 -33t128 50t61 98v415q0 103 -84 103q-16 0 -16 36t16 37q110 -1 182 11t86 12q53 0 53 -36q-8 -95 -8 -156v-406q0 -90 10 -117 q14 -40 53 -40q13 1 31 5t25 -21t7 -37t-7 -15q-8 -2 -105 -21t-137 -32q-41 -13 -54 -13z"/>
            <glyph glyph-name="uni01D5" unicode="Ǖ" horiz-adv-x="1512" d="M1115 1945q27 -1 25 -53t-28 -52h-591q-25 0 -25 52t25 53h594zM726 1592q0 -80 -60 -114q-29 -18 -65 -18q-84 0 -116 64q-12 24 -13 58q0 74 57 110q32 20 72 20q68 0 104 -54q21 -32 21 -66zM1156 1592q0 -80 -60 -114q-29 -18 -65 -18q-84 0 -116 64q-12 24 -13 58 q0 74 57 110q32 20 72 20q67 0 104 -54q21 -30 21 -66zM1322 880q0 -276 -12 -416q-16 -245 -148 -368t-389 -123q-156 0 -268 42q-157 61 -214 177t-67 353v609q0 116 -157 116q-14 0 -14 46t14 47q147 -5 287 -5t288 5q14 -1 14 -47t-14 -46q-174 0 -174 -116v-468 l11 -281q3 -124 55 -203q90 -135 270 -135q180 -1 276 99q97 100 97 330v658q0 116 -157 116q-14 0 -14 46t14 47q138 -5 230 -5t226 5q15 -1 15 -47t-15 -46q-154 0 -154 -116v-274z"/>
            <glyph glyph-name="uni01D6" unicode="ǖ" horiz-adv-x="1028" d="M717 1610q27 0 27 -56t-31 -56h-446q-23 0 -23 56t23 56h450zM445 1179q0 -79 -60 -114q-29 -17 -65 -17q-86 0 -116 63q-12 25 -13 58q0 74 57 111q32 20 72 20q68 0 104 -54q21 -32 21 -67zM795 1179q0 -79 -60 -114q-29 -17 -65 -17q-84 0 -116 63q-12 25 -13 58 q0 74 57 111q32 20 72 20q67 0 104 -54q21 -31 21 -67zM742 -35q-13 0 -13 45v47q0 23 -12 23t-27 -14q-92 -89 -232 -89t-184 35q-147 118 -147 297v346q0 103 -84 103q-15 0 -15 36t15 37q111 -1 183 11t91 12q46 0 46 -44q-7 -98 -7 -161v-342q0 -123 50 -182 q28 -33 95 -33t128 50t61 98v415q0 103 -84 103q-16 0 -16 36t16 37q110 -1 182 11t86 12q53 0 53 -36q-8 -95 -8 -156v-406q0 -90 10 -117q14 -40 53 -40q13 1 31 5t25 -21t7 -37t-7 -15q-8 -2 -105 -21t-137 -32q-41 -13 -54 -13z"/>
            <glyph glyph-name="uni01D7" unicode="Ǘ" horiz-adv-x="1512" d="M755 1771q-16 11 -16 37t40 57l259 197q7 6 15 6q23 0 56 -51t33 -76t-12 -32l-287 -135q-54 -26 -88 -3zM696 1592q0 -80 -60 -114q-29 -18 -65 -18q-84 0 -116 64q-12 24 -13 58q0 74 57 110q32 20 72 20q68 0 104 -54q21 -32 21 -66zM1126 1592q0 -80 -60 -114 q-29 -18 -65 -18q-84 0 -116 64q-12 24 -13 58q0 74 57 110q32 20 72 20q67 0 104 -54q21 -30 21 -66zM1322 880q0 -276 -12 -416q-16 -245 -148 -368t-389 -123q-156 0 -268 42q-157 61 -214 177t-67 353v609q0 116 -157 116q-14 0 -14 46t14 47q147 -5 287 -5t288 5 q14 -1 14 -47t-14 -46q-174 0 -174 -116v-468l11 -281q3 -124 55 -203q90 -135 270 -135q180 -1 276 99q97 100 97 330v658q0 116 -157 116q-14 0 -14 46t14 47q138 -5 230 -5t226 5q15 -1 15 -47t-15 -46q-154 0 -154 -116v-274z"/>
            <glyph glyph-name="uni01D8" unicode="ǘ" horiz-adv-x="1028" d="M511 1350q-42 0 -42 53q0 21 8 41l120 302q7 17 33 17q26 -1 78 -35q50 -34 50 -55q0 -6 -3 -11l-176 -263q-32 -49 -68 -49zM445 1179q0 -79 -60 -114q-29 -17 -65 -17q-86 0 -116 63q-12 25 -13 58q0 74 57 111q32 20 72 20q68 0 104 -54q21 -32 21 -67zM795 1179 q0 -79 -60 -114q-29 -17 -65 -17q-84 0 -116 63q-12 25 -13 58q0 74 57 111q32 20 72 20q67 0 104 -54q21 -31 21 -67zM742 -35q-13 0 -13 45v47q0 23 -12 23t-27 -14q-92 -89 -232 -89t-184 35q-147 118 -147 297v346q0 103 -84 103q-15 0 -15 36t15 37q111 -1 183 11 t91 12q46 0 46 -44q-7 -98 -7 -161v-342q0 -123 50 -182q28 -33 95 -33t128 50t61 98v415q0 103 -84 103q-16 0 -16 36t16 37q110 -1 182 11t86 12q53 0 53 -36q-8 -95 -8 -156v-406q0 -90 10 -117q14 -40 53 -40q13 1 31 5t25 -21t7 -37t-7 -15q-8 -2 -105 -21t-137 -32 q-41 -13 -54 -13z"/>
            <glyph glyph-name="uni01D9" unicode="Ǚ" horiz-adv-x="1512" d="M481 2044q-1 8 9 24t19 15q2 0 3 -1l268 -124q20 -9 38 -9t36 9l266 124l3 1q11 -4 21 -19q10 -16 10 -22t-3 -10l-283 -250q-26 -23 -51 -23t-49 23l-283 250q-4 4 -4 12zM731 1592q0 -80 -60 -114q-29 -18 -65 -18q-84 0 -116 64q-12 24 -13 58q0 74 57 110 q32 20 72 20q68 0 104 -54q21 -32 21 -66zM1161 1592q0 -80 -60 -114q-29 -18 -65 -18q-84 0 -116 64q-12 24 -13 58q0 74 57 110q32 20 72 20q67 0 104 -54q21 -30 21 -66zM1322 880q0 -276 -12 -416q-16 -245 -148 -368t-389 -123q-156 0 -268 42q-157 61 -214 177 t-67 353v609q0 116 -157 116q-14 0 -14 46t14 47q147 -5 287 -5t288 5q14 -1 14 -47t-14 -46q-174 0 -174 -116v-468l11 -281q3 -124 55 -203q90 -135 270 -135q180 -1 276 99q97 100 97 330v658q0 116 -157 116q-14 0 -14 46t14 47q138 -5 230 -5t226 5q15 -1 15 -47 t-15 -46q-154 0 -154 -116v-274z"/>
            <glyph glyph-name="uni01DA" unicode="ǚ" horiz-adv-x="1028" d="M503 1365q-32 0 -49 31l-229 412q-2 2 -2 12t19 21q20 11 26 11t10 -5l182 -213q33 -39 43 -39t43 39l182 213q5 5 12 5q8 0 26 -12t18 -21q0 -8 -2 -11l-230 -412q-17 -31 -49 -31zM445 1179q0 -79 -60 -114q-29 -17 -65 -17q-86 0 -116 63q-12 25 -13 58q0 74 57 111 q32 20 72 20q68 0 104 -54q21 -32 21 -67zM795 1179q0 -79 -60 -114q-29 -17 -65 -17q-84 0 -116 63q-12 25 -13 58q0 74 57 111q32 20 72 20q67 0 104 -54q21 -31 21 -67zM742 -35q-13 0 -13 45v47q0 23 -12 23t-27 -14q-92 -89 -232 -89t-184 35q-147 118 -147 297v346 q0 103 -84 103q-15 0 -15 36t15 37q111 -1 183 11t91 12q46 0 46 -44q-7 -98 -7 -161v-342q0 -123 50 -182q28 -33 95 -33t128 50t61 98v415q0 103 -84 103q-16 0 -16 36t16 37q110 -1 182 11t86 12q53 0 53 -36q-8 -95 -8 -156v-406q0 -90 10 -117q14 -40 53 -40q13 1 31 5 t25 -21t7 -37t-7 -15q-8 -2 -105 -21t-137 -32q-41 -13 -54 -13z"/>
            <glyph glyph-name="uni01DB" unicode="Ǜ" horiz-adv-x="1512" d="M879 1807q0 -48 -50 -48q-22 0 -54 14l-274 126q-18 9 -18 33q-1 24 21 61q39 66 73 66q7 0 12 -4l251 -190q39 -32 39 -58zM721 1592q0 -80 -60 -114q-29 -18 -65 -18q-84 0 -116 64q-12 24 -13 58q0 74 57 110q32 20 72 20q68 0 104 -54q21 -32 21 -66zM1151 1592 q0 -80 -60 -114q-29 -18 -65 -18q-84 0 -116 64q-12 24 -13 58q0 74 57 110q32 20 72 20q67 0 104 -54q21 -30 21 -66zM1322 880q0 -276 -12 -416q-16 -245 -148 -368t-389 -123q-156 0 -268 42q-157 61 -214 177t-67 353v609q0 116 -157 116q-14 0 -14 46t14 47 q147 -5 287 -5t288 5q14 -1 14 -47t-14 -46q-174 0 -174 -116v-468l11 -281q3 -124 55 -203q90 -135 270 -135q180 -1 276 99q97 100 97 330v658q0 116 -157 116q-14 0 -14 46t14 47q138 -5 230 -5t226 5q15 -1 15 -47t-15 -46q-154 0 -154 -116v-274z"/>
            <glyph glyph-name="uni01DC" unicode="ǜ" horiz-adv-x="1028" d="M553 1404q0 -54 -42 -54q-35 0 -69 49l-169 249q-5 8 -5 16q0 32 50 59t78 27t32 -14l117 -292q8 -22 8 -40zM445 1179q0 -79 -60 -114q-29 -17 -65 -17q-86 0 -116 63q-12 25 -13 58q0 74 57 111q32 20 72 20q68 0 104 -54q21 -32 21 -67zM795 1179q0 -79 -60 -114 q-29 -17 -65 -17q-84 0 -116 63q-12 25 -13 58q0 74 57 111q32 20 72 20q67 0 104 -54q21 -31 21 -67zM742 -35q-13 0 -13 45v47q0 23 -12 23t-27 -14q-92 -89 -232 -89t-184 35q-147 118 -147 297v346q0 103 -84 103q-15 0 -15 36t15 37q111 -1 183 11t91 12q46 0 46 -44 q-7 -98 -7 -161v-342q0 -123 50 -182q28 -33 95 -33t128 50t61 98v415q0 103 -84 103q-16 0 -16 36t16 37q110 -1 182 11t86 12q53 0 53 -36q-8 -95 -8 -156v-406q0 -90 10 -117q14 -40 53 -40q13 1 31 5t25 -21t7 -37t-7 -15q-8 -2 -105 -21t-137 -32q-41 -13 -54 -13z"/>
            <glyph glyph-name="uni01DD" unicode="ǝ" horiz-adv-x="869" d="M564 194q0 26 -37 26h-203q-37 0 -37 -24q0 -67 55 -112q34 -28 83 -28t98 43q41 40 41 95zM64 235q0 75 90 75h385q37 0 37 27q0 237 -112 334q-62 53 -148 53t-170 -55q-20 -11 -48 25t-16 47q48 49 135 89t211 40t233 -109q144 -144 144 -350q-1 -165 -115 -299 t-285 -135q-171 0 -276 119q-65 89 -65 139z"/>
            <glyph glyph-name="uni01DE" unicode="Ǟ" horiz-adv-x="1401" d="M1019 1945q27 -1 25 -53t-28 -52h-591q-25 0 -25 52t25 53h594zM630 1592q0 -80 -60 -114q-29 -18 -65 -18q-84 0 -116 64q-12 24 -13 58q0 74 57 110q32 20 72 20q68 0 104 -54q21 -32 21 -66zM1060 1592q0 -80 -60 -114q-29 -18 -65 -18q-84 0 -116 64q-12 24 -13 58 q0 74 57 110q32 20 72 20q67 0 104 -54q21 -30 21 -66zM634 1084q-10 0 -17 -16l-159 -434q-3 -8 -4 -16q0 -11 21 -11h293q28 0 28 22q0 6 -3 15l-144 424q-5 16 -15 16zM1398 86q15 0 15 -46t-15 -47q-115 7 -265 7t-275 -7q-15 1 -15 47t15 46q96 0 96 65q0 21 -10 51 l-100 297q-7 22 -34 24h-373q-21 0 -32 -29l-109 -293q-9 -24 -9 -42q0 -73 147 -73q13 0 13 -46t-13 -47q-83 7 -233 7t-228 -7q-14 1 -14 47t14 46q152 0 202 131l370 968q13 30 13 38t-14 22t-15 23q0 15 33 26q34 11 104 53t89 42q33 1 44 -47t53 -165l344 -975 q41 -116 202 -116z"/>
            <glyph glyph-name="uni01DF" unicode="ǟ" horiz-adv-x="860" d="M599 1610q27 0 27 -56t-31 -56h-446q-23 0 -23 56t23 56h450zM343 1175q0 -79 -60 -114q-29 -17 -65 -17q-86 0 -116 63q-12 25 -13 58q0 74 57 111q32 20 72 20q68 0 104 -54q21 -32 21 -67zM693 1175q0 -79 -60 -114q-29 -17 -65 -17q-84 0 -116 63q-12 25 -13 58 q0 74 57 111q32 20 72 20q67 0 104 -54q21 -31 21 -67zM461 193v182q0 23 -14 23q-7 0 -13 -3q-141 -71 -141 -189t72 -118q96 0 96 105zM676 -25q-92 0 -162 82q-14 19 -24 19t-25 -17q-82 -82 -203 -82t-173 85q-26 43 -26 100q0 121 212 231l151 72q35 20 35 47v190 q0 72 -105 72q-79 0 -116 -51q-10 -14 -10 -62t-5 -65q-25 -88 -92 -88q-90 0 -90 78q-1 68 43 128t78 81q120 75 248 75t202 -50t76 -113v-508q0 -114 67 -114q30 -3 72 36q8 9 25 -7t12 -26q-58 -113 -190 -113z"/>
            <glyph glyph-name="uni01E0" unicode="Ǡ" horiz-adv-x="1401" d="M985 1945q27 -1 25 -53t-28 -52h-591q-25 0 -25 52t25 53h594zM565 1623q0 58 41 99t99 41t99 -41t41 -99t-41 -99t-99 -41t-99 41t-41 99zM634 1084q-10 0 -17 -16l-159 -434q-3 -8 -4 -16q0 -11 21 -11h293q28 0 28 22q0 6 -3 15l-144 424q-5 16 -15 16zM1398 86 q15 0 15 -46t-15 -47q-115 7 -265 7t-275 -7q-15 1 -15 47t15 46q96 0 96 65q0 21 -10 51l-100 297q-7 22 -34 24h-373q-21 0 -32 -29l-109 -293q-9 -24 -9 -42q0 -73 147 -73q13 0 13 -46t-13 -47q-83 7 -233 7t-228 -7q-14 1 -14 47t14 46q152 0 202 131l370 968 q13 30 13 38t-14 22t-15 23q0 15 33 26q34 11 104 53t89 42q33 1 44 -47t53 -165l344 -975q41 -116 202 -116z"/>
            <glyph glyph-name="uni01E1" unicode="ǡ" horiz-adv-x="860" d="M653 1610q27 0 27 -56t-31 -56h-446q-23 0 -23 56t23 56h450zM248 1188q0 58 41 99t99 41t99 -41t41 -99t-41 -99t-99 -41t-99 41t-41 99zM461 193v182q0 23 -14 23q-7 0 -13 -3q-141 -71 -141 -189t72 -118q96 0 96 105zM676 -25q-92 0 -162 82q-14 19 -24 19t-25 -17 q-82 -82 -203 -82t-173 85q-26 43 -26 100q0 121 212 231l151 72q35 20 35 47v190q0 72 -105 72q-79 0 -116 -51q-10 -14 -10 -62t-5 -65q-25 -88 -92 -88q-90 0 -90 78q-1 68 43 128t78 81q120 75 248 75t202 -50t76 -113v-508q0 -114 67 -114q30 -3 72 36q8 9 25 -7 t12 -26q-58 -113 -190 -113z"/>
            </font>
</defs>
</svg>
