<svg role="img" aria-labelledby="logo-title" width="287" height="85" xmlns="http://www.w3.org/2000/svg"><title id="logo-title">E-Editiones Logo</title><path d="M84.573 1.063l.786.393 1.18-.197c.524.197.786.655.786 1.376l-.197.786.393 1.18v.393l-.59.59h-.392l-.983-.787c0 1.18-.328 1.77-.983 1.77l-.983-.197-8.256 6.684-7.273 7.076a5.696 5.696 0 00-1.966 2.36c-.262 0-.786.523-1.573 1.572-1.278.852-2.26 1.9-2.948 3.145-.263 0-1.376 1.114-3.342 3.342l-1.77 2.162c-.36 0-1.146.786-2.358 2.359-.197 0-.524.459-.983 1.376-.655 0-1.049.459-1.18 1.376-.59.393-1.572 1.507-2.948 3.342-.328 0-.655.458-.983 1.376-.557.164-1.278.884-2.162 2.162-.328 0-.983.72-1.966 2.162 0 .295-.786 1.147-2.36 2.556-.097.655-.425.983-.982.983 0 .491-.917 1.802-2.752 3.931-3.473 4.26-9.239 12.188-17.299 23.786C18.687 81.33 17.343 82.624 16 84l-.622 1H14l-.5-1 .5-1.162.396-1.376c.196-.328 1.31-1.442 3.538-3.342.098-.655.295-.983.59-.983l.393.197L30.5 61l7-8.5c1.409-1.9 2.074-2.883 2.5-3.08 0-.36.345-.994 1-1.42 1.147-1.835 2.063-1.922 2.489-1.922 0-.393-.262-1.114.393-1.376.065-.459 1.703-1.778 4.128-4.202 0-.491.328-.705.983-1 0-.262.959-1.083 2.007-2 0-.36.155-.628.941-1.054.295-.754.674-1.389 1.559-1.946 0-.491.452-1.1 1.5-1.789.72-1.31 1.594-1.77 2.052-1.77 1.049-1.539 1.769-2.915 2.948-3.734 0-.459.927-1.462 2.5-2.707 0-.59 1.855-2.313 5-5 0-.524.083-1.107 1-1.5 0-.393.583-.714 1.5-1.5L82.214 4.797h-.59L83.59 1.26l.983-.196zM82.607 4.01v.59h.197L83 4.01h-.393zM17.934 82.838v.393l-.393.393v-.393l.393-.393zM70.592 1.063l.781.39 1.172-.195c.52.195.781.65.781 1.367l-.195.781.39 1.172v.39l-.585.587h-.391L71.373 4.5c0 1.172-.13 2.031-.781 2.031l-.977-.195L61.5 13l-7 7c-.879.618-1.577 1.556-2 2.5-.26 0-.719.458-1.5 1.5a9.458 9.458 0 00-3 3.234c-.26 0-1.547 1.052-3.5 3.266L43 32.703c-.358 0-1.296.734-2.5 2.297-.195 0-.544.503-1 1.414-.651 0-1.2.675-1.33 1.586-.586.39-1.367 1.177-2.734 3-.326 0-.651.589-.977 1.5-.553.163-1.08.73-1.959 2-.326 0-1 1-2 2 0 .293-.437 1.1-2 2.5-.098.651-.519 1.5-1.072 1.5 0 .488-1.105 1.384-2.928 3.5-3.45 4.232-9.572 12.102-17.58 23.625C5.13 80.815 5.335 82.633 4 84l-2.158.46-.977-1.366v-1.367h.781c-.325 0-.52-.26-.585-.782 0-.325 1.106-1.432 3.32-3.32.098-.651.293-.977.586-.977l.39.196 11.72-15.625 6.64-8.399c1.4-1.888 2.311-2.93 2.734-3.125 0-.358.326-.748.977-1.172 1.14-1.822 1.92-2.734 2.343-2.734 0-.39.326-.716.977-.977.065-.455 1.302-1.888 3.711-4.296 0-.489.326-.88.977-1.172 0-.26.52-.847 1.562-1.758 0-.358.39-.749 1.172-1.172.293-.749.879-1.4 1.758-1.953 0-.488.52-1.074 1.562-1.758.716-1.302 1.302-1.953 1.758-1.953 1.042-1.53 2.148-2.702 3.32-3.516 0-.455.782-1.302 2.344-2.539 0-.586 1.563-2.213 4.688-4.883 0-.52.455-.976 1.367-1.367 0-.39.456-.976 1.367-1.758L68.248 4.774h-.586l1.953-3.515.977-.196zm-1.953 2.93v.585h.195l.195-.586h-.39zM4.38 82.312v.39l-.39.39v-.39l.39-.39z" fill="#F5A623"/><path d="M10.304 35.352c-.763 0-1.456-.104-2.08-.312-4.437-1.248-6.656-3.744-6.656-7.488 0-4.853 3.05-10.47 9.152-16.848 6.101-6.379 11.579-9.568 16.432-9.568 1.595 0 2.895.433 3.9 1.3S32.56 4.36 32.56 5.608c0 3.883-2.93 7.592-8.788 11.128-5.859 3.536-10.625 5.304-14.3 5.304-.555 0-1.04-.07-1.456-.208-1.04 1.872-1.56 3.848-1.56 5.928 0 3.605 1.716 5.408 5.148 5.408 3.432 0 7.887-2.323 13.364-6.968 4.23-3.397 7.835-7.003 10.816-10.816.624-.832 1.161-1.248 1.612-1.248.45 0 .676.208.676.624 0 .416-.277 1.005-.832 1.768-3.744 4.923-8.25 9.29-13.52 13.104-5.27 3.813-9.741 5.72-13.416 5.72zM29.96 5.4c0-.832-.884-1.248-2.652-1.248-1.768 0-4.281 1.352-7.54 4.056-4.368 3.605-7.765 7.384-10.192 11.336a4.25 4.25 0 001.352.208c2.635 0 6.153-1.404 10.556-4.212s7.159-5.876 8.268-9.204c.139-.347.208-.659.208-.936zM78.291 66.042c0 .57-.366.854-1.098.854H60.479a30.931 30.931 0 00-.183 3.416c0 3.274.778 5.79 2.333 7.549 1.556 1.759 3.767 2.638 6.634 2.638 1.444 0 2.897-.386 4.361-1.159 1.465-.773 2.644-1.759 3.538-2.959l.153-.06c.183 0 .36.111.534.335.173.224.259.488.259.793 0 .427-.65 1.317-1.952 2.669-1.301 1.352-2.714 2.384-4.24 3.096a11.193 11.193 0 01-4.788 1.067c-3.66 0-6.74-1.342-9.242-4.026-2.5-2.684-3.751-5.978-3.751-9.882 0-3.985 1.225-7.36 3.675-10.126 2.45-2.765 5.556-4.148 9.318-4.148 3.152 0 5.8 1.032 7.945 3.096 2.145 2.064 3.218 4.346 3.218 6.847zm-5.551-2.684c0-1.525-.524-2.79-1.57-3.797-1.048-1.007-2.395-1.51-4.042-1.51-1.566 0-2.923.656-4.072 1.967-1.149 1.312-1.926 3.035-2.333 5.17l8.479-.244c1.281-.02 2.19-.142 2.73-.366.539-.224.808-.63.808-1.22zm40.474 17.995c0 .427-.163.66-.489.702-1.159.142-2.5.426-4.025.853-1.526.428-2.715.854-3.569 1.281-.447.224-.773.336-.976.336-.325 0-.488-.163-.488-.488l.244-3.294c-2.155 2.359-4.9 3.538-8.235 3.538-3.518 0-6.512-1.352-8.982-4.056-2.47-2.705-3.706-5.948-3.706-9.73 0-4.29 1.367-7.762 4.102-10.416 2.735-2.653 6.166-3.98 10.294-3.98 2.359 0 4.534.732 6.527 2.196V48.138c0-1.647-.203-2.724-.61-3.232-.407-.509-1.342-.844-2.806-1.007-.325-.04-.488-.295-.488-.763 0-.528.163-.793.488-.793 1.911-.447 3.568-.986 4.971-1.616 1.404-.63 2.349-1.19 2.837-1.677.203-.204.417-.305.64-.305.57 0 .855.162.855.488-.326 4.432-.489 7.97-.489 10.614v26.87c0 1.403.204 2.343.61 2.821.407.478 1.342.819 2.806 1.022.326 0 .489.264.489.793zm-9.303-3.294V62.443c0-1.057-.615-2.054-1.845-2.989s-2.567-1.403-4.011-1.403c-5.937 0-8.906 4.168-8.906 12.505 0 3.294.712 6.029 2.135 8.204 1.423 2.176 3.294 3.264 5.612 3.264 1.322 0 2.521-.3 3.599-.9 1.078-.6 2.216-1.621 3.416-3.065zm21.655-32.421c0 .854-.31 1.596-.93 2.226-.62.63-1.368.946-2.242.946-.874 0-1.622-.316-2.242-.946-.62-.63-.93-1.372-.93-2.226 0-.895.305-1.647.915-2.258.61-.61 1.362-.915 2.257-.915.874 0 1.622.305 2.242.915.62.61.93 1.363.93 2.258zm4.27 36.874c0 .57-.163.854-.488.854-.834 0-1.901-.061-3.203-.183-1.464-.122-2.694-.183-3.69-.183a43.79 43.79 0 00-3.66.183c-1.281.122-2.338.183-3.172.183-.325 0-.488-.285-.488-.854 0-.508.163-.783.488-.823 1.728-.224 2.842-.641 3.34-1.251.498-.61.747-1.911.747-3.904V65.249c0-1.627-.208-2.694-.625-3.202-.417-.509-1.327-.844-2.73-1.007-.325 0-.488-.264-.488-.793 0-.488.163-.732.488-.732 2.135-.549 3.884-1.134 5.246-1.754 1.362-.62 2.216-1.133 2.562-1.54.203-.244.427-.366.671-.366.57 0 .854.163.854.488-.325 4.555-.488 8.093-.488 10.614v9.577c0 1.993.25 3.294.747 3.904.498.61 1.632 1.027 3.401 1.25.325.041.488.316.488.824zm21.899-23.424c0 1.098-.264 1.647-.793 1.647l-9.089-.244v14.64c0 3.823 1.362 5.734 4.087 5.734 1.688 0 3.223-.396 4.606-1.19.162 0 .31.107.442.32.132.214.198.443.198.687 0 .508-.757 1.195-2.272 2.059-1.515.864-3.218 1.296-5.109 1.296-2.318 0-4.168-.707-5.551-2.12-1.383-1.413-2.074-3.278-2.074-5.597v-.274l.122-14.823c0-.57-.244-.854-.732-.854h-2.318c-.447 0-.671-.264-.671-.793 0-.407.183-.712.549-.915 2.826-1.667 5.287-4.016 7.381-7.046.224-.325.508-.488.854-.488.57 0 .854.163.854.488l-.244 5.826h8.967c.529 0 .793.549.793 1.647zm13.42-13.45c0 .854-.31 1.596-.93 2.226-.62.63-1.368.946-2.242.946-.874 0-1.622-.316-2.242-.946-.62-.63-.93-1.372-.93-2.226 0-.895.305-1.647.915-2.258.61-.61 1.362-.915 2.257-.915.874 0 1.622.305 2.242.915.62.61.93 1.363.93 2.258zm4.27 36.874c0 .57-.163.854-.488.854-.834 0-1.901-.061-3.203-.183-1.464-.122-2.694-.183-3.69-.183a43.79 43.79 0 00-3.66.183c-1.281.122-2.338.183-3.172.183-.325 0-.488-.285-.488-.854 0-.508.163-.783.488-.823 1.728-.224 2.842-.641 3.34-1.251.498-.61.747-1.911.747-3.904V65.249c0-1.627-.208-2.694-.625-3.202-.417-.509-1.327-.844-2.73-1.007-.325 0-.488-.264-.488-.793 0-.488.163-.732.488-.732 2.135-.549 3.884-1.134 5.246-1.754 1.362-.62 2.216-1.133 2.562-1.54.203-.244.427-.366.671-.366.57 0 .854.163.854.488-.325 4.555-.488 8.093-.488 10.614v9.577c0 1.993.25 3.294.747 3.904.498.61 1.632 1.027 3.401 1.25.325.041.488.316.488.824zm31.385-12.139c0 4.046-1.317 7.376-3.95 9.989-2.633 2.613-6.044 3.919-10.233 3.919-4.189 0-7.605-1.311-10.248-3.934-2.643-2.624-3.965-5.948-3.965-9.974 0-4.087 1.332-7.488 3.996-10.202 2.663-2.715 6.069-4.072 10.217-4.072 4.168 0 7.574 1.352 10.218 4.057 2.643 2.704 3.965 6.11 3.965 10.217zm-6.131-.061c0-3.721-.717-6.695-2.15-8.921-1.434-2.227-3.401-3.34-5.902-3.34-2.48 0-4.443 1.118-5.887 3.355-1.443 2.237-2.165 5.205-2.165 8.906 0 3.68.712 6.603 2.135 8.769 1.423 2.165 3.396 3.248 5.917 3.248s4.494-1.073 5.917-3.218 2.135-5.078 2.135-8.799zm41.388 12.2c0 .57-.162.854-.488.854-.813 0-1.81-.061-2.989-.183a37.429 37.429 0 00-3.446-.183c-1.017 0-2.186.061-3.507.183-1.2.122-2.207.183-3.02.183-.325 0-.488-.285-.488-.854 0-.508.163-.783.488-.823 1.403-.163 2.323-.56 2.76-1.19.437-.63.656-1.952.656-3.965V66.347c0-2.277-.447-3.945-1.342-5.002s-2.277-1.586-4.148-1.586c-1.18 0-2.221.224-3.126.671-.905.447-1.876 1.24-2.913 2.379v13.725c0 2.013.219 3.335.656 3.965.437.63 1.357 1.027 2.76 1.19.325.04.488.315.488.823 0 .57-.163.854-.488.854-.834 0-1.85-.061-3.05-.183a38.407 38.407 0 00-3.477-.183c-.976 0-2.115.061-3.416.183-1.2.122-2.216.183-3.05.183-.325 0-.488-.285-.488-.854 0-.508.163-.783.488-.823 1.749-.224 2.877-.646 3.386-1.266.508-.62.762-1.917.762-3.889V65.249c0-1.627-.208-2.694-.625-3.202-.417-.509-1.347-.844-2.791-1.007-.325 0-.488-.264-.488-.793 0-.488.163-.732.488-.732 2.013-.508 3.69-1.083 5.032-1.723 1.343-.64 2.186-1.164 2.532-1.571.203-.244.427-.366.671-.366.57 0 .854.163.854.488l-.244 3.843c2.928-2.725 5.653-4.087 8.174-4.087 2.765 0 4.926.793 6.481 2.379 1.556 1.586 2.334 3.721 2.334 6.405v11.651c0 1.993.249 3.294.747 3.904.498.61 1.611 1.027 3.34 1.25.325.041.487.316.487.824zm26.627-16.47c0 .57-.366.854-1.098.854h-16.714a30.931 30.931 0 00-.183 3.416c0 3.274.778 5.79 2.333 7.549 1.556 1.759 3.767 2.638 6.634 2.638 1.444 0 2.897-.386 4.361-1.159 1.465-.773 2.644-1.759 3.538-2.959l.153-.06c.183 0 .36.111.534.335.173.224.259.488.259.793 0 .427-.65 1.317-1.952 2.669-1.301 1.352-2.714 2.384-4.24 3.096a11.193 11.193 0 01-4.788 1.067c-3.66 0-6.74-1.342-9.242-4.026-2.5-2.684-3.751-5.978-3.751-9.882 0-3.985 1.225-7.36 3.675-10.126 2.45-2.765 5.556-4.148 9.318-4.148 3.152 0 5.8 1.032 7.945 3.096 2.145 2.064 3.218 4.346 3.218 6.847zm-5.551-2.684c0-1.525-.524-2.79-1.57-3.797-1.048-1.007-2.395-1.51-4.042-1.51-1.566 0-2.923.656-4.072 1.967-1.149 1.312-1.926 3.035-2.333 5.17l8.479-.244c1.281-.02 2.19-.142 2.73-.366.539-.224.808-.63.808-1.22zm29.158 12.139c0 2.48-.976 4.565-2.928 6.252-1.952 1.688-4.31 2.532-7.076 2.532-.976 0-2.48-.213-4.514-.64-1.525-.306-2.562-.458-3.111-.458-.163-1.423-.539-3.589-1.129-6.497 0-.305.295-.457.885-.457.488 0 .783.163.885.488.467 1.505 1.392 2.816 2.775 3.934 1.383 1.119 2.806 1.678 4.27 1.678 1.525 0 2.71-.417 3.553-1.25.844-.834 1.266-2.003 1.266-3.508 0-.956-.35-1.8-1.052-2.531-.702-.733-2.222-1.637-4.56-2.715-3.07-1.403-5.099-2.725-6.085-3.965-.986-1.24-1.479-2.725-1.479-4.453 0-2.135.925-3.97 2.776-5.505 1.85-1.535 4.036-2.303 6.557-2.303 1.057 0 2.542.183 4.453.549 1.057.203 1.749.305 2.074.305.061 2.4.193 4.443.397 6.13 0 .306-.295.458-.885.458-.508 0-.793-.163-.854-.488-.224-1.484-.783-2.69-1.678-3.614-.894-.925-1.962-1.388-3.202-1.388-3.172 0-4.758 1.383-4.758 4.148 0 .935.376 1.8 1.129 2.593.752.793 2.389 1.82 4.91 3.08 3.01 1.505 4.992 2.806 5.947 3.904.956 1.098 1.434 2.338 1.434 3.721z" fill="#000"/></svg>
