<svg xmlns="http://www.w3.org/2000/svg" viewBox="0 0 207 90" height="55" width="126"><style>.typo{fill:#343a40}</style><title>Jinntec Logo</title><defs><linearGradient x1="52.241%" y1="102.559%" x2="52.241%" y2="-4.882%" id="a"><stop stop-color="#0089CD" offset="0%"/><stop stop-color="#FDFEFF" offset="100%"/><stop stop-color="#6A9FC2" offset="100%"/></linearGradient></defs><g fill="none" fill-rule="evenodd"><path d="M12.487 41c-3.603-16.388 9.985-16.251 3.503-15.973-25.884 1.123 5.051-6.851 11.958-9.191 9.81-3.328-43.303-.126-21.756-6.007C24.002 4.97 44.231 5.977 25.556 1" transform="translate(29)" fill-rule="nonzero" stroke="url(#a)" stroke-linecap="round" stroke-width="2"/><path class="typo" d="M20.87 71.896c0 3.506-.762 6.466-2.288 8.878-1.526 2.411-3.746 4.344-6.663 5.797-2.916 1.453-6.546 2.557-10.891 3.313L.13 85.583c3.225-.562 5.943-1.361 8.154-2.398 2.211-1.036 3.935-2.44 5.17-4.213 1.237-1.773 1.855-4.006 1.855-6.698V51.089H2.882v-4.243H20.87v25.05zm23.863 1.336h8.487v4.243H29.872v-4.243h9.299V51.09h-9.009v-4.243h14.57v26.386zm15.78-26.386h4.78l.405 4.127a12.85 12.85 0 014.548-3.575c1.796-.852 3.612-1.278 5.446-1.278 2.878 0 5.026.784 6.445 2.354 1.42 1.569 2.13 3.806 2.13 6.712v22.29h-5.562v-18.86c0-2.112-.116-3.73-.348-4.854-.232-1.123-.695-1.956-1.39-2.499-.696-.542-1.738-.813-3.129-.813-1.525 0-2.969.47-4.33 1.409a13.208 13.208 0 00-3.433 3.444v22.172h-5.562V46.846zm31.77 0h4.78l.406 4.127a12.85 12.85 0 014.548-3.575c1.796-.852 3.611-1.278 5.446-1.278 2.877 0 5.025.784 6.445 2.354 1.42 1.569 2.129 3.806 2.129 6.712v22.29h-5.562v-18.86c0-2.112-.116-3.73-.347-4.854-.232-1.123-.696-1.956-1.39-2.499-.696-.542-1.739-.813-3.13-.813-1.525 0-2.968.47-4.33 1.409a13.208 13.208 0 00-3.433 3.444v22.172h-5.561V46.846zm52.048 29.06c-1.081.697-2.385 1.254-3.91 1.67a17.31 17.31 0 01-4.577.626c-2.221 0-4.123-.402-5.707-1.206-1.583-.804-2.78-1.928-3.592-3.371-.81-1.444-1.216-3.124-1.216-5.042V39.93l5.561-.668v7.584h10.429l-.638 4.185h-9.79v17.494c0 1.724.439 3.003 1.317 3.836.88.833 2.303 1.25 4.273 1.25a11.96 11.96 0 005.765-1.454l2.085 3.749zm11.137-6.306c.782 1.443 2.326 2.378 3.6 3.066 1.275.688 2.705 1.031 4.288 1.031 1.487 0 2.863-.222 4.128-.668 1.265-.446 2.583-1.133 3.954-2.063l2.52 3.516c-1.448 1.162-3.109 2.073-4.982 2.732a17.34 17.34 0 01-5.794.988c-3.012 0-5.59-.664-7.734-1.99-2.144-1.328-3.775-3.197-4.896-5.61-1.12-2.411-1.68-5.216-1.68-8.412 0-3.08.556-5.836 1.666-8.268 1.11-2.431 2.694-4.34 4.75-5.725 2.057-1.385 4.457-2.077 7.2-2.077 2.606 0 4.866.61 6.777 1.83 1.912 1.22 3.38 2.97 4.403 5.246 1.024 2.276 1.536 4.964 1.536 8.064 0 .891.077 1.705 0 2.673h-21.009c.097 2.17.49 4.224 1.273 5.667zm7.343-19.121c-2.62-.011-4.212.869-5.649 2.359-.94.974-1.909 2.3-2.501 4.054-.245.725-.497 1.725-.497 2.5v.255H158.713l11.132.015c-.056-2.977-.698-5.252-1.926-6.824-1.228-1.573-2.487-2.349-5.108-2.36zm33.33 23.015c2.645 0 5.233-.891 7.763-2.673l2.665 3.632c-1.352 1.143-2.974 2.054-4.867 2.732-1.892.678-3.775 1.017-5.649 1.017-3.031 0-5.638-.654-7.82-1.962-2.183-1.308-3.849-3.158-4.998-5.55-1.149-2.393-1.723-5.187-1.723-8.384 0-3.1.58-5.875 1.738-8.326 1.159-2.45 2.844-4.373 5.055-5.768 2.21-1.395 4.823-2.092 7.835-2.092 3.96 0 7.416 1.2 10.37 3.603l-2.635 3.633c-2.569-1.783-5.137-2.674-7.706-2.674-1.738 0-3.258.426-4.562 1.279-1.304.852-2.317 2.145-3.042 3.88-.724 1.733-1.086 3.888-1.086 6.465 0 3.797.782 6.611 2.346 8.442 1.565 1.83 3.67 2.746 6.315 2.746z"/><path d="M154.189 59.229c-.033.146-.05.958-.05 2.438 0 1.479.027 2.28.079 2.405l4.074-.074v-4.434c-.7.009-3.026-.348-4.103-.335z" fill="#FFF"/></g></svg>