<svg width="872" height="229" viewBox="0 0 872 229" xmlns="http://www.w3.org/2000/svg" aria-labelledby="title desc" role="img">
    <title id="title">
        TEI Publisher Logo
    </title>
    <desc id="desc">A logo consisting of a handdrawn white code bracket with orange lines on the right and the words tei publisher.</desc>
    <g fill="none" fill-rule="evenodd">
        <path d="M377.424 30.424h-14.248v-6.448l14.56-.52 1.144-14.144h7.072v14.144h24.856v6.968h-24.856v24.024c0 2.288.208 4.281.624 5.98.416 1.699 1.11 3.137 2.08 4.316.97 1.179 2.288 2.063 3.952 2.652 1.664.59 3.71.884 6.136.884 2.427 0 4.61-.208 6.552-.624a37.514 37.514 0 0 0 5.616-1.664l1.872 6.24c-2.288.832-4.819 1.543-7.592 2.132-2.773.59-5.547.884-8.32.884-3.675 0-6.76-.503-9.256-1.508-2.496-1.005-4.49-2.427-5.98-4.264-1.49-1.837-2.565-4.039-3.224-6.604-.659-2.565-.988-5.408-.988-8.528v-23.92zm48.152 18.408c0-4.16.728-7.887 2.184-11.18 1.456-3.293 3.38-6.084 5.772-8.372a25.023 25.023 0 0 1 8.216-5.252 25.786 25.786 0 0 1 9.516-1.82c3.605 0 6.83.572 9.672 1.716 2.843 1.144 5.252 2.756 7.228 4.836 1.976 2.08 3.484 4.576 4.524 7.488 1.04 2.912 1.56 6.136 1.56 9.672 0 .901-.017 1.785-.052 2.652-.035.867-.121 1.612-.26 2.236h-39.52c.07 2.704.607 5.13 1.612 7.28 1.005 2.15 2.357 3.987 4.056 5.512 1.699 1.525 3.71 2.704 6.032 3.536 2.323.832 4.87 1.248 7.644 1.248 2.981 0 5.703-.416 8.164-1.248 2.461-.832 4.87-1.976 7.228-3.432l3.016 5.616c-2.496 1.595-5.339 2.981-8.528 4.16-3.19 1.179-6.83 1.768-10.92 1.768-3.744 0-7.263-.607-10.556-1.82-3.293-1.213-6.17-2.947-8.632-5.2-2.461-2.253-4.403-5.01-5.824-8.268-1.421-3.259-2.132-6.968-2.132-11.128zm40.768-4.16c0-5.061-1.317-8.944-3.952-11.648-2.635-2.704-6.31-4.056-11.024-4.056-2.08 0-4.073.347-5.98 1.04a15.873 15.873 0 0 0-5.148 3.068c-1.525 1.352-2.808 2.999-3.848 4.94-1.04 1.941-1.733 4.16-2.08 6.656h32.032zm23.816-21.216h32.032V74h-8.528V30.424H490.16v-6.968zm26.832-10.4c-2.01 0-3.657-.59-4.94-1.768-1.283-1.179-1.924-2.773-1.924-4.784 0-2.01.641-3.623 1.924-4.836s2.93-1.82 4.94-1.82c1.941 0 3.57.607 4.888 1.82 1.317 1.213 1.976 2.825 1.976 4.836 0 2.01-.659 3.605-1.976 4.784-1.317 1.179-2.947 1.768-4.888 1.768zM381.25 158h4.375c3.965 0 7.212-.228 9.741-.684 2.53-.455 4.763-1.31 6.7-2.563 1.936-1.253 3.326-3.042 4.17-5.366.842-2.325 1.264-5.287 1.264-8.887 0-4.375-.319-7.918-.957-10.63-.638-2.711-1.812-4.933-3.52-6.665-1.71-1.732-3.92-2.928-6.631-3.589-2.712-.66-6.3-.991-10.767-.991h-4.375V158zm-17.5 70V105.5h30.625c20.417 0 30.625 11.667 30.625 35 0 9.98-2.632 17.58-7.896 22.798-5.263 5.218-12.84 7.827-22.729 7.827H381.25V228h-17.5zm82.92 1.23c-3.828 0-6.904-1.355-9.229-4.067-2.324-2.712-3.486-6.072-3.486-10.083V140.5h17.5v69.248c0 1.823.558 3.304 1.675 4.443 1.116 1.14 2.563 1.71 4.34 1.71.958 0 1.892-.115 2.803-.342.912-.228 1.812-.627 2.7-1.197a93.04 93.04 0 0 0 2.086-1.367c.5-.342 1.219-.923 2.153-1.743a73.766 73.766 0 0 1 1.743-1.504V140.5h17.5V228h-17.5v-9.434a869.09 869.09 0 0 1-3.794 3.282c-.797.683-2.016 1.606-3.657 2.768-1.64 1.162-3.088 2.005-4.34 2.53-1.254.524-2.815 1.002-4.684 1.435a25.66 25.66 0 0 1-5.81.65zm85.586-14.355c1.868 0 3.43-.684 4.682-2.05 1.254-1.368 2.165-3.316 2.735-5.846.57-2.529.957-5.047 1.162-7.553.205-2.507.308-5.423.308-8.75 0-2.461-.012-5.72-.035-9.776-.022-4.056-.034-7.109-.034-9.16 0-2.05-.045-3.84-.136-5.366a31.821 31.821 0 0 0-.684-4.82c-.365-1.686-.855-3.075-1.47-4.17a7.643 7.643 0 0 0-2.563-2.7c-1.094-.706-2.416-1.059-3.965-1.059-4.83 0-9.206 1.162-13.125 3.486v55.03c4.512 1.823 8.887 2.734 13.125 2.734zm4.375 14.355c-3.555 0-6.7-.843-9.434-2.529-2.734-1.686-5.423-3.896-8.066-6.63V228h-17.5V105.568h17.5v43.614c1.64-1.732 2.87-2.985 3.691-3.76.82-.775 2.017-1.755 3.59-2.94 1.571-1.184 3.2-2.016 4.887-2.495 1.686-.478 3.555-.717 5.605-.717 2.963 0 5.606.535 7.93 1.606 2.324 1.07 4.238 2.358 5.742 3.862 1.504 1.504 2.78 3.669 3.828 6.494 1.048 2.826 1.835 5.378 2.359 7.657.524 2.278.923 5.354 1.196 9.228.273 3.874.433 7.007.479 9.4.045 2.392.068 5.685.068 9.878v1.162c0 3.828-.194 7.52-.581 11.074-.388 3.555-1.094 7.178-2.12 10.869-1.025 3.691-2.324 6.881-3.896 9.57a19.568 19.568 0 0 1-6.289 6.597c-2.62 1.709-5.617 2.563-8.99 2.563zM572.93 228V105.5h17.5V228h-17.5zm33.838-100.625v-17.5h17.5v17.5h-17.5zm0 100.625v-87.5h17.5V228h-17.5zm57.216 1.23c-7.2 0-12.976-2.141-17.329-6.425-4.352-4.284-7.326-9.844-8.92-16.68l13.124-4.375c3.145 8.75 7.52 13.125 13.125 13.125 2.78 0 4.934-.763 6.46-2.29 1.527-1.527 2.29-3.68 2.29-6.46 0-4.056-1.458-7.428-4.375-10.117l-17.5-13.125c-1.96-1.322-3.6-2.564-4.922-3.726-1.321-1.162-2.666-2.586-4.033-4.272a18.115 18.115 0 0 1-3.11-5.674c-.706-2.096-1.06-4.375-1.06-6.836 0-7.474 2.382-13.193 7.144-17.158 4.762-3.965 11.131-5.947 19.106-5.947 3.783 0 7.2.603 10.254 1.811 3.054 1.208 5.617 2.905 7.69 5.093a30.483 30.483 0 0 1 5.128 7.28c1.344 2.666 2.404 5.64 3.178 8.921l-13.125 4.375c-.638-1.732-1.276-3.224-1.914-4.478-.638-1.253-1.492-2.609-2.563-4.067-1.071-1.458-2.336-2.586-3.794-3.384-1.458-.797-3.076-1.196-4.854-1.196-2.78 0-4.933.763-6.46 2.29-1.526 1.527-2.29 3.68-2.29 6.46 0 2.734 1.459 5.195 4.375 7.383l17.5 13.125c1.96 1.55 3.635 3.042 5.025 4.477 1.39 1.436 2.746 3.1 4.067 4.99 1.322 1.892 2.324 4 3.008 6.324.684 2.324 1.025 4.808 1.025 7.451 0 7.474-2.38 13.193-7.143 17.158-4.763 3.965-11.131 5.947-19.107 5.947zm36.914-1.23V105.5h17.5v44.434c2.598-2.37 4.717-4.182 6.358-5.435 1.64-1.253 3.908-2.438 6.802-3.555 2.894-1.116 5.981-1.674 9.262-1.674 3.737 0 6.768 1.367 9.092 4.101 2.324 2.734 3.486 6.084 3.486 10.049V228h-17.5v-65.625c0-3.008-.376-5.218-1.127-6.63-.752-1.414-2.382-2.12-4.888-2.12-3.555 0-7.383 1.709-11.485 5.127V228h-17.5zm92.559 1.23c-4.238 0-7.918-.729-11.04-2.187-3.122-1.458-5.605-3.361-7.451-5.708-1.846-2.347-3.338-5.355-4.478-9.023a61.265 61.265 0 0 1-2.358-11.006c-.433-3.669-.695-7.941-.786-12.818a160.832 160.832 0 0 1 0-11.484c.136-4.557.444-8.602.923-12.134a50.976 50.976 0 0 1 2.495-10.288c1.185-3.327 2.723-6.061 4.614-8.203 1.891-2.142 4.375-3.862 7.451-5.161 3.076-1.3 6.665-1.948 10.767-1.948 3.737 0 7.03.49 9.878 1.47s5.218 2.46 7.11 4.443a28.584 28.584 0 0 1 4.716 6.596c1.253 2.416 2.199 5.344 2.837 8.784a94.689 94.689 0 0 1 1.333 10.152c.25 3.327.376 7.155.376 11.484v2.051h-35v7.178a56.904 56.904 0 0 0-.034 5.23c.068 1.8.148 3.565.239 5.297a24.74 24.74 0 0 0 .752 4.956c.41 1.572.911 2.951 1.504 4.136.592 1.185 1.424 2.119 2.495 2.803 1.07.683 2.335 1.025 3.794 1.025 1.823 0 3.327-.353 4.511-1.06 1.185-.706 2.063-1.766 2.632-3.178a19.71 19.71 0 0 0 1.197-4.239c.227-1.412.364-3.19.41-5.332v-3.691h17.363v3.486c-.41 9.343-2.712 16.407-6.904 21.192-4.193 4.785-10.641 7.177-19.346 7.177zm-8.613-53.73h17.363v-5.264c-.046-2.324-.182-4.352-.41-6.084a28.503 28.503 0 0 0-1.196-5.195c-.57-1.732-1.447-3.053-2.632-3.965-1.185-.911-2.643-1.367-4.375-1.367-1.778 0-3.27.479-4.478 1.436-1.207.957-2.096 2.335-2.666 4.135-.57 1.8-.968 3.566-1.196 5.298-.228 1.732-.365 3.805-.41 6.22v4.786zM832.49 228v-87.5h17.5v11.69c1.778-3.464 4.364-6.483 7.759-9.058 3.395-2.575 7.166-3.862 11.313-3.862.137 0 1.071.09 2.803.273v19.346c-3.235-1.276-6.471-1.914-9.707-1.914-3.646 0-6.585 1.093-8.818 3.28-2.233 2.188-3.35 5.082-3.35 8.683V228h-17.5z" fill="#FFF"/>
        <path d="M297.075 59.396c38.143.804-27.55.256-9.675 1.81 9.998 1.224 31.564 1.124 32.265 6.08.086.72-3.186 2.483-3.893 2.637-4.53.99-19.173 1.818-22.516 2.055-50.118 2.146-91.466 1.675-141.492-2.507-9.775-3.258-8.092-7.33-3.283-7.164 50.324-4.08 98.184-5.117 148.594-2.91zm-65.412 49.59c15.066-.306 25.993-.287 41.053-.213 13.51.312 17.054.256 29.598.987 2.182.127 10.215.245 13.062 1.58 9.788 4.168-1.384 7.588-1.91 7.453-3.557 1.345-10.687 1.4-13.873 1.58-12.871.729-16.26.672-30.105.988-29.695.145-54.777-.652-84.381-3.284-7.384-2.558-3.011-6.965 1.42-6.826 62.757 3.314-26.873-.798 45.136-2.264zM105.502 214.063c38.816-2.993 59.472-3.94 98.389-4.094 12.393-.049 30.713.12 43.106.179 19.795.503 33.887.537 53.011 2.034 11.434.895-59.275-1.472 13.873 2.647.556.143 16.03 3.434-2.019 7.872-35.106 3.217-3.21 1.743-15.23 2.648-19.792 1.489-33.498 1.517-54.054 2.034-50.657.242-88.953.14-139.488-3.916-2.683-.215-6.561-.373-7.36-2.873-.82-2.563.563-4.586 2.374-5.27 2.665-1.008 4.568-1.043 7.398-1.261zm5.06-206.347c9.756-.731 25.264.21 32.075-.05 25.716-.986 41.642-1.503 67.46-1.575 12.264-.034 25.713.18 37.976.27 20.997.59 32.29-1.235 52.235.115 4.309.291 8.613.25 12.902.757 0 0 2.989 1.056 6.427 6.088-.218.487-5.84-1.348-5.623-1.834.849 1.832 3.517 3.726 2.547 5.496-.993 1.81-4.057.766-6.106.994-22.12 2.47-44.44 2.465-66.65 3.196-12.31.09-25.805.305-38.115.271-25.562-.071-41.203-.58-66.653-1.574-6.513-.254-21.533-1.639-30.982-2.375-3.135-.244-8.534-.812-11.66-2.36-4.171-4.979 3.721-6.544 4.268-6.403 3.3-.34 6.592-.769 9.9-1.016zm47.18 153.138c22.908-5.45 64.41-.692 106.401-.49 14.75.432 28.75-1.923 43.38-.704 10.455.142 16.493 6.178 8.26 9.806-7.807 1.88-4.243 1.008-11.35 2.238-15.18 1.213-28.906 1.36-44.304 1.805-45.24.217-70.759-.636-115.852-4.76-8.466-4.172 1.17-7.081 1.718-6.94 3.914-.347-11.16 4.495 11.748-.955z" fill="#F6A623"/>
        <path d="M109.23 71.583c12.263 10.966 25.142 24.253 35.733 36.309 1.082 1.23 2.208 2.45 3.05 3.856.38.634.398 1.425.546 2.15.505 2.476-1.58 2.778-2.905 3.277-1.324.499-2.474.01-4.236-.68-1.762-.692-4.086-2.186-4.086-2.186-.304.504-9.059 12.937-11.474 15.597a411.921 411.921 0 0 1-16.627 17.304c-20.179 19.774-19.835 20.357-41.691 39.066-18.278 14.321-25.414 20.615-43.858 32.75-4.121 2.712-14.071 7.413-14.071 7.413-8.143 1.708-13.022.668-6.047-7.66C21.736 205.066 40.629 186.857 56 174.172c42.58-34.823 4.023-4.528 44.722-37.76 6.152-5.022 10.373-8.465 16.457-13.57 3.45-2.895 6.487-5.63 9.854-8.621 1.302-1.158 2.41-2.56 3.86-3.523.276-.183.62 2.244.931 2.358.928-.841 1.554-1.62 1.554-1.62s-1.943-1.251-4.214-3.048c-12.72-10.068-16.34-13.47-29.508-24.826C72.077 59 45.096 33.86 20.853 5.919c-.681-5.142.682-5.175 5.638-4.527 28.246 22.99 55.865 45.274 82.74 70.191z" fill="#FFF"/>
    </g>
</svg>
