<svg xmlns="http://www.w3.org/2000/svg" version="1.1" viewBox="0 0 683 231">
 <title>TEI Publisher Logo</title>
  <path id="Shape" fill="#fff" fill-rule="evenodd" d="m297.43 56.766h-9.869v-4.4663l10.085-.36018.7924-9.797h4.8985v9.797h17.217v4.8265h-17.217v16.64c0 1.5848.14407 2.9653.43221 4.1421.28815 1.1768.76886 2.1729 1.4407 2.9895.67188.81665 1.5848 1.429 2.7374 1.8369 1.1526.40867 2.5698.61231 4.2502.61231 1.6811 0 3.1932-.14407 4.5383-.43222 1.3247-.28223 2.6253-.66760 3.89-1.1526l1.2967 4.3222c-1.5848.57629-3.3379 1.0688-5.2587 1.4768-1.9207.40867-3.8422.61231-5.7629.61231-2.5455 0-4.6824-.34841-6.4113-1.0445-1.7289-.69612-3.11-1.6811-4.1421-2.9535s-1.7767-2.7977-2.2331-4.5743c-.45646-1.7767-.68434-3.7459-.68434-5.907v-16.568zm33.353 12.75c0-2.8815.50425-5.463 1.5128-7.7439 1.0085-2.2809 2.3412-4.2141 3.998-5.799 1.6401-1.5741 3.5737-2.8102 5.6909-3.6379 2.0977-.83290 4.3343-1.2607 6.5914-1.2606 2.497 0 4.7309.39620 6.6994 1.1886 1.9692.79240 3.6379 1.909 5.0066 3.3497s2.4132 3.1696 3.1336 5.1866c.72037 2.017 1.0806 4.2502 1.0806 6.6994 0 .62409-.0118 1.2364-.036 1.8369-.0242.60054-.0838 1.1166-.18009 1.5488h-27.374c.0485 1.873.42044 3.5533 1.1166 5.0426.69613 1.4892 1.6326 2.7616 2.8094 3.8179s2.5698 1.873 4.1781 2.4492c1.609.57629 3.3733.86444 5.2947.86444 2.0648 0 3.9502-.28815 5.6549-.86444 1.7046-.57629 3.3733-1.3687 5.0066-2.3772l2.0891 3.89c-1.7289 1.1048-3.6981 2.0648-5.907 2.8815-2.2096.81665-4.7309 1.2246-7.5639 1.2246-2.5933 0-5.0308-.42044-7.3117-1.2606-2.2809-.84020-4.2737-2.0413-5.979-3.6018-1.7046-1.5606-3.0498-3.4702-4.034-5.7269-.98427-2.2574-1.4768-4.8265-1.4768-7.7079zm28.238-2.8815c0-3.5056-.91223-6.1952-2.7374-8.0681-1.8252-1.873-4.3707-2.8094-7.6359-2.8094-1.4407 0-2.8212.24035-4.1421.72037-1.3128.47552-2.5229 1.1967-3.5658 2.1251-1.0563.93648-1.945 2.0773-2.6654 3.4217-.72036 1.3445-1.2004 2.8815-1.4407 4.6103h22.187zm16.496-14.695h22.187v35.01h-5.907v-30.183h-16.28v-4.8265zm18.585-7.2037c-1.3922 0-2.5331-.40867-3.4217-1.2246-.88868-.81665-1.3327-1.9207-1.3327-3.3137 0-1.3922.444-2.5095 1.3327-3.3497.88868-.84020 2.0295-1.2606 3.4217-1.2606 1.3445 0 2.4728.42044 3.3857 1.2606.91223.84020 1.3687 1.9568 1.3687 3.3497 0 1.3922-.45646 2.497-1.3687 3.3137-.91224.81665-2.0413 1.2246-3.3857 1.2246zm-94.023 100.4h3.0304c2.7464 0 4.9955-.15793 6.7472-.47378 1.7524-.31516 3.2991-.90739 4.6408-1.7753 1.341-.86791 2.3038-2.1071 2.8884-3.7168.58322-1.6104.87552-3.6621.87552-6.1557 0-3.0304-.22095-5.4845-.66287-7.363-.44192-1.8778-1.2551-3.4169-2.4382-4.6166-1.1844-1.1997-2.7152-2.0281-4.593-2.486-1.8785-.45716-4.3638-.68643-7.4579-.68643h-3.0304v27.274zm-12.122 48.486v-84.851h21.213c14.142 0 21.213 8.0813 21.213 24.243 0 6.9128-1.8231 12.177-5.4692 15.791-3.6455 3.6143-8.8938 5.4215-15.743 5.4215h-9.0912v39.395h-12.122zm57.435.85197c-2.6515 0-4.7821-.93856-6.3926-2.817-1.6097-1.8785-2.4146-4.2058-2.4146-6.9841v-51.659h12.122v47.965c0 1.2627.3865 2.2886 1.1602 3.0775.77301.78963 1.7753 1.1844 3.0062 1.1844.66357 0 1.3105-.0797 1.9415-.23689.63171-.15793 1.2551-.4343 1.8702-.82912.48584-.30915.96751-.6248 1.4449-.94687.34633-.23689.84436-.63932 1.4913-1.2073.39699-.35352.79948-.70081 1.2073-1.0418v-47.965h12.122v60.608h-12.122v-6.5346c-.8738.76029-1.7498 1.5181-2.628 2.2733-.55205.47309-1.3964 1.1124-2.5331 1.9173-1.136.80487-2.1389 1.3888-3.0061 1.7524-.8686.36296-1.9498.69405-3.2444.99397-1.3199.3029-2.6701.45396-4.0244.45023v-.00069zm59.282-9.9431c1.2939 0 2.3758-.47378 3.243-1.42.8686-.94756 1.4996-2.2969 1.8944-4.0493.39481-1.7517.66287-3.4959.80487-5.2317.14199-1.7365.21334-3.7563.21334-6.0608 0-1.7046-.008-3.962-.0242-6.7714-.0152-2.8094-.0236-4.9241-.0236-6.3448 0-1.42-.0312-2.6598-.0942-3.7168-.0724-1.1233-.23083-2.2395-.47378-3.3386-.25282-1.1678-.59222-2.1299-1.0182-2.8884-.42857-.76019-1.0384-1.4026-1.7753-1.8702-.75777-.48901-1.6735-.73352-2.7464-.73352-3.3456 0-6.3766.80487-9.0912 2.4146v38.117c3.1253 1.2627 6.1557 1.8937 9.0912 1.8937zm3.0304 9.9431c-2.4624 0-4.6408-.58391-6.5346-1.7517-1.8937-1.1678-3.7563-2.6986-5.587-4.5923v5.4921h-12.122v-84.804h12.122v30.21c1.136-1.1997 1.9879-2.0676 2.5566-2.6044.56799-.53681 1.3971-1.2156 2.4867-2.0364 1.0882-.82011 2.2165-1.3964 3.385-1.7282 1.1678-.33109 2.4624-.49664 3.8824-.49664 2.0524 0 3.8831.37058 5.4928 1.1124 1.6097.74114 2.9355 1.6333 3.9772 2.675 1.0418 1.0418 1.9256 2.5414 2.6515 4.4981.72591 1.9575 1.271 3.7251 1.634 5.3037.36295 1.5779.63932 3.7085.82842 6.3919.18909 2.6834.29992 4.8535.33178 6.511.0312 1.6568.0471 3.9378.0471 6.8421v.80488c0 2.6515-.13437 5.2088-.40243 7.6705-.26876 2.4624-.75777 4.9719-1.4684 7.5285-.70998 2.5566-1.6098 4.7662-2.6986 6.6288-1.0721 1.8448-2.5647 3.4104-4.3561 4.5695-1.8148 1.1838-3.8907 1.7753-6.227 1.7753h.00069zm25.143-.85197v-84.851h12.122v84.851h-12.122zm23.438-69.699v-12.122h12.122v12.122h-12.122zm0 69.699v-60.608h12.122v60.608h-12.122zm39.631.85197c-4.9872 0-8.988-1.483-12.003-4.4504-3.0145-2.9674-5.0744-6.8186-6.1785-11.554l9.0905-3.0304c2.1784 6.0608 5.2088 9.0912 9.0912 9.0912 1.9256 0 3.4176-.5285 4.4746-1.5862 1.0577-1.0577 1.5862-2.549 1.5862-4.4746 0-2.8094-1.0099-5.1451-3.0304-7.0076l-12.122-9.0912c-1.3576-.9157-2.4936-1.776-3.4093-2.5808-.91501-.80487-1.8466-1.7912-2.7935-2.959-.9481-1.1702-1.6778-2.5014-2.1542-3.9302-.48902-1.4518-.73422-3.0304-.73422-4.735 0-5.177 1.6499-9.1383 4.9484-11.885 3.2984-2.7464 7.71-4.1193 13.234-4.1193 2.6203 0 4.9872.41768 7.1025 1.2544 2.1154.83674 3.8907 2.0122 5.3266 3.5277 1.4244 1.4979 2.6212 3.1969 3.552 5.0426.93093 1.8466 1.6652 3.9066 2.2013 6.1792l-9.0912 3.0304c-.44192-1.1997-.88383-2.2331-1.3258-3.1017-.44192-.8679-1.0334-1.8072-1.7753-2.817-.74184-1.0099-1.618-1.7912-2.628-2.344-1.0099-.55205-2.1306-.82842-3.3622-.82842-1.9256 0-3.4169.5285-4.4746 1.5862-1.057 1.0577-1.5862 2.549-1.5862 4.4746 0 1.8937 1.0106 3.5984 3.0304 5.1139l12.122 9.0912c1.3576 1.0736 2.5178 2.1071 3.4806 3.101.9628.99466 1.902 2.1472 2.817 3.4564.9157 1.3105 1.6098 2.7706 2.0835 4.3804.47379 1.6098.70998 3.3303.70998 5.161 0 5.1769-1.6485 9.1383-4.9477 11.885-3.2991 2.7464-7.71 4.1192-13.235 4.1192zm25.569-.85197v-84.851h12.122v30.778c1.7995-1.6416 3.2673-2.8967 4.4039-3.7646 1.136-.86791 2.7069-1.6887 4.7115-2.4624 2.0046-.77301 4.1428-1.1595 6.4154-1.1595 2.5885 0 4.6879.94687 6.2977 2.8406 1.6097 1.8937 2.4146 4.2141 2.4146 6.9605v51.659h-12.122v-45.456c0-2.0835-.26044-3.6143-.78063-4.5923-.52088-.97942-1.6499-1.4684-3.3857-1.4684-2.4624 0-5.1139 1.1838-7.9552 3.5513v47.965h-12.122zm64.112.85197c-2.9355 0-5.4845-.50495-7.647-1.5148-2.1625-1.0099-3.8824-2.328-5.161-3.9537-1.2787-1.6257-2.3121-3.7092-3.1017-6.2499-.7772-2.4856-1.3239-5.0376-1.6333-7.6234-.29992-2.5414-.4814-5.5004-.54443-8.8785-.0947-2.6507-.0947-5.3038 0-7.9545.0942-3.1565.30754-5.9583.63932-8.4047.32719-2.4289.90637-4.8172 1.7282-7.1261.8208-2.3045 1.8861-4.1982 3.1959-5.6819s3.0304-2.6751 5.161-3.5748c2.1306-.90046 4.6166-1.3493 7.4579-1.3493 2.5885 0 4.8694.33941 6.8421 1.0182 1.9727.6788 3.6143 1.7039 4.9248 3.0775 1.3004 1.36 2.4004 2.8984 3.2666 4.5688.8679 1.6735 1.5232 3.7016 1.9651 6.0843.43437 2.3256.74259 4.673.92332 7.0319.17316 2.3045.26044 4.956.26044 7.9545v1.4206h-24.243v4.9719c-.0634 1.2065-.0712 2.4154-.0236 3.6226.0471 1.2468.10251 2.4693.16554 3.669.057 1.159.23148 2.3091.52088 3.4328.28399 1.0889.63102 2.044 1.0418 2.8648.41006.8208.98635 1.4678 1.7282 1.9415.74115.47309 1.6174.70998 2.628.70998 1.2627 0 2.3045-.24451 3.1246-.73422.8208-.48902 1.429-1.2232 1.8231-2.2013.38521-.94468.66332-1.9296.82912-2.9362.15723-.97803.25212-2.2096.28399-3.6933v-2.5566h12.027v2.4146c-.28399 6.4715-1.8785 11.364-4.7821 14.679-2.9043 3.3144-7.3706 4.9712-13.4 4.9712zm-5.9659-37.217h12.027v-3.6462c-.0319-1.6097-.12606-3.0145-.28399-4.2142-.16312-1.2227-.44047-2.4274-.82842-3.5984-.39482-1.1997-1.0023-2.1147-1.8231-2.7464-.82081-.63101-1.8307-.94686-3.0304-.94686-1.2316 0-2.265.33178-3.1017.99466-.83604.66287-1.4518 1.6174-1.8466 2.8642-.39482 1.2468-.6705 2.47-.82842 3.6697-.15793 1.1997-.25282 2.6356-.28399 4.3084v3.3151zm33.002 36.365v-60.608h12.122v8.0972c1.2316-2.3994 3.0228-4.4905 5.3744-6.2741s4.9636-2.6751 7.8361-2.6751c.0949 0 .74184.0623 1.9415.1891v13.4c-2.2408-.88383-4.4822-1.3258-6.7237-1.3258-2.5254 0-4.5612.75708-6.1079 2.2719-1.5467 1.5155-2.3204 3.5201-2.3204 6.0144v40.91h-12.122z"/>
  <path fill="#f6a623" d="m241.77 76.834c26.42.55690-19.083.17732-6.7015 1.2537 6.9252.84782 21.863.77855 22.349 4.2114.0596.49872-2.2068 1.7199-2.6965 1.8265-3.1378.68573-13.28 1.2593-15.596 1.4234-34.715 1.4864-63.355 1.1602-98.006-1.7365-6.7708-2.2567-5.605-5.0772-2.274-4.9622 34.857-2.8261 68.008-3.5443 102.93-2.0156v-.000692zm-45.308 34.349c10.436-.21195 18.004-.19879 28.436-.14753 9.3578.21611 11.813.17732 20.501.68365 1.5114.088 7.0755.1697 9.0475 1.0944 6.7798 2.887-.95864 5.2559-1.323 5.1624-2.4638.93163-7.4025.96973-9.6093 1.0944-8.9152.50495-11.263.46547-20.853.68435-20.569.10043-37.942-.45162-58.447-2.2747-5.1146-1.7718-2.0856-4.8244.98357-4.7281 43.469 2.2955-18.614-.55274 31.264-1.5682v-.0007zm-87.387 72.783c26.886-2.0731 41.194-2.7291 68.15-2.8358 8.5841-.0339 21.274.0831 29.858.12399 13.711.34841 23.472.37196 36.719 1.4089 7.9199.61993-41.057-1.0196 9.6093 1.8335.38512.0991 11.103 2.3786-1.3985 5.4526-24.317 2.2283-2.2234 1.2073-10.549 1.8342-13.709 1.0314-23.203 1.0508-37.441 1.4089-35.088.16763-61.614.097-96.618-2.7124-1.8584-.14893-4.5446-.25837-5.098-1.99-.56799-1.7753.38996-3.1765 1.6444-3.6503 1.8459-.6982 3.1641-.72244 5.1243-.87344zm3.5049-142.93c6.7576-.50633 17.499.14546 22.217-.03463 17.812-.68296 28.844-1.0411 46.727-1.0909 8.4948-.02355 17.81.12468 26.304.18702 14.544.40867 22.366-.85544 36.181.07966 2.9847.20156 5.9659.17316 8.9367.52434 0 0 2.0704.73145 4.4517 4.2169-.151.33732-4.0451-.93371-3.8948-1.2703.58807 1.269 2.4361 2.5809 1.7642 3.8069-.68782 1.2537-2.8101.53058-4.2294.68850-15.322 1.7109-30.782 1.7074-46.166 2.2137-8.5267.06234-17.874.21126-26.401.18771-17.706-.04918-28.54-.40174-46.168-1.0902-4.5113-.17594-14.915-1.1353-21.46-1.6451-2.1715-.16901-5.9112-.56244-8.0764-1.6347-2.8891-3.4488 2.5774-4.5328 2.9563-4.4351 2.2858-.23550 4.566-.53266 6.8573-.70374h-.00069zm32.68 106.07c15.867-3.775 44.614-.47932 73.7-.3394 10.217.29923 19.914-1.332 30.048-.48764 7.2418.0984 11.424 4.2793 5.7214 6.7922-5.4076 1.3022-2.939.6982-7.8617 1.5502-10.515.8402-20.022.94202-30.688 1.2502-31.336.15031-49.012-.44053-80.246-3.2971-5.8641-2.8898.81041-4.9047 1.19-4.8071 2.7111-.24035-7.7301 3.1135 8.1374-.66149h-.00069z"/>
  <path fill="#fff" fill-rule="evenodd" d="m111.66 85.275c8.4941 7.5957 17.415 16.799 24.751 25.15.74946.85198 1.5294 1.697 2.1126 2.6709.26321.43915.27568.98704.37819 1.4892.34979 1.715-1.0944 1.9242-2.0122 2.2698-.91708.34564-1.7136.007-2.9341-.47101-1.2205-.47932-2.8302-1.5142-2.8302-1.5142-.21057.3491-6.2748 8.961-7.9476 10.803-3.7217 4.1063-7.5623 8.1032-11.517 11.986-13.977 13.697-13.739 14.1-28.878 27.059-12.66 9.9196-17.603 14.279-30.379 22.685-2.8545 1.8785-9.7464 5.1347-9.7464 5.1347-5.6403 1.1831-9.0198.4627-4.1885-5.3058 12.587-9.4984 25.673-22.111 36.32-30.898 29.493-24.121 2.7866-3.1364 30.977-26.155 4.2612-3.4785 7.185-5.8634 11.399-9.3994 2.3897-2.0052 4.4933-3.8997 6.8255-5.9714.90184-.8021 1.6693-1.7732 2.6737-2.4402.19117-.12676.42945 1.5543.64486 1.6333.64279-.58253 1.0764-1.1221 1.0764-1.1221s-1.3458-.86652-2.9189-2.1112c-8.8106-6.9737-11.318-9.3301-20.439-17.196-19.105-17.006-37.794-34.42-54.586-53.773-.472-3.562.472-3.585 3.905-3.136 19.565 15.924 38.696 31.359 57.311 48.618h-.00069z"/>
</svg>
