<svg xmlns="http://www.w3.org/2000/svg" width="114" height="52" fill="none" viewBox="0 0 114 52"><g clip-path="url(#a)"><mask id="b" width="114" height="52" x="0" y="0" maskUnits="userSpaceOnUse" style="mask-type:luminance"><path fill="#fff" d="M113.552.207H.372V51.54h113.18V.207Z"/></mask><g mask="url(#b)"><path fill="#222120" d="M3.097 49.067H7.5l41.982-.003V2.682H3.097v46.385Z"/><path fill="#F7A823" fill-rule="evenodd" d="M21.034 2.68h28.45v28.45h2.474V.208H21.034v2.474ZM7.495 49.062H3.09V20.615H.617V51.54h30.924v-2.477H7.495Z" clip-rule="evenodd"/><path fill="#FFF7F7" d="M9.276 17.213h13.947v2.384h-5.579v14.636h-2.789V19.597H9.276v-2.384ZM25.071 17.213h10.455v2.384h-7.665v4.72h7.093V26.7h-7.093v5.15h8.07v2.383h-10.86v-17.02ZM37.44 17.213h2.79v17.02h-2.79v-17.02Z"/><path fill="#222120" d="M62.962 34.525v8.254h-1.076v-8.254h1.076ZM67.732 36.168c.789 0 1.429.241 1.917.724.489.473.733 1.16.733 2.06v3.824h-1.067v-3.67c0-.647-.16-1.141-.485-1.482-.325-.346-.767-.519-1.327-.519-.56 0-1.023.176-1.36.532-.331.355-.498.872-.498 1.552v3.587h-1.08V36.29h1.08v.924c.213-.33.5-.587.862-.77a2.719 2.719 0 0 1 1.219-.272l.006-.003ZM72.462 35.233a.707.707 0 0 1-.52-.213.707.707 0 0 1-.212-.52c0-.204.07-.377.213-.519a.707.707 0 0 1 .52-.213.65.65 0 0 1 .497.213.707.707 0 0 1 .214.52c0 .204-.072.38-.214.519a.655.655 0 0 1-.498.213Zm.523 1.055v6.488h-1.08v-6.488h1.08ZM75.897 37.17v3.826c0 .315.069.541.202.674.133.127.368.189.699.189h.794v.912h-.97c-.6 0-1.049-.14-1.349-.414-.3-.276-.451-.73-.451-1.361V37.17h-.841v-.888h.84V34.65h1.076v1.633h1.695v.888h-1.695ZM79.22 35.233a.714.714 0 0 1-.523-.213.707.707 0 0 1-.214-.52c0-.204.072-.377.214-.519a.709.709 0 0 1 .522-.213c.208 0 .362.07.498.213a.707.707 0 0 1 .214.52c0 .204-.072.38-.214.519a.655.655 0 0 1-.498.213Zm.519 1.055v6.488h-1.076v-6.488h1.076ZM80.935 39.505c0-.662.132-1.243.402-1.74a2.92 2.92 0 0 1 1.1-1.173 3.077 3.077 0 0 1 1.575-.414c.575 0 1.06.12 1.48.368.418.244.73.553.935.924v-1.184h1.088v6.488h-1.088v-1.21c-.214.381-.532.696-.959.947-.418.244-.91.368-1.469.368a2.97 2.97 0 0 1-1.561-.427 2.987 2.987 0 0 1-1.101-1.197c-.27-.513-.402-1.097-.402-1.753v.003Zm5.495.012c0-.488-.1-.915-.297-1.28a2.056 2.056 0 0 0-.804-.829 2.107 2.107 0 0 0-1.101-.296c-.402 0-.77.096-1.1.284-.332.189-.598.467-.796.829-.198.362-.296.788-.296 1.28s.098.93.296 1.302c.198.362.461.643.795.841.33.189.699.285 1.1.285.403 0 .77-.096 1.102-.285.34-.198.606-.476.804-.841.198-.371.297-.8.297-1.29ZM90.414 37.17v3.826c0 .315.068.541.201.674.133.127.368.189.7.189h.794v.912h-.971c-.6 0-1.049-.14-1.349-.414-.3-.276-.448-.73-.448-1.361V37.17H88.5v-.888h.841V34.65h1.076v1.633h1.695v.888h-1.698ZM93.736 35.233a.707.707 0 0 1-.52-.213.707.707 0 0 1-.213-.52c0-.204.071-.377.213-.519a.707.707 0 0 1 .52-.213.65.65 0 0 1 .498.213.707.707 0 0 1 .213.52c0 .204-.071.38-.213.519a.655.655 0 0 1-.498.213Zm.52 1.055v6.488h-1.077v-6.488h1.076ZM98.275 41.78l2.013-5.495h1.147l-2.545 6.488h-1.255l-2.545-6.488h1.16l2.025 5.495ZM108.18 39.282c0 .204-.013.424-.038.653h-5.185c.04.64.256 1.14.652 1.502.402.356.888.532 1.457.532.466 0 .853-.105 1.159-.318.316-.223.538-.513.662-.875h1.16a2.812 2.812 0 0 1-1.043 1.527c-.519.387-1.168.582-1.942.582a3.32 3.32 0 0 1-1.657-.415 2.96 2.96 0 0 1-1.138-1.172c-.275-.513-.414-1.104-.414-1.775 0-.67.133-1.258.402-1.765.269-.504.643-.891 1.125-1.16.489-.275 1.052-.414 1.682-.414.631 0 1.16.133 1.636.402.473.269.835.64 1.089 1.113.26.467.389.996.389 1.586l.004-.003Zm-1.114-.226c0-.41-.089-.76-.272-1.054-.182-.3-.43-.526-.745-.674a2.235 2.235 0 0 0-1.03-.238c-.544 0-1.011.173-1.398.52-.38.346-.596.828-.652 1.443h4.097v.003ZM62.962 22.57v2.759h3.009v.887h-3.01v2.842h3.365v.888h-4.44V21.68h4.44v.887h-3.364v.003ZM70.891 23.344c.789 0 1.429.241 1.917.723.489.474.733 1.16.733 2.06v3.825h-1.067v-3.67c0-.647-.16-1.142-.485-1.482-.325-.346-.767-.52-1.327-.52-.56 0-1.023.177-1.36.533-.331.355-.498.872-.498 1.552v3.587h-1.076v-6.488h1.076v.925c.213-.33.5-.587.862-.77a2.72 2.72 0 0 1 1.219-.272l.006-.003ZM74.655 26.69c0-.672.133-1.256.402-1.754.27-.504.64-.897 1.114-1.172a3.259 3.259 0 0 1 1.645-.414c.797 0 1.453.194 1.966.581.52.386.866.925 1.03 1.611h-1.16a1.667 1.667 0 0 0-.652-.937c-.315-.229-.711-.343-1.184-.343-.616 0-1.114.213-1.49.64-.381.418-.57 1.014-.57 1.787 0 .773.189 1.386.57 1.813.376.426.874.64 1.49.64.473 0 .869-.112 1.184-.331.316-.22.532-.538.653-.947h1.16a2.875 2.875 0 0 1-1.043 1.6c-.52.395-1.172.59-1.954.59-.616 0-1.166-.14-1.645-.414a2.907 2.907 0 0 1-1.114-1.172c-.269-.505-.402-1.098-.402-1.776v-.003ZM84.85 30.055c-.61 0-1.16-.14-1.658-.415a3.018 3.018 0 0 1-1.16-1.172c-.275-.513-.414-1.104-.414-1.775 0-.67.142-1.246.427-1.753.29-.513.686-.903 1.184-1.172a3.394 3.394 0 0 1 1.67-.415c.615 0 1.172.14 1.67.415.498.269.888.655 1.172 1.16.29.504.44 1.094.44 1.765 0 .671-.152 1.262-.452 1.775-.291.504-.69.897-1.197 1.172a3.459 3.459 0 0 1-1.682.415Zm0-.947c.386 0 .751-.09 1.088-.272.34-.182.612-.454.817-.816.213-.362.318-.804.318-1.327 0-.522-.102-.962-.31-1.326a1.973 1.973 0 0 0-.803-.804 2.191 2.191 0 0 0-1.076-.272c-.387 0-.758.09-1.089.272a1.926 1.926 0 0 0-.782.804c-.198.361-.297.804-.297 1.326 0 .523.096.974.284 1.34.198.361.458.636.783.816.325.173.677.26 1.067.26ZM88.946 26.676c0-.662.133-1.243.402-1.741a2.92 2.92 0 0 1 1.101-1.172 3.098 3.098 0 0 1 1.587-.415c.504 0 .974.118 1.41.356.433.229.767.532.995.912v-3.432h1.089v8.763H94.44V28.73a2.577 2.577 0 0 1-.946.959c-.417.244-.906.368-1.469.368a3.03 3.03 0 0 1-1.574-.427 2.988 2.988 0 0 1-1.1-1.197c-.27-.513-.403-1.098-.403-1.753l-.003-.003Zm5.495.012c0-.489-.099-.915-.296-1.28a2.058 2.058 0 0 0-.804-.829 2.106 2.106 0 0 0-1.101-.297c-.402 0-.77.096-1.101.285-.331.188-.597.467-.795.828-.198.362-.297.789-.297 1.28 0 .492.1.931.297 1.302.198.362.46.644.795.842.33.188.699.284 1.1.284.403 0 .77-.096 1.102-.284a2.11 2.11 0 0 0 .804-.841c.198-.372.296-.801.296-1.29ZM97.682 22.401a.707.707 0 0 1-.52-.213.707.707 0 0 1-.213-.52c0-.204.071-.38.214-.52a.707.707 0 0 1 .52-.212.65.65 0 0 1 .497.213.707.707 0 0 1 .213.52c0 .203-.07.38-.213.519a.655.655 0 0 1-.498.213Zm.52 1.055v6.488h-1.076v-6.488h1.076ZM102.965 23.344c.789 0 1.429.241 1.918.723.488.474.732 1.16.732 2.06v3.825h-1.066v-3.67c0-.647-.161-1.142-.486-1.482-.325-.346-.767-.52-1.327-.52-.559 0-1.023.177-1.36.533-.331.355-.498.872-.498 1.552v3.587h-1.076v-6.488h1.076v.925c.213-.33.501-.587.866-.77a2.719 2.719 0 0 1 1.218-.272l.003-.003ZM109.809 23.35c.56 0 1.048.123 1.469.368.427.244.742.553.946.924v-1.184h1.089v6.63c0 .59-.127 1.116-.378 1.574a2.67 2.67 0 0 1-1.088 1.089c-.467.26-1.011.39-1.633.39-.853 0-1.562-.202-2.131-.604a2.355 2.355 0 0 1-1.005-1.645h1.067c.118.396.362.711.733.946.371.245.817.368 1.339.368.591 0 1.073-.185 1.444-.556.381-.371.569-.891.569-1.562v-1.36c-.213.38-.528.695-.946.945-.417.254-.909.38-1.469.38s-1.101-.141-1.574-.426a2.988 2.988 0 0 1-1.101-1.197c-.269-.513-.402-1.097-.402-1.753 0-.656.133-1.243.402-1.741a2.92 2.92 0 0 1 1.101-1.172 3.077 3.077 0 0 1 1.574-.414h-.006Zm2.415 3.34c0-.49-.099-.916-.297-1.28a2.057 2.057 0 0 0-.804-.83 2.107 2.107 0 0 0-1.101-.296c-.402 0-.77.095-1.101.284a2.08 2.08 0 0 0-.794.829c-.198.362-.297.788-.297 1.28s.099.93.297 1.302c.198.362.461.643.794.841.331.189.699.285 1.101.285s.77-.096 1.101-.285a2.09 2.09 0 0 0 .804-.841c.198-.371.297-.801.297-1.29ZM67.255 8.865v.875h-2.251v7.379h-1.077V9.74h-2.26v-.875h5.588ZM73.608 13.624c0 .204-.012.424-.037.652h-5.186c.04.64.257 1.142.653 1.503.402.356.887.532 1.456.532.467 0 .854-.105 1.16-.318.315-.22.538-.514.662-.875h1.16a2.808 2.808 0 0 1-1.043 1.527c-.52.387-1.169.582-1.942.582-.615 0-1.169-.14-1.657-.415a2.966 2.966 0 0 1-1.138-1.172c-.276-.513-.415-1.104-.415-1.775 0-.67.133-1.258.402-1.766.27-.504.643-.89 1.126-1.16.489-.274 1.048-.414 1.682-.414.634 0 1.16.133 1.633.402.473.27.838.64 1.088 1.114.26.467.39.995.39 1.586l.006-.003Zm-1.113-.226c0-.411-.09-.76-.272-1.054-.183-.3-.43-.526-.745-.674a2.225 2.225 0 0 0-1.03-.239c-.544 0-1.011.174-1.398.52-.38.346-.597.829-.652 1.444h4.097v.003ZM78.182 17.12l-1.54-2.415-1.481 2.415h-1.126l2.097-3.223-2.097-3.268h1.219l1.54 2.403 1.468-2.403h1.126l-2.084 3.21 2.096 3.28h-1.218ZM82.187 11.518v3.826c0 .315.068.54.2.674.134.127.369.188.7.188h.794v.913h-.97c-.6 0-1.052-.14-1.349-.415-.3-.275-.451-.73-.451-1.36v-3.826h-.842v-.887h.842V8.998h1.076v1.633h1.694v.887h-1.694Z"/></g></g><defs><clipPath id="a"><path fill="#fff" d="M.379.21h113.18v51.334H.38z"/></clipPath></defs></svg>