<svg width="872" height="229" viewBox="0 0 872 229" xmlns="http://www.w3.org/2000/svg" aria-labelledby="title desc" role="img">
    <title id="title">TEI Publisher Logo</title>
    <desc id="desc">A logo consisting of a handdrawn dark-gray code bracket with orange lines on the right and the words tei publisher.</desc>
    <g fill="none" fill-rule="evenodd">
      <path d="M377.424 30.424h-14.248v-6.448l14.56-.52 1.144-14.144h7.072v14.144h24.856v6.968h-24.856v24.024c0 2.288.208 4.281.624 5.98.416 1.699 1.11 3.137 2.08 4.316.97 1.179 2.288 2.063 3.952 2.652 1.664.59 3.71.884 6.136.884 2.427 0 4.61-.208 6.552-.624a37.514 37.514 0 0 0 5.616-1.664l1.872 6.24c-2.288.832-4.819 1.543-7.592 2.132-2.773.59-5.547.884-8.32.884-3.675 0-6.76-.503-9.256-1.508-2.496-1.005-4.49-2.427-5.98-4.264-1.49-1.837-2.565-4.039-3.224-6.604-.659-2.565-.988-5.408-.988-8.528v-23.92zm48.152 18.408c0-4.16.728-7.887 2.184-11.18 1.456-3.293 3.38-6.084 5.772-8.372a25.023 25.023 0 0 1 8.216-5.252 25.786 25.786 0 0 1 9.516-1.82c3.605 0 6.83.572 9.672 1.716 2.843 1.144 5.252 2.756 7.228 4.836 1.976 2.08 3.484 4.576 4.524 7.488 1.04 2.912 1.56 6.136 1.56 9.672 0 .901-.017 1.785-.052 2.652-.035.867-.121 1.612-.26 2.236h-39.52c.07 2.704.607 5.13 1.612 7.28 1.005 2.15 2.357 3.987 4.056 5.512 1.699 1.525 3.71 2.704 6.032 3.536 2.323.832 4.87 1.248 7.644 1.248 2.981 0 5.703-.416 8.164-1.248 2.461-.832 4.87-1.976 7.228-3.432l3.016 5.616c-2.496 1.595-5.339 2.981-8.528 4.16-3.19 1.179-6.83 1.768-10.92 1.768-3.744 0-7.263-.607-10.556-1.82-3.293-1.213-6.17-2.947-8.632-5.2-2.461-2.253-4.403-5.01-5.824-8.268-1.421-3.259-2.132-6.968-2.132-11.128zm40.768-4.16c0-5.061-1.317-8.944-3.952-11.648-2.635-2.704-6.31-4.056-11.024-4.056-2.08 0-4.073.347-5.98 1.04a15.873 15.873 0 0 0-5.148 3.068c-1.525 1.352-2.808 2.999-3.848 4.94-1.04 1.941-1.733 4.16-2.08 6.656h32.032zm23.816-21.216h32.032V74h-8.528V30.424H490.16v-6.968zm26.832-10.4c-2.01 0-3.657-.59-4.94-1.768-1.283-1.179-1.924-2.773-1.924-4.784 0-2.01.641-3.623 1.924-4.836s2.93-1.82 4.94-1.82c1.941 0 3.57.607 4.888 1.82 1.317 1.213 1.976 2.825 1.976 4.836 0 2.01-.659 3.605-1.976 4.784-1.317 1.179-2.947 1.768-4.888 1.768zM381.25 158h4.375c3.965 0 7.212-.228 9.741-.684 2.53-.455 4.763-1.31 6.7-2.563 1.936-1.253 3.326-3.042 4.17-5.366.842-2.325 1.264-5.287 1.264-8.887 0-4.375-.319-7.918-.957-10.63-.638-2.711-1.812-4.933-3.52-6.665-1.71-1.732-3.92-2.928-6.631-3.589-2.712-.66-6.3-.991-10.767-.991h-4.375V158zm-17.5 70V105.5h30.625c20.417 0 30.625 11.667 30.625 35 0 9.98-2.632 17.58-7.896 22.798-5.263 5.218-12.84 7.827-22.729 7.827H381.25V228h-17.5zm82.92 1.23c-3.828 0-6.904-1.355-9.229-4.067-2.324-2.712-3.486-6.072-3.486-10.083V140.5h17.5v69.248c0 1.823.558 3.304 1.675 4.443 1.116 1.14 2.563 1.71 4.34 1.71.958 0 1.892-.115 2.803-.342.912-.228 1.812-.627 2.7-1.197a93.04 93.04 0 0 0 2.086-1.367c.5-.342 1.219-.923 2.153-1.743a73.766 73.766 0 0 1 1.743-1.504V140.5h17.5V228h-17.5v-9.434a869.09 869.09 0 0 1-3.794 3.282c-.797.683-2.016 1.606-3.657 2.768-1.64 1.162-3.088 2.005-4.34 2.53-1.254.524-2.815 1.002-4.684 1.435a25.66 25.66 0 0 1-5.81.65zm85.586-14.355c1.868 0 3.43-.684 4.682-2.05 1.254-1.368 2.165-3.316 2.735-5.846.57-2.529.957-5.047 1.162-7.553.205-2.507.308-5.423.308-8.75 0-2.461-.012-5.72-.035-9.776-.022-4.056-.034-7.109-.034-9.16 0-2.05-.045-3.84-.136-5.366a31.821 31.821 0 0 0-.684-4.82c-.365-1.686-.855-3.075-1.47-4.17a7.643 7.643 0 0 0-2.563-2.7c-1.094-.706-2.416-1.059-3.965-1.059-4.83 0-9.206 1.162-13.125 3.486v55.03c4.512 1.823 8.887 2.734 13.125 2.734zm4.375 14.355c-3.555 0-6.7-.843-9.434-2.529-2.734-1.686-5.423-3.896-8.066-6.63V228h-17.5V105.568h17.5v43.614c1.64-1.732 2.87-2.985 3.691-3.76.82-.775 2.017-1.755 3.59-2.94 1.571-1.184 3.2-2.016 4.887-2.495 1.686-.478 3.555-.717 5.605-.717 2.963 0 5.606.535 7.93 1.606 2.324 1.07 4.238 2.358 5.742 3.862 1.504 1.504 2.78 3.669 3.828 6.494 1.048 2.826 1.835 5.378 2.359 7.657.524 2.278.923 5.354 1.196 9.228.273 3.874.433 7.007.479 9.4.045 2.392.068 5.685.068 9.878v1.162c0 3.828-.194 7.52-.581 11.074-.388 3.555-1.094 7.178-2.12 10.869-1.025 3.691-2.324 6.881-3.896 9.57a19.568 19.568 0 0 1-6.289 6.597c-2.62 1.709-5.617 2.563-8.99 2.563zM572.93 228V105.5h17.5V228h-17.5zm33.838-100.625v-17.5h17.5v17.5h-17.5zm0 100.625v-87.5h17.5V228h-17.5zm57.216 1.23c-7.2 0-12.976-2.141-17.329-6.425-4.352-4.284-7.326-9.844-8.92-16.68l13.124-4.375c3.145 8.75 7.52 13.125 13.125 13.125 2.78 0 4.934-.763 6.46-2.29 1.527-1.527 2.29-3.68 2.29-6.46 0-4.056-1.458-7.428-4.375-10.117l-17.5-13.125c-1.96-1.322-3.6-2.564-4.922-3.726-1.321-1.162-2.666-2.586-4.033-4.272a18.115 18.115 0 0 1-3.11-5.674c-.706-2.096-1.06-4.375-1.06-6.836 0-7.474 2.382-13.193 7.144-17.158 4.762-3.965 11.131-5.947 19.106-5.947 3.783 0 7.2.603 10.254 1.811 3.054 1.208 5.617 2.905 7.69 5.093a30.483 30.483 0 0 1 5.128 7.28c1.344 2.666 2.404 5.64 3.178 8.921l-13.125 4.375c-.638-1.732-1.276-3.224-1.914-4.478-.638-1.253-1.492-2.609-2.563-4.067-1.071-1.458-2.336-2.586-3.794-3.384-1.458-.797-3.076-1.196-4.854-1.196-2.78 0-4.933.763-6.46 2.29-1.526 1.527-2.29 3.68-2.29 6.46 0 2.734 1.459 5.195 4.375 7.383l17.5 13.125c1.96 1.55 3.635 3.042 5.025 4.477 1.39 1.436 2.746 3.1 4.067 4.99 1.322 1.892 2.324 4 3.008 6.324.684 2.324 1.025 4.808 1.025 7.451 0 7.474-2.38 13.193-7.143 17.158-4.763 3.965-11.131 5.947-19.107 5.947zm36.914-1.23V105.5h17.5v44.434c2.598-2.37 4.717-4.182 6.358-5.435 1.64-1.253 3.908-2.438 6.802-3.555 2.894-1.116 5.981-1.674 9.262-1.674 3.737 0 6.768 1.367 9.092 4.101 2.324 2.734 3.486 6.084 3.486 10.049V228h-17.5v-65.625c0-3.008-.376-5.218-1.127-6.63-.752-1.414-2.382-2.12-4.888-2.12-3.555 0-7.383 1.709-11.485 5.127V228h-17.5zm92.559 1.23c-4.238 0-7.918-.729-11.04-2.187-3.122-1.458-5.605-3.361-7.451-5.708-1.846-2.347-3.338-5.355-4.478-9.023a61.265 61.265 0 0 1-2.358-11.006c-.433-3.669-.695-7.941-.786-12.818a160.832 160.832 0 0 1 0-11.484c.136-4.557.444-8.602.923-12.134a50.976 50.976 0 0 1 2.495-10.288c1.185-3.327 2.723-6.061 4.614-8.203 1.891-2.142 4.375-3.862 7.451-5.161 3.076-1.3 6.665-1.948 10.767-1.948 3.737 0 7.03.49 9.878 1.47s5.218 2.46 7.11 4.443a28.584 28.584 0 0 1 4.716 6.596c1.253 2.416 2.199 5.344 2.837 8.784a94.689 94.689 0 0 1 1.333 10.152c.25 3.327.376 7.155.376 11.484v2.051h-35v7.178a56.904 56.904 0 0 0-.034 5.23c.068 1.8.148 3.565.239 5.297a24.74 24.74 0 0 0 .752 4.956c.41 1.572.911 2.951 1.504 4.136.592 1.185 1.424 2.119 2.495 2.803 1.07.683 2.335 1.025 3.794 1.025 1.823 0 3.327-.353 4.511-1.06 1.185-.706 2.063-1.766 2.632-3.178a19.71 19.71 0 0 0 1.197-4.239c.227-1.412.364-3.19.41-5.332v-3.691h17.363v3.486c-.41 9.343-2.712 16.407-6.904 21.192-4.193 4.785-10.641 7.177-19.346 7.177zm-8.613-53.73h17.363v-5.264c-.046-2.324-.182-4.352-.41-6.084a28.503 28.503 0 0 0-1.196-5.195c-.57-1.732-1.447-3.053-2.632-3.965-1.185-.911-2.643-1.367-4.375-1.367-1.778 0-3.27.479-4.478 1.436-1.207.957-2.096 2.335-2.666 4.135-.57 1.8-.968 3.566-1.196 5.298-.228 1.732-.365 3.805-.41 6.22v4.786zM832.49 228v-87.5h17.5v11.69c1.778-3.464 4.364-6.483 7.759-9.058 3.395-2.575 7.166-3.862 11.313-3.862.137 0 1.071.09 2.803.273v19.346c-3.235-1.276-6.471-1.914-9.707-1.914-3.646 0-6.585 1.093-8.818 3.28-2.233 2.188-3.35 5.082-3.35 8.683V228h-17.5z" fill="#5E5C5C"/>
      <path d="M298.995 59.698c38.39.807-27.728.256-9.737 1.82 10.062 1.229 31.767 1.129 32.473 6.11.086.723-3.207 2.495-3.919 2.65-4.56.996-19.297 1.827-22.661 2.067-50.442 2.156-92.057 1.683-142.406-2.521-9.839-3.275-8.145-7.368-3.305-7.2 50.65-4.102 98.819-5.144 149.555-2.926zm-65.835 49.846c15.163-.308 26.16-.289 41.318-.215 13.597.313 17.164.258 29.79.992 2.196.128 10.28.246 13.146 1.59 9.85 4.188-1.393 7.626-1.923 7.49-3.58 1.351-10.756 1.408-13.962 1.589-12.955.731-16.366.674-30.3.992-29.887.146-55.13-.656-84.926-3.301-7.432-2.57-3.03-7 1.43-6.862 63.162 3.332-27.047-.8 45.427-2.275zM106.183 215.161c39.068-3.008 59.857-3.96 99.025-4.115 12.474-.05 30.912.12 43.385.18 19.923.506 34.106.54 53.354 2.044 11.508.9-59.658-1.48 13.962 2.662.56.143 16.134 3.45-2.032 7.912-35.333 3.234-3.23 1.752-15.329 2.661-19.92 1.497-33.714 1.526-54.403 2.044-50.983.244-89.528.142-140.389-3.935-2.7-.217-6.603-.375-7.407-2.888-.825-2.576.566-4.61 2.39-5.298 2.681-1.013 4.596-1.047 7.444-1.267zM111.277 7.75c9.818-.734 25.427.212 32.282-.05 25.882-.99 41.91-1.51 67.896-1.583 12.343-.034 25.878.182 38.221.273 21.133.591 32.5-1.243 52.572.114 4.337.293 8.669.25 12.986.761 0 0 3.008 1.061 6.469 6.12-.22.489-5.88-1.355-5.66-1.844.854 1.841 3.54 3.745 2.563 5.524-.999 1.82-4.082.77-6.145 1-22.262 2.481-44.727 2.478-67.081 3.212-12.39.091-25.971.307-38.36.272-25.728-.07-41.47-.583-67.085-1.582-6.555-.255-21.672-1.647-31.182-2.387-3.155-.246-8.589-.816-11.735-2.372-4.198-5.005 3.745-6.578 4.296-6.436 3.321-.34 6.634-.773 9.963-1.022zm47.485 153.929c23.055-5.478 64.825-.696 107.088-.494 14.846.435 28.936-1.932 43.66-.707 10.523.143 16.6 6.21 8.314 9.857-7.858 1.89-4.271 1.013-11.423 2.25-15.279 1.22-29.094 1.368-44.591 1.814-45.533.218-71.216-.639-116.6-4.784-8.522-4.194 1.178-7.118 1.728-6.977 3.94-.348-11.232 4.519 11.824-.96z" fill="#F6A623"/>
      <path d="M109.936 71.947c12.342 11.023 25.304 24.379 35.964 36.496 1.089 1.238 2.222 2.463 3.07 3.876.381.638.4 1.433.549 2.16.509 2.49-1.59 2.794-2.923 3.295-1.333.502-2.491.011-4.264-.684-1.773-.695-4.112-2.196-4.112-2.196-.307.506-9.118 13.004-11.549 15.677a414.283 414.283 0 0 1-16.735 17.393c-20.308 19.876-19.963 20.462-41.96 39.268-18.396 14.395-25.578 20.721-44.141 32.92-4.148 2.725-14.162 7.45-14.162 7.45-8.195 1.717-13.106.671-6.086-7.699 18.29-13.785 37.305-32.088 52.775-44.839 42.855-35.002 4.049-4.55 45.011-37.954 6.192-5.049 10.44-8.51 16.563-13.64 3.472-2.91 6.529-5.66 9.918-8.666 1.31-1.163 2.425-2.573 3.885-3.541.277-.184.625 2.255.937 2.37.934-.845 1.563-1.629 1.563-1.629s-1.955-1.257-4.24-3.063c-12.802-10.12-16.447-13.54-29.7-24.954C72.544 59.299 45.39 34.03 20.989 5.944c-.686-5.169.686-5.202 5.674-4.55C55.091 24.503 82.888 46.9 109.936 71.947z" fill="#5E5C5C"/>
    </g>
</svg>
