<svg width="540" height="382" viewBox="0 0 540 382" xmlns="http://www.w3.org/2000/svg" aria-labelledby="title desc" role="img">
  <title id="title">TEI Publisher Icon</title>
  <desc id="desc">An icon consisting of a handdrawn white code bracket with orange lines on the right.</desc>
    <g fill="none" fill-rule="evenodd">
        <path d="M501.256 98.405c64.359 1.354-46.485.43-16.324 3.05 16.869 2.062 53.257 1.894 54.44 10.245.145 1.213-5.376 4.183-6.57 4.444-7.643 1.669-32.35 3.062-37.99 3.463-84.564 3.615-154.33 2.822-238.74-4.226-16.494-5.49-13.654-12.352-5.54-12.071 84.913-6.876 165.667-8.623 250.724-4.905zm-110.37 83.566c25.42-.517 43.858-.485 69.269-.36 22.794.525 28.774.431 49.941 1.663 3.682.214 17.235.413 22.04 2.664 16.514 7.022-2.337 12.785-3.225 12.557-6 2.266-18.031 2.36-23.407 2.664-21.717 1.227-27.437 1.131-50.795 1.663-50.105.245-92.426-1.098-142.378-5.533-12.459-4.31-5.08-11.737 2.397-11.503 105.89 5.585-45.343-1.344 76.158-3.815zM178.013 359.035c65.496-5.043 100.349-6.638 166.013-6.898 20.91-.083 51.822.2 72.733.3 33.4.85 57.178.906 89.446 3.428 19.293 1.508-100.015-2.48 23.407 4.461.938.241 27.049 5.786-3.406 13.265-59.235 5.421-5.416 2.938-25.698 4.462-33.395 2.51-56.521 2.557-91.206 3.427-85.472.409-150.09.238-235.358-6.598-4.528-.363-11.07-.628-12.418-4.841-1.383-4.32.95-7.728 4.006-8.882 4.496-1.698 7.707-1.756 12.481-2.124zm8.54-347.72c16.46-1.232 42.627.354 54.12-.085 43.39-1.66 70.262-2.532 113.825-2.653 20.693-.057 43.385.305 64.077.457 35.429.992 54.484-2.083 88.135.191 7.271.492 14.533.421 21.77 1.277 0 0 5.043 1.779 10.845 10.26-.368.82-9.856-2.272-9.488-3.092 1.432 3.087 5.935 6.278 4.297 9.261-1.675 3.05-6.844 1.29-10.302 1.676-37.322 4.16-74.985 4.154-112.46 5.386-20.77.152-43.54.514-64.31.456-43.131-.12-69.522-.978-112.464-2.653-10.99-.428-36.333-2.761-52.276-4.002-5.29-.412-14.4-1.368-19.674-3.977-7.038-8.39 6.279-11.027 7.202-10.79 5.567-.57 11.122-1.294 16.703-1.712zM266.16 269.37c38.652-9.183 108.676-1.166 179.53-.827 24.888.729 48.51-3.239 73.194-1.185 17.642.24 27.83 10.411 13.939 16.525-13.174 3.167-7.161 1.698-19.15 3.772-25.615 2.044-48.776 2.292-74.757 3.041-76.334.365-119.391-1.071-195.477-8.021-14.285-7.031 1.976-11.933 2.899-11.696 6.604-.583-18.83 7.575 19.822-1.609z" fill="#F6A623"/>
        <path d="M184.305 118.941c20.69 18.479 42.421 40.87 60.292 61.185 1.825 2.074 3.725 4.128 5.146 6.498.64 1.068.671 2.4.92 3.621.854 4.173-2.665 4.684-4.9 5.524-2.234.84-4.175.018-7.148-1.147-2.972-1.166-6.894-3.682-6.894-3.682-.513.849-15.285 21.8-19.36 26.283-9.074 9.98-18.416 19.724-28.056 29.158-34.047 33.321-33.467 34.304-70.345 65.832C83.12 336.345 71.08 346.95 39.96 367.4c-6.954 4.569-23.743 12.492-23.743 12.492-13.738 2.877-21.972 1.124-10.202-12.908 30.662-23.11 62.54-53.795 88.476-75.172 71.844-58.68 6.787-7.629 75.46-63.628 10.379-8.464 17.5-14.267 27.766-22.869 5.822-4.878 10.945-9.486 16.627-14.527 2.197-1.95 4.065-4.314 6.514-5.937.465-.308 1.047 3.782 1.57 3.974 1.565-1.417 2.622-2.73 2.622-2.73s-3.279-2.108-7.11-5.137c-21.461-16.965-27.572-22.698-49.79-41.834C121.616 97.737 76.092 55.375 35.185 8.289 34.036-.376 36.337-.432 44.7.659c47.659 38.743 94.26 76.293 139.606 118.282z" fill="#FFF"/>
    </g>
</svg>
