<?xml version="1.0" encoding="UTF-8"?>
<svg xmlns="http://www.w3.org/2000/svg">
    <metadata>
Created by FontPrep 20130207 at Sun Apr  5 09:41:44 2015
 By Wolfgang Meier
Copyright (c) 1998-2012 by Peter S. Baker
</metadata>
    <defs>
        <font id="bcc2a169a734227a88d2dcb4adf531fd" horiz-adv-x="1024">
            <font-face font-family="Junicode" font-weight="400" font-stretch="normal" units-per-em="2048" panose-1="2 4 5 2 0 0 0 0 0 0" ascent="1638" descent="-410" x-height="856" cap-height="1363" bbox="-1333 -946 3152 2073" underline-thickness="70" underline-position="-100" unicode-range="U+000D-1034A"/>
            <missing-glyph horiz-adv-x="1024" d="M68 -132v1640h864v-1640h-864zM534 86q0 39 -20 71q-36 56 -100 56q-38 0 -68 -21q-50 -37 -50 -106q0 -37 29 -77t77 -40t78 17q54 33 54 100zM354 1194q292 0 292 -199q0 -89 -116 -151l-106 -56q-114 -62 -114 -144t76 -218q8 -8 26 -6t18 18q-20 70 -20 122t74 93 l166 88q82 43 81 196t-117 294q-114 131 -244 131q-84 0 -84 -84t68 -84z"/>
            <glyph glyph-name="IJ" unicode="IJ" horiz-adv-x="1501" d="M265 186v986q0 115 -189 115q-14 0 -14 38t14 38q44 -5 264 -5t265 5q13 0 13 -38t-13 -38q-105 0 -143 -25t-37 -90v-986q0 -117 180 -117q13 0 13 -38t-13 -38q-86 7 -259 7t-259 -7q-13 0 -13 38t13 38q178 0 178 117zM1026 260v912q0 115 -190 115q-14 0 -14 38 t14 38q47 -5 265 -5t277 5q14 0 14 -38t-14 -38q-192 0 -192 -115v-538q0 -716 -71 -818t-155 -168q-84 -67 -193 -67q-54 1 -92 31t-38 76q-1 46 29 70q30 26 84 26t94 -34q41 -34 50 -67q70 24 101 114t31 463z"/>
            <glyph glyph-name="ij" unicode="ij" horiz-adv-x="1061" d="M365 1157q0 -45 -32 -77t-77 -32q-46 0 -76 32t-30 77t30 75t76 31q45 -1 77 -31t32 -75zM280 0q-111 0 -192 -8q-14 0 -14 28t14 29q113 0 113 78v444q0 138 -92 138q-17 0 -17 28t17 28q33 0 97 34t98 59q32 25 44 25t12 -16q-6 -108 -6 -166v-574q0 -78 113 -78 q14 -1 14 -29t-14 -28q-76 8 -187 8zM900 59q0 -329 -110 -483q-93 -131 -248 -131q-50 0 -88 28t-37 64t25 55t63 19t79 -39t64 -39q99 0 99 213v825q0 138 -92 138q-17 0 -17 28t17 28q33 0 97 34t98 59q32 25 44 25t12 -16q-6 -108 -6 -166v-642zM907 1157q0 -45 -32 -77 t-77 -32q-46 0 -76 32t-30 77t30 75t76 31q45 -1 77 -31t32 -75z"/>
            <glyph glyph-name="uni01C4" unicode="DŽ" horiz-adv-x="2766" d="M2190 1524q-22 0 -43 22l-260 249q-4 4 -4 10q0 7 8 15q9 8 15 8t10 -2l241 -139q15 -9 33 -9t35 9l246 139q1 1 7 1t16 -12t1 -20l-260 -249q-23 -22 -45 -22zM2008 0h-365q-35 0 -35 24q0 13 10 27l875 1198q9 12 9 21q0 21 -31 21h-554q-55 0 -77 -30 q-72 -93 -96 -155t-44 -129q-2 -7 -24 -7t-25 14q33 213 33 363q0 18 37 18q97 -9 147 -9h481q152 0 368 8q25 0 25 -14t-14 -32l-863 -1200q-9 -12 -9 -24q0 -25 30 -25q435 0 640 13q80 5 163 163q39 74 47 107q2 12 26 4t24 -20q-48 -236 -48 -353q0 -13 -15 -16 q-115 33 -715 33zM431 298q0 -149 60 -197t191 -48q256 0 408 181t151 482q0 252 -177 416t-443 165q-95 -1 -125 -9q-64 -18 -65 -107v-883zM78 30q0 38 13 39q180 0 180 117v986q0 110 -189 110q-14 0 -14 38t14 38q140 -6 240 -6l381 6q311 0 520 -167t209 -476 t-184 -515t-497 -207l-439 7q-98 0 -221 -7q-13 -1 -13 37z"/>
            <glyph glyph-name="uni01C5" unicode="Dž" horiz-adv-x="2260" d="M2207 10q0 -37 -27 -37q-10 -1 -68 13t-95 14h-420q-17 0 -17 14q0 6 2 9l398 729q8 15 8 23q0 18 -29 18h-158q-78 0 -131 -107l-61 -123q-3 -7 -13 -3t-10 9l37 267q5 37 23 34l103 -16q26 -4 77 -4h346q15 0 15 -7t-5 -16l-397 -723q-6 -11 -6 -18q0 -18 27 -22 q26 -4 68 -4t73 1q106 0 170 72q24 27 80 152q4 9 23 4t18 -13q-31 -229 -31 -266zM1902 1022q-22 0 -38 28l-209 371l-2 4q0 23 27 23q5 0 8 -4l185 -217q21 -25 29 -25t30 25l184 217q3 4 6 4q29 0 29 -23l-211 -375q-16 -28 -38 -28zM431 298q0 -149 60 -197t191 -48 q256 0 408 181t151 482q0 252 -177 416t-443 165q-95 -1 -125 -9q-64 -18 -65 -107v-883zM78 30q0 38 13 39q180 0 180 117v986q0 110 -189 110q-14 0 -14 38t14 38q140 -6 240 -6l381 6q311 0 520 -167t209 -476t-184 -515t-497 -207l-439 7q-98 0 -221 -7q-13 -1 -13 37z "/>
            <glyph glyph-name="uni01C6" unicode="dž" horiz-adv-x="1747" d="M1694 10q0 -37 -27 -37q-11 -1 -69 13t-94 14h-420q-17 0 -17 14q0 6 2 9l398 729q8 15 8 23q0 18 -29 18h-158q-78 0 -131 -107l-61 -123q-4 -7 -14 -3t-9 9l37 267q5 37 23 34l103 -16q26 -4 77 -4h346q15 0 15 -7t-5 -16l-397 -723q-6 -11 -6 -18q0 -18 27 -22t69 -4 t72 1q106 0 170 72q24 27 80 152q4 9 23 4t18 -13q-31 -229 -31 -266zM1389 1022q-22 0 -38 28l-209 371l-2 4q0 23 27 23q5 0 8 -4l185 -217q21 -25 29 -25t30 25l184 217q3 4 6 4q29 0 29 -23l-211 -375q-16 -28 -38 -28zM688 199v469q0 75 -22 94q-59 49 -148 49 q-134 1 -212 -111t-77 -260q0 -148 83 -257t192 -109q78 0 131 41t53 84zM841 231q0 -149 82 -149q11 0 47 6q12 2 16 -27t-4 -30q-37 -5 -153 -31t-124 -33q-17 0 -17 49v41q0 23 -12 23t-27 -14q-94 -89 -196 -89q-197 1 -292 123t-95 311t132 324t343 135q70 0 98 -9 t35 -9q14 0 14 25v294q0 140 -92 140q-17 -1 -17 27t17 28q24 0 96 36t104 60q32 23 42 23t9 -15l-6 -108v-1131z"/>
            <glyph glyph-name="uni01C7" unicode="LJ" horiz-adv-x="2060" d="M1636 260v912q0 115 -190 115q-14 0 -14 38t14 38q47 -5 265 -5t277 5q14 0 14 -38t-14 -38q-192 0 -192 -115v-538q0 -716 -71 -818t-155 -168q-84 -67 -193 -67q-54 1 -92 31t-38 76q-1 46 29 70q30 26 84 26t94 -34q41 -34 50 -67q70 24 101 114t31 463zM82 31 q0 38 13 38q176 0 176 108v995q0 115 -189 115q-14 0 -14 38t14 38q46 -5 262 -5t261 5q13 0 13 -38t-13 -38q-174 0 -174 -115v-895q-1 -121 69 -181q40 -34 109 -34l313 13q124 5 194 91t70 213q0 13 39 13t39 -13v-352q0 -28 -36 -32q-14 -2 -45 -2l-833 7 q-112 0 -255 -7q-13 0 -13 38z"/>
            <glyph glyph-name="uni01C8" unicode="Lj" horiz-adv-x="1862" d="M1702 59q0 -329 -110 -483q-93 -131 -248 -131q-50 0 -88 28t-37 64t25 55t63 19t79 -39t64 -39q99 0 99 213v825q0 138 -92 138q-17 0 -17 28t17 28q33 0 97 34t98 59q32 25 44 25t12 -16q-6 -108 -6 -166v-642zM1709 1157q0 -45 -32 -77t-77 -32q-46 0 -76 32t-30 77 t30 75t76 31q45 -1 77 -31t32 -75zM82 31q0 38 13 38q176 0 176 108v995q0 115 -189 115q-14 0 -14 38t14 38q46 -5 262 -5t261 5q13 0 13 -38t-13 -38q-174 0 -174 -115v-895q-1 -121 69 -181q40 -34 109 -34l313 13q124 5 194 91t70 213q0 13 39 13t39 -13v-352 q0 -28 -36 -32q-14 -2 -45 -2l-833 7q-112 0 -255 -7q-13 0 -13 38z"/>
            <glyph glyph-name="uni01C9" unicode="lj" horiz-adv-x="999" d="M858 59q0 -329 -110 -483q-93 -131 -248 -131q-50 0 -88 28t-37 64t25 55t63 19t79 -39t64 -39q99 0 99 213v825q0 138 -92 138q-17 0 -17 28t17 28q33 0 97 34t98 59q32 25 44 25t12 -16q-6 -108 -6 -166v-642zM865 1157q0 -45 -32 -77t-77 -32q-46 0 -76 32t-30 77 t30 75t76 31q45 -1 77 -31t32 -75zM354 127q0 -78 119 -78q14 -1 14 -29t-14 -28q-77 8 -193 8t-196 -8q-14 0 -14 28t14 29q117 0 117 78v1044q0 140 -92 140q-17 -1 -17 27t17 28q46 0 165 74q34 21 50 33t26 12t10 -15q-6 -57 -6 -97v-1246z"/>
            <glyph glyph-name="uni01CA" unicode="NJ" horiz-adv-x="2198" d="M1774 260v912q0 115 -190 115q-14 0 -14 38t14 38q47 -5 265 -5t277 5q14 0 14 -38t-14 -38q-192 0 -192 -115v-538q0 -716 -71 -818t-155 -168q-84 -67 -193 -67q-54 1 -92 31t-38 76q-1 46 29 70q30 26 84 26t94 -34q41 -34 50 -67q70 24 101 114t31 463zM257 186v924 q1 101 -45 139t-143 38q-13 0 -13 38t13 38q44 -5 149 -5t137 -8t59 -41l758 -977q10 -13 24 -13q23 0 23 33v819q0 116 -171 116q-14 0 -14 38t14 38q46 -5 188 -5t187 5q13 0 13 -38t-13 -38q-136 0 -136 -116v-1142q1 -50 -17 -50t-42 30l-867 1095q-11 13 -22 13 t-11 -18v-913q0 -117 159 -117q13 0 13 -38t-13 -38q-81 7 -197 7t-200 -7q-14 0 -14 38t14 38q167 0 167 117z"/>
            <glyph glyph-name="uni01CB" unicode="Nj" horiz-adv-x="2000" d="M1840 59q0 -329 -110 -483q-93 -131 -248 -131q-50 0 -88 28t-37 64t25 55t63 19t79 -39t64 -39q99 0 99 213v825q0 138 -92 138q-17 0 -17 28t17 28q33 0 97 34t98 59q32 25 44 25t12 -16q-6 -108 -6 -166v-642zM1847 1157q0 -45 -32 -77t-77 -32q-46 0 -76 32t-30 77 t30 75t76 31q45 -1 77 -31t32 -75zM257 186v924q1 101 -45 139t-143 38q-13 0 -13 38t13 38q44 -5 149 -5t137 -8t59 -41l758 -977q10 -13 24 -13q23 0 23 33v819q0 116 -171 116q-14 0 -14 38t14 38q46 -5 188 -5t187 5q13 0 13 -38t-13 -38q-136 0 -136 -116v-1142 q1 -50 -17 -50t-42 30l-867 1095q-11 13 -22 13t-11 -18v-913q0 -117 159 -117q13 0 13 -38t-13 -38q-81 7 -197 7t-200 -7q-14 0 -14 38t14 38q167 0 167 117z"/>
            <glyph glyph-name="uni01CC" unicode="nj" horiz-adv-x="1559" d="M1413 59q0 -329 -110 -483q-93 -131 -248 -131q-49 0 -87 28t-38 64t24 55t64 19q38 0 78 -39t65 -39q99 0 99 213v825q0 138 -92 138q-17 0 -17 28t17 28q34 0 98 34t97 59t45 25t11 -16q-6 -108 -6 -166v-642zM1420 1157q0 -45 -32 -77t-77 -32t-75 32t-31 77 q1 45 31 75t75 31q45 -1 77 -31t32 -75zM896 127q0 -78 115 -78q14 -1 14 -29t-14 -28q-77 8 -187 8t-191 -8q-14 0 -14 28t14 29q110 0 110 78v403q0 178 -60 226q-31 24 -91 24t-94 -17q-144 -72 -144 -173v-463q0 -78 107 -78q14 -1 14 -29t-14 -28q-77 8 -187 8t-188 -8 q-14 0 -14 28t14 29q115 0 115 78v447q0 128 -84 128q-17 0 -17 28t17 28q69 0 174 92q37 32 51 33q14 0 14 -31l-2 -73q-1 -21 14 -21q8 0 15 6q107 106 257 106t223 -147q33 -66 33 -248v-348z"/>
            <glyph glyph-name="uni01F1" unicode="DZ" horiz-adv-x="2766" d="M2008 0h-365q-35 0 -35 24q0 13 10 27l875 1198q9 12 9 21q0 21 -31 21h-554q-55 0 -77 -30q-72 -93 -96 -155t-44 -129q-2 -7 -24 -7t-25 14q33 213 33 363q0 18 37 18q97 -9 147 -9h481q152 0 368 8q25 0 25 -14t-14 -32l-863 -1200q-9 -12 -9 -24q0 -25 30 -25 q435 0 640 13q80 5 163 163q39 74 47 107q2 12 26 4t24 -20q-48 -236 -48 -353q0 -13 -15 -16q-115 33 -715 33zM431 298q0 -149 60 -197t191 -48q256 0 408 181t151 482q0 252 -177 416t-443 165q-95 -1 -125 -9q-64 -18 -65 -107v-883zM78 30q0 38 13 39q180 0 180 117 v986q0 110 -189 110q-14 0 -14 38t14 38q140 -6 240 -6l381 6q311 0 520 -167t209 -476t-184 -515t-497 -207l-439 7q-98 0 -221 -7q-13 -1 -13 37z"/>
            <glyph glyph-name="uni01F2" unicode="Dz" horiz-adv-x="2260" d="M2207 10q0 -37 -27 -37q-10 -1 -68 13t-95 14h-420q-17 0 -17 14q0 6 2 9l398 729q8 15 8 23q0 18 -29 18h-158q-78 0 -131 -107l-61 -123q-3 -7 -13 -3t-10 9l37 267q5 37 23 34l103 -16q26 -4 77 -4h346q15 0 15 -7t-5 -16l-397 -723q-6 -11 -6 -18q0 -18 27 -22 q26 -4 68 -4t73 1q106 0 170 72q24 27 80 152q4 9 23 4t18 -13q-31 -229 -31 -266zM431 298q0 -149 60 -197t191 -48q256 0 408 181t151 482q0 252 -177 416t-443 165q-95 -1 -125 -9q-64 -18 -65 -107v-883zM78 30q0 38 13 39q180 0 180 117v986q0 110 -189 110 q-14 0 -14 38t14 38q140 -6 240 -6l381 6q311 0 520 -167t209 -476t-184 -515t-497 -207l-439 7q-98 0 -221 -7q-13 -1 -13 37z"/>
            <glyph glyph-name="uni01F3" unicode="dz" horiz-adv-x="1742" d="M1677 10q0 -37 -27 -37q-10 -1 -68 13t-95 14h-420q-17 0 -17 14q0 6 2 9l398 729q8 15 8 23q0 18 -29 18h-158q-78 0 -131 -107l-61 -123q-3 -7 -13 -3t-10 9l37 267q5 37 23 34l103 -16q26 -4 77 -4h346q15 0 15 -7t-5 -16l-397 -723q-6 -11 -6 -18q0 -18 27 -22 q26 -4 68 -4t73 1q106 0 170 72q24 27 80 152q4 9 23 4t18 -13q-31 -229 -31 -266zM688 199v469q0 75 -22 94q-59 49 -148 49q-134 1 -212 -111t-77 -260q0 -148 83 -257t192 -109q78 0 131 41t53 84zM841 231q0 -149 82 -149q11 0 47 6q12 2 16 -27t-4 -30q-37 -5 -153 -31 t-124 -33q-17 0 -17 49v41q0 23 -12 23t-27 -14q-94 -89 -196 -89q-197 1 -292 123t-95 311t132 324t343 135q70 0 98 -9t35 -9q14 0 14 25v294q0 140 -92 140q-17 -1 -17 27t17 28q24 0 96 36t104 60q32 23 42 23t9 -15l-6 -108v-1131z"/>
            <glyph glyph-name="twodotenleader" unicode=".." horiz-adv-x="1063" d="M266 211q65 0 97 -55q18 -30 18 -68q0 -65 -54 -97q-27 -16 -61 -16q-74 0 -109 56q-18 29 -18 65q0 68 58 99q30 16 69 16zM797 211q65 0 97 -55q18 -30 18 -68q0 -65 -54 -97q-27 -16 -61 -16q-74 0 -109 56q-18 29 -18 65q0 68 58 99q30 16 69 16z"/>
            <glyph glyph-name="ellipsis" unicode="..." horiz-adv-x="1591" d="M139 98q0 51 36 82t91 31t85 -37t30 -87.5t-34.5 -81t-87.5 -30.5t-86.5 36t-33.5 87zM1183 98q0 51 36 82t91 31t85 -37t30 -87.5t-34.5 -81t-87.5 -30.5t-86.5 36t-33.5 87zM670 98q0 51 36 82t91 31t85 -37t30 -87.5t-34.5 -81t-87.5 -30.5t-86.5 36t-33.5 87z"/>
            <glyph glyph-name="uni2036" unicode="‵‵" horiz-adv-x="894" d="M119 1419q0 32 37 50t65 18t38 -23l206 -467q5 -10 5 -22q0 -37 -33 -37q-23 0 -41 29l-271 434q-6 9 -6 18zM439 1419q0 32 37 50t65 18t38 -23l206 -467q5 -10 5 -22q0 -37 -33 -37q-23 0 -41 29l-271 434q-6 9 -6 18z"/>
            <glyph glyph-name="uni2037" unicode="‵‵‵" horiz-adv-x="1274" d="M119 1419q0 32 37 50t65 18t38 -23l206 -467q5 -10 5 -22q0 -37 -33 -37q-23 0 -41 29l-271 434q-6 9 -6 18zM444 1419q0 32 37 50t65 18t38 -23l206 -467q5 -10 5 -22q0 -37 -33 -37q-23 0 -41 29l-271 434q-6 9 -6 18zM794 1419q0 32 37 50t65 18t38 -23l206 -467 q5 -10 5 -22q0 -37 -33 -37q-23 0 -41 29l-271 434q-6 9 -6 18z"/>
            <glyph glyph-name="exclamdbl" unicode="!!" horiz-adv-x="880" d="M166 1275q0 56 30.5 90t67.5 34q103 0 103 -111q0 -63 -31 -354.5t-43 -497.5q-1 -16 -33 -16t-33 16q-8 199 -34.5 491t-26.5 348zM260 211q61 0 91 -37t30 -87.5t-34.5 -81t-87.5 -30.5t-86.5 36t-33.5 87t30 82t91 31zM522 1275q0 56 30.5 90t67.5 34q103 0 103 -111 q0 -63 -31 -354.5t-43 -497.5q-1 -16 -33 -16t-33 16q-8 199 -34.5 491t-26.5 348zM616 211q61 0 91 -37t30 -87.5t-34.5 -81t-87.5 -30.5t-86.5 36t-33.5 87t30 82t91 31z"/>
            <glyph glyph-name="uni2047" unicode="??" horiz-adv-x="1288" d="M459 86q0 -67 -54 -100q-30 -17 -78 -17t-77 40t-29 77q0 69 51 106q30 21 68 21q64 0 99 -56q20 -32 20 -71zM279 1194q-68 0 -68 84t84 84q130 0 244 -131q115 -141 117 -294t-81 -196l-165 -88q-74 -41 -74 -93t20 -122q0 -16 -18 -18t-27 6q-75 136 -75 218t114 144 l105 56q116 62 116 151q0 199 -292 199zM983 86q0 -67 -54 -100q-30 -17 -78 -17t-77 40t-29 77q0 69 51 106q30 21 68 21q64 0 99 -56q20 -32 20 -71zM803 1194q-68 0 -68 84t84 84q130 0 244 -131q115 -141 117 -294t-81 -196l-165 -88q-74 -41 -74 -93t20 -122 q0 -16 -18 -18t-27 6q-75 136 -75 218t114 144l105 56q116 62 116 151q0 199 -292 199z"/>
            <glyph glyph-name="uni2048" unicode="?!" horiz-adv-x="1148" d="M814 1275q0 56 30.5 90t67.5 34q103 0 103 -111q0 -63 -31 -354.5t-43 -497.5q-1 -16 -33 -16t-33 16q-8 199 -34.5 491t-26.5 348zM908 211q61 0 91 -37t30 -87.5t-34.5 -81t-87.5 -30.5t-86.5 36t-33.5 87t30 82t91 31zM459 86q0 -67 -54 -100q-30 -17 -78 -17t-77 40 t-29 77q0 69 51 106q30 21 68 21q64 0 99 -56q20 -32 20 -71zM279 1194q-68 0 -68 84t84 84q130 0 244 -131q115 -141 117 -294t-81 -196l-165 -88q-74 -41 -74 -93t20 -122q0 -16 -18 -18t-27 6q-75 136 -75 218t114 144l105 56q116 62 116 151q0 199 -292 199z"/>
            <glyph glyph-name="uni2049" unicode="!?" horiz-adv-x="1084" d="M771 86q0 -67 -54 -100q-30 -17 -78 -17t-77 40t-29 77q0 69 51 106q30 21 68 21q64 0 99 -56q20 -32 20 -71zM591 1194q-68 0 -68 84t84 84q130 0 244 -131q115 -141 117 -294t-81 -196l-165 -88q-74 -41 -74 -93t20 -122q0 -16 -18 -18t-27 6q-75 136 -75 218t114 144 l105 56q116 62 116 151q0 199 -292 199zM166 1275q0 56 30.5 90t67.5 34q103 0 103 -111q0 -63 -31 -354.5t-43 -497.5q-1 -16 -33 -16t-33 16q-8 199 -34.5 491t-26.5 348zM260 211q61 0 91 -37t30 -87.5t-34.5 -81t-87.5 -30.5t-86.5 36t-33.5 87t30 82t91 31z"/>
            <glyph glyph-name="uni2460" unicode="1⃝" horiz-adv-x="2053" d="M1040 0q-126 0 -187 -5q-11 1 -11 21t11 20q87 0 113 22t26 128v620q0 32 -15 32q-9 0 -17 -4l-92 -42q-18 0 -18 24q0 5 4 9q140 68 231 150q5 5 13 5t7 -10l-3 -121v-662q0 -85 16 -115q26 -36 111 -36q9 0 9 -20t-9 -21q-63 5 -189 5zM184 434q0 -276 154 -486 q154 -212 389 -301q144 -55 300 -55q276 0 488 156t300 389q54 143 54 297q0 276 -155 488t-388 301q-144 54 -299 54q-276 0 -498 -162q-105 -77 -182 -183q-163 -222 -163 -498zM100 434q0 296 163 525t409 331q170 71 355 71q297 1 526 -163t331 -411q69 -169 69 -353 q0 -297 -172 -538q-90 -126 -215 -216q-240 -172 -538 -172t-528 164t-330 409q-70 169 -70 353z"/>
            <glyph glyph-name="uni2461" unicode="2⃝" horiz-adv-x="2053" d="M184 434q0 -276 154 -486q154 -212 389 -301q144 -55 300 -55q276 0 488 156t300 389q54 143 54 297q0 276 -155 488t-388 301q-144 54 -299 54q-276 0 -498 -162q-105 -77 -182 -183q-163 -222 -163 -498zM100 434q0 296 163 525t409 331q170 71 355 71q297 1 526 -163 t331 -411q69 -169 69 -353q0 -297 -172 -538q-90 -126 -215 -216q-240 -172 -538 -172t-528 164t-330 409q-70 169 -70 353zM1323 182q0 -7 -1 -8l-72 -156q-11 -24 -36 -24q-96 6 -228 6t-258 -6q-29 0 -30 28q0 6 7 13q315 329 408 545q27 58 27 132t-47 112 q-47 36 -102 36q-103 0 -176 -130q-3 -3 -13 -3t-18 9q-10 10 -10 12t1 4q43 85 113 142q70 56 168 56t161 -75q52 -58 52 -159t-79 -212q-43 -58 -120 -149l-202 -227q-11 -12 -11 -22t21 -8h212q116 0 162 42q19 18 30 45q1 4 21 4t20 -7z"/>
            <glyph glyph-name="uni2462" unicode="3⃝" horiz-adv-x="2053" d="M1273 295q0 -133 -94 -223q-96 -88 -216 -88t-174 45q-31 26 -31 59t31 49q12 7 31 7t68 -53t115 -53q65 0 107 75t42 166t-54 151t-147 61q-47 0 -80 -10q-11 -1 -11 27t11 28q139 0 205 77q41 48 41 122t-56 116q-34 24 -78 24q-83 0 -147 -98q0 -3 -10 -3t-20 11 q-8 11 -8 15t2 6q98 145 231 145q80 0 137 -61t57 -139q0 -119 -129 -194q-24 -13 -24 -19t21 -10q180 -36 180 -233zM184 434q0 -276 154 -486q154 -212 389 -301q144 -55 300 -55q276 0 488 156t300 389q54 143 54 297q0 276 -155 488t-388 301q-144 54 -299 54 q-276 0 -498 -162q-105 -77 -182 -183q-163 -222 -163 -498zM100 434q0 296 163 525t409 331q170 71 355 71q297 1 526 -163t331 -411q69 -169 69 -353q0 -297 -172 -538q-90 -126 -215 -216q-240 -172 -538 -172t-528 164t-330 409q-70 169 -70 353z"/>
            <glyph glyph-name="uni2463" unicode="4⃝" horiz-adv-x="2053" d="M1310 279h-82q-18 0 -18 -14v-174q0 -55 87 -55q10 0 10 -20t-10 -21q-51 5 -150 5t-158 -5q-10 1 -10 21t10 20q112 0 112 55v174q0 14 -14 14h-340q-49 0 -49 28q0 19 34 63l157 215q176 239 300 430q5 10 37 10t32 -21v-1l-461 -639q-7 -9 -7 -13q0 -10 20 -10h277 q14 0 14 14v317q1 9 55 9t54 -9v-317q0 -14 18 -14h82q11 0 11 -31t-11 -31zM184 434q0 -276 154 -486q154 -212 389 -301q144 -55 300 -55q276 0 488 156t300 389q54 143 54 297q0 276 -155 488t-388 301q-144 54 -299 54q-276 0 -498 -162q-105 -77 -182 -183 q-163 -222 -163 -498zM100 434q0 296 163 525t409 331q170 71 355 71q297 1 526 -163t331 -411q69 -169 69 -353q0 -297 -172 -538q-90 -126 -215 -216q-240 -172 -538 -172t-528 164t-330 409q-70 169 -70 353z"/>
            <glyph glyph-name="uni2464" unicode="5⃝" horiz-adv-x="2053" d="M1268 353q0 -153 -94 -259t-247 -106q-109 0 -152 45q-19 20 -19 52t34 47q11 5 32 5q20 0 70 -45t96 -45q77 0 130 78t53 164q0 165 -121 218q-48 22 -100 22t-107 -13q-20 2 -20 16q0 4 1 8l65 378q5 21 24 21h335q5 0 5 -19t-11 -51t-18 -32h-273q-21 0 -24 -19 l-30 -167v-12q2 -5 10 -5l56 3q183 0 260 -118q45 -67 45 -166zM184 434q0 -276 154 -486q154 -212 389 -301q144 -55 300 -55q276 0 488 156t300 389q54 143 54 297q0 276 -155 488t-388 301q-144 54 -299 54q-276 0 -498 -162q-105 -77 -182 -183q-163 -222 -163 -498z M100 434q0 296 163 525t409 331q170 71 355 71q297 1 526 -163t331 -411q69 -169 69 -353q0 -297 -172 -538q-90 -126 -215 -216q-240 -172 -538 -172t-528 164t-330 409q-70 169 -70 353z"/>
            <glyph glyph-name="uni2465" unicode="6⃝" horiz-adv-x="2053" d="M878 328q0 -284 167 -284q70 0 111 63q39 55 39 136q-1 81 -45 151t-126 70.5t-142 -77.5q-4 -42 -4 -59zM1090 546q91 0 153 -82t62 -194q-1 -112 -81 -197t-205 -85t-196 109q-62 93 -62 235q0 202 141 388q139 177 323 262q23 -3 23 -18.5t-4 -16.5 q-303 -172 -355 -499q110 98 201 98zM184 434q0 -276 154 -486q154 -212 389 -301q144 -55 300 -55q276 0 488 156t300 389q54 143 54 297q0 276 -155 488t-388 301q-144 54 -299 54q-276 0 -498 -162q-105 -77 -182 -183q-163 -222 -163 -498zM100 434q0 296 163 525 t409 331q170 71 355 71q297 1 526 -163t331 -411q69 -169 69 -353q0 -297 -172 -538q-90 -126 -215 -216q-240 -172 -538 -172t-528 164t-330 409q-70 169 -70 353z"/>
            <glyph glyph-name="uni2466" unicode="7⃝" horiz-adv-x="2053" d="M932 -10h-31q-48 0 -47 7t34 75t46 98l283 642q6 18 6 20q0 10 -24 10h-153q-112 0 -150 -8q-75 -21 -105 -94q-3 -10 -22 -10t-20 10l37 177q4 21 29 21h486q28 0 28 -16q0 -8 -5 -21l-364 -901q-4 -10 -28 -10zM184 434q0 -276 154 -486q154 -212 389 -301 q144 -55 300 -55q276 0 488 156t300 389q54 143 54 297q0 276 -155 488t-388 301q-144 54 -299 54q-276 0 -498 -162q-105 -77 -182 -183q-163 -222 -163 -498zM100 434q0 296 163 525t409 331q170 71 355 71q297 1 526 -163t331 -411q69 -169 69 -353q0 -297 -172 -538 q-90 -126 -215 -216q-240 -172 -538 -172t-528 164t-330 409q-70 169 -70 353z"/>
            <glyph glyph-name="uni2467" unicode="8⃝" horiz-adv-x="2053" d="M1195 186q-1 92 -65 153t-127 103l-4 3q-124 -72 -124 -205q1 -82 51 -143t127 -61t118 64q24 37 24 86zM1167 710q0 102 -62 154q-39 32 -105 32t-105 -57l-14 -26l-7 -29q-1 -8 -1 -17q0 -72 66 -136q38 -38 127 -93q101 70 101 172zM1297 237q0 -109 -80 -179 q-79 -70 -187 -70t-187 63t-79 174q0 149 195 251q-85 55 -125 108t-44 117v17q0 96 69 164t171 68q143 0 203 -91q33 -49 33 -119q0 -149 -162 -233q193 -124 193 -270zM184 434q0 -276 154 -486q154 -212 389 -301q144 -55 300 -55q276 0 488 156t300 389q54 143 54 297 q0 276 -155 488t-388 301q-144 54 -299 54q-276 0 -498 -162q-105 -77 -182 -183q-163 -222 -163 -498zM100 434q0 296 163 525t409 331q170 71 355 71q297 1 526 -163t331 -411q69 -169 69 -353q0 -297 -172 -538q-90 -126 -215 -216q-240 -172 -538 -172t-528 164 t-330 409q-70 169 -70 353z"/>
            <glyph glyph-name="uni2468" unicode="9⃝" horiz-adv-x="2053" d="M1181 652q0 73 -31 142q-44 98 -137 98q-72 0 -109 -60t-37 -142q0 -80 44 -149t123 -69t143 80q4 27 4 100zM814 2q0 14 4 17q139 82 230 188t122 282q-90 -96 -186 -96q-96 -1 -162 77t-66 193t75 201t203 86t197 -100t69 -234q0 -199 -132 -370t-326 -271h-7 q-21 13 -21 27zM184 434q0 -276 154 -486q154 -212 389 -301q144 -55 300 -55q276 0 488 156t300 389q54 143 54 297q0 276 -155 488t-388 301q-144 54 -299 54q-276 0 -498 -162q-105 -77 -182 -183q-163 -222 -163 -498zM100 434q0 296 163 525t409 331q170 71 355 71 q297 1 526 -163t331 -411q69 -169 69 -353q0 -297 -172 -538q-90 -126 -215 -216q-240 -172 -538 -172t-528 164t-330 409q-70 169 -70 353z"/>
            <glyph glyph-name="uni2469" unicode="10⃝" horiz-adv-x="2053" d="M1518 449q0 167 -30 311t-133 144q-98 0 -140 -170q-29 -108 -29 -250t12 -223q22 -137 88 -198q26 -26 66 -26q166 0 166 412zM1644 464q0 -178 -59 -307q-81 -169 -237 -169t-231 174q-55 132 -55 312t58 307q76 169 235 169t234 -177q55 -131 55 -309zM683 0 q-125 0 -188 -5q-11 1 -11 21t11 20q86 0 107 18q33 27 33 132v620q0 32 -16 32q-8 0 -17 -4l-92 -42q-17 0 -17 24q0 6 3 9q142 68 231 150q7 5 14 5t7 -10l-3 -121v-662q0 -87 16 -115q25 -36 110 -36q10 0 10 -20t-10 -21q-63 5 -188 5zM184 434q0 -276 154 -486 q154 -212 389 -301q144 -55 300 -55q276 0 488 156t300 389q54 143 54 297q0 276 -155 488t-388 301q-144 54 -299 54q-276 0 -498 -162q-105 -77 -182 -183q-163 -222 -163 -498zM100 434q0 296 163 525t409 331q170 71 355 71q297 1 526 -163t331 -411q69 -169 69 -353 q0 -297 -172 -538q-90 -126 -215 -216q-240 -172 -538 -172t-528 164t-330 409q-70 169 -70 353z"/>
            <glyph glyph-name="uni246A" unicode="11⃝" horiz-adv-x="2053" d="M1410 0q-126 0 -188 -5q-11 1 -11 21t11 20q86 0 112 22t27 128v620q0 32 -15 32q-8 0 -17 -4l-92 -42q-18 0 -18 24q0 5 4 9q142 68 231 150q7 5 14 5t7 -10l-4 -121v-662q1 -87 21 -119t106 -32q10 0 10 -20t-10 -21q-62 5 -188 5zM730 0q-126 0 -188 -5q-11 1 -11 21 t11 20q86 0 112 22t27 128v620q0 32 -15 32q-9 0 -17 -4l-92 -42q-19 0 -19 24q0 4 5 9q140 68 231 150q4 5 12 5t8 -10l-3 -121v-662q0 -85 16 -115q25 -36 111 -36q9 0 9 -20t-9 -21q-62 5 -188 5zM184 434q0 -276 154 -486q154 -212 389 -301q144 -55 300 -55 q276 0 488 156t300 389q54 143 54 297q0 276 -155 488t-388 301q-144 54 -299 54q-276 0 -498 -162q-105 -77 -182 -183q-163 -222 -163 -498zM100 434q0 296 163 525t409 331q170 71 355 71q297 1 526 -163t331 -411q69 -169 69 -353q0 -297 -172 -538q-90 -126 -215 -216 q-240 -172 -538 -172t-528 164t-330 409q-70 169 -70 353z"/>
            <glyph glyph-name="uni246B" unicode="12⃝" horiz-adv-x="2053" d="M676 5q-138 0 -187 -5q-12 0 -12 20t12 21q81 0 107 18q32 30 32 132v620q0 32 -15 32q-9 0 -17 -4l-92 -42q-18 0 -18 25q0 3 4 9q139 66 231 150q5 4 13 4t8 -10l-4 -121v-662q0 -84 16 -113q26 -38 111 -38q9 -1 9 -21t-9 -20q-51 5 -189 5zM184 434q0 -276 154 -486 q154 -212 389 -301q144 -55 300 -55q276 0 488 156t300 389q54 143 54 297q0 276 -155 488t-388 301q-144 54 -299 54q-276 0 -498 -162q-105 -77 -182 -183q-163 -222 -163 -498zM100 434q0 296 163 525t409 331q170 71 355 71q297 1 526 -163t331 -411q69 -169 69 -353 q0 -297 -172 -538q-90 -126 -215 -216q-240 -172 -538 -172t-528 164t-330 409q-70 169 -70 353zM1629 182q0 -7 -1 -8l-72 -156q-11 -24 -36 -24q-96 6 -228 6t-258 -6q-29 0 -30 28q0 6 7 13q315 329 408 545q27 58 27 132t-47 112q-47 36 -102 36q-103 0 -176 -130 q-3 -3 -13 -3t-18 9q-10 10 -10 12t1 4q43 85 113 142q70 56 168 56t161 -75q52 -58 52 -159t-79 -212q-43 -58 -120 -149l-202 -227q-11 -12 -11 -22t21 -8h212q116 0 162 42q19 18 30 45q1 4 21 4t20 -7z"/>
            <glyph glyph-name="uni246C" unicode="13⃝" horiz-adv-x="2053" d="M1612 295q0 -131 -94 -221t-216 -90q-120 0 -174 45q-31 26 -31 59t31 49q12 7 31 7t67 -53t115 -53q66 0 108 75t42 165t-53 152t-148 61q-47 0 -81 -10q-10 -1 -10 27t10 28q139 0 205 77q41 48 41 122t-56 116q-34 24 -78 24q-82 0 -146 -98q-1 -3 -11 -3t-19 12 q-8 12 -8 15q0 4 1 5q98 145 232 145q82 0 138 -60t55 -140q0 -120 -129 -194q-23 -12 -23 -18t20 -11q181 -36 181 -233zM699 0q-127 0 -188 -5q-11 1 -11 21t11 20q85 0 112 22t27 128v620q0 32 -15 32q-8 0 -17 -4l-92 -42q-18 0 -18 24q0 6 5 9q139 68 231 150q4 5 12 5 t8 -10l-4 -121v-662q0 -87 20 -119t106 -32q11 0 11 -20t-11 -21q-60 5 -187 5zM184 434q0 -276 154 -486q154 -212 389 -301q144 -55 300 -55q276 0 488 156t300 389q54 143 54 297q0 276 -155 488t-388 301q-144 54 -299 54q-276 0 -498 -162q-105 -77 -182 -183 q-163 -222 -163 -498zM100 434q0 296 163 525t409 331q170 71 355 71q297 1 526 -163t331 -411q69 -169 69 -353q0 -297 -172 -538q-90 -126 -215 -216q-240 -172 -538 -172t-528 164t-330 409q-70 169 -70 353z"/>
            <glyph glyph-name="uni246D" unicode="14⃝" horiz-adv-x="2053" d="M1587 279h-82q-16 0 -16 -14v-174q0 -55 85 -55q11 0 11 -20t-11 -21q-52 5 -150 5t-158 -5q-9 1 -9 21t9 20q114 0 114 55v174q0 14 -15 14h-341q-48 0 -48 28q0 16 33 63l159 215q194 267 298 430q7 10 38 10t31 -21v-1l-461 -639q-6 -10 -6 -16t19 -7h278q15 0 15 14 v317q0 9 54 9t55 -9v-317q0 -14 16 -14h82q12 0 12 -31t-12 -31zM638 0q-126 0 -188 -5q-11 1 -11 21t11 20q86 0 112 22t27 128v620q0 32 -15 32q-9 0 -17 -4l-92 -42q-17 0 -17 24q0 6 4 9q138 67 230 150q6 5 14 5t8 -10l-5 -116v-667q0 -86 17 -115q26 -36 110 -36 q9 0 9 -20t-9 -21q-62 5 -188 5zM184 434q0 -276 154 -486q154 -212 389 -301q144 -55 300 -55q276 0 488 156t300 389q54 143 54 297q0 276 -155 488t-388 301q-144 54 -299 54q-276 0 -498 -162q-105 -77 -182 -183q-163 -222 -163 -498zM100 434q0 296 163 525t409 331 q170 71 355 71q297 1 526 -163t331 -411q69 -169 69 -353q0 -297 -172 -538q-90 -126 -215 -216q-240 -172 -538 -172t-528 164t-330 409q-70 169 -70 353z"/>
            <glyph glyph-name="uni246E" unicode="15⃝" horiz-adv-x="2053" d="M1574 353q0 -153 -95 -259t-246 -106q-110 0 -154 45q-19 19 -19 51t33 47q11 6 33 6t71 -44t95 -44q80 -1 132 77t53 163q0 163 -121 218q-50 22 -102 22t-106 -13q-20 2 -20 19v5l67 378q3 21 23 21h336q4 0 4 -19t-11 -51t-18 -32h-272q-21 0 -24 -19l-31 -167v-12 q2 -5 10 -5l55 3q181 0 260 -115q47 -69 47 -169zM666 0q-126 0 -188 -5q-12 1 -12 21t12 20q86 0 112 23t26 127v620q0 32 -15 32q-9 0 -16 -4l-93 -42q-17 0 -17 24q0 6 4 9q137 66 231 150q3 5 12 5t9 -10l-5 -116v-667q0 -87 21 -119t106 -32q11 0 11 -20t-11 -21 q-61 5 -187 5zM184 434q0 -276 154 -486q154 -212 389 -301q144 -55 300 -55q276 0 488 156t300 389q54 143 54 297q0 276 -155 488t-388 301q-144 54 -299 54q-276 0 -498 -162q-105 -77 -182 -183q-163 -222 -163 -498zM100 434q0 296 163 525t409 331q170 71 355 71 q297 1 526 -163t331 -411q69 -169 69 -353q0 -297 -172 -538q-90 -126 -215 -216q-240 -172 -538 -172t-528 164t-330 409q-70 169 -70 353z"/>
            <glyph glyph-name="uni246F" unicode="16⃝" horiz-adv-x="2053" d="M1491 243q0 81 -42 146q-47 76 -129 76t-142 -78q-4 -28 -4 -95q0 -68 28 -144q37 -104 138 -103q70 1 110 59t41 139zM1386 546q91 0 153 -82t62 -195t-80 -197t-205 -84t-192 102t-67 242q0 202 141 388q139 177 323 262q23 -3 23 -18.5t-4 -16.5q-303 -172 -355 -499 q110 98 201 98zM656 0q-126 0 -188 -5q-12 1 -12 21t12 20q84 0 112 22t28 128v620q0 32 -16 32q-8 0 -17 -4l-92 -42q-18 0 -18 24q0 5 4 9q142 68 231 150q7 5 14 5t7 -10l-3 -121v-662q0 -87 20 -119t106 -32q10 0 10 -20t-10 -21q-62 5 -188 5zM184 434q0 -276 154 -486 q154 -212 389 -301q144 -55 300 -55q276 0 488 156t300 389q54 143 54 297q0 276 -155 488t-388 301q-144 54 -299 54q-276 0 -498 -162q-105 -77 -182 -183q-163 -222 -163 -498zM100 434q0 296 163 525t409 331q170 71 355 71q297 1 526 -163t331 -411q69 -169 69 -353 q0 -297 -172 -538q-90 -126 -215 -216q-240 -172 -538 -172t-528 164t-330 409q-70 169 -70 353z"/>
            <glyph glyph-name="uni2470" unicode="17⃝" horiz-adv-x="2053" d="M1218 -10h-32q-48 0 -48 10q7 11 37 71l327 741q6 18 6 20q0 10 -23 10h-154q-112 0 -150 -8q-76 -21 -104 -94q-4 -10 -23 -10t-19 10l36 177q4 21 29 21h486q28 0 28 -16q0 -8 -5 -21l-364 -901q-3 -10 -27 -10zM646 0q-126 0 -189 -5q-10 1 -10 21t10 20q86 0 107 18 q33 27 33 132v620q0 32 -15 32q-9 0 -18 -4l-91 -42q-18 0 -18 24q0 6 5 9q140 68 230 150q5 5 13 5t8 -10l-4 -121v-662q1 -87 21 -119t105 -32q10 0 10 -20t-10 -21q-61 5 -187 5zM184 434q0 -276 154 -486q154 -212 389 -301q144 -55 300 -55q276 0 488 156t300 389 q54 143 54 297q0 276 -155 488t-388 301q-144 54 -299 54q-276 0 -498 -162q-105 -77 -182 -183q-163 -222 -163 -498zM100 434q0 296 163 525t409 331q170 71 355 71q297 1 526 -163t331 -411q69 -169 69 -353q0 -297 -172 -538q-90 -126 -215 -216q-240 -172 -538 -172 t-528 164t-330 409q-70 169 -70 353z"/>
            <glyph glyph-name="uni2471" unicode="18⃝" horiz-adv-x="2053" d="M1521 186q1 91 -65 153q-91 86 -131 106q-125 -73 -125 -205q0 -80 50 -142t128 -61q78 0 119 63q24 37 24 86zM1493 710q0 102 -62 154q-39 32 -105 32t-105 -57l-14 -26l-7 -29q-1 -8 -1 -17q0 -73 66 -136q34 -34 127 -93q101 70 101 172zM1623 237q1 -109 -79 -179 t-189 -70t-187 64t-79 173q0 149 195 251q-84 56 -124 108t-44 117v17q0 96 69 164t170 68q141 0 203 -89q34 -50 34 -121q0 -148 -161 -233q192 -125 192 -270zM686 0q-127 0 -187 -5q-12 1 -12 21t12 20q83 0 111 22t28 128v620q0 32 -15 32q-9 0 -18 -4l-91 -42 q-19 0 -19 24q0 6 5 9q140 68 231 150q5 5 13 5t7 -10l-3 -121v-662q0 -91 20 -121t106 -30q10 0 10 -20t-10 -21q-61 5 -188 5zM184 434q0 -276 154 -486q154 -212 389 -301q144 -55 300 -55q276 0 488 156t300 389q54 143 54 297q0 276 -155 488t-388 301q-144 54 -299 54 q-276 0 -498 -162q-105 -77 -182 -183q-163 -222 -163 -498zM100 434q0 296 163 525t409 331q170 71 355 71q297 1 526 -163t331 -411q69 -169 69 -353q0 -297 -172 -538q-90 -126 -215 -216q-240 -172 -538 -172t-528 164t-330 409q-70 169 -70 353z"/>
            <glyph glyph-name="uni2472" unicode="19⃝" horiz-adv-x="2053" d="M1499 615q0 111 -32 179q-44 98 -137 98q-71 0 -111 -66q-35 -54 -35 -135t44 -150t124 -69q78 0 142 80q5 25 5 63zM1131 6q0 10 5 13q140 83 226 184t126 286q-90 -96 -187 -96q-97 1 -163 79t-65 192t75 200t203 86t198 -100t69 -234q0 -198 -132 -370t-327 -271h-7 q-21 21 -21 31zM678 0q-126 0 -188 -5q-11 1 -11 21t11 20q86 0 112 22t27 128v620q0 32 -15 32q-9 0 -17 -4l-92 -42q-17 0 -17 24q0 6 3 9q139 66 231 150q5 5 13 5t8 -10l-4 -121v-662q0 -86 17 -115q26 -36 110 -36q9 0 9 -20t-9 -21q-62 5 -188 5zM184 434 q0 -276 154 -486q154 -212 389 -301q144 -55 300 -55q276 0 488 156t300 389q54 143 54 297q0 276 -155 488t-388 301q-144 54 -299 54q-276 0 -498 -162q-105 -77 -182 -183q-163 -222 -163 -498zM100 434q0 296 163 525t409 331q170 71 355 71q297 1 526 -163t331 -411 q69 -169 69 -353q0 -297 -172 -538q-90 -126 -215 -216q-240 -172 -538 -172t-528 164t-330 409q-70 169 -70 353z"/>
            <glyph glyph-name="uni2473" unicode="20⃝" horiz-adv-x="2053" d="M1564 449q0 173 -29 314t-134 141q-98 0 -140 -170q-28 -108 -28 -254t12 -219q22 -138 87 -198q27 -26 66 -26q166 0 166 412zM1690 463q0 -178 -59 -306q-81 -169 -237 -169t-230 174q-55 130 -55 312t57 307q78 170 236 170t234 -178q54 -132 54 -310zM184 434 q0 -276 154 -486q154 -212 389 -301q144 -55 300 -55q276 0 488 156t300 389q54 143 54 297q0 276 -155 488t-388 301q-144 54 -299 54q-276 0 -498 -162q-105 -77 -182 -183q-163 -222 -163 -498zM100 434q0 296 163 525t409 331q170 71 355 71q297 1 526 -163t331 -411 q69 -169 69 -353q0 -297 -172 -538q-90 -126 -215 -216q-240 -172 -538 -172t-528 164t-330 409q-70 169 -70 353zM1007 182q0 -7 -1 -8l-72 -156q-11 -24 -36 -24q-96 6 -228 6t-258 -6q-29 0 -30 28q0 6 7 13q315 329 408 545q27 58 27 132t-47 112q-47 36 -102 36 q-103 0 -176 -130q-3 -3 -13 -3t-18 9q-10 10 -10 12t1 4q43 85 113 142q70 56 168 56t161 -75q52 -58 52 -159t-79 -212q-43 -58 -120 -149l-202 -227q-11 -12 -11 -22t21 -8h212q116 0 162 42q19 18 30 45q1 4 21 4t20 -7z"/>
            <glyph glyph-name="uni2474" unicode="(1)" horiz-adv-x="2283" d="M2142 615q0 -289 -137 -586q-96 -205 -270 -367q-16 -16 -37 -16t-32 12t-11 24t18 29q330 342 330 875t-332 876q-16 16 -16 34t17 26t32 8t31 -14q194 -182 288 -371q119 -241 119 -530zM1254 262q0 -149 44 -181t134 -32q14 -1 14 -29t-14 -28q-80 8 -264 8t-263 -8 q-14 0 -14 28t14 29q127 1 161 39t34 172v870q0 47 -21 47q-7 0 -24 -8l-129 -59q-16 -2 -24 16t5 31q219 106 324 211q6 6 18 6t11 -14q-6 -125 -6 -172v-926zM647 -322q0 -19 -41 -32q-19 0 -39 16q-193 174 -288 369q-119 239 -119 529t137 587q91 199 270 369 q17 14 37 14t32 -12t11 -23q0 -11 -18 -31q-330 -346 -330 -874t334 -879q14 -14 14 -33z"/>
            <glyph glyph-name="uni2475" unicode="(2)" horiz-adv-x="2283" d="M2142 615q0 -289 -137 -586q-96 -205 -270 -367q-16 -16 -37 -16t-32 12t-11 24t18 29q330 342 330 875t-332 876q-16 16 -16 34t17 26t32 8t31 -14q194 -182 288 -371q119 -241 119 -530zM1558 248q0 -2 -1 -4l-101 -219q-15 -33 -51 -33q-135 8 -319 8t-363 -8 q-41 0 -41 39q0 9 10 18q442 461 572 764q37 81 37 185t-76 165q-55 43 -133 43q-144 0 -246 -182q-4 -4 -18 -4t-26 12q-14 12 -14 17q0 4 1 6q59 119 151 190q106 88 244 88t226 -106q73 -81 73 -223t-111 -297q-60 -82 -168 -209l-284 -318q-16 -17 -16 -30t30 -13h297 q163 0 227 60q27 25 43 63q1 6 29 5q28 0 28 -17zM647 -322q0 -19 -41 -32q-19 0 -39 16q-193 174 -288 369q-119 239 -119 529t137 587q91 199 270 369q17 14 37 14t32 -12t11 -23q0 -11 -18 -31q-330 -346 -330 -874t334 -879q14 -14 14 -33z"/>
            <glyph glyph-name="uni2476" unicode="(3)" horiz-adv-x="2283" d="M2142 615q0 -289 -137 -586q-96 -205 -270 -367q-16 -16 -37 -16t-32 12t-11 24t18 29q330 342 330 875t-332 876q-16 16 -16 34t17 26t32 8t31 -14q194 -182 288 -371q119 -241 119 -530zM1495 414q0 -185 -132 -311t-316 -126q-141 0 -208 46t-67 94t29 66t58 18 t97 -74t144 -74q108 -1 166 105t59 232q-1 126 -75 214q-74 86 -207 86q-65 0 -113 -16q-14 0 -14 40t14 40q180 0 275 93q71 70 71 175t-69 163q-50 42 -119 42q-118 0 -207 -137q-1 -3 -15 -3q-14 -1 -26 15t-12 21t2 7q137 203 325 203q115 -1 194 -85t79 -195 q0 -167 -183 -271q-32 -18 -32 -27t28 -14q254 -51 254 -327zM647 -322q0 -19 -41 -32q-19 0 -39 16q-193 174 -288 369q-119 239 -119 529t137 587q91 199 270 369q17 14 37 14t32 -12t11 -23q0 -11 -18 -31q-330 -346 -330 -874t334 -879q14 -14 14 -33z"/>
            <glyph glyph-name="uni2477" unicode="(4)" horiz-adv-x="2283" d="M2142 615q0 -289 -137 -586q-96 -205 -270 -367q-16 -16 -37 -16t-32 12t-11 24t18 29q330 342 330 875t-332 876q-16 16 -16 34t17 26t32 8t31 -14q194 -182 288 -371q119 -241 119 -530zM1546 391h-116q-23 0 -23 -20v-244q0 -78 121 -78q14 -1 14 -29t-14 -28 q-77 8 -216 8t-216 -8q-14 0 -14 28t14 29q158 0 158 78v244q0 20 -21 20h-477q-67 0 -67 37q0 30 46 92l222 301q14 19 419 604q9 13 39 13q58 0 58 -31l-647 -897q-8 -11 -8 -19q0 -14 26 -14h389q21 0 21 21v444q0 15 76 15t77 -15v-444q0 -21 23 -21h116q18 0 18 -43 t-18 -43zM647 -322q0 -19 -41 -32q-19 0 -39 16q-193 174 -288 369q-119 239 -119 529t137 587q91 199 270 369q17 14 37 14t32 -12t11 -23q0 -11 -18 -31q-330 -346 -330 -874t334 -879q14 -14 14 -33z"/>
            <glyph glyph-name="uni2478" unicode="(5)" horiz-adv-x="2283" d="M2142 615q0 -289 -137 -586q-96 -205 -270 -367q-16 -16 -37 -16t-32 12t-11 24t18 29q330 342 330 875t-332 876q-16 16 -16 34t17 26t32 8t31 -14q194 -182 288 -371q119 -241 119 -530zM1489 496q1 -216 -133 -364t-346 -148q-141 0 -206 53q-36 31 -36 74q0 82 82 82 q39 -1 108 -63t136 -62q112 0 185 108t73 230q0 208 -141 291q-78 46 -191 46q-50 0 -129 -18h-13q-15 0 -15 23q0 5 1 10l93 530q5 29 32 29h471q7 0 7 -35q1 -36 -17 -72t-24 -36h-383q-29 0 -33 -27l-43 -234q-3 -23 12 -23l80 5q233 0 347 -139q83 -101 83 -260z M647 -322q0 -19 -41 -32q-19 0 -39 16q-193 174 -288 369q-119 239 -119 529t137 587q91 199 270 369q17 14 37 14t32 -12t11 -23q0 -11 -18 -31q-330 -346 -330 -874t334 -879q14 -14 14 -33z"/>
            <glyph glyph-name="uni2479" unicode="(6)" horiz-adv-x="2283" d="M2142 615q0 -289 -137 -586q-96 -205 -270 -367q-16 -16 -37 -16t-32 12t-11 24t18 29q330 342 330 875t-332 876q-16 16 -16 34t17 26t32 8t31 -14q194 -182 288 -371q119 -241 119 -530zM1174 63q103 0 164 96q47 73 47 171q1 146 -69 234t-177 89q-107 0 -193 -110 q-6 -43 -6 -82q0 -267 113 -358q50 -40 121 -40zM1238 766q130 0 216 -114t86 -272t-108 -276q-108 -120 -292 -120q-182 0 -283 160q-81 128 -81 321q0 287 198 543t454 370h9q23 -6 23 -26t-6 -23q-293 -166 -415 -427q-58 -123 -82 -273q152 137 281 137zM647 -322 q0 -19 -41 -32q-19 0 -39 16q-193 174 -288 369q-119 239 -119 529t137 587q91 199 270 369q17 14 37 14t32 -12t11 -23q0 -11 -18 -31q-330 -346 -330 -874t334 -879q14 -14 14 -33z"/>
            <glyph glyph-name="uni247A" unicode="(7)" horiz-adv-x="2283" d="M2142 615q0 -289 -137 -586q-96 -205 -270 -367q-16 -16 -37 -16t-32 12t-11 24t18 29q330 342 330 875t-332 876q-16 16 -16 34t17 26t32 8t31 -14q194 -182 288 -371q119 -241 119 -530zM976 -14q-72 0 -71 14q13 22 51 100l459 1039q9 22 9 28q0 15 -33 15h-215 q-163 0 -211 -13q-106 -29 -146 -131q-6 -14 -32 -14t-27 14l51 248q6 31 41 31h682q39 0 39 -23q0 -11 -8 -30l-510 -1264q-7 -14 -79 -14zM647 -322q0 -19 -41 -32q-19 0 -39 16q-193 174 -288 369q-119 239 -119 529t137 587q91 199 270 369q17 14 37 14t32 -12t11 -23 q0 -11 -18 -31q-330 -346 -330 -874t334 -879q14 -14 14 -33z"/>
            <glyph glyph-name="uni247B" unicode="(8)" horiz-adv-x="2283" d="M2142 615q0 -289 -137 -586q-96 -205 -270 -367q-16 -16 -37 -16t-32 12t-11 24t18 29q330 342 330 875t-332 876q-16 16 -16 34t17 26t32 8t31 -14q194 -182 288 -371q119 -241 119 -530zM1385 260q-1 128 -87 211t-159 134l-29 20q-174 -101 -174 -289q0 -112 70 -198 t174 -87q105 0 163 77q42 56 42 132zM934 1075q0 -128 159 -246q33 -25 111 -75q142 100 142 236t-75 211q-53 56 -149 56t-151 -71q-37 -48 -37 -111zM1528 332q0 -154 -110 -251t-274 -97q-162 0 -263 94t-101 237q0 209 273 353q-127 82 -166 141q-70 93 -70 213t96 216 t240 95q183 0 271 -108q61 -74 61 -187q0 -208 -227 -327q270 -173 270 -379zM647 -322q0 -19 -41 -32q-19 0 -39 16q-193 174 -288 369q-119 239 -119 529t137 587q91 199 270 369q17 14 37 14t32 -12t11 -23q0 -11 -18 -31q-330 -346 -330 -874t334 -879q14 -14 14 -33z "/>
            <glyph glyph-name="uni247C" unicode="(9)" horiz-adv-x="2283" d="M2142 615q0 -289 -137 -586q-96 -205 -270 -367q-16 -16 -37 -16t-32 12t-11 24t18 29q330 342 330 875t-332 876q-16 16 -16 34t17 26t32 8t31 -14q194 -182 288 -371q119 -241 119 -530zM924 956q0 -116 68 -205t172 -89q105 0 196 112q6 44 6 88q0 234 -98 333 q-35 33 -139 56q-109 0 -166 -106q-39 -73 -39 -189zM1161 1333q175 0 273 -137t98 -332q0 -312 -238 -586q-169 -193 -405 -313l-8 -1q-15 5 -23 25q-8 21 -8 27t6 11q190 111 318 257t176 402q-128 -135 -260 -135t-226 103q-93 110 -96 253q0 192 108 309t285 117z M647 -322q0 -19 -41 -32q-19 0 -39 16q-193 174 -288 369q-119 239 -119 529t137 587q91 199 270 369q17 14 37 14t32 -12t11 -23q0 -11 -18 -31q-330 -346 -330 -874t334 -879q14 -14 14 -33z"/>
            <glyph glyph-name="uni247D" unicode="(10)" horiz-adv-x="3239" d="M3098 615q0 -289 -137 -586q-96 -205 -270 -367q-16 -16 -37 -16t-32 12t-11 24t18 29q330 342 330 875t-332 876q-16 16 -16 34t17 26t32 8t31 -14q194 -182 288 -371q119 -241 119 -530zM2341 597q-1 267 -41 469t-187 202q-123 0 -180 -180t-57 -399q0 -375 68 -507 t171 -131q103 -1 165 139t61 407zM2519 653q1 -291 -107 -480t-306 -189t-301 189t-103 493t108 486t304 181t300 -195t105 -485zM1254 262q0 -149 44 -181t134 -32q14 -1 14 -29t-14 -28q-80 8 -264 8t-263 -8q-14 0 -14 28t14 29q127 1 161 39t34 172v870q0 47 -21 47 q-7 0 -24 -8l-129 -59q-16 -2 -24 16t5 31q219 106 324 211q6 6 18 6t11 -14q-6 -125 -6 -172v-926zM647 -322q0 -19 -41 -32q-19 0 -39 16q-193 174 -288 369q-119 239 -119 529t137 587q91 199 270 369q17 14 37 14t32 -12t11 -23q0 -11 -18 -31q-330 -346 -330 -874 t334 -879q14 -14 14 -33z"/>
            <glyph glyph-name="uni247E" unicode="(11)" horiz-adv-x="3239" d="M3098 615q0 -289 -137 -586q-96 -205 -270 -367q-16 -16 -37 -16t-32 12t-11 24t18 29q330 342 330 875t-332 876q-16 16 -16 34t17 26t32 8t31 -14q194 -182 288 -371q119 -241 119 -530zM2210 262q0 -149 44 -181t134 -32q14 -1 14 -29t-14 -28q-80 8 -264 8t-263 -8 q-14 0 -14 28t14 29q127 1 161 39t34 172v870q0 47 -21 47q-7 0 -24 -8l-129 -59q-16 -2 -24 16t5 31q219 106 324 211q6 6 18 6t11 -14q-6 -125 -6 -172v-926zM1254 262q0 -149 44 -181t134 -32q14 -1 14 -29t-14 -28q-80 8 -264 8t-263 -8q-14 0 -14 28t14 29 q127 1 161 39t34 172v870q0 47 -21 47q-7 0 -24 -8l-129 -59q-16 -2 -24 16t5 31q219 106 324 211q6 6 18 6t11 -14q-6 -125 -6 -172v-926zM647 -322q0 -19 -41 -32q-19 0 -39 16q-193 174 -288 369q-119 239 -119 529t137 587q91 199 270 369q17 14 37 14t32 -12t11 -23 q0 -11 -18 -31q-330 -346 -330 -874t334 -879q14 -14 14 -33z"/>
            <glyph glyph-name="uni247F" unicode="(12)" horiz-adv-x="3239" d="M3098 615q0 -289 -137 -586q-96 -205 -270 -367q-16 -16 -37 -16t-32 12t-11 24t18 29q330 342 330 875t-332 876q-16 16 -16 34t17 26t32 8t31 -14q194 -182 288 -371q119 -241 119 -530zM2514 248q0 -2 -1 -4l-101 -219q-15 -33 -51 -33q-135 8 -319 8t-363 -8 q-41 0 -41 39q0 9 10 18q442 461 572 764q37 81 37 185t-76 165q-55 43 -133 43q-144 0 -246 -182q-4 -4 -18 -4t-26 12q-14 12 -14 17q0 4 1 6q59 119 151 190q106 88 244 88t226 -106q73 -81 73 -223t-111 -297q-60 -82 -168 -209l-284 -318q-16 -17 -16 -30t30 -13h297 q163 0 227 60q27 25 43 63q1 6 29 5q28 0 28 -17zM1254 262q0 -149 44 -181t134 -32q14 -1 14 -29t-14 -28q-80 8 -264 8t-263 -8q-14 0 -14 28t14 29q127 1 161 39t34 172v870q0 47 -21 47q-7 0 -24 -8l-129 -59q-16 -2 -24 16t5 31q219 106 324 211q6 6 18 6t11 -14 q-6 -125 -6 -172v-926zM647 -322q0 -19 -41 -32q-19 0 -39 16q-193 174 -288 369q-119 239 -119 529t137 587q91 199 270 369q17 14 37 14t32 -12t11 -23q0 -11 -18 -31q-330 -346 -330 -874t334 -879q14 -14 14 -33z"/>
            <glyph glyph-name="uni2480" unicode="(13)" horiz-adv-x="3239" d="M3098 615q0 -289 -137 -586q-96 -205 -270 -367q-16 -16 -37 -16t-32 12t-11 24t18 29q330 342 330 875t-332 876q-16 16 -16 34t17 26t32 8t31 -14q194 -182 288 -371q119 -241 119 -530zM2451 414q0 -185 -132 -311t-316 -126q-141 0 -208 46t-67 94t29 66t58 18 t97 -74t144 -74q108 -1 166 105t59 232q-1 126 -75 214q-74 86 -207 86q-65 0 -113 -16q-14 0 -14 40t14 40q180 0 275 93q71 70 71 175t-69 163q-50 42 -119 42q-118 0 -207 -137q-1 -3 -15 -3q-14 -1 -26 15t-12 21t2 7q137 203 325 203q115 -1 194 -85t79 -195 q0 -167 -183 -271q-32 -18 -32 -27t28 -14q254 -51 254 -327zM1254 262q0 -149 44 -181t134 -32q14 -1 14 -29t-14 -28q-80 8 -264 8t-263 -8q-14 0 -14 28t14 29q127 1 161 39t34 172v870q0 47 -21 47q-7 0 -24 -8l-129 -59q-16 -2 -24 16t5 31q219 106 324 211q6 6 18 6 t11 -14q-6 -125 -6 -172v-926zM647 -322q0 -19 -41 -32q-19 0 -39 16q-193 174 -288 369q-119 239 -119 529t137 587q91 199 270 369q17 14 37 14t32 -12t11 -23q0 -11 -18 -31q-330 -346 -330 -874t334 -879q14 -14 14 -33z"/>
            <glyph glyph-name="uni2481" unicode="(14)" horiz-adv-x="3239" d="M3098 615q0 -289 -137 -586q-96 -205 -270 -367q-16 -16 -37 -16t-32 12t-11 24t18 29q330 342 330 875t-332 876q-16 16 -16 34t17 26t32 8t31 -14q194 -182 288 -371q119 -241 119 -530zM2502 391h-116q-23 0 -23 -20v-244q0 -78 121 -78q14 -1 14 -29t-14 -28 q-77 8 -216 8t-216 -8q-14 0 -14 28t14 29q158 0 158 78v244q0 20 -21 20h-477q-67 0 -67 37q0 30 46 92l222 301q14 19 419 604q9 13 39 13q58 0 58 -31l-647 -897q-8 -11 -8 -19q0 -14 26 -14h389q21 0 21 21v444q0 15 76 15t77 -15v-444q0 -21 23 -21h116q18 0 18 -43 t-18 -43zM1254 262q0 -149 44 -181t134 -32q14 -1 14 -29t-14 -28q-80 8 -264 8t-263 -8q-14 0 -14 28t14 29q127 1 161 39t34 172v870q0 47 -21 47q-7 0 -24 -8l-129 -59q-16 -2 -24 16t5 31q219 106 324 211q6 6 18 6t11 -14q-6 -125 -6 -172v-926zM647 -322 q0 -19 -41 -32q-19 0 -39 16q-193 174 -288 369q-119 239 -119 529t137 587q91 199 270 369q17 14 37 14t32 -12t11 -23q0 -11 -18 -31q-330 -346 -330 -874t334 -879q14 -14 14 -33z"/>
            <glyph glyph-name="uni2482" unicode="(15)" horiz-adv-x="3239" d="M3098 615q0 -289 -137 -586q-96 -205 -270 -367q-16 -16 -37 -16t-32 12t-11 24t18 29q330 342 330 875t-332 876q-16 16 -16 34t17 26t32 8t31 -14q194 -182 288 -371q119 -241 119 -530zM2445 496q1 -216 -133 -364t-346 -148q-141 0 -206 53q-36 31 -36 74q0 82 82 82 q39 -1 108 -63t136 -62q112 0 185 108t73 230q0 208 -141 291q-78 46 -191 46q-50 0 -129 -18h-13q-15 0 -15 23q0 5 1 10l93 530q5 29 32 29h471q7 0 7 -35q1 -36 -17 -72t-24 -36h-383q-29 0 -33 -27l-43 -234q-3 -23 12 -23l80 5q233 0 347 -139q83 -101 83 -260z M1254 262q0 -149 44 -181t134 -32q14 -1 14 -29t-14 -28q-80 8 -264 8t-263 -8q-14 0 -14 28t14 29q127 1 161 39t34 172v870q0 47 -21 47q-7 0 -24 -8l-129 -59q-16 -2 -24 16t5 31q219 106 324 211q6 6 18 6t11 -14q-6 -125 -6 -172v-926zM647 -322q0 -19 -41 -32 q-19 0 -39 16q-193 174 -288 369q-119 239 -119 529t137 587q91 199 270 369q17 14 37 14t32 -12t11 -23q0 -11 -18 -31q-330 -346 -330 -874t334 -879q14 -14 14 -33z"/>
            <glyph glyph-name="uni2483" unicode="(16)" horiz-adv-x="3239" d="M3098 615q0 -289 -137 -586q-96 -205 -270 -367q-16 -16 -37 -16t-32 12t-11 24t18 29q330 342 330 875t-332 876q-16 16 -16 34t17 26t32 8t31 -14q194 -182 288 -371q119 -241 119 -530zM2130 63q103 0 164 96q47 73 47 171q1 146 -69 234t-177 89q-107 0 -193 -110 q-6 -43 -6 -82q0 -267 113 -358q50 -40 121 -40zM2194 766q130 0 216 -114t86 -272t-108 -276q-108 -120 -292 -120q-182 0 -283 160q-81 128 -81 321q0 287 198 543t454 370h9q23 -6 23 -26t-6 -23q-293 -166 -415 -427q-58 -123 -82 -273q152 137 281 137zM1254 262 q0 -149 44 -181t134 -32q14 -1 14 -29t-14 -28q-80 8 -264 8t-263 -8q-14 0 -14 28t14 29q127 1 161 39t34 172v870q0 47 -21 47q-7 0 -24 -8l-129 -59q-16 -2 -24 16t5 31q219 106 324 211q6 6 18 6t11 -14q-6 -125 -6 -172v-926zM647 -322q0 -19 -41 -32q-19 0 -39 16 q-193 174 -288 369q-119 239 -119 529t137 587q91 199 270 369q17 14 37 14t32 -12t11 -23q0 -11 -18 -31q-330 -346 -330 -874t334 -879q14 -14 14 -33z"/>
            <glyph glyph-name="uni2484" unicode="(17)" horiz-adv-x="3239" d="M3098 615q0 -289 -137 -586q-96 -205 -270 -367q-16 -16 -37 -16t-32 12t-11 24t18 29q330 342 330 875t-332 876q-16 16 -16 34t17 26t32 8t31 -14q194 -182 288 -371q119 -241 119 -530zM1932 -14q-72 0 -71 14q13 22 51 100l459 1039q9 22 9 28q0 15 -33 15h-215 q-163 0 -211 -13q-106 -29 -146 -131q-6 -14 -32 -14t-27 14l51 248q6 31 41 31h682q39 0 39 -23q0 -11 -8 -30l-510 -1264q-7 -14 -79 -14zM1254 262q0 -149 44 -181t134 -32q14 -1 14 -29t-14 -28q-80 8 -264 8t-263 -8q-14 0 -14 28t14 29q127 1 161 39t34 172v870 q0 47 -21 47q-7 0 -24 -8l-129 -59q-16 -2 -24 16t5 31q219 106 324 211q6 6 18 6t11 -14q-6 -125 -6 -172v-926zM647 -322q0 -19 -41 -32q-19 0 -39 16q-193 174 -288 369q-119 239 -119 529t137 587q91 199 270 369q17 14 37 14t32 -12t11 -23q0 -11 -18 -31 q-330 -346 -330 -874t334 -879q14 -14 14 -33z"/>
            <glyph glyph-name="uni2485" unicode="(18)" horiz-adv-x="3239" d="M3098 615q0 -289 -137 -586q-96 -205 -270 -367q-16 -16 -37 -16t-32 12t-11 24t18 29q330 342 330 875t-332 876q-16 16 -16 34t17 26t32 8t31 -14q194 -182 288 -371q119 -241 119 -530zM2341 260q-1 128 -87 211t-159 134l-29 20q-174 -101 -174 -289q0 -112 70 -198 t174 -87q105 0 163 77q42 56 42 132zM1890 1075q0 -128 159 -246q33 -25 111 -75q142 100 142 236t-75 211q-53 56 -149 56t-151 -71q-37 -48 -37 -111zM2484 332q0 -154 -110 -251t-274 -97q-162 0 -263 94t-101 237q0 209 273 353q-127 82 -166 141q-70 93 -70 213t96 216 t240 95q183 0 271 -108q61 -74 61 -187q0 -208 -227 -327q270 -173 270 -379zM1254 262q0 -149 44 -181t134 -32q14 -1 14 -29t-14 -28q-80 8 -264 8t-263 -8q-14 0 -14 28t14 29q127 1 161 39t34 172v870q0 47 -21 47q-7 0 -24 -8l-129 -59q-16 -2 -24 16t5 31 q219 106 324 211q6 6 18 6t11 -14q-6 -125 -6 -172v-926zM647 -322q0 -19 -41 -32q-19 0 -39 16q-193 174 -288 369q-119 239 -119 529t137 587q91 199 270 369q17 14 37 14t32 -12t11 -23q0 -11 -18 -31q-330 -346 -330 -874t334 -879q14 -14 14 -33z"/>
            <glyph glyph-name="uni2486" unicode="(19)" horiz-adv-x="3239" d="M3098 615q0 -289 -137 -586q-96 -205 -270 -367q-16 -16 -37 -16t-32 12t-11 24t18 29q330 342 330 875t-332 876q-16 16 -16 34t17 26t32 8t31 -14q194 -182 288 -371q119 -241 119 -530zM1880 956q0 -116 68 -205t172 -89q105 0 196 112q6 44 6 88q0 234 -98 333 q-35 33 -139 56q-109 0 -166 -106q-39 -73 -39 -189zM2117 1333q175 0 273 -137t98 -332q0 -312 -238 -586q-169 -193 -405 -313l-8 -1q-15 5 -23 25q-8 21 -8 27t6 11q190 111 318 257t176 402q-128 -135 -260 -135t-226 103q-93 110 -96 253q0 192 108 309t285 117z M1254 262q0 -149 44 -181t134 -32q14 -1 14 -29t-14 -28q-80 8 -264 8t-263 -8q-14 0 -14 28t14 29q127 1 161 39t34 172v870q0 47 -21 47q-7 0 -24 -8l-129 -59q-16 -2 -24 16t5 31q219 106 324 211q6 6 18 6t11 -14q-6 -125 -6 -172v-926zM647 -322q0 -19 -41 -32 q-19 0 -39 16q-193 174 -288 369q-119 239 -119 529t137 587q91 199 270 369q17 14 37 14t32 -12t11 -23q0 -11 -18 -31q-330 -346 -330 -874t334 -879q14 -14 14 -33z"/>
            <glyph glyph-name="uni2487" unicode="(20)" horiz-adv-x="3239" d="M3098 615q0 -289 -137 -586q-96 -205 -270 -367q-16 -16 -37 -16t-32 12t-11 24t18 29q330 342 330 875t-332 876q-16 16 -16 34t17 26t32 8t31 -14q194 -182 288 -371q119 -241 119 -530zM2341 597q-1 267 -41 469t-187 202q-123 0 -180 -180t-57 -399q0 -375 68 -507 t171 -131q103 -1 165 139t61 407zM2519 653q1 -291 -107 -480t-306 -189t-301 189t-103 493t108 486t304 181t300 -195t105 -485zM1558 248q0 -2 -1 -4l-101 -219q-15 -33 -51 -33q-135 8 -319 8t-363 -8q-41 0 -41 39q0 9 10 18q442 461 572 764q37 81 37 185t-76 165 q-55 43 -133 43q-144 0 -246 -182q-4 -4 -18 -4t-26 12q-14 12 -14 17q0 4 1 6q59 119 151 190q106 88 244 88t226 -106q73 -81 73 -223t-111 -297q-60 -82 -168 -209l-284 -318q-16 -17 -16 -30t30 -13h297q163 0 227 60q27 25 43 63q1 6 29 5q28 0 28 -17zM647 -322 q0 -19 -41 -32q-19 0 -39 16q-193 174 -288 369q-119 239 -119 529t137 587q91 199 270 369q17 14 37 14t32 -12t11 -23q0 -11 -18 -31q-330 -346 -330 -874t334 -879q14 -14 14 -33z"/>
            <glyph glyph-name="uni2488" unicode="1." horiz-adv-x="1476" d="M1095 98q0 51 36 82t91 31t85 -37q30 -38 30 -88q-1 -50 -35 -80t-87 -31q-53 0 -87 36t-33 87zM578 262q0 -149 44 -181t134 -32q14 -1 14 -29t-14 -28q-80 8 -264 8t-263 -8q-14 0 -14 28t14 29q127 1 161 39t34 172v870q0 47 -21 47q-7 0 -24 -8l-129 -59 q-16 -2 -24 16t5 31q219 106 324 211q6 6 18 6t11 -14q-6 -125 -6 -172v-926z"/>
            <glyph glyph-name="uni2489" unicode="2." horiz-adv-x="1476" d="M1095 98q0 51 36 82t91 31t85 -37q30 -38 30 -88q-1 -50 -35 -80t-87 -31q-53 0 -87 36t-33 87zM882 248q0 -2 -1 -4l-101 -219q-15 -33 -51 -33q-135 8 -319 8t-363 -8q-41 0 -41 39q0 9 10 18q442 461 572 764q37 81 37 185t-76 165q-55 43 -133 43q-144 0 -246 -182 q-4 -4 -18 -4t-26 12q-14 12 -14 17q0 4 1 6q59 119 151 190q106 88 244 88t226 -106q73 -81 73 -223t-111 -297q-60 -82 -168 -209l-284 -318q-16 -17 -16 -30t30 -13h297q163 0 227 60q27 25 43 63q1 6 29 5q28 0 28 -17z"/>
            <glyph glyph-name="uni248A" unicode="3." horiz-adv-x="1476" d="M1095 98q0 51 36 82t91 31t85 -37q30 -38 30 -88q-1 -50 -35 -80t-87 -31q-53 0 -87 36t-33 87zM819 414q0 -185 -132 -311t-316 -126q-141 0 -208 46t-67 94t29 66t58 18t97 -74t144 -74q108 -1 166 105t59 232q-1 126 -75 214q-74 86 -207 86q-65 0 -113 -16 q-14 0 -14 40t14 40q180 0 275 93q71 70 71 175t-69 163q-50 42 -119 42q-118 0 -207 -137q-1 -3 -15 -3q-14 -1 -26 15t-12 21t2 7q137 203 325 203q115 -1 194 -85t79 -195q0 -167 -183 -271q-32 -18 -32 -27t28 -14q254 -51 254 -327z"/>
            <glyph glyph-name="uni248B" unicode="4." horiz-adv-x="1476" d="M1095 98q0 51 36 82t91 31t85 -37q30 -38 30 -88q-1 -50 -35 -80t-87 -31q-53 0 -87 36t-33 87zM870 391h-116q-23 0 -23 -20v-244q0 -78 121 -78q14 -1 14 -29t-14 -28q-77 8 -216 8t-216 -8q-14 0 -14 28t14 29q158 0 158 78v244q0 20 -21 20h-477q-67 0 -67 37 q0 30 46 92l222 301q14 19 419 604q9 13 39 13q58 0 58 -31l-647 -897q-8 -11 -8 -19q0 -14 26 -14h389q21 0 21 21v444q0 15 76 15t77 -15v-444q0 -21 23 -21h116q18 0 18 -43t-18 -43z"/>
            <glyph glyph-name="uni248C" unicode="5." horiz-adv-x="1476" d="M1095 98q0 51 36 82t91 31t85 -37q30 -38 30 -88q-1 -50 -35 -80t-87 -31q-53 0 -87 36t-33 87zM813 496q1 -216 -133 -364t-346 -148q-141 0 -206 53q-36 31 -36 74q0 82 82 82q39 -1 108 -63t136 -62q112 0 185 108t73 230q0 208 -141 291q-78 46 -191 46 q-50 0 -129 -18h-13q-15 0 -15 23q0 5 1 10l93 530q5 29 32 29h471q7 0 7 -35q1 -36 -17 -72t-24 -36h-383q-29 0 -33 -27l-43 -234q-3 -23 12 -23l80 5q233 0 347 -139q83 -101 83 -260z"/>
            <glyph glyph-name="uni248D" unicode="6." horiz-adv-x="1476" d="M1095 98q0 51 36 82t91 31t85 -37q30 -38 30 -88q-1 -50 -35 -80t-87 -31q-53 0 -87 36t-33 87zM498 63q103 0 164 96q47 73 47 171q1 146 -69 234t-177 89q-107 0 -193 -110q-6 -43 -6 -82q0 -267 113 -358q50 -40 121 -40zM562 766q130 0 216 -114t86 -272t-108 -276 q-108 -120 -292 -120q-182 0 -283 160q-81 128 -81 321q0 287 198 543t454 370h9q23 -6 23 -26t-6 -23q-293 -166 -415 -427q-58 -123 -82 -273q152 137 281 137z"/>
            <glyph glyph-name="uni248E" unicode="7." horiz-adv-x="1476" d="M1095 98q0 51 36 82t91 31t85 -37q30 -38 30 -88q-1 -50 -35 -80t-87 -31q-53 0 -87 36t-33 87zM300 -14q-72 0 -71 14q13 22 51 100l459 1039q9 22 9 28q0 15 -33 15h-215q-163 0 -211 -13q-106 -29 -146 -131q-6 -14 -32 -14t-27 14l51 248q6 31 41 31h682q39 0 39 -23 q0 -11 -8 -30l-510 -1264q-7 -14 -79 -14z"/>
            <glyph glyph-name="uni248F" unicode="8." horiz-adv-x="1476" d="M1095 98q0 51 36 82t91 31t85 -37q30 -38 30 -88q-1 -50 -35 -80t-87 -31q-53 0 -87 36t-33 87zM709 260q-1 128 -87 211t-159 134l-29 20q-174 -101 -174 -289q0 -112 70 -198t174 -87q105 0 163 77q42 56 42 132zM258 1075q0 -128 159 -246q33 -25 111 -75 q142 100 142 236t-75 211q-53 56 -149 56t-151 -71q-37 -48 -37 -111zM852 332q0 -154 -110 -251t-274 -97q-162 0 -263 94t-101 237q0 209 273 353q-127 82 -166 141q-70 93 -70 213t96 216t240 95q183 0 271 -108q61 -74 61 -187q0 -208 -227 -327q270 -173 270 -379z"/>
            <glyph glyph-name="uni2490" unicode="9." horiz-adv-x="1476" d="M1095 98q0 51 36 82t91 31t85 -37q30 -38 30 -88q-1 -50 -35 -80t-87 -31q-53 0 -87 36t-33 87zM248 956q0 -116 68 -205t172 -89q105 0 196 112q6 44 6 88q0 234 -98 333q-35 33 -139 56q-109 0 -166 -106q-39 -73 -39 -189zM485 1333q175 0 273 -137t98 -332 q0 -312 -238 -586q-169 -193 -405 -313l-8 -1q-15 5 -23 25q-8 21 -8 27t6 11q190 111 318 257t176 402q-128 -135 -260 -135t-226 103q-93 110 -96 253q0 192 108 309t285 117z"/>
            <glyph glyph-name="uni2491" unicode="10." horiz-adv-x="2432" d="M2051 98q0 51 36 82t91 31t85 -37q30 -38 30 -88q-1 -50 -35 -80t-87 -31q-53 0 -87 36t-33 87zM1665 597q-1 267 -41 469t-187 202q-123 0 -180 -180t-57 -399q0 -375 68 -507t171 -131q103 -1 165 139t61 407zM1843 653q1 -291 -107 -480t-306 -189t-301 189t-103 493 t108 486t304 181t300 -195t105 -485zM578 262q0 -149 44 -181t134 -32q14 -1 14 -29t-14 -28q-80 8 -264 8t-263 -8q-14 0 -14 28t14 29q127 1 161 39t34 172v870q0 47 -21 47q-7 0 -24 -8l-129 -59q-16 -2 -24 16t5 31q219 106 324 211q6 6 18 6t11 -14q-6 -125 -6 -172 v-926z"/>
            <glyph glyph-name="uni2492" unicode="11." horiz-adv-x="2432" d="M2051 98q0 51 36 82t91 31t85 -37q30 -38 30 -88q-1 -50 -35 -80t-87 -31q-53 0 -87 36t-33 87zM1534 262q0 -149 44 -181t134 -32q14 -1 14 -29t-14 -28q-80 8 -264 8t-263 -8q-14 0 -14 28t14 29q127 1 161 39t34 172v870q0 47 -21 47q-7 0 -24 -8l-129 -59 q-16 -2 -24 16t5 31q219 106 324 211q6 6 18 6t11 -14q-6 -125 -6 -172v-926zM578 262q0 -149 44 -181t134 -32q14 -1 14 -29t-14 -28q-80 8 -264 8t-263 -8q-14 0 -14 28t14 29q127 1 161 39t34 172v870q0 47 -21 47q-7 0 -24 -8l-129 -59q-16 -2 -24 16t5 31 q219 106 324 211q6 6 18 6t11 -14q-6 -125 -6 -172v-926z"/>
            <glyph glyph-name="uni2493" unicode="12." horiz-adv-x="2432" d="M2051 98q0 51 36 82t91 31t85 -37q30 -38 30 -88q-1 -50 -35 -80t-87 -31q-53 0 -87 36t-33 87zM1838 248q0 -2 -1 -4l-101 -219q-15 -33 -51 -33q-135 8 -319 8t-363 -8q-41 0 -41 39q0 9 10 18q442 461 572 764q37 81 37 185t-76 165q-55 43 -133 43q-144 0 -246 -182 q-4 -4 -18 -4t-26 12q-14 12 -14 17q0 4 1 6q59 119 151 190q106 88 244 88t226 -106q73 -81 73 -223t-111 -297q-60 -82 -168 -209l-284 -318q-16 -17 -16 -30t30 -13h297q163 0 227 60q27 25 43 63q1 6 29 5q28 0 28 -17zM578 262q0 -149 44 -181t134 -32q14 -1 14 -29 t-14 -28q-80 8 -264 8t-263 -8q-14 0 -14 28t14 29q127 1 161 39t34 172v870q0 47 -21 47q-7 0 -24 -8l-129 -59q-16 -2 -24 16t5 31q219 106 324 211q6 6 18 6t11 -14q-6 -125 -6 -172v-926z"/>
            <glyph glyph-name="uni2494" unicode="13." horiz-adv-x="2432" d="M2051 98q0 51 36 82t91 31t85 -37q30 -38 30 -88q-1 -50 -35 -80t-87 -31q-53 0 -87 36t-33 87zM1775 414q0 -185 -132 -311t-316 -126q-141 0 -208 46t-67 94t29 66t58 18t97 -74t144 -74q108 -1 166 105t59 232q-1 126 -75 214q-74 86 -207 86q-65 0 -113 -16 q-14 0 -14 40t14 40q180 0 275 93q71 70 71 175t-69 163q-50 42 -119 42q-118 0 -207 -137q-1 -3 -15 -3q-14 -1 -26 15t-12 21t2 7q137 203 325 203q115 -1 194 -85t79 -195q0 -167 -183 -271q-32 -18 -32 -27t28 -14q254 -51 254 -327zM578 262q0 -149 44 -181t134 -32 q14 -1 14 -29t-14 -28q-80 8 -264 8t-263 -8q-14 0 -14 28t14 29q127 1 161 39t34 172v870q0 47 -21 47q-7 0 -24 -8l-129 -59q-16 -2 -24 16t5 31q219 106 324 211q6 6 18 6t11 -14q-6 -125 -6 -172v-926z"/>
            <glyph glyph-name="uni2495" unicode="14." horiz-adv-x="2432" d="M2051 98q0 51 36 82t91 31t85 -37q30 -38 30 -88q-1 -50 -35 -80t-87 -31q-53 0 -87 36t-33 87zM1826 391h-116q-23 0 -23 -20v-244q0 -78 121 -78q14 -1 14 -29t-14 -28q-77 8 -216 8t-216 -8q-14 0 -14 28t14 29q158 0 158 78v244q0 20 -21 20h-477q-67 0 -67 37 q0 30 46 92l222 301q14 19 419 604q9 13 39 13q58 0 58 -31l-647 -897q-8 -11 -8 -19q0 -14 26 -14h389q21 0 21 21v444q0 15 76 15t77 -15v-444q0 -21 23 -21h116q18 0 18 -43t-18 -43zM578 262q0 -149 44 -181t134 -32q14 -1 14 -29t-14 -28q-80 8 -264 8t-263 -8 q-14 0 -14 28t14 29q127 1 161 39t34 172v870q0 47 -21 47q-7 0 -24 -8l-129 -59q-16 -2 -24 16t5 31q219 106 324 211q6 6 18 6t11 -14q-6 -125 -6 -172v-926z"/>
            <glyph glyph-name="uni2496" unicode="15." horiz-adv-x="2432" d="M2051 98q0 51 36 82t91 31t85 -37q30 -38 30 -88q-1 -50 -35 -80t-87 -31q-53 0 -87 36t-33 87zM1769 496q1 -216 -133 -364t-346 -148q-141 0 -206 53q-36 31 -36 74q0 82 82 82q39 -1 108 -63t136 -62q112 0 185 108t73 230q0 208 -141 291q-78 46 -191 46 q-50 0 -129 -18h-13q-15 0 -15 23q0 5 1 10l93 530q5 29 32 29h471q7 0 7 -35q1 -36 -17 -72t-24 -36h-383q-29 0 -33 -27l-43 -234q-3 -23 12 -23l80 5q233 0 347 -139q83 -101 83 -260zM578 262q0 -149 44 -181t134 -32q14 -1 14 -29t-14 -28q-80 8 -264 8t-263 -8 q-14 0 -14 28t14 29q127 1 161 39t34 172v870q0 47 -21 47q-7 0 -24 -8l-129 -59q-16 -2 -24 16t5 31q219 106 324 211q6 6 18 6t11 -14q-6 -125 -6 -172v-926z"/>
            <glyph glyph-name="uni2497" unicode="16." horiz-adv-x="2432" d="M2051 98q0 51 36 82t91 31t85 -37q30 -38 30 -88q-1 -50 -35 -80t-87 -31q-53 0 -87 36t-33 87zM1454 63q103 0 164 96q47 73 47 171q1 146 -69 234t-177 89q-107 0 -193 -110q-6 -43 -6 -82q0 -267 113 -358q50 -40 121 -40zM1518 766q130 0 216 -114t86 -272t-108 -276 q-108 -120 -292 -120q-182 0 -283 160q-81 128 -81 321q0 287 198 543t454 370h9q23 -6 23 -26t-6 -23q-293 -166 -415 -427q-58 -123 -82 -273q152 137 281 137zM578 262q0 -149 44 -181t134 -32q14 -1 14 -29t-14 -28q-80 8 -264 8t-263 -8q-14 0 -14 28t14 29 q127 1 161 39t34 172v870q0 47 -21 47q-7 0 -24 -8l-129 -59q-16 -2 -24 16t5 31q219 106 324 211q6 6 18 6t11 -14q-6 -125 -6 -172v-926z"/>
            <glyph glyph-name="uni2498" unicode="17." horiz-adv-x="2432" d="M2051 98q0 51 36 82t91 31t85 -37q30 -38 30 -88q-1 -50 -35 -80t-87 -31q-53 0 -87 36t-33 87zM1256 -14q-72 0 -71 14q13 22 51 100l459 1039q9 22 9 28q0 15 -33 15h-215q-163 0 -211 -13q-106 -29 -146 -131q-6 -14 -32 -14t-27 14l51 248q6 31 41 31h682 q39 0 39 -23q0 -11 -8 -30l-510 -1264q-7 -14 -79 -14zM578 262q0 -149 44 -181t134 -32q14 -1 14 -29t-14 -28q-80 8 -264 8t-263 -8q-14 0 -14 28t14 29q127 1 161 39t34 172v870q0 47 -21 47q-7 0 -24 -8l-129 -59q-16 -2 -24 16t5 31q219 106 324 211q6 6 18 6t11 -14 q-6 -125 -6 -172v-926z"/>
            <glyph glyph-name="uni2499" unicode="18." horiz-adv-x="2432" d="M2051 98q0 51 36 82t91 31t85 -37q30 -38 30 -88q-1 -50 -35 -80t-87 -31q-53 0 -87 36t-33 87zM1665 260q-1 128 -87 211t-159 134l-29 20q-174 -101 -174 -289q0 -112 70 -198t174 -87q105 0 163 77q42 56 42 132zM1214 1075q0 -128 159 -246q33 -25 111 -75 q142 100 142 236t-75 211q-53 56 -149 56t-151 -71q-37 -48 -37 -111zM1808 332q0 -154 -110 -251t-274 -97q-162 0 -263 94t-101 237q0 209 273 353q-127 82 -166 141q-70 93 -70 213t96 216t240 95q183 0 271 -108q61 -74 61 -187q0 -208 -227 -327q270 -173 270 -379z M578 262q0 -149 44 -181t134 -32q14 -1 14 -29t-14 -28q-80 8 -264 8t-263 -8q-14 0 -14 28t14 29q127 1 161 39t34 172v870q0 47 -21 47q-7 0 -24 -8l-129 -59q-16 -2 -24 16t5 31q219 106 324 211q6 6 18 6t11 -14q-6 -125 -6 -172v-926z"/>
            <glyph glyph-name="uni249A" unicode="19." horiz-adv-x="2432" d="M2051 98q0 51 36 82t91 31t85 -37q30 -38 30 -88q-1 -50 -35 -80t-87 -31q-53 0 -87 36t-33 87zM1204 956q0 -116 68 -205t172 -89q105 0 196 112q6 44 6 88q0 234 -98 333q-35 33 -139 56q-109 0 -166 -106q-39 -73 -39 -189zM1441 1333q175 0 273 -137t98 -332 q0 -312 -238 -586q-169 -193 -405 -313l-8 -1q-15 5 -23 25q-8 21 -8 27t6 11q190 111 318 257t176 402q-128 -135 -260 -135t-226 103q-93 110 -96 253q0 192 108 309t285 117zM578 262q0 -149 44 -181t134 -32q14 -1 14 -29t-14 -28q-80 8 -264 8t-263 -8q-14 0 -14 28 t14 29q127 1 161 39t34 172v870q0 47 -21 47q-7 0 -24 -8l-129 -59q-16 -2 -24 16t5 31q219 106 324 211q6 6 18 6t11 -14q-6 -125 -6 -172v-926z"/>
            <glyph glyph-name="uni249B" unicode="20." horiz-adv-x="2432" d="M2051 98q0 51 36 82t91 31t85 -37q30 -38 30 -88q-1 -50 -35 -80t-87 -31q-53 0 -87 36t-33 87zM1665 597q-1 267 -41 469t-187 202q-123 0 -180 -180t-57 -399q0 -375 68 -507t171 -131q103 -1 165 139t61 407zM1843 653q1 -291 -107 -480t-306 -189t-301 189t-103 493 t108 486t304 181t300 -195t105 -485zM882 248q0 -2 -1 -4l-101 -219q-15 -33 -51 -33q-135 8 -319 8t-363 -8q-41 0 -41 39q0 9 10 18q442 461 572 764q37 81 37 185t-76 165q-55 43 -133 43q-144 0 -246 -182q-4 -4 -18 -4t-26 12q-14 12 -14 17q0 4 1 6q59 119 151 190 q106 88 244 88t226 -106q73 -81 73 -223t-111 -297q-60 -82 -168 -209l-284 -318q-16 -17 -16 -30t30 -13h297q163 0 227 60q27 25 43 63q1 6 29 5q28 0 28 -17z"/>
            <glyph glyph-name="uni249C" unicode="(a)" horiz-adv-x="2124" d="M1983 615q0 -289 -137 -586q-96 -205 -270 -367q-16 -16 -37 -16t-32 12t-11 24t18 29q330 342 330 875t-332 876q-16 16 -16 34t17 26t32 8t31 -14q194 -182 288 -371q119 -241 119 -530zM1316 -23q-105 0 -142 136q-76 -76 -121 -106t-117 -30t-108 31q-36 32 -52 72 t-16 82t20 82t58 74q38 32 67 47l232 129q20 11 20 32v181q0 88 -133 88q-97 0 -135 -50q-5 -7 -16 -99t-67 -93q-56 0 -56 56q0 57 40 113t70 73q128 75 246 75q72 0 138 -40t66 -99v-532q0 -115 67 -115q19 0 47 20t32 19q22 -3 29 -30q0 -3 -1 -5q-41 -69 -76 -90 t-92 -21zM1157 199v215q0 22 -14 22q-7 0 -60 -26q-170 -85 -170 -222q-1 -50 31 -80t80 -30t90 42t43 79zM647 -322q0 -19 -41 -32q-19 0 -39 16q-193 174 -288 369q-119 239 -119 529t137 587q91 199 270 369q17 14 37 14t32 -12t11 -23q0 -11 -18 -31 q-330 -346 -330 -874t334 -879q14 -14 14 -33z"/>
            <glyph glyph-name="uni249D" unicode="(b)" horiz-adv-x="2328" d="M2187 615q0 -289 -137 -586q-96 -205 -270 -367q-16 -16 -37 -16t-32 12t-11 24t18 29q330 342 330 875t-332 876q-16 16 -16 34t17 26t32 8t31 -14q194 -182 288 -371q119 -241 119 -530zM1432 414q0 156 -76 266t-199 111q-86 0 -147 -50q-23 -18 -23 -94v-346 q-1 -81 75 -173t172 -91t147 111t51 266zM1606 430q0 -218 -112 -336t-294 -117q-59 0 -155 46q-24 10 -58 10t-96 -56q-3 -2 -9 -2t-29 9t-23 16q4 61 4 260v918q0 133 -92 133q-17 -1 -17 27t17 28q25 0 105 41q81 41 101 59t32 19q12 0 13 -25l-6 -124v-500q0 -27 11 -27 t22 6q94 55 176 55q176 0 293 -132t117 -308zM647 -322q0 -19 -41 -32q-19 0 -39 16q-193 174 -288 369q-119 239 -119 529t137 587q91 199 270 369q17 14 37 14t32 -12t11 -23q0 -11 -18 -31q-330 -346 -330 -874t334 -879q14 -14 14 -33z"/>
            <glyph glyph-name="uni249E" unicode="(c)" horiz-adv-x="2144" d="M2003 615q0 -289 -137 -586q-96 -205 -270 -367q-16 -16 -37 -16t-32 12t-11 24t18 29q330 342 330 875t-332 876q-16 16 -16 34t17 26t32 8t31 -14q194 -182 288 -371q119 -241 119 -530zM1457 109q-1 -17 -97 -74t-240 -57t-251 116q-107 117 -107 302q0 186 122 330 t316 144t232 -73q6 -12 6 -36q0 -23 -22 -51t-39 -28t-27 14q-78 107 -173 107q-95 -1 -173 -103t-78 -260t88 -254q90 -96 180 -96t225 62q11 4 25 -16t13 -27zM647 -322q0 -19 -41 -32q-19 0 -39 16q-193 174 -288 369q-119 239 -119 529t137 587q91 199 270 369 q17 14 37 14t32 -12t11 -23q0 -11 -18 -31q-330 -346 -330 -874t334 -879q14 -14 14 -33z"/>
            <glyph glyph-name="uni249F" unicode="(d)" horiz-adv-x="2339" d="M2198 615q0 -289 -137 -586q-96 -205 -270 -367q-16 -16 -37 -16t-32 12t-11 24t18 29q330 342 330 875t-332 876q-16 16 -16 34t17 26t32 8t31 -14q194 -182 288 -371q119 -241 119 -530zM1364 199v469q0 75 -22 94q-59 49 -148 49q-134 1 -212 -111t-77 -260 q0 -148 83 -257t192 -109q78 0 131 41t53 84zM1517 231q0 -149 82 -149q11 0 47 6q12 2 16 -27t-4 -30q-37 -5 -153 -31t-124 -33q-17 0 -17 49v41q0 23 -12 23t-27 -14q-94 -89 -196 -89q-197 1 -292 123t-95 311t132 324t343 135q70 0 98 -9t35 -9q14 0 14 25v294 q0 140 -92 140q-17 -1 -17 27t17 28q24 0 96 36t104 60q32 23 42 23t9 -15l-6 -108v-1131zM647 -322q0 -19 -41 -32q-19 0 -39 16q-193 174 -288 369q-119 239 -119 529t137 587q91 199 270 369q17 14 37 14t32 -12t11 -23q0 -11 -18 -31q-330 -346 -330 -874t334 -879 q14 -14 14 -33z"/>
            <glyph glyph-name="uni24A0" unicode="(e)" horiz-adv-x="2165" d="M2024 615q0 -289 -137 -586q-96 -205 -270 -367q-16 -16 -37 -16t-32 12t-11 24t18 29q330 342 330 875t-332 876q-16 16 -16 34t17 26t32 8t31 -14q194 -182 288 -371q119 -241 119 -530zM937 630q0 -14 24 -14h321q15 0 15 17q-1 44 -55 111t-116 67q-125 0 -186 -166 q-3 -8 -3 -15zM761 431q-1 179 113 309t255 130t228 -98t87 -160t-51 -63h-449q-30 0 -30 -66q0 -161 76 -275t212 -114q101 0 201 60q5 3 14 3t17 -9q8 -8 8 -18t-4 -13q-158 -140 -311 -140t-259 138t-107 316zM647 -322q0 -19 -41 -32q-19 0 -39 16q-193 174 -288 369 q-119 239 -119 529t137 587q91 199 270 369q17 14 37 14t32 -12t11 -23q0 -11 -18 -31q-330 -346 -330 -874t334 -879q14 -14 14 -33z"/>
            <glyph glyph-name="uni24A1" unicode="(f)" horiz-adv-x="2151" d="M2010 615q0 -289 -137 -586q-96 -205 -270 -367q-16 -16 -37 -16t-32 12t-11 24t18 29q330 342 330 875t-332 876q-16 16 -16 34t17 26t32 8t31 -14q194 -182 288 -371q119 -241 119 -530zM877 127v600q0 37 -37 37h-74q-15 0 -15 28t15 27q111 0 111 86v19 q0 250 141 406t330 157q114 0 162 -52q24 -25 24 -61t-28 -63t-58 -27q-56 0 -102 54t-99 55q-105 0 -161 -85t-56 -207v-214q0 -37 37 -37h203q15 0 15 -43t-15 -43h-203q-37 0 -37 -37v-600q0 -78 148 -78q14 -1 14 -29t-14 -28q-85 8 -211 8t-207 -8q-14 0 -14 28t14 29 q117 0 117 78zM647 -322q0 -19 -41 -32q-19 0 -39 16q-193 174 -288 369q-119 239 -119 529t137 587q91 199 270 369q17 14 37 14t32 -12t11 -23q0 -11 -18 -31q-330 -346 -330 -874t334 -879q14 -14 14 -33z"/>
            <glyph glyph-name="uni24A2" unicode="(g)" horiz-adv-x="2275" d="M2134 615q0 -289 -137 -586q-96 -205 -270 -367q-16 -16 -37 -16t-32 12t-11 24t18 29q330 342 330 875t-332 876q-16 16 -16 34t17 26t32 8t31 -14q194 -182 288 -371q119 -241 119 -530zM1307 543q0 268 -196 268q-69 -1 -127 -67t-58 -175t66 -179t145 -71 q170 0 170 224zM895 -252q0 -98 73 -158t211 -59t227 67t89 160q0 187 -244 187h-184q-35 0 -61 -19q-111 -80 -111 -178zM735 -313q0 105 187 239q16 14 16 22q-2 11 -20 15q-136 39 -136 148q0 51 114 131q10 7 24 15t13 20q0 12 -15 22q-146 93 -146 239t100 239t228 93 q127 0 214 -38t138 -39h172q15 0 15 -43t-15 -43h-166q4 -37 4 -109q0 -146 -94 -242t-262 -96q-33 0 -65 2t-54 -12q-69 -45 -69 -100q0 -80 149 -80h254q297 0 297 -228q0 -170 -160 -286t-347 -115q-188 1 -282 71t-94 175zM647 -322q0 -19 -41 -32q-19 0 -39 16 q-193 174 -288 369q-119 239 -119 529t137 587q91 199 270 369q17 14 37 14t32 -12t11 -23q0 -11 -18 -31q-330 -346 -330 -874t334 -879q14 -14 14 -33z"/>
            <glyph glyph-name="uni24A3" unicode="(h)" horiz-adv-x="2421" d="M2280 615q0 -289 -137 -586q-96 -205 -270 -367q-16 -16 -37 -16t-32 12t-11 24t18 29q330 342 330 875t-332 876q-16 16 -16 34t17 26t32 8t31 -14q194 -182 288 -371q119 -241 119 -530zM1597 127q0 -78 127 -78q14 -1 14 -29t-14 -28q-82 8 -198 8t-195 -8 q-14 0 -14 28t14 29q113 0 113 78v420q0 97 -59 165t-143 68t-148 -51t-64 -100v-502q0 -78 111 -78q14 -1 14 -29t-14 -28q-105 8 -205 8t-180 -8q-14 0 -14 28t14 29q121 0 121 78v1047q0 139 -92 139q-17 -1 -17 27t17 28q33 0 97 34t98 60q56 45 56 8q-6 -107 -6 -165 v-514q0 -25 16 -25q9 0 17 8q91 96 239 96t221 -106q74 -106 74 -215v-422zM647 -322q0 -19 -41 -32q-19 0 -39 16q-193 174 -288 369q-119 239 -119 529t137 587q91 199 270 369q17 14 37 14t32 -12t11 -23q0 -11 -18 -31q-330 -346 -330 -874t334 -879q14 -14 14 -33z"/>
            <glyph glyph-name="uni24A4" unicode="(i)" horiz-adv-x="1851" d="M1710 615q0 -289 -137 -586q-96 -205 -270 -367q-16 -16 -37 -16t-32 12t-11 24t18 29q330 342 330 875t-332 876q-16 16 -16 34t17 26t32 8t31 -14q194 -182 288 -371q119 -241 119 -530zM1041 1157q0 -45 -32 -77t-77 -32q-46 0 -76 32t-30 77t30 75t76 31 q45 -1 77 -31t32 -75zM956 0q-111 0 -192 -8q-14 0 -14 28t14 29q113 0 113 78v444q0 138 -92 138q-17 0 -17 28t17 28q33 0 97 34t98 59q32 25 44 25t12 -16q-6 -108 -6 -166v-574q0 -78 113 -78q14 -1 14 -29t-14 -28q-76 8 -187 8zM647 -322q0 -19 -41 -32q-19 0 -39 16 q-193 174 -288 369q-119 239 -119 529t137 587q91 199 270 369q17 14 37 14t32 -12t11 -23q0 -11 -18 -31q-330 -346 -330 -874t334 -879q14 -14 14 -33z"/>
            <glyph glyph-name="uni24A5" unicode="(j)" horiz-adv-x="1845" d="M1704 615q0 -289 -137 -586q-96 -205 -270 -367q-16 -16 -37 -16t-32 12t-11 24t18 29q330 342 330 875t-332 876q-16 16 -16 34t17 26t32 8t31 -14q194 -182 288 -371q119 -241 119 -530zM1034 59q0 -329 -110 -483q-93 -131 -248 -131q-50 0 -88 28t-37 64t25 55t63 19 t79 -39t64 -39q99 0 99 213v825q0 138 -92 138q-17 0 -17 28t17 28q33 0 97 34t98 59q32 25 44 25t12 -16q-6 -108 -6 -166v-642zM1041 1157q0 -45 -32 -77t-77 -32q-46 0 -76 32t-30 77t30 75t76 31q45 -1 77 -31t32 -75zM647 -322q0 -19 -41 -32q-19 0 -39 16 q-193 174 -288 369q-119 239 -119 529t137 587q91 199 270 369q17 14 37 14t32 -12t11 -23q0 -11 -18 -31q-330 -346 -330 -874t334 -879q14 -14 14 -33z"/>
            <glyph glyph-name="uni24A6" unicode="(k)" horiz-adv-x="2335" d="M2194 615q0 -289 -137 -586q-96 -205 -270 -367q-16 -16 -37 -16t-32 12t-11 24t18 29q330 342 330 875t-332 876q-16 16 -16 34t17 26t32 8t31 -14q194 -182 288 -371q119 -241 119 -530zM1030 369v-242q0 -78 119 -78q14 -1 14 -29t-14 -28q-104 8 -198 8t-189 -8 q-14 0 -14 28t14 29q115 0 115 78v1048q0 138 -92 138q-17 0 -17 28t17 28q33 0 97 34t98 59q32 25 44 25t12 -16q-6 -105 -6 -166v-783q0 -43 46 -43t67 23l197 221q26 29 26 47q0 33 -96 33q-14 1 -14 27t14 26q92 -6 190 -6t174 6q14 0 14 -26t-14 -27q-92 0 -163 -68 l-213 -205q-19 -18 -19 -34t17 -35l321 -367q39 -45 129 -45q14 -1 14 -29t-14 -28q-95 8 -202 8t-201 -8q-14 0 -14 28t14 29q82 0 82 29q0 13 -31 49l-221 254q-28 31 -70 31q-33 0 -33 -43zM647 -322q0 -19 -41 -32q-19 0 -39 16q-193 174 -288 369q-119 239 -119 529 t137 587q91 199 270 369q17 14 37 14t32 -12t11 -23q0 -11 -18 -31q-330 -346 -330 -874t334 -879q14 -14 14 -33z"/>
            <glyph glyph-name="uni24A7" unicode="(l)" horiz-adv-x="1851" d="M1710 615q0 -289 -137 -586q-96 -205 -270 -367q-16 -16 -37 -16t-32 12t-11 24t18 29q330 342 330 875t-332 876q-16 16 -16 34t17 26t32 8t31 -14q194 -182 288 -371q119 -241 119 -530zM1030 127q0 -78 119 -78q14 -1 14 -29t-14 -28q-77 8 -193 8t-196 -8 q-14 0 -14 28t14 29q117 0 117 78v1044q0 140 -92 140q-17 -1 -17 27t17 28q46 0 165 74q34 21 50 33t26 12t10 -15q-6 -57 -6 -97v-1246zM647 -322q0 -19 -41 -32q-19 0 -39 16q-193 174 -288 369q-119 239 -119 529t137 587q91 199 270 369q17 14 37 14t32 -12t11 -23 q0 -11 -18 -31q-330 -346 -330 -874t334 -879q14 -14 14 -33z"/>
            <glyph glyph-name="uni24A8" unicode="(m)" horiz-adv-x="2937" d="M2796 615q0 -289 -137 -586q-96 -205 -270 -367q-16 -16 -37 -16t-32 12t-11 24t18 29q330 342 330 875t-332 876q-16 16 -16 34t17 26t32 8t31 -14q194 -182 288 -371q119 -241 119 -530zM2040 0q-112 0 -190 -8q-14 0 -14 28t14 29q110 0 110 78v453q0 116 -56 158 t-144 42q-86 0 -138 -82t-51 -221v-350q0 -78 115 -78q14 -1 14 -29t-14 -28q-80 8 -190 8t-188 -8q-14 0 -14 28t14 29q110 0 110 78v405q0 182 -64 226q-32 22 -92 22t-92 -17q-140 -73 -140 -173v-463q0 -78 106 -78q14 -1 14 -29t-14 -28q-76 8 -188 8t-192 -8 q-14 0 -14 28t14 29q121 0 121 78v451q0 124 -84 124q-17 0 -17 28t17 28q25 0 83 34t94 63q36 28 50 28t13 -27q-4 -78 -4 -91q1 -13 11 -13t18 8q104 110 244 110t224 -122q12 -16 20 -16t19 13q113 125 274 125q121 0 181 -68t76 -118t17 -119v-438q0 -78 116 -78 q14 -1 14 -29t-14 -28q-77 8 -189 8zM647 -322q0 -19 -41 -32q-19 0 -39 16q-193 174 -288 369q-119 239 -119 529t137 587q91 199 270 369q17 14 37 14t32 -12t11 -23q0 -11 -18 -31q-330 -346 -330 -874t334 -879q14 -14 14 -33z"/>
            <glyph glyph-name="uni24A9" unicode="(n)" horiz-adv-x="2396" d="M2255 615q0 -289 -137 -586q-96 -205 -270 -367q-16 -16 -37 -16t-32 12t-11 24t18 29q330 342 330 875t-332 876q-16 16 -16 34t17 26t32 8t31 -14q194 -182 288 -371q119 -241 119 -530zM1572 127q0 -78 115 -78q14 -1 14 -29t-14 -28q-77 8 -187 8t-191 -8 q-14 0 -14 28t14 29q110 0 110 78v403q0 178 -60 226q-31 24 -91 24t-94 -17q-144 -72 -144 -173v-463q0 -78 107 -78q14 -1 14 -29t-14 -28q-77 8 -187 8t-188 -8q-14 0 -14 28t14 29q115 0 115 78v447q0 128 -84 128q-17 0 -17 28t17 28q69 0 174 92q37 32 51 33 q14 0 14 -31l-2 -73q-1 -21 14 -21q8 0 15 6q107 106 257 106t223 -147q33 -66 33 -248v-348zM647 -322q0 -19 -41 -32q-19 0 -39 16q-193 174 -288 369q-119 239 -119 529t137 587q91 199 270 369q17 14 37 14t32 -12t11 -23q0 -11 -18 -31q-330 -346 -330 -874t334 -879 q14 -14 14 -33z"/>
            <glyph glyph-name="uni24AA" unicode="(o)" horiz-adv-x="2322" d="M2181 615q0 -289 -137 -586q-96 -205 -270 -367q-16 -16 -37 -16t-32 12t-11 24t18 29q330 342 330 875t-332 876q-16 16 -16 34t17 26t32 8t31 -14q194 -182 288 -371q119 -241 119 -530zM923 422q-1 -178 81 -278t177 -101t175 101t81 278q0 176 -80 282 q-79 106 -175 106t-178 -104q-82 -106 -81 -284zM760 428q0 168 125 305t299 137t295 -137t121 -313t-111 -310t-297 -133q-186 -1 -309 141t-123 310zM647 -322q0 -19 -41 -32q-19 0 -39 16q-193 174 -288 369q-119 239 -119 529t137 587q91 199 270 369q17 14 37 14 t32 -12t11 -23q0 -11 -18 -31q-330 -346 -330 -874t334 -879q14 -14 14 -33z"/>
            <glyph glyph-name="uni24AB" unicode="(p)" horiz-adv-x="2298" d="M2157 615q0 -289 -137 -586q-96 -205 -270 -367q-16 -16 -37 -16t-32 12t-11 24t18 29q330 342 330 875t-332 876q-16 16 -16 34t17 26t32 8t31 -14q194 -182 288 -371q119 -241 119 -530zM1447 420q0 368 -264 368q-84 0 -160 -100q-20 -26 -20 -94v-389 q-1 -164 189 -164q140 0 198 111t57 268zM1621 418q1 -198 -109 -320t-305 -121q-110 0 -167 19q-6 2 -11 2q-26 0 -26 -33v-381q0 -86 151 -86q14 0 14 -28t-14 -29q-85 8 -212 8t-207 -8q-14 1 -14 29t14 28q115 0 115 84v999q0 124 -86 124q-17 -1 -17 27t17 28 q29 0 99 40q69 40 91 62t40 21q13 0 13 -27l-4 -68q0 -20 16 -20q9 0 18 8q83 94 191 94t202 -68t142 -154q48 -85 49 -230zM647 -322q0 -19 -41 -32q-19 0 -39 16q-193 174 -288 369q-119 239 -119 529t137 587q91 199 270 369q17 14 37 14t32 -12t11 -23q0 -11 -18 -31 q-330 -346 -330 -874t334 -879q14 -14 14 -33z"/>
            <glyph glyph-name="uni24AC" unicode="(q)" horiz-adv-x="2259" d="M2118 615q0 -289 -137 -586q-96 -205 -270 -367q-16 -16 -37 -16t-32 12t-11 24t18 29q330 342 330 875t-332 876q-16 16 -16 34t17 26t32 8t31 -14q194 -182 288 -371q119 -241 119 -530zM1364 205v418q0 37 -14 59q-66 106 -152 106q-293 1 -293 -353q1 -159 61 -277 t184 -117q214 0 214 164zM742 419q0 209 122 330t264 121q143 0 259 -59l118 55q46 -2 39 -45q-27 -27 -27 -299v-940q0 -84 133 -84q14 0 14 -28t-14 -29q-84 8 -210 8t-209 -8q-14 1 -14 29t14 28q133 0 133 86v379q0 37 -19 37q-65 -22 -235 -22t-269 116t-99 325z M647 -322q0 -19 -41 -32q-19 0 -39 16q-193 174 -288 369q-119 239 -119 529t137 587q91 199 270 369q17 14 37 14t32 -12t11 -23q0 -11 -18 -31q-330 -346 -330 -874t334 -879q14 -14 14 -33z"/>
            <glyph glyph-name="uni24AD" unicode="(r)" horiz-adv-x="2023" d="M1882 615q0 -289 -137 -586q-96 -205 -270 -367q-16 -16 -37 -16t-32 12t-11 24t18 29q330 342 330 875t-332 876q-16 16 -16 34t17 26t32 8t31 -14q194 -182 288 -371q119 -241 119 -530zM1257 870q57 0 92 -45q18 -23 18 -65t-41 -74q-20 -16 -42 -16t-68 24t-68 25 q-61 -1 -103 -61t-42 -164v-367q0 -78 151 -78q14 -1 14 -29t-14 -28q-84 8 -210 8t-209 -8q-14 0 -14 28t14 29q115 0 115 78v462q0 113 -84 113q-17 0 -17 28t17 28q38 0 109 48t87 62t28 15q17 0 17 -25q-4 -50 -4 -90q-1 -40 13 -40t28 20q89 122 213 122zM647 -322 q0 -19 -41 -32q-19 0 -39 16q-193 174 -288 369q-119 239 -119 529t137 587q91 199 270 369q17 14 37 14t32 -12t11 -23q0 -11 -18 -31q-330 -346 -330 -874t334 -879q14 -14 14 -33z"/>
            <glyph glyph-name="uni24AE" unicode="(s)" horiz-adv-x="2034" d="M1893 615q0 -289 -137 -586q-96 -205 -270 -367q-16 -16 -37 -16t-32 12t-11 24t18 29q330 342 330 875t-332 876q-16 16 -16 34t17 26t32 8t31 -14q194 -182 288 -371q119 -241 119 -530zM1325 257q0 -91 -42 -155t-115 -96t-154 -31q-156 0 -240 60q-20 63 -20 172v45 q0 15 24 15t25 -15q5 -39 65 -126t179 -87q59 0 110 37t51 107q0 71 -43 113t-153 72t-177 94q-67 65 -67 166q0 102 84 172t213 70t207 -36q31 -84 31 -170v-11q0 -14 -22 -14t-25 14q-10 54 -68 105t-134 51q-77 1 -124 -37t-47 -100q-1 -62 33 -96t167 -72t187 -96 t55 -151zM647 -322q0 -19 -41 -32q-19 0 -39 16q-193 174 -288 369q-119 239 -119 529t137 587q91 199 270 369q17 14 37 14t32 -12t11 -23q0 -11 -18 -31q-330 -346 -330 -874t334 -879q14 -14 14 -33z"/>
            <glyph glyph-name="uni24AF" unicode="(t)" horiz-adv-x="2001" d="M1860 615q0 -289 -137 -586q-96 -205 -270 -367q-16 -16 -37 -16t-32 12t-11 24t18 29q330 342 330 875t-332 876q-16 16 -16 34t17 26t32 8t31 -14q194 -182 288 -371q119 -241 119 -530zM1002 1010q20 0 20 -19v-98q0 -43 41 -43h244q14 0 14 -45t-14 -45h-244 q-41 0 -41 -40v-403q0 -131 38 -187t124 -56q52 0 108 39q14 10 22 -4t7 -21q0 -7 -2 -10q-85 -101 -215 -101q-130 1 -182 55t-53 181v507q0 40 -40 40h-73q-14 0 -14 23t14 23q45 0 93 36q90 66 128 159q5 9 25 9zM647 -322q0 -19 -41 -32q-19 0 -39 16q-193 174 -288 369 q-119 239 -119 529t137 587q91 199 270 369q17 14 37 14t32 -12t11 -23q0 -11 -18 -31q-330 -346 -330 -874t334 -879q14 -14 14 -33z"/>
            <glyph glyph-name="uni24B0" unicode="(u)" horiz-adv-x="2363" d="M2222 615q0 -289 -137 -586q-96 -205 -270 -367q-16 -16 -37 -16t-32 12t-11 24t18 29q330 342 330 875t-332 876q-16 16 -16 34t17 26t32 8t31 -14q194 -182 288 -371q119 -241 119 -530zM1404 -33q-16 0 -16 45v45q0 24 -12 24t-27 -15q-95 -89 -234 -89 q-105 0 -185 106t-80 218v335q0 147 -111 147q-15 0 -15 28t15 28q105 0 169 9t84 9t19 -16q-8 -123 -8 -152v-355q-1 -116 39 -188t125 -72t153 52t68 126v384q0 147 -111 147q-15 0 -15 28t15 28q123 0 181 9t69 9q22 0 20 -27q-6 -87 -6 -139v-464q0 -155 82 -145l47 6 q23 3 23 -42q0 -14 -8 -15q-29 -3 -137 -27t-124 -31q-16 -6 -20 -6zM647 -322q0 -19 -41 -32q-19 0 -39 16q-193 174 -288 369q-119 239 -119 529t137 587q91 199 270 369q17 14 37 14t32 -12t11 -23q0 -11 -18 -31q-330 -346 -330 -874t334 -879q14 -14 14 -33z"/>
            <glyph glyph-name="uni24B1" unicode="(v)" horiz-adv-x="2165" d="M2024 615q0 -289 -137 -586q-96 -205 -270 -367q-16 -16 -37 -16t-32 12t-11 24t18 29q330 342 330 875t-332 876q-16 16 -16 34t17 26t32 8t31 -14q194 -182 288 -371q119 -241 119 -530zM688 803q-14 1 -14 27t14 26q58 -6 176 -6t179 6q14 0 14 -26t-14 -27 q-78 0 -78 -55q0 -17 4 -29l160 -490q6 -18 14 -18t14 18l170 498q4 10 4 23q0 53 -96 53q-14 1 -14 27t14 26q57 -6 143 -6t146 6q14 0 14 -26t-14 -27q-96 0 -121 -72l-250 -715q-13 -39 -42 -39t-40 27l-280 727q-29 72 -103 72zM647 -322q0 -19 -41 -32q-19 0 -39 16 q-193 174 -288 369q-119 239 -119 529t137 587q91 199 270 369q17 14 37 14t32 -12t11 -23q0 -11 -18 -31q-330 -346 -330 -874t334 -879q14 -14 14 -33z"/>
            <glyph glyph-name="uni24B2" unicode="(w)" horiz-adv-x="2658" d="M2517 615q0 -289 -137 -586q-96 -205 -270 -367q-16 -16 -37 -16t-32 12t-11 24t18 29q330 342 330 875t-332 876q-16 16 -16 34t17 26t32 8t31 -14q194 -182 288 -371q119 -241 119 -530zM688 803q-14 1 -14 27t14 26q58 -6 176 -6t179 6q14 0 14 -26t-14 -27 q-78 0 -78 -55q0 -17 4 -29l160 -490q6 -18 14 -18t14 18l150 435q6 20 6 28q0 59 -51 94q-27 17 -62 17q-14 1 -14 27t14 26q58 -6 176 -6t179 6q14 0 14 -26t-14 -27q-78 0 -78 -55q0 -17 4 -29l160 -490q6 -18 14 -18t14 18l170 498q4 10 4 23q0 53 -96 53q-14 1 -14 27 t14 26q57 -6 143 -6t146 6q14 0 14 -26t-14 -27q-96 0 -121 -72l-250 -715q-13 -39 -42 -39t-40 27l-213 549q-8 20 -14 20t-14 -20l-189 -537q-13 -39 -42 -39t-40 27l-280 727q-29 72 -103 72zM647 -322q0 -19 -41 -32q-19 0 -39 16q-193 174 -288 369q-119 239 -119 529 t137 587q91 199 270 369q17 14 37 14t32 -12t11 -23q0 -11 -18 -31q-330 -346 -330 -874t334 -879q14 -14 14 -33z"/>
            <glyph glyph-name="uni24B3" unicode="(x)" horiz-adv-x="2245" d="M2104 615q0 -289 -137 -586q-96 -205 -270 -367q-16 -16 -37 -16t-32 12t-11 24t18 29q330 342 330 875t-332 876q-16 16 -16 34t17 26t32 8t31 -14q194 -182 288 -371q119 -241 119 -530zM766 803q-14 1 -14 27t14 26q56 -6 170 -6t172 6q14 0 14 -26t-14 -27 q-76 0 -76 -37q0 -18 17 -45l110 -176q9 -15 19 -15t20 15l121 160q27 35 27 57q0 41 -82 41q-14 1 -14 27t14 26q57 -6 146 -6t149 6q14 0 14 -26t-14 -27q-67 0 -125 -72l-195 -237q-14 -17 -14 -29t10 -27l211 -305q58 -84 148 -84q14 -1 14 -29t-14 -28q-76 8 -194 8 t-200 -8q-14 0 -14 28t14 29q97 0 97 33q0 12 -23 47l-137 215q-9 12 -17 12t-16 -12l-143 -199q-33 -47 -33 -67q0 -29 65 -29q14 -1 14 -29t-14 -28q-79 8 -149 8t-145 -8q-14 0 -14 28t14 29q94 0 147 68l225 282q8 11 8 22t-8 23l-207 289q-51 70 -98 70zM647 -322 q0 -19 -41 -32q-19 0 -39 16q-193 174 -288 369q-119 239 -119 529t137 587q91 199 270 369q17 14 37 14t32 -12t11 -23q0 -11 -18 -31q-330 -346 -330 -874t334 -879q14 -14 14 -33z"/>
            <glyph glyph-name="uni24B4" unicode="(y)" horiz-adv-x="2165" d="M2024 615q0 -289 -137 -586q-96 -205 -270 -367q-16 -16 -37 -16t-32 12t-11 24t18 29q330 342 330 875t-332 876q-16 16 -16 34t17 26t32 8t31 -14q194 -182 288 -371q119 -241 119 -530zM637 803q-14 1 -14 27t14 26q57 -6 184 -6t187 6q14 0 14 -26t-14 -27 q-96 0 -96 -55q0 -16 4 -29l174 -504q10 -31 25 -31t28 33l195 502q6 13 6 26q0 58 -129 58q-14 1 -14 27t14 26q57 -6 163 -6t164 6q14 0 14 -26t-14 -27q-96 0 -125 -72l-442 -1149q-25 -64 -73 -100t-97 -35q-48 0 -73 25t-25 51q1 76 95 76t120 63l96 240q11 25 11 39 t-13 51l-258 739q-26 72 -121 72zM647 -322q0 -19 -41 -32q-19 0 -39 16q-193 174 -288 369q-119 239 -119 529t137 587q91 199 270 369q17 14 37 14t32 -12t11 -23q0 -11 -18 -31q-330 -346 -330 -874t334 -879q14 -14 14 -33z"/>
            <glyph glyph-name="uni24B5" unicode="(z)" horiz-adv-x="2062" d="M1921 615q0 -289 -137 -586q-96 -205 -270 -367q-16 -16 -37 -16t-32 12t-11 24t18 29q330 342 330 875t-332 876q-16 16 -16 34t17 26t32 8t31 -14q194 -182 288 -371q119 -241 119 -530zM1358 10q0 -37 -27 -37q-11 -1 -69 13t-94 14h-420q-17 0 -17 14q0 6 2 9 l398 729q8 15 8 23q0 18 -29 18h-158q-78 0 -131 -107l-61 -123q-4 -7 -14 -3t-9 9l37 267q5 37 23 34l103 -16q26 -4 77 -4h346q15 0 15 -7t-5 -16l-397 -723q-6 -11 -6 -18q0 -18 27 -22t69 -4t72 1q106 0 170 72q24 27 80 152q4 9 23 4t18 -13q-31 -229 -31 -266z M647 -322q0 -19 -41 -32q-19 0 -39 16q-193 174 -288 369q-119 239 -119 529t137 587q91 199 270 369q17 14 37 14t32 -12t11 -23q0 -11 -18 -31q-330 -346 -330 -874t334 -879q14 -14 14 -33z"/>
            <glyph glyph-name="uniE1A6" unicode="ſb" horiz-adv-x="1564" d="M219 125v555q0 33 -31 33h-75q-16 0 -16 27.5t16 27.5q45 0 75.5 46.5t30.5 109.5q0 221 133 392t338 171q62 0 123 -30.5t61 -98.5v-522q0 -27 12 -27t21 6q83 55 176 55q178 0 294 -131.5t116 -327.5t-111.5 -315t-294.5 -119q-45 0 -112 28t-95 28t-102 -56 q-2 -1 -10 -1t-29.5 9t-21.5 15q4 130 4 260v914q0 219 -131 219q-98 0 -158 -81.5t-60 -313.5v-871q0 -78 116 -78q16 0 16 -28.5t-16 -28.5q-80 8 -192 8t-194 -8q-15 0 -15 28.5t15 28.5q117 0 117 76zM874 301q0 -81 76 -172.5t172 -91.5t146.5 110.5t50.5 266.5 t-76.5 266.5t-198.5 110.5q-86 0 -147 -50q-23 -18 -23 -94v-346z"/>
            <glyph glyph-name="longs_h" unicode="ſh" horiz-adv-x="1615" d="M219 125v555q0 33 -31 33h-75q-16 0 -16 27.5t16 27.5q45 0 75.5 46.5t30.5 109.5q0 246 136.5 404.5t334.5 158.5q62 0 123 -32t61 -107v-557q0 -25 16 -25q9 0 17 8q96 96 241 96t219 -105.5t74 -215.5v-422q0 -78 127 -78q14 0 14 -28.5t-14 -28.5q-81 8 -197.5 8 t-195.5 -8q-14 0 -14 28.5t14 28.5q113 0 113 78v420q0 97 -59 165t-143 68t-148 -51t-64 -100v-502q0 -78 111 -78q14 0 14 -28.5t-14 -28.5q-105 8 -205 8t-180 -8q-14 0 -14 28.5t14 28.5q121 0 121 78v1047q0 219 -131 219q-98 0 -158 -79t-60 -316v-871q0 -78 116 -78 q16 0 16 -28.5t-16 -28.5q-80 8 -192 8t-194 -8q-15 0 -15 28.5t15 28.5q117 0 117 76z"/>
            <glyph glyph-name="longs_i" unicode="ſi" horiz-adv-x="1037" d="M793 0q-111 0 -192 -8q-14 0 -14 28t14 29q113 0 113 78v405q0 114 -21 142t-63 28q-17 0 -17 28t17 28q59 0 202 114q15 11 23 11q18 0 18 -21q-6 -65 -6 -131v-604q0 -78 113 -78q14 -1 14 -29t-14 -28q-76 8 -187 8zM858 1370q0 -36 -32 -62q-32 -24 -54 -24 q-56 0 -102 54t-99 55q-93 0 -155 -76t-62 -315v-875q0 -78 144 -78q15 -1 15 -29t-15 -28q-83 8 -208 8t-206 -8q-17 0 -17 28t17 29q117 0 117 78v565q0 21 -25 21h-86q-15 -1 -15 27t15 28q35 0 73 37t38 119q0 252 141 408t330 155q123 0 167 -57q19 -24 19 -60z"/>
            <glyph glyph-name="longs_k" unicode="ſk" horiz-adv-x="1519" d="M873 369v-242q0 -78 119 -78q14 0 14 -28.5t-14 -28.5q-104 8 -198 8t-190 -8q-13 0 -13 28t13 29q115 9 115 78l2 1047q0 219 -131 219q-98 0 -158 -81.5t-60 -313.5v-871q0 -78 116 -78q16 0 16 -28.5t-16 -28.5q-80 8 -192 8t-194 -8q-15 0 -15 28.5t15 28.5 q117 0 117 76v555q0 33 -31 33h-75q-16 0 -16 27.5t16 27.5q45 0 75.5 46.5t30.5 109.5q0 221 133 392t338 171q62 -1 122 -31t61 -98v-836q1 -46 49 -42t64 22l197 221q26 29 26 47q0 33 -96 33q-14 0 -14 26.5t14 26.5q92 -6 190 -6t174 6q14 0 14 -26.5t-14 -26.5 q-92 0 -163 -68l-213 -205q-19 -18 -19 -34t17 -35l321 -367q39 -45 129 -45q14 0 14 -28.5t-14 -28.5q-95 8 -202 8t-201 -8q-14 0 -14 28.5t14 28.5q82 0 82 29q0 13 -31 49l-221 254q-26 31 -64.5 31t-38.5 -43z"/>
            <glyph glyph-name="longs_l" unicode="ſl" horiz-adv-x="1069" d="M219 125v555q0 33 -31 33h-75q-16 0 -16 27.5t16 27.5q45 0 75.5 46.5t30.5 109.5q0 221 133 392t338 171q100 0 161 -37q33 20 39 28t18 7q12 0 12 -15q-6 -68 -6 -172v-1171q0 -79 119 -78q15 0 15 -28.5t-15 -28.5q-82 8 -194 8t-194 -8q-15 0 -15 28.5t15 28.5 q116 0 116 78v1053q0 213 -150 213q-121 0 -180 -81.5t-59 -313.5v-871q0 -78 116 -78q16 0 16 -28.5t-16 -28.5q-81 8 -192.5 8t-193.5 -8q-15 0 -15 28.5t15 28.5q117 0 117 76z"/>
            <glyph glyph-name="longs_longs" unicode="ſſ" horiz-adv-x="1067" d="M1372 1374q0 -53 -57 -82q-16 -8 -29 -8q-58 0 -102 54t-99 55q-97 -1 -157 -79t-60 -319v-868q0 -77 142 -78q19 1 16 -27t-16 -30q-82 8 -206 8t-206 -8q-19 0 -16 29t16 28q94 0 113 55q4 10 4 21v565q0 22 -25 23h-84q-18 -1 -16 27t16 28q49 0 79 47t30 109 q0 188 69 305q-54 105 -138 122q-24 5 -54 5q-96 0 -158 -76t-61 -265l2 -114v-774q0 -78 117 -78q19 1 16 -27t-16 -30q-82 8 -194 8t-194 -8q-19 0 -16 29t16 28q94 0 114 55q4 10 3 21v563q0 25 -24 25h-82q-19 -1 -17 27t17 28q47 0 77 47t29 109q0 220 131 364 q143 162 340 162q110 0 185 -94q137 131 293 131t193 -74q9 -18 9 -39z"/>
            <glyph glyph-name="longs_longs_i" unicode="ſſi" horiz-adv-x="1574" d="M1328 0q-111 0 -192 -8q-14 0 -14 28t14 29q113 0 113 78v405q0 114 -21 142t-63 28q-17 0 -17 28t17 28q59 0 202 114q15 11 23 11q18 0 18 -21q-6 -65 -6 -131v-604q0 -78 113 -78q14 -1 14 -29t-14 -28q-76 8 -187 8zM1372 1374q0 -53 -57 -82q-16 -8 -29 -8 q-58 0 -102 54t-99 55q-97 -1 -157 -79t-60 -319v-868q0 -77 142 -78q19 1 16 -27t-16 -30q-82 8 -206 8t-206 -8q-19 0 -16 29t16 28q94 0 113 55q4 10 4 21v565q0 22 -25 23h-84q-18 -1 -16 27t16 28q49 0 79 47t30 109q0 188 69 305q-54 105 -138 122q-24 5 -54 5 q-96 0 -158 -76t-61 -265l2 -114v-774q0 -78 117 -78q19 1 16 -27t-16 -30q-82 8 -194 8t-194 -8q-19 0 -16 29t16 28q94 0 114 55q4 10 3 21v563q0 25 -24 25h-82q-19 -1 -17 27t17 28q47 0 77 47t29 109q0 220 131 364q143 162 340 162q110 0 185 -94q137 131 293 131 t193 -74q9 -18 9 -39z"/>
            <glyph glyph-name="longs_longs_l" unicode="ſſl" horiz-adv-x="1581" d="M592 1356q-223 0 -219 -341l2 -114v-774q0 -78 117 -78q19 1 16 -27t-16 -30q-82 8 -194 8t-194 -8q-19 0 -16 29t16 28q94 0 114 55q4 10 3 21v563q0 25 -24 25h-82q-19 -1 -17 27t17 28q47 0 77 47t29 109q0 218 138 372t333 154q110 0 185 -94q137 131 330 131 q74 0 141 -37q33 20 40 28t19 7q12 0 10 -15q-6 -68 -6 -172v-1171q0 -78 119 -78q19 1 16 -27t-16 -30q-82 8 -194 8t-195 -8q-19 0 -16 29t16 28q117 0 117 78v1053q0 167 -69 199q-29 14 -83 14q-120 0 -180 -79t-58 -319v-868q0 -78 142 -78q19 1 16 -27t-16 -30 q-82 8 -206 8t-206 -8q-19 0 -16 29t16 28q94 0 113 55q4 10 4 21v565q0 23 -25 23h-84q-18 -1 -16 27t16 28q49 0 79 47t30 109q0 188 69 305q-54 105 -138 122q-24 5 -54 5z"/>
            <glyph glyph-name="longs_adieresis" unicode="ſä" horiz-adv-x="1564" d="M201 127v600q0 37 -37 37h-74q-15 0 -15 27.5t15 27.5q111 0 111 86v19q0 250 125.5 406.5t288.5 156.5q109 0 157 -52q24 -25 24 -61t-28 -63t-70 -27t-90 54.5t-102 54.5t-103 -85t-49 -207v-974q0 -78 148 -78q14 0 14 -28.5t-14 -28.5q-85 8 -211 8t-207 -8 q-14 0 -14 28.5t14 28.5q117 0 117 78zM1004 1156q0 -45 -31.5 -76.5t-76 -31.5t-76 31.5t-31.5 76.5t31.5 76.5t76 31.5t76 -31.5t31.5 -76.5zM1386 1156q0 -45 -31.5 -76.5t-76.5 -31.5t-76.5 31.5t-31.5 76.5t31.5 76.5t76.5 31.5t76.5 -31.5t31.5 -76.5zM782 440 q0 -148 83 -257t192 -109q78 0 131 41t53 84v469q0 53 3 92q-65 50 -186 50t-198.5 -111t-77.5 -259zM619 411q0 189 132 324t343 135q67 0 113 -19t62 -34q24 25 66 45.5t54 20.5t12 -15q-6 -68 -6 -135v-502q0 -177 70 -177q20 0 66 33q12 8 25 -12.5t13 -27.5t-4 -9 q-81 -56 -163 -56t-112.5 47.5t-43.5 88.5q-108 -141 -240 -141q-197 0 -292 122.5t-95 311.5z"/>
            <glyph glyph-name="longs_odieresis" unicode="ſö" horiz-adv-x="1548" d="M201 127v600q0 37 -37 37h-74q-15 0 -15 27.5t15 27.5q111 0 111 86v19q0 250 125.5 406.5t288.5 156.5q109 0 157 -52q24 -25 24 -61t-28 -63t-70 -27t-90 54.5t-102 54.5t-103 -85t-49 -207v-974q0 -78 148 -78q14 0 14 -28.5t-14 -28.5q-85 8 -211 8t-207 -8 q-14 0 -14 28.5t14 28.5q117 0 117 78zM1004 1156q0 -45 -31.5 -76.5t-76 -31.5t-76 31.5t-31.5 76.5t31.5 76.5t76 31.5t76 -31.5t31.5 -76.5zM1386 1156q0 -45 -31.5 -76.5t-76.5 -31.5t-76.5 31.5t-31.5 76.5t31.5 76.5t76.5 31.5t76.5 -31.5t31.5 -76.5zM800 422 q0 -178 81 -278.5t175 -100.5q94 -1 176 101t82 278t-80 282.5t-176 106.5t-177 -105.5t-81 -283.5zM637.5 428q0.5 168 124.5 305t298 137t296 -137t122 -313t-112 -310q-110 -134 -296 -134t-309.5 142t-123 310z"/>
            <glyph glyph-name="longs_p" unicode="ſp" horiz-adv-x="1554" d="M1070 41q140 0 197.5 111t57.5 268q0 368 -264 368q-84 0 -160 -100q-20 -26 -20 -94v-389q-1 -164 189 -164zM201 127v565q0 21 -25 21h-86q-15 0 -15 27.5t15 27.5q35 0 73 37t38 119q0 252 141 407.5t340 155.5q128 0 213 -94.5t85 -230.5t-99 -274v-100q0 -20 16 -20 q9 0 18 8q106 94 187 94q112 0 206 -68t142 -154t49 -230q0 -198 -109.5 -319.5t-304.5 -121.5q-110 0 -167 19q-6 2 -11 2q-26 0 -26 -33v-381q0 -86 151 -86q14 0 14 -28.5t-14 -28.5q-85 8 -212.5 8t-207.5 -8q-14 0 -14 28.5t14 28.5q115 0 115 84v999q0 124 -86 124 q-17 0 -17 27.5t17 27.5q52 0 122.5 108t70.5 260t-67 214.5t-155 62.5q-122 0 -190 -82t-68 -321v-875q0 -78 144 -78q15 0 15 -28.5t-15 -28.5q-83 8 -208 8t-206 -8q-17 0 -17 28.5t17 28.5q117 0 117 78z"/>
            <glyph glyph-name="longs_t_i" unicode="ſti" horiz-adv-x="1675" d="M203 125v610q0 25 -25 25h-82q-14 0 -14 22.5t14 22.5q54 0 87 67q20 41 20 89q0 124 60.5 250.5t175 201t244.5 74.5t173 -66t43 -202v-377q0 -43 41 -43h349q85 0 142 42t69 42t11 -16q-6 -108 -6 -166v-574q0 -78 113 -78q14 0 14 -28.5t-14 -28.5q-76 8 -187 8 t-192 -8q-14 0 -14 28.5t14 28.5q113 0 113 78v444q0 138 -92 138h-320q-41 0 -41 -40v-352q0 -120 32.5 -182.5t114.5 -60.5q51 1 116 42q21 -4 21 -33q0 -3 -2 -5q-83 -101 -211 -101t-176 61t-48 175v456q0 40 -40 40h-73q-14 0 -14 22.5t14 22.5q53 0 83 34t29 78v314 q0 127 -33.5 170t-117.5 43q-238 0 -238 -294v-972q0 -78 117 -78q15 0 15 -28.5t-15 -28.5q-80 8 -193.5 8t-193.5 -8q-15 0 -15 28.5t15 28.5q117 0 117 76zM1516 1157q0 -45 -32 -77t-77 -32t-75.5 32t-30.5 77t30.5 75.5t75.5 30.5t77 -30.5t32 -75.5z"/>
            <glyph glyph-name="longs_t_r" unicode="ſtr" horiz-adv-x="1873" d="M203 125v610q0 25 -25 25h-82q-14 0 -14 22.5t14 22.5q54 0 87 67q20 41 20 89q0 124 60.5 250.5t175 201t244.5 74.5t173 -66t43 -202v-377q0 -43 41 -43h349q85 0 142 42t64 42q14 0 12 -37t-2 -77.5t13.5 -40.5t27.5 20q85 122 213 122q58 0 84 -34t26 -62t-10 -50.5 t-30.5 -38t-42.5 -15.5t-67.5 24.5t-68.5 24.5q-61 -1 -103 -61t-42 -164v-367q0 -78 113 -78q14 0 14 -28.5t-14 -28.5q-76 8 -187 8t-192 -8q-14 0 -14 28.5t14 28.5q113 0 113 78v444q0 138 -92 138h-320q-41 0 -41 -40v-352q0 -119 32.5 -182t113.5 -61q51 1 116 42 q21 -4 21 -33q0 -3 -2 -5q-90 -101 -214 -101t-172 61.5t-48 174.5v456q0 40 -40 40h-73q-14 0 -14 22.5t14 22.5q53 0 82.5 34.5t29.5 77.5v314q0 127 -33.5 170t-117.5 43q-238 0 -238 -294v-972q0 -78 117 -78q15 0 15 -28.5t-15 -28.5q-80 8 -193.5 8t-193.5 -8 q-15 0 -15 28.5t15 28.5q117 0 117 76z"/>
            <glyph glyph-name="longs_udieresis" unicode="ſü" horiz-adv-x="1588" d="M201 127v600q0 37 -37 37h-74q-15 0 -15 27.5t15 27.5q111 0 111 86v19q0 250 125.5 406.5t288.5 156.5q109 0 157 -52q24 -25 24 -61t-28 -63t-70 -27t-90 54.5t-102 54.5t-103 -85t-49 -207v-974q0 -78 148 -78q14 0 14 -28.5t-14 -28.5q-85 8 -211 8t-207 -8 q-14 0 -14 28.5t14 28.5q117 0 117 78zM1004 1156q0 -45 -31.5 -76.5t-76 -31.5t-76 31.5t-31.5 76.5t31.5 76.5t76 31.5t76 -31.5t31.5 -76.5zM1386 1156q0 -45 -31.5 -76.5t-76.5 -31.5t-76.5 31.5t-31.5 76.5t31.5 76.5t76.5 31.5t76.5 -31.5t31.5 -76.5zM1282 -33 q-16 0 -16 45v45q0 24 -11.5 24t-27.5 -15q-95 -89 -234 -89q-105 0 -185.5 106t-80.5 218v335q0 147 -111 147q-15 0 -15 28t15 28q106 0 170.5 9t83.5 9t19 -16q-8 -107 -8 -152v-355q0 -115 39.5 -187.5t124.5 -72.5t153 52t68 126v384q0 147 -111 147q-15 0 -15 28 t15 28q123 0 180.5 9t69.5 9q20 0 20 -27q-6 -60 -6 -139v-464q0 -145 82 -145l47 6q23 3 23 -42q0 -14 -8 -15q-28 -3 -136.5 -27.5t-124.5 -30.5t-20 -6z"/>
            <glyph glyph-name="uniA787_uniA787" unicode="ꞇꞇ" horiz-adv-x="1487" d="M747 353q0 136 35 220t100 144q13 12 13 22q0 15 -31 15h-372q-41 0 -72 -43q-80 -110 -80 -285q0 -122 59 -219.5t137 -97.5t216 181q-5 31 -5 63zM180 834h838q249 0 378 16q23 0 23 -48t-21 -48h-337q-41 0 -72 -43q-80 -110 -80 -285q0 -122 59 -219.5t138 -97.5 t229 200q3 4 19 4t29 -14l4 -9l-1 -5q-40 -98 -105.5 -203t-224.5 -105q-98 0 -173 66.5t-105 154.5q-39 -78 -95.5 -149.5t-192.5 -71.5t-224 119.5t-88 257.5t36.5 222t98.5 141q13 12 13 22q0 15 -31 15h-262q-13 0 -13 10t28 76t37 82t35 16t27 -18l-8 -48q0 -38 41 -38 z"/>
            <glyph glyph-name="longs_j" unicode="ſj" horiz-adv-x="1027" d="M858 1369.5q0 -36.5 -32 -61t-54 -24.5q-56 0 -101.5 54.5t-99.5 54.5q-92 0 -154.5 -76t-62.5 -315v-875q0 -78 144 -78q15 0 15 -28.5t-15 -28.5q-83 8 -208 8t-206 -8q-17 0 -17 28.5t17 28.5q117 0 117 78v565q0 21 -25 21h-86q-15 0 -15 27.5t15 27.5q35 0 73 37 t38 119q0 252 141 407.5t330 155.5q123 0 167 -57q19 -24 19 -60.5zM867 592v-533q0 -326 -110 -483q-94 -131 -248 -131q-65 0 -95 32q-30 33 -30 71t43 56q16 7 35 7q49 0 89 -39t64 -39q99 0 99 213v786q0 170 -88 170q-15 0 -15 28t15 28q48 0 165 80q23 15 39 30t31 15 t17 -27l-10 -205q-1 -30 -1 -59z"/>
            <glyph glyph-name="longs_s" unicode="ſs" horiz-adv-x="1260" d="M1202 257q0 -92 -42 -155.5t-115 -95t-154 -31.5q-156 0 -240 60q-20 63 -20 172v45q0 15 23.5 15t25.5 -15q5 -39 65 -126t179 -87q59 0 110 37t51 107t-43 112.5t-153.5 72t-177 94.5t-66.5 166t84 171.5t213 70.5t207 -36q31 -84 31 -170v-11q0 -14 -22 -14t-25 14 q-10 54 -67.5 105t-134.5 51t-124 -37.5t-47 -99.5t33.5 -95.5t167 -72t187.5 -97t54 -150.5zM858 1369.5q0 -36.5 -32 -61t-54 -24.5q-56 0 -101.5 54.5t-99.5 54.5q-92 0 -154.5 -76t-62.5 -315v-875q0 -78 144 -78q15 0 15 -28.5t-15 -28.5q-83 8 -208 8t-206 -8 q-17 0 -17 28.5t17 28.5q117 0 117 78v565q0 21 -25 21h-86q-15 0 -15 27.5t15 27.5q35 0 73 37t38 119q0 252 141 407.5t330 155.5q123 0 167 -57q19 -24 19 -60.5z"/>
            <glyph glyph-name="longs_longs_k" unicode="ſſk" horiz-adv-x="2065" d="M592 1356q-223 0 -219 -341l2 -114v-774q0 -78 117 -78q19 1 16 -27t-16 -30q-82 8 -194 8t-194 -8q-19 0 -16 29t16 28q94 0 114 55q4 10 3 21v563q0 25 -24 25h-82q-19 -1 -17 27t17 28q47 0 77 47t29 109q0 218 138 372t333 154q110 0 185 -94q137 131 330 131 q74 0 141 -37q33 20 40 28t19 7q12 0 10 -15q-6 -68 -6 -172v-776q1 -46 49 -42t64 22l197 221q26 29 26 47q0 33 -96 33q-14 0 -14 26.5t14 26.5q92 -6 190 -6t174 6q14 0 14 -26.5t-14 -26.5q-92 0 -163 -68l-213 -205q-19 -18 -19 -34t17 -35l321 -367q39 -45 129 -45 q14 0 14 -28.5t-14 -28.5q-95 8 -202 8t-201 -8q-14 0 -14 28.5t14 28.5q82 0 82 29q0 13 -31 49l-221 254q-28 31 -65.5 31t-37.5 -43v-242q0 -78 119 -78q14 0 14 -28.5t-14 -28.5q-104 8 -198 8t-189 -8q-14 0 -13.5 28.5t13.5 28.5q115 0 115 78v1053q0 167 -69 199 q-29 14 -83 14q-120 0 -180 -79t-58 -319v-868q0 -78 142 -78q19 1 16 -27t-16 -30q-82 8 -206 8t-206 -8q-19 0 -16 29t16 28q94 0 113 55q4 10 4 21v565q0 23 -25 23h-84q-18 -1 -16 27t16 28q49 0 79 47t30 109q0 188 69 305q-54 105 -138 122q-24 5 -54 5z"/>
            <glyph glyph-name="longs_longs_t" unicode="ſſt" horiz-adv-x="1739" d="M1206 1487q119 0 162 -67t43 -201v-326q0 -43 41 -43h244q14 0 14 -45t-14 -45h-244q-41 0 -41 -40v-403q1 -115 31 -180t131 -63q51 1 116 42q21 -4 21 -33q0 -3 -2 -5q-84 -101 -219 -101t-183 61t-48 175v507q0 40 -40 40h-73q-14 0 -14 22.5t14 22.5q53 0 83 34.5 t30 77.5v263q0 126 -34 169.5t-118 43.5q-238 0 -238 -294v-972q0 -78 117 -78q15 0 15 -28.5t-15 -28.5q-80 8 -193.5 8t-193.5 -8q-15 0 -15 28.5t15 28.5q117 0 117 76v610q0 25 -25 25h-82q-14 0 -14 22.5t14 22.5q54 0 87 67q20 41 20 89q0 128 69 268 q-31 60 -74.5 93.5t-117.5 33.5q-223 0 -219 -341l2 -114v-774q0 -78 117 -78q15 0 15 -28.5t-15 -28.5q-82 8 -194 8t-194 -8q-15 0 -15 28.5t15 28.5q93 0 114 55q4 10 3 21v563q0 25 -24 25h-82q-16 0 -16 27.5t16 27.5q47 0 77 46t29 110q0 218 138 372t333 154 q110 0 186 -96q133 133 328 133z"/>
            <glyph glyph-name="uniFB00" unicode="ff" horiz-adv-x="1118" d="M572 1356q-83 0 -149.5 -61t-66.5 -300v-108q0 -37 37 -37h307q37 0 37 37v37q0 148 68 284q-52 87 -101 117.5t-132 30.5zM890 127q0 -78 145 -78q15 0 15 -28.5t-15 -28.5q-85 8 -209 8t-205 -8q-15 0 -15 28.5t15 28.5q116 0 116 78v600q0 37 -37 37h-307 q-37 0 -37 -37v-600q0 -78 117 -78q14 0 14 -28.5t-14 -28.5q-79 8 -193 8t-194 -8q-16 0 -16 28.5t16 28.5q117 0 117 78v600q0 37 -37 37h-72q-14 0 -14 27.5t14 27.5h2q107 0 107 101v14q0 138 63 256t170.5 189t219.5 71t196 -67q29 -23 45 -44q136 148 310 148 q93 0 140 -32.5t47 -76.5t-29.5 -69t-56.5 -25q-60 0 -104 54.5t-97 54.5q-97 0 -157 -76.5t-60 -296.5v-133q0 -37 37 -37h202q15 0 15 -43t-15 -43h-202q-37 0 -37 -37v-600z"/>
            <glyph glyph-name="uniFB01" unicode="fi" horiz-adv-x="1067" d="M896 127q0 -78 111 -78q16 0 16 -28.5t-16 -28.5q-84 8 -178 8t-198 -8q-15 0 -15 28.5t15 28.5q112 0 112 78v522q0 115 -41 115h-309q-37 0 -37 -37v-600q0 -78 117 -78q14 0 14 -28.5t-14 -28.5q-93 8 -189 8t-198 -8q-16 0 -16 28.5t16 28.5q117 0 117 78v600 q0 37 -33 37h-78q-14 0 -14 27.5t14 27.5q111 0 111 84v21q0 242 146.5 402.5t334.5 160.5q227 0 227 -113q0 -38 -27.5 -64t-58.5 -26q-59 0 -103 54.5t-150 54.5t-161 -103.5t-55 -343.5v-59q0 -37 37 -37h309q52 0 115.5 16.5t74.5 16.5t10 -27q-6 -90 -6 -151v-578z"/>
            <glyph glyph-name="uniFB02" unicode="fl" horiz-adv-x="1067" d="M745 887v287q0 132 -34.5 175.5t-116.5 43.5q-117 0 -177.5 -92t-60.5 -343v-71q0 -37 37 -37h316q36 0 36 37zM898 127q0 -78 119 -78q14 0 14 -28.5t-14 -28.5q-77 8 -193 8t-197 -8q-15 0 -15 28.5t15 28.5q118 0 118 78v600q0 37 -36 37h-316q-37 0 -37 -37v-600 q0 -78 117 -78q14 0 14 -28.5t-14 -28.5q-79 8 -193 8t-194 -8q-16 0 -16 28.5t16 28.5q117 0 117 78v600q0 37 -33 37h-76q-14 0 -14 27.5t14 27.5q109 0 109 123v33q0 116 78.5 254.5t189.5 198t211 59.5t163 -33q31 31 47 31q16 -1 10 -33q-4 -32 -4 -56v-1269z"/>
            <glyph glyph-name="uniFB03" unicode="ffi" horiz-adv-x="1602" d="M737 924q0 148 68 284q-50 82 -97.5 115t-131.5 33t-132 -43t-68 -118t-20 -294v-14q0 -37 37 -37h307q37 0 37 37v37zM1430 127q0 -78 110 -78q14 0 14 -28.5t-14 -28.5q-76 8 -180 8t-196 -8q-14 0 -14 28.5t14 28.5q113 0 113 78v499q0 100 -26 125q-13 13 -35 13 h-289q-37 0 -37 -37v-600q0 -78 117 -78q16 0 16 -28.5t-16 -28.5q-95 8 -193 8t-193 -8q-15 0 -15 28.5t15 28.5q116 0 116 78v600q0 37 -37 37h-307q-37 0 -37 -37v-600q0 -78 117 -78q14 0 14 -28.5t-14 -28.5q-94 8 -193 8t-194 -8q-16 0 -16 28.5t16 28.5q117 0 117 78 v600q0 37 -37 37h-72q-14 0 -14 27.5t14 27.5q109 0 109 115q0 200 134.5 358t336.5 158q89 0 178 -68q27 -21 45 -43q136 148 341 148q87 -1 147 -31t60 -78t-32.5 -71t-53.5 -23q-60 0 -104 54.5t-140.5 54.5t-160.5 -87t-64 -405v-14q0 -37 37 -37h291q86 0 186 30 q10 3 13 3q20 0 19 -27q-6 -111 -6 -215v-514z"/>
            <glyph glyph-name="uniFB04" unicode="ffl" horiz-adv-x="1604" d="M737 924q0 148 68 284q-54 87 -102.5 117.5t-129.5 30.5q-116 0 -166.5 -81.5t-50.5 -305.5v-82q0 -37 37 -37h307q37 0 37 37v37zM1277 887v284q0 112 -14 144q-34 78 -142 78t-169.5 -88.5t-61.5 -403.5v-14q0 -37 37 -37h313q37 0 37 37zM1430 127q0 -78 118 -78 q15 0 15 -28.5t-15 -28.5q-76 8 -192 8t-196 -8q-14 0 -14 28.5t14 28.5q117 0 117 78v600q0 37 -37 37h-313q-37 0 -37 -37v-600q0 -78 119 -78q14 0 14 -28.5t-14 -28.5q-80 8 -194 8t-194 -8q-15 0 -15 28.5t15 28.5q116 0 116 78v600q0 37 -37 37h-307q-37 0 -37 -37 v-600q0 -78 117 -78q14 0 14 -28.5t-14 -28.5q-79 8 -193 8t-194 -8q-16 0 -16 28.5t16 28.5q117 0 117 78v600q0 37 -37 37h-72q-14 0 -14 27.5t14 27.5q109 0 109 115q0 206 137 361t334 155q94 0 178 -67q29 -23 45 -44q136 148 310 148q114 0 171 -33l34 27q5 4 11 4 q14 0 13 -15l-6 -149v-1194z"/>
            <glyph glyph-name="longs_t" unicode="ſt" horiz-adv-x="1227" d="M899 317q0 -115 30.5 -179t131.5 -64q51 1 116 42q21 -4 21 -33q0 -3 -2 -5q-84 -101 -219 -101t-183 61t-48 175v507q0 40 -40 40h-73q-14 0 -14 22.5t14 22.5q53 0 83 34.5t30 77.5v263q0 126 -34 169.5t-118 43.5q-238 0 -238 -294v-972q0 -78 117 -78q15 0 15 -28.5 t-15 -28.5q-79 8 -193 8t-194 -8q-15 0 -15 28.5t15 28.5q117 0 117 76v610q0 25 -25 25h-82q-14 0 -14 22.5t14 22.5q54 0 87 67q20 41 20 89q0 124 60.5 250.5t175 201t244.5 74.5t173 -67t43 -201v-326q0 -43 41 -43h244q14 0 14 -45t-14 -45h-244q-41 0 -41 -40v-403z "/>
            <glyph glyph-name="f_thorn" unicode="fþ" horiz-adv-x="1480" d="M899 90q0 -39 24 -39q50 0 129.5 50.5t133 156.5t53.5 230t-41 216.5t-123 92.5t-152 -117q-24 -40 -24 -94v-496zM203 127v600q0 37 -33 37h-76q-14 0 -14 27.5t14 27.5q109 0 109 123v33q0 116 78.5 254.5t189.5 198t211 59.5t164 -33q30 31 46 31q16 -1 12 -33t-5 -56 v-599q0 -25 10 -25t22 14q72 84 166 84q130 0 223 -92.5t93 -257.5q1 -222 -157 -370t-327 -170q-30 -4 -30 -31v-367q0 -58 -58 -78l-176 -61q-1 -1 -8 -1t-13.5 13t-6.5 25t6 16l80 53q22 15 22 58v1567q-1 102 -35 176q-20 44 -126 44t-167 -92.5t-61 -343.5v-71 q0 -37 37 -37h201q15 0 15 -43t-15 -43h-201q-37 0 -37 -37v-600q0 -78 117 -78q14 0 14 -28.5t-14 -28.5q-80 8 -193.5 8t-193.5 -8q-16 0 -16 28.5t16 28.5q117 0 117 78z"/>
            <glyph glyph-name="f_eth" unicode="fð" horiz-adv-x="1604" d="M201 127v600q0 37 -37 37h-74q-15 0 -15 27.5t15 27.5q111 0 111 86v84q0 206 106.5 352t261.5 146q93 -1 137 -33t44 -73t-28 -64t-59 -23q-54 0 -82 49.5t-88 49.5t-99.5 -68.5t-39.5 -158.5v-279q0 -37 37 -37h203q15 0 15 -43t-15 -43h-203q-37 0 -37 -37v-600 q0 -78 148 -78q14 0 14 -28.5t-14 -28.5q-85 8 -211 8t-207 -8q-14 0 -14 28.5t14 28.5q117 0 117 78zM838 428q0 -170 81 -277.5t181 -107.5t177 106t77 279t-83 278t-173 105t-175 -106.5t-85 -276.5zM664 422q0 182 133 315t299 133q12 0 12 8.5t-6 14.5q-85 76 -208 154 q-8 5 -16 5t-20 -10l-173 -139q-2 -2 -10 -2t-75 107q-9 14 -9 20t5 5l84 -21q24 -6 49 13l72 54q8 7 8 13q1 6 -35 29t-70 40q-20 10 -5.5 45.5t31.5 33.5t141 -76q23 -14 41 1l307 246q2 2 12.5 2t89.5 -94q14 -17 14 -23t-14 -3l-73 18q-46 11 -74 -11l-203 -165 q-12 -11 -12 -17t10 -12q173 -101 285 -191.5t193 -219.5t81 -259q0 -199 -111 -329t-303 -130t-321 131.5t-129 313.5z"/>
            <glyph glyph-name="f_y" unicode="fy" horiz-adv-x="1422" d="M201 127v608q0 37 -37 37h-74q-15 0 -15 26.5t15 26.5q111 0 111 86v13q0 250 125.5 406.5t288.5 156.5q109 0 157 -52q24 -25 24 -61t-28 -63t-70 -27t-90 54.5t-102 54.5t-103 -85t-49 -207v-208q0 -37 37 -37h154q57 -6 184 -6t187 6q14 0 14 -26.5t-14 -26.5 q-96 0 -96 -55q0 -17 4 -29l174 -504q12 -31 26 -31t27 33l195 502q6 15 6 26q0 58 -129 58q-14 0 -14 26.5t14 26.5q57 -6 163 -6t164 6q14 0 14 -26.5t-14 -26.5q-97 0 -125 -72l-442 -1149q-25 -64 -73.5 -99.5t-96.5 -35.5t-73 25t-25 51q1 76 95 76t120 63l96 240 q11 28 11 40t-13 50l-258 739q-25 72 -121 72q-59 0 -125 -18t-66 -50v-608q0 -78 148 -78q14 0 14 -28.5t-14 -28.5q-85 8 -211 8t-207 -8q-14 0 -14 28.5t14 28.5q117 0 117 78z"/>
            <glyph glyph-name="f_f_t" unicode="fft" horiz-adv-x="1792" d="M356 887q0 -37 37 -37h308q37 0 37 37v37q0 148 68 284q-51 87 -101 117.5t-133 30.5t-149.5 -61t-66.5 -300v-108zM1443.5 1010q20.5 0 20.5 -19v-98q0 -43 41 -43h244q14 0 14 -45t-14 -45h-244q-41 0 -41 -40v-403q0 -131 37.5 -187t124.5 -56q52 0 108 39 q14 10 21.5 -4t7.5 -21t-2 -10q-85 -101 -215 -101t-182.5 54.5t-52.5 181.5v511q0 40 -40 40h-343q-37 0 -37 -37v-600q0 -78 145 -78q15 0 15 -28.5t-15 -28.5q-100 8 -209.5 8t-204.5 -8q-15 0 -15 28.5t15 28.5q116 0 116 78v600q0 37 -37 37h-308q-37 0 -37 -37v-600 q0 -78 117 -78q14 0 14 -28.5t-14 -28.5q-94 8 -192.5 8t-194.5 -8q-16 0 -16 28.5t16 28.5q117 0 117 78v600q0 37 -37 37h-72q-14 0 -14 27.5t14 27.5q109 0 109 101v14q0 138 63 256t170.5 189t237.5 71q70 0 132 -36t91 -75q136 148 311 148q93 0 140 -32.5t47 -76.5 t-29.5 -69t-56.5 -25q-60 0 -104 54.5t-97 54.5q-97 0 -157 -76.5t-60 -296.5v-133q0 -37 37 -37h289q92 0 139 56t63 95q4 9 24.5 9z"/>
            <glyph glyph-name="f_f_y" unicode="ffy" horiz-adv-x="1958" d="M356 893q0 -37 37 -37h308q37 0 37 37v31q0 148 68 284q-51 87 -101 117.5t-133 30.5t-149.5 -61t-66.5 -300v-102zM203 127v609q0 37 -37 37h-72q-14 0 -14 26t14 26q109 0 109 101v8q0 138 63 256t170.5 189t237.5 71q69 0 130.5 -35.5t92.5 -75.5q136 148 311 148 q93 0 140 -32.5t47 -76.5t-29.5 -69t-56.5 -25q-60 0 -104 54.5t-97 54.5q-97 0 -157 -76.5t-60 -296.5v-127q0 -37 37 -37h153q57 -6 184 -6t187 6q14 0 14 -26.5t-14 -26.5q-96 0 -96 -55q0 -17 4 -29l174 -504q12 -31 26 -31t27 33l195 502q6 15 6 26q0 58 -129 58 q-14 0 -14 26.5t14 26.5q57 -6 163 -6t164 6q14 0 14 -26.5t-14 -26.5q-97 0 -125 -72l-442 -1149q-25 -64 -73.5 -99.5t-96.5 -35.5t-73 25t-25 51q1 76 95 76t120 63l96 240q11 28 11 40t-13 50l-258 739q-25 72 -121 72q-65 0 -127.5 -18.5t-62.5 -48.5v-609 q0 -78 145 -78q15 0 15 -28.5t-15 -28.5q-100 8 -209.5 8t-204.5 -8q-15 0 -15 28.5t15 28.5q116 0 116 78v609q0 37 -37 37h-308q-37 0 -37 -37v-609q0 -78 117 -78q14 0 14 -28.5t-14 -28.5q-94 8 -192.5 8t-194.5 -8q-16 0 -16 28.5t16 28.5q117 0 117 78z"/>
            <glyph glyph-name="f_t_y" unicode="fty" horiz-adv-x="2096" d="M909.5 1014q20.5 0 20.5 -19v-96q0 -43 41 -43h248q57 -6 184 -6t187 6q14 0 14 -26.5t-14 -26.5q-96 0 -96 -55q0 -17 4 -29l174 -504q12 -31 26 -31t27 33l195 502q6 15 6 26q0 58 -129 58q-14 0 -14 26.5t14 26.5q57 -6 163 -6t164 6q14 0 14 -26.5t-14 -26.5 q-97 0 -125 -72l-442 -1149q-25 -64 -73.5 -99.5t-96.5 -35.5t-73 25t-25 51q1 76 95 76t120 63l96 240q11 28 11 40t-13 50l-258 739q-25 72 -118.5 72t-192.5 -18.5t-99 -58.5v-409q0 -131 37.5 -187t124.5 -56q52 0 108 39q14 10 21.5 -4t7.5 -21t-2 -10 q-87 -101 -216 -101t-181.5 54.5t-52.5 181.5v513q0 40 -40 40h-346q-37 0 -37 -37v-602q0 -78 148 -78q14 0 14 -28.5t-14 -28.5q-85 8 -211 8t-207 -8q-14 0 -14 28.5t14 28.5q117 0 117 78v602q0 37 -37 37h-74q-15 0 -15 27.5t15 27.5q111 0 111 86v17q0 250 141 406.5 t330 156.5q114 0 162 -52q24 -25 24 -61t-27.5 -63t-58.5 -27q-56 0 -101.5 54.5t-99.5 54.5q-106 0 -161.5 -85t-55.5 -207v-212q0 -37 37 -37h263q128 0 172 57t59 96q4 9 24.5 9z"/>
            <glyph glyph-name="f_j" unicode="fj" horiz-adv-x="1067" d="M414 -462q0 74 88 73q38 0 77.5 -39t65.5 -39q99 0 99 213l-1 903q0 115 -41 115h-309q-37 0 -37 -37v-600q0 -78 117 -78q14 0 14 -28.5t-14 -28.5q-91 8 -190.5 8t-196.5 -8q-16 0 -16 28.5t16 28.5q117 0 117 78v600q0 37 -33 37h-78q-14 0 -14 27.5t14 27.5 q111 0 111 84v21q0 242 146.5 402.5t334.5 160.5q227 0 227 -113q0 -38 -27.5 -64t-58.5 -26q-59 0 -102 54.5t-147 54.5t-162 -96t-58 -351v-59q0 -37 37 -37h309q76 0 127 16t62 17q11 0 11 -27q-6 -90 -6 -151v-646q0 -315 -96.5 -464.5t-260.5 -149.5q-49 0 -87 27.5 t-38 65.5z"/>
            <glyph glyph-name="f_r" unicode="fr" horiz-adv-x="1280" d="M201 127v600q0 37 -37 37h-74q-15 0 -15 27.5t15 27.5q111 0 111 86v19q0 250 141 406.5t330 156.5q114 0 162 -52q24 -25 24 -61t-27.5 -63t-58.5 -27q-56 0 -101.5 54.5t-99.5 54.5q-106 0 -161.5 -85t-55.5 -207v-214q0 -37 37 -37h361q59 0 99.5 16.5t47.5 16.5 q18 0 17 -25q-4 -74 -4 -102t13.5 -28t27.5 20q89 122 213 122q57 0 83.5 -34t26.5 -62t-10 -50.5t-31 -38t-42.5 -15.5t-67 24.5t-68.5 24.5q-61 0 -103 -60.5t-42 -164.5v-367q0 -78 151 -78q14 0 14 -28.5t-14 -28.5q-84 8 -210 8t-209 -8q-14 0 -14 28.5t14 28.5 q115 0 115 78v637h-368q-37 0 -37 -37v-600q0 -78 148 -78q14 0 14 -28.5t-14 -28.5q-85 8 -211 8t-207 -8q-14 0 -14 28.5t14 28.5q117 0 117 78z"/>
            <glyph glyph-name="f_t" unicode="ft" horiz-adv-x="1258" d="M909.5 1014q20.5 0 20.5 -19v-98q0 -43 41 -43h244q14 0 14 -45t-14 -45h-244q-41 0 -41 -40v-407q0 -131 37.5 -187t124.5 -56q52 0 108 39q14 10 21.5 -4t7.5 -21t-2 -10q-87 -101 -216 -101t-181.5 54.5t-52.5 181.5v511q0 40 -40 40h-346q-37 0 -37 -37v-600 q0 -78 148 -78q14 0 14 -28.5t-14 -28.5q-85 8 -211 8t-207 -8q-14 0 -14 28.5t14 28.5q117 0 117 78v600q0 37 -37 37h-74q-15 0 -15 27.5t15 27.5q111 0 111 86v19q0 250 141 406.5t330 156.5q114 0 162 -52q24 -25 24 -61t-27.5 -63t-58.5 -27q-56 0 -101.5 54.5 t-99.5 54.5q-106 0 -161.5 -85t-55.5 -207v-214q0 -37 37 -37h263q127 0 172.5 60t58.5 95q4 9 24.5 9z"/>
            <glyph glyph-name="f_udieresis" unicode="fü" horiz-adv-x="1619" d="M1016 1156q0 -45 -31.5 -76.5t-76 -31.5t-76 31.5t-31.5 76.5t31.5 76.5t76 31.5t76 -31.5t31.5 -76.5zM1398 1156q0 -45 -31.5 -76.5t-76.5 -31.5t-76.5 31.5t-31.5 76.5t31.5 76.5t76.5 31.5t76.5 -31.5t31.5 -76.5zM201 127v600q0 37 -37 37h-74q-15 0 -15 27.5 t15 27.5q111 0 111 86v19q0 250 125.5 406.5t288.5 156.5q109 0 157 -52q24 -25 24 -61t-28 -63t-70 -27t-90 54.5t-102 54.5t-103 -85t-49 -207v-214q0 -35 37 -37q158 -11 260 -11t166.5 9t84.5 9t18 -16q-8 -123 -8 -152v-355q0 -116 39 -188t124 -72t153.5 52t68.5 126 v384q0 147 -111 147q-15 0 -15 28t15 28q123 0 180.5 9t69.5 9q22 0 20 -27q-6 -87 -6 -139v-464q0 -155 82 -145l47 6q23 3 23 -42q0 -14 -8 -15q-28 -3 -136.5 -27.5t-124.5 -30.5t-20 -6q-16 0 -16 45v45q0 24 -11.5 24t-27.5 -15q-95 -89 -234 -89q-105 0 -185 106 t-80 218v335q0 147 -108 147t-260 -19q-37 -5 -37 -37v-600q0 -78 148 -78q14 0 14 -28.5t-14 -28.5q-85 8 -211 8t-207 -8q-14 0 -14 28.5t14 28.5q117 0 117 78z"/>
            <glyph glyph-name="f_odieresis" unicode="fö" horiz-adv-x="1579" d="M668 439.5q0 178.5 156 324.5h-433q-37 0 -37 -37v-600q0 -78 148 -78q14 0 14 -28.5t-14 -28.5q-85 8 -211 8t-207 -8q-14 0 -14 28.5t14 28.5q117 0 117 78v600q0 37 -37 37h-74q-15 0 -15 27.5t15 27.5q111 0 111 86v19q0 250 125.5 406.5t288.5 156.5q109 0 157 -52 q24 -25 24 -61t-28 -63t-70 -27t-90 54.5t-102 54.5t-103 -85t-49 -207v-214q0 -37 37 -37h575q60 20 126 20q174 0 295 -136.5t121 -313t-111 -310t-296.5 -133.5t-309 142t-123.5 320.5zM831 422.5q0 -177.5 81.5 -278.5t175.5 -101t175.5 101t81.5 277.5t-80 283 t-175.5 106.5t-177 -105.5t-81.5 -283zM1027 1156q0 -45 -31.5 -76.5t-76.5 -31.5t-76.5 31.5t-31.5 76.5t31.5 76.5t76.5 31.5t76.5 -31.5t31.5 -76.5zM1408 1156q0 -45 -31.5 -76.5t-76 -31.5t-76 31.5t-31.5 76.5t31.5 76.5t76 31.5t76 -31.5t31.5 -76.5z"/>
            <glyph glyph-name="f_f_udieresis" unicode="ffü" horiz-adv-x="2156" d="M578 1356q-90 0 -156 -61t-66 -300v-108q0 -37 37 -37h307q37 0 37 55v19q0 172 59 300q-32 52 -80 92t-138 40zM889 1101v-214q0 -35 38 -37q158 -11 260 -11t166 9t84 9t18 -16q-8 -123 -8 -152v-355q0 -112 39 -186t124 -74t154 52t69 126v384q0 147 -112 147 q-15 0 -14.5 28t14.5 28q123 0 180.5 9t69.5 9q22 0 20 -27q-6 -87 -6 -139v-464q0 -155 82 -145l48 6q22 3 22 -27v-15q0 -14 -8 -15q-27 -3 -143 -29t-124 -30t-13 -5q-16 0 -16 45v45q0 24 -12 24t-28 -15q-96 -89 -234 -89q-105 0 -184.5 106t-79.5 218v335 q0 147 -108 147t-260 -19q-38 -5 -38 -37v-600q0 -78 148 -78q14 0 14 -28.5t-14 -28.5q-85 8 -211 8t-207 -8q-14 0 -14 28.5t14 28.5q118 0 118 78v600q0 37 -37 37h-307q-37 0 -37 -37v-600q0 -78 117 -78q14 0 14 -28.5t-14 -28.5q-79 8 -193 8t-194 -8q-16 0 -16 28.5 t16 28.5q117 0 117 78v600q0 37 -37 37h-72q-14 0 -14 27.5t14 27.5h2q107 0 107 101v14q0 138 63 256t170.5 189t227.5 71t219 -95q118 132 268 132q108 0 156 -52q24 -25 24 -61t-27.5 -63t-69.5 -27t-90.5 54.5t-102.5 54.5t-103 -85t-49 -207zM1933 1156 q0 -45 -31 -76.5t-76 -31.5t-77 31.5t-32 76.5t32 76.5t77 31.5t76 -31.5t31 -76.5zM1551 1156q0 -45 -31 -76.5t-76 -31.5t-76 31.5t-31 76.5t31 76.5t76 31.5t76 -31.5t31 -76.5z"/>
            <glyph glyph-name=".notdef" horiz-adv-x="1024" d="M68 -132v1640h864v-1640h-864zM534 86q0 39 -20 71q-36 56 -100 56q-38 0 -68 -21q-50 -37 -50 -106q0 -37 29 -77t77 -40t78 17q54 33 54 100zM354 1194q292 0 292 -199q0 -89 -116 -151l-106 -56q-114 -62 -114 -144t76 -218q8 -8 26 -6t18 18q-20 70 -20 122t74 93 l166 88q82 43 81 196t-117 294q-114 131 -244 131q-84 0 -84 -84t68 -84z"/>
            <glyph glyph-name=".null" horiz-adv-x="1024" d="M68 -132v1640h864v-1640h-864zM534 86q0 39 -20 71q-36 56 -100 56q-38 0 -68 -21q-50 -37 -50 -106q0 -37 29 -77t77 -40t78 17q54 33 54 100zM354 1194q292 0 292 -199q0 -89 -116 -151l-106 -56q-114 -62 -114 -144t76 -218q8 -8 26 -6t18 18q-20 70 -20 122t74 93 l166 88q82 43 81 196t-117 294q-114 131 -244 131q-84 0 -84 -84t68 -84z"/>
            <glyph glyph-name="nonmarkingreturn" unicode="&#xD;" horiz-adv-x="559"/>
            <glyph glyph-name="space" unicode=" " horiz-adv-x="559"/>
            <glyph glyph-name="exclam" unicode="!" horiz-adv-x="520" d="M166 1275q0 56 30.5 90t67.5 34q103 0 103 -111q0 -63 -31 -354.5t-43 -497.5q-1 -16 -33 -16t-33 16q-8 199 -34.5 491t-26.5 348zM260 211q61 0 91 -37t30 -87.5t-34.5 -81t-87.5 -30.5t-86.5 36t-33.5 87t30 82t91 31z"/>
            <glyph glyph-name="quotedbl" unicode="&#34;" horiz-adv-x="758" d="M217 936q-34 0 -35 8q-7 94 -34 254t-27 197q0 86 95 86t95 -84l-59 -453q-1 -8 -35 -8zM639 1397q0 -18 -7 -66l-43 -283q-6 -53 -11 -104q-1 -8 -34 -8t-34 8q-4 46 -9 88l-50 334q-2 20 -2 29q0 86 95 86t95 -84z"/>
            <glyph glyph-name="numbersign" unicode="#" horiz-adv-x="1016" d="M684 836h-242l-94 -353h244zM993 922v-86h-219l-94 -353h197v-86h-220l-102 -387h-90l102 387h-241l-105 -387h-88l103 387h-211v86h233l96 353h-213v86h236l88 327h90l-88 -327h242l88 327h88l-86 -327h194z"/>
            <glyph glyph-name="dollar" unicode="$" horiz-adv-x="987" d="M764 293q0 192 -219 282v-509q76 0 139 53q80 63 80 174zM262 1057q0 -123 75 -183q38 -30 122 -65v459q-125 -13 -174 -107q-23 -45 -23 -104zM895 373q0 -168 -102 -270t-248 -107v-146q0 -16 -43 -16t-43 16v146q-87 6 -145 28t-146 64q-28 77 -42 200l-4 63q0 8 1 14 q4 17 33 17t30 -7q13 -145 128 -235q63 -49 145 -66v536l-125 58q-205 95 -205 348q0 122 115 229q77 71 215 84v137q0 15 43 15t43 -15v-137q85 -5 161 -21t80 -16q25 -88 37 -243q1 -16 -29 -22t-36 13q-22 113 -102 177q-49 41 -111 49v-488q197 -61 273 -149t77 -256z "/>
            <glyph glyph-name="percent" unicode="%" horiz-adv-x="1823" d="M586 1011q0 146 -39 223q-49 97 -130 97q-102 0 -145 -164q-22 -85 -22 -225t49 -234t119 -94q102 0 145 163q23 88 23 234zM735 952q1 -188 -91 -296t-226 -109q-160 0 -248 142q-72 117 -72 295t88 296t240 119q152 0 239 -144q70 -115 70 -303zM492 -82q-9 0 -36 17 t-22 26l875 1452q3 5 13 5t36 -16t20 -28l-874 -1452q-3 -4 -12 -4zM1583 438q0 148 -56 249q-44 77 -112 77q-103 0 -146 -165q-22 -87 -22 -227t49 -232t119 -93q95 0 140 151q28 92 28 240zM1735 403q0 -189 -88 -306q-87 -117 -237 -117t-239 138q-75 116 -75 293 t88 299t231 121q187 0 275 -194q45 -103 45 -234z"/>
            <glyph glyph-name="ampersand" unicode="&amp;" horiz-adv-x="1704" d="M221 422q0 -163 113 -253q90 -71 221 -71q209 0 377 217q-188 277 -450 467q-261 -151 -261 -360zM549 1311q-78 0 -123 -70q-31 -48 -31 -106q0 -110 174 -236q129 75 129 223q0 111 -64 161q-36 28 -85 28zM834 1116q0 -130 -125 -203l-89 -51q214 -155 402 -430 l92 118q148 192 148 247t-152 55q-15 0 -15 28t15 29q56 -6 238 -6t241 6q17 -1 17 -29t-17 -28q-103 0 -155 -36t-184 -208l-185 -239l70 -103q129 -190 311 -190q120 0 192 78q8 8 20 -2t12 -18t-5 -15q-110 -148 -342 -148q-157 0 -348 281q-216 -279 -479 -279 q-207 0 -324 129q-96 110 -96 254q0 258 205 377l149 86q-172 124 -172 255q0 130 89 214t218 84t199 -78t70 -178z"/>
            <glyph glyph-name="quotesingle" unicode="'" horiz-adv-x="422" d="M213 936q-34 0 -35 8q-4 47 -9 88l-50 334q-2 20 -2 29q0 86 95 86t95 -84l-59 -453q-1 -8 -35 -8z"/>
            <glyph glyph-name="parenleft" unicode="(" horiz-adv-x="676" d="M647 -322q0 -19 -41 -32q-19 0 -39 16q-193 174 -288 369q-119 239 -119 529t137 587q91 199 270 369q17 14 37 14t32 -12t11 -23q0 -11 -18 -31q-330 -346 -330 -874t334 -879q14 -14 14 -33z"/>
            <glyph glyph-name="parenright" unicode=")" horiz-adv-x="651" d="M510 615q0 -289 -137 -586q-96 -205 -270 -367q-16 -16 -37 -16t-32 12t-11 24t18 29q330 342 330 875t-332 876q-16 16 -16 34t17 26t32 8t31 -14q194 -182 288 -371q119 -241 119 -530z"/>
            <glyph glyph-name="asterisk" unicode="*" horiz-adv-x="807" d="M367 694v287l-244 -138l-37 61l246 140l-246 142l37 61l244 -139v276h71v-278l244 141l37 -61l-244 -142l244 -140l-37 -61l-244 138v-287h-71z"/>
            <glyph glyph-name="plus" unicode="+" horiz-adv-x="1024" d="M907 371h-334v-371h-120v371h-334v100h334v336h120v-336h334v-100z"/>
            <glyph glyph-name="comma" unicode="," horiz-adv-x="520" d="M236 236q78 0 128 -62t50 -135q0 -155 -126 -291q-70 -75 -155 -117q-2 -2 -4 -2q-27 0 -27 27q0 4 2 6l95 102q73 92 73 179q0 49 -34 61q-117 45 -117 135q0 58 55 84q26 13 60 13z"/>
            <glyph glyph-name="hyphen" unicode="-" horiz-adv-x="827" d="M707 602q17 0 17 -58t-19 -57h-590q-16 -1 -16 57t16 58h592z"/>
            <glyph glyph-name="period" unicode="." horiz-adv-x="520" d="M139 98q0 51 36 82t91 31t85 -37t30 -87.5t-34.5 -81t-87.5 -30.5t-86.5 36t-33.5 87z"/>
            <glyph glyph-name="slash" unicode="/" horiz-adv-x="717" d="M89 -17q-11 0 -48 18t-37 30v2l610 1440q4 6 16 6t42 -11q43 -21 43 -35v-3l-613 -1442q-2 -5 -13 -5z"/>
            <glyph glyph-name="zero" unicode="0" horiz-adv-x="956" d="M709 597q0 267 -40.5 469t-187.5 202q-123 0 -180 -180t-57 -399q0 -375 68 -506.5t171 -131.5t164.5 139.5t61.5 406.5zM887 653q0 -291 -107.5 -480t-305.5 -189t-301 189t-103 493t108 485.5t304 181.5t300.5 -194.5t104.5 -485.5z"/>
            <glyph glyph-name="one" unicode="1" horiz-adv-x="956" d="M578 262q0 -149 44 -181t134 -32q14 0 14 -28.5t-14 -28.5q-80 8 -264 8t-263 -8q-14 0 -14 28.5t14 28.5q127 0 161 38.5t34 172.5v870q0 47 -21 47q-7 0 -24 -8l-129 -59q-16 -1 -24 16.5t5 30.5q219 106 324 211q6 6 18 6t11 -14q-6 -125 -6 -172v-926z"/>
            <glyph glyph-name="two" unicode="2" horiz-adv-x="956" d="M882 255.5q0 -9.5 -1 -11.5l-101 -219q-15 -33 -51 -33q-135 8 -319 8t-363 -8q-41 0 -41 39q0 9 10 18q442 461 572 764q37 81 37 185t-76 165q-55 43 -133 43q-144 0 -246 -182q-4 -4 -18 -4t-26 12q-14 12 -14 17q0 4 1 6q59 119 151 190q106 88 244 88t226 -106 q73 -81 73 -223t-111 -297q-60 -82 -168 -209l-284 -318q-16 -17 -16 -30t30 -13h297q163 0 227 60q27 25 43 63q1 6 29 5q28 0 28 -9.5z"/>
            <glyph glyph-name="three" unicode="3" horiz-adv-x="956" d="M819 414q0 -185 -132 -311t-316 -126q-141 0 -208 46t-67 94t29 66t58 18t97 -74t144 -74q108 -1 166 105t59 232q-1 126 -75 214q-74 86 -207 86q-65 0 -113 -16q-14 0 -14 40t14 40q180 0 275 93q71 70 71 175t-69 163q-50 42 -119 42q-118 0 -207 -137q-1 -3 -15 -3 q-14 -1 -26 15t-12 21t2 7q137 203 325 203q115 -1 194 -85t79 -195q0 -167 -183 -271q-32 -18 -32 -27t28 -14q254 -51 254 -327z"/>
            <glyph glyph-name="four" unicode="4" horiz-adv-x="956" d="M870 391h-116q-23 0 -23 -20v-244q0 -78 121 -78q14 0 14 -28.5t-14 -28.5q-77 8 -216 8t-216 -8q-14 0 -14 28.5t14 28.5q158 0 158 78v244q0 20 -21 20h-477q-67 0 -67 37q0 30 46 92l222 301q14 19 419 604q9 13 39 13q58 0 58 -31l-647 -897q-8 -11 -8 -19 q0 -14 26 -14h389q21 0 21 21v444q0 15 76 15t77 -15v-444q0 -21 23 -21h116q18 0 18 -43t-18 -43z"/>
            <glyph glyph-name="five" unicode="5" horiz-adv-x="956" d="M813 496q1 -216 -133 -364t-346 -148q-141 0 -206 53q-36 31 -36 74q0 82 82 82q39 -1 108 -63t136 -62q112 0 185 108t73 230q0 208 -141 291q-78 46 -191 46q-50 0 -129 -18h-13q-15 0 -15 23q0 5 1 10l93 530q5 29 32 29h471q7 0 7 -35q1 -36 -17 -72t-24 -36h-383 q-29 0 -33 -27l-43 -234q-3 -23 12 -23l80 5q233 0 347 -139q83 -101 83 -260z"/>
            <glyph glyph-name="six" unicode="6" horiz-adv-x="956" d="M498 63q103 0 164 96q47 73 47 171q1 146 -69 234t-177 89q-107 0 -193 -110q-6 -43 -6 -82q0 -267 113 -358q50 -40 121 -40zM562 766q130 0 216 -114t86 -272t-108 -276q-108 -120 -292 -120q-182 0 -283 160q-81 128 -81 321q0 287 198 543t454 370h9q23 -6 23 -26 t-6 -23q-293 -166 -415 -427q-58 -123 -82 -273q152 137 281 137z"/>
            <glyph glyph-name="seven" unicode="7" horiz-adv-x="956" d="M300 -14q-72 0 -71 14q13 22 51 100l459 1039q9 22 9 28q0 15 -33 15h-215q-163 0 -211 -13q-106 -29 -146 -131q-6 -14 -32 -14t-27 14l51 248q6 31 41 31h682q39 0 39 -23q0 -11 -8 -30l-510 -1264q-7 -14 -79 -14z"/>
            <glyph glyph-name="eight" unicode="8" horiz-adv-x="956" d="M709 260q-1 128 -87 211t-159 134l-29 20q-174 -101 -174 -289q0 -112 70 -198t174 -87q105 0 163 77q42 56 42 132zM258 1075q0 -128 159 -246q33 -25 111 -75q142 100 142 236t-75 211q-53 56 -149 56t-151 -71q-37 -48 -37 -111zM852 332q0 -154 -110 -251t-274 -97 q-162 0 -263 94t-101 237q0 209 273 353q-127 82 -166 141q-70 93 -70 213t96 216t240 95q183 0 271 -108q61 -74 61 -187q0 -208 -227 -327q270 -173 270 -379z"/>
            <glyph glyph-name="nine" unicode="9" horiz-adv-x="956" d="M248 956q0 -116 68 -205t172 -89q105 0 196 112q6 44 6 88q0 234 -98 333q-35 33 -139 56q-109 0 -166 -106q-39 -73 -39 -189zM485 1333q175 0 273 -137t98 -332q0 -312 -238 -586q-169 -193 -405 -313l-8 -1q-15 5 -23 25q-8 21 -8 27t6 11q190 111 318 257t176 402 q-128 -135 -260 -135t-226 103q-93 110 -96 253q0 192 108 309t285 117z"/>
            <glyph glyph-name="colon" unicode=":" horiz-adv-x="594" d="M215 739q0 51 36.5 82t91 31t84.5 -37t30 -87.5t-34 -81t-87 -30.5t-87 36t-34 87zM215 98q0 51 36 82t91 31t85 -37t30 -87.5t-34.5 -81t-87.5 -30.5t-86.5 36t-33.5 87z"/>
            <glyph glyph-name="semicolon" unicode=";" horiz-adv-x="594" d="M311 855q65 0 97 -55q18 -30 18 -68q0 -65 -54 -97q-27 -16 -61 -16q-74 0 -109 56q-18 29 -18 65q0 68 58 99q30 16 69 16zM308 236q78 0 128 -62t50 -135q0 -155 -126 -291q-70 -75 -155 -117q-2 -2 -4 -2q-27 0 -27 27q0 4 2 6l95 102q73 92 73 179q0 49 -34 61 q-117 45 -117 135q0 58 55 84q26 13 60 13z"/>
            <glyph glyph-name="less" unicode="&lt;" horiz-adv-x="1024" d="M911 -2l-796 377v92l796 379v-119l-649 -303v-4l649 -305v-117z"/>
            <glyph glyph-name="equal" unicode="=" horiz-adv-x="1024" d="M907 330h-788v100h788v-100zM907 596h-788v100h788v-100z"/>
            <glyph glyph-name="greater" unicode="&gt;" horiz-adv-x="1024" d="M909 375l-796 -377v117l649 305v4l-649 303v119l796 -379v-92z"/>
            <glyph glyph-name="question" unicode="?" horiz-adv-x="752" d="M459 86q0 -67 -54 -100q-30 -17 -78 -17t-77 40t-29 77q0 69 51 106q30 21 68 21q64 0 99 -56q20 -32 20 -71zM279 1194q-68 0 -68 84t84 84q130 0 244 -131q115 -141 117 -294t-81 -196l-165 -88q-74 -41 -74 -93t20 -122q0 -16 -18 -18t-27 6q-75 136 -75 218t114 144 l105 56q116 62 116 151q0 199 -292 199z"/>
            <glyph glyph-name="at" unicode="@" horiz-adv-x="1556" d="M880 965q-100 -1 -186 -169t-86 -284q0 -70 45 -70q53 0 169 132q40 48 74 98t63 152l22 77q-1 64 -101 64zM975 358q-91 0 -107 20t-16 46t49 172l-8 4q-181 -240 -303 -240q-92 0 -92 127q0 153 126 340t279 187q52 0 101 -41l16 51q6 18 50 18t40 -18l-141 -492 q-10 -36 -10 -60q0 -46 42 -46q179 0 297 117t119 312q0 195 -147 327t-367 133q-317 1 -493 -209t-177 -504q0 -218 129 -373q162 -190 482 -190q144 0 317 72q7 3 16 -16t1 -23q-166 -105 -396 -105q-280 0 -473 154q-217 174 -217 479q0 346 241 565t568 219 q280 0 442 -156t162 -367q-1 -211 -145 -357t-385 -146z"/>
            <glyph glyph-name="A" unicode="A" horiz-adv-x="1398" d="M831 600q25 0 25 16q0 5 -2 11l-170 532q-6 20 -18 20t-19 -20l-197 -532q-2 -5 -2 -11q0 -16 24 -16h359zM1367 69q13 0 13 -38t-13 -38q-73 7 -231 7t-230 -7q-14 0 -14 38t14 38q99 0 99 68q0 23 -8 49l-101 313q-9 32 -44 32h-407q-28 0 -40 -35l-113 -314 q-9 -22 -9 -40q0 -73 151 -73q14 0 14 -38t-14 -38q-85 7 -213 7t-212 -7q-14 0 -13.5 38t13.5 38q97 0 129 28t66 104l377 987q6 17 6 30t-13 26.5t-13 19.5t39.5 27.5t92.5 58.5t65 37q23 0 35 -44q26 -97 49 -166l333 -991q39 -117 192 -117z"/>
            <glyph glyph-name="B" unicode="B" horiz-adv-x="1250" d="M431 277q0 -220 184 -220q333 0 333 315q0 211 -222 289q-87 29 -260 30q-35 0 -35 -30v-384zM431 789q0 -36 79 -36q354 0 354 279q0 265 -381 265q-52 0 -52 -67v-441zM271 186v986q0 110 -189 110q-14 0 -14 38t14 38q114 -6 240 -6l307 6q173 0 290 -81t117 -242 q0 -199 -196 -290q-15 -7 -15 -13.5t15 -11.5q108 -35 198.5 -127.5t90.5 -240t-104.5 -253.5t-395.5 -106l-336 7q-120 0 -202 -7q-13 0 -13.5 37.5t13.5 38.5q180 0 180 117z"/>
            <glyph glyph-name="C" unicode="C" horiz-adv-x="1344" d="M91 659q-1 211 95 375q203 350 626 351q111 0 268 -30l21 -4q126 -24 129 -24q29 -134 29 -311q-4 -16 -35.5 -16t-33.5 14q-28 300 -407 300q-204 0 -352.5 -184t-148.5 -423q0 -283 145 -471t353 -188q354 0 452 269q4 11 35.5 11t31.5 -22q-37 -191 -90 -270 q-32 -4 -77 -17q-147 -46 -350.5 -46t-355 86t-243.5 237.5t-92 362.5z"/>
            <glyph glyph-name="D" unicode="D" horiz-adv-x="1525" d="M431 298q0 -149 60 -197t191 -48q256 0 407.5 181t151.5 482q0 252 -177 416.5t-443 164.5q-95 -1 -125 -9q-64 -18 -65 -107v-883zM78 30.5q0 37.5 13 38.5q180 0 180 117v986q0 110 -189 110q-14 0 -14 38t14 38q140 -6 240 -6l381 6q311 0 520 -167t209 -476 t-183.5 -515.5t-497.5 -206.5l-439 7q-98 0 -221 -7q-13 0 -13 37.5z"/>
            <glyph glyph-name="E" unicode="E" horiz-adv-x="1235" d="M70 30.5q0 37.5 14 38.5q187 0 187 108v995q0 110 -187 110q-14 0 -14 38t14 38q140 -6 270 -6l663 6q51 0 61.5 -7t10.5 -20v-321q0 -17 -37.5 -17t-37.5 17q0 266 -258 272l-284 7q-41 1 -41 -48v-532q0 -33 28 -33h206q78 0 97.5 29t19.5 88v74q0 13 35 13.5t35 -13.5 q-8 -71 -8 -214t8 -223q0 -13 -35 -13.5t-35 13.5v82q0 43 -19.5 69t-97.5 26h-209q-25 0 -25 -31v-314q0 -113 65 -168q38 -32 91 -32l235 7q259 8 259 271q0 17 37.5 17t37.5 -17v-317q0 -25 -28 -28q-16 -2 -45 -2l-724 7q-129 0 -275 -7q-14 0 -14 37.5z"/>
            <glyph glyph-name="F" unicode="F" horiz-adv-x="1170" d="M1108 1010q0 -18 -38 -18t-38 18q0 255 -259 262l-301 10q-41 0 -41 -41v-494q0 -31 28 -31h164q75 0 96 30t21 100v117q0 13 35 13t35 -13q-8 -70 -8 -283.5t8 -284.5q0 -13 -35 -13t-35 13v117q0 70 -25 99t-92 29h-167q-25 0 -25 -25v-429q0 -117 188 -117 q13 0 13 -38t-13 -38q-89 7 -265 7t-263 -7q-13 0 -13 38t13 38q180 0 180 117v986q0 110 -187 110q-14 0 -14 38t14 38q116 -5 288 -5l663 5q70 -1 73 -19v-329z"/>
            <glyph glyph-name="G" unicode="G" horiz-adv-x="1409" d="M1230 144q0 -67 37 -67q14 0 14 -23t-13 -23t-112 -12l-210 -35q-90 -11 -178 -11q-146 0 -328 86t-265.5 262.5t-83.5 345.5q0 242 180.5 480t499.5 238q164 0 305.5 -29t155.5 -29q19 -49 29 -308q0 -18 -34 -18t-35 13q0 111 -103.5 205.5t-322.5 94.5t-351.5 -181.5 t-132.5 -406.5q0 -306 149 -492t344 -186t273 47q22 16 22 78v190q0 115 -228 115q-14 0 -14 38t14 38q56 -6 264 -6t265 6q15 0 15 -38t-15 -38q-141 0 -141 -115v-219z"/>
            <glyph glyph-name="H" unicode="H" horiz-adv-x="1620" d="M1371 186q0 -117 180 -117q13 0 13 -38t-13 -38q-160 7 -260 7t-258 -7q-13 0 -13 37.5t13 38.5q178 0 178 117v435q0 38 -39 38h-702q-39 0 -39 -38v-435q0 -117 180 -117q13 0 13 -38t-13 -38q-149 7 -253 7t-265 -7q-13 0 -13 37.5t13 38.5q178 0 178 117v986 q0 115 -189 115q-14 0 -14 38t14 38q44 -5 264 -5t265 5q13 0 13 -38t-13 -38q-180 0 -180 -115v-390q0 -39 39 -39h702q39 0 39 39v390q0 115 -189 115q-14 0 -14 38t14 38q44 -5 264 -5t265 5q13 0 13 -38t-13 -38q-180 0 -180 -115v-986z"/>
            <glyph glyph-name="I" unicode="I" horiz-adv-x="683" d="M271 186v986q0 115 -189 115q-14 0 -14 38t14 38q44 -5 264 -5t265 5q13 0 13 -38t-13 -38q-105 0 -142.5 -25t-37.5 -90v-986q0 -117 180 -117q13 0 13 -38t-13 -38q-86 7 -259 7t-259 -7q-13 0 -13 38t13 38q178 0 178 117z"/>
            <glyph glyph-name="J" unicode="J" horiz-adv-x="716" d="M292 260v912q0 115 -190 115q-14 0 -14 38t14 38q47 -5 265 -5t277 5q14 0 14 -38t-14 -38q-192 0 -192 -115v-538q0 -716 -71 -817.5t-155 -168.5t-193 -67q-54 0 -92 30.5t-38 76.5t29.5 71t83.5 25t94.5 -34t49.5 -67q70 24 101 114t31 463z"/>
            <glyph glyph-name="K" unicode="K" horiz-adv-x="1335" d="M271 186v986q0 115 -189 115q-14 0 -14 38t14 38q45 -5 268 -5t269 5q13 0 13 -38t-13 -38q-188 0 -188 -115v-437q0 -23 13 -23q29 0 92 67q15 15 27 31l293 365q40 52 40 78q0 34 -65 34q-13 0 -13 38t13 38q45 -5 181 -5t182 5q14 0 14 -38t-14 -38q-85 0 -163 -51 q-26 -17 -41 -35l-358 -433q-5 -6 -5 -15t5 -15l458 -565q84 -104 246 -104q14 0 14 -38t-14 -38q-79 7 -269 7t-267 -7q-14 0 -14 37.5t14 38.5q96 0 96 59q0 24 -25 58l-269 353q-53 67 -113 95q-23 11 -41 11t-17 -22v-437q0 -117 180 -117q13 0 13 -38t-13 -38 q-77 7 -260 7t-260 -7q-13 0 -13 37.5t13 38.5q180 0 180 117z"/>
            <glyph glyph-name="L" unicode="L" horiz-adv-x="1344" d="M82 31q0 38 13 38q176 0 176 108v995q0 115 -189 115q-14 0 -14 38t14 38q46 -5 262 -5t261 5q13 0 13 -38t-13 -38q-174 0 -174 -115v-895q-1 -121 69 -181q40 -34 109 -34l313 13q125 5 194.5 91t69.5 213q0 13 39 13t39 -13v-352q0 -28 -36 -32q-14 -2 -45 -2l-833 7 q-112 0 -255 -7q-13 0 -13 38z"/>
            <glyph glyph-name="M" unicode="M" horiz-adv-x="1848" d="M288 1145q0 142 -191 142q-13 0 -13 38t13 38q45 -5 149.5 -5t136 -15.5t51.5 -57.5l472 -1008q13 -27 22 -27t23 29l485 1012q22 46 56 56.5t132 10.5t146 5q14 0 14 -38t-14 -38q-129 0 -167 -70q-21 -39 -21 -105v-6l7 -920q1 -117 159 -117q14 0 14 -38t-14 -38 q-75 7 -229 7t-239 -7q-14 0 -14 38t14 38q150 0 149 117l-4 853q0 13 -9 13t-14 -12l-506 -1046q-8 -17 -22 -17t-22 17l-464 1047q-8 17 -17 17t-10 -17l-51 -855v-9q0 -108 158 -108q14 0 14 -38t-14 -38q-81 7 -197 7t-200 -7q-13 0 -13 38t13 38q150 0 157 117l59 944 q1 8 1 15z"/>
            <glyph glyph-name="N" unicode="N" horiz-adv-x="1482" d="M257 186v924q0 101 -45.5 139t-142.5 38q-13 0 -13 38t13 38q44 -5 149 -5t137 -7.5t59 -41.5l758 -977q10 -13 24 -13q23 0 23 33v819q0 116 -171 116q-14 0 -14 38t14 38q46 -5 188 -5t187 5q13 0 13 -38t-13 -38q-136 0 -136 -116v-1142q1 -50 -17 -50t-42 30 l-867 1095q-11 13 -22 13t-11 -18v-913q0 -117 159 -117q13 0 13 -38t-13 -38q-81 7 -197 7t-200 -7q-14 0 -14 38t14 38q167 0 167 117z"/>
            <glyph glyph-name="O" unicode="O" horiz-adv-x="1461" d="M282 726q0 -310 150 -494t317 -184q212 0 327.5 173t115.5 439t-145.5 460t-319.5 194q-210 0 -327.5 -181t-117.5 -407zM91 656.5q0 273.5 176 501t473 227.5q266 0 454.5 -208t188.5 -514q0 -256 -174 -473t-469 -217t-472 205t-177 478.5z"/>
            <glyph glyph-name="P" unicode="P" horiz-adv-x="1164" d="M431 707q0 -34 43.5 -41.5t101.5 -7.5q368 0 368 326q0 129 -103 220.5t-274 91.5h-89q-47 0 -47 -31v-558zM1116 980q0 -180 -131 -282t-347 -102q-120 0 -151 3.5t-43.5 -1t-12.5 -29.5v-383q0 -117 186 -117q13 0 13 -38t-13 -38q-77 7 -262 7t-262 -7q-13 0 -13 37.5 t13 38.5q178 0 178 117v986q0 115 -189 115q-13 0 -13 35.5t13 35.5q116 -5 226 -5l336 5q202 0 337 -99t135 -279z"/>
            <glyph glyph-name="Q" unicode="Q" horiz-adv-x="1474" d="M282 705.5q0 -284.5 149 -471.5t318 -187q226 0 334.5 180t108.5 439t-140 453.5t-328.5 194.5t-315 -162t-126.5 -446.5zM732.5 1385q286.5 0 468.5 -213.5t182 -508.5q0 -195 -107.5 -375.5t-253.5 -249.5q-17 -8 -17 -21q0 -40 210 -141t433 -160q14 -4 14 -18 q0 -62 -25 -57q-575 125 -1136 368q-175 76 -292.5 246.5t-116.5 424t177.5 479.5t463 226z"/>
            <glyph glyph-name="R" unicode="R" horiz-adv-x="1405" d="M431 705q0 -31 38 -39t107 -8q387 0 387 326q0 131 -105 221.5t-291 90.5h-89q-47 0 -47 -31v-560zM1136 984q0 -277 -267 -348q-28 -8 0 -57q145 -257 359 -459q111 -105 186 -105q14 0 14 -17.5t-14 -18.5q-42 -4 -67 -4q-163 0 -241 54q-122 85 -211 202l-175 256 q-48 71 -75.5 90t-83 19t-85.5 3.5t-37.5 -2.5t-7.5 -18v-393q0 -117 194 -117q13 0 13 -38t-13 -38q-77 7 -267 7t-267 -7q-13 0 -13 37.5t13 38.5q180 0 180 117v986q0 110 -189 110q-14 0 -14 38t14 38q116 -5 212 -5l350 5q230 0 361 -96.5t131 -277.5z"/>
            <glyph glyph-name="S" unicode="S" horiz-adv-x="1042" d="M525 1385q104 0 190.5 -20.5t99.5 -20.5t16 1q28 -101 38 -258q1 -19 -32 -23.5t-37 13.5q-21 110 -93.5 175.5t-189 65.5t-178.5 -66.5t-62 -156.5q0 -233 295 -293q372 -76 372 -412q0 -190 -109.5 -303.5t-280.5 -113.5q-120 0 -191.5 21t-185.5 79q-49 155 -49 273 q0 11 2 19q4 18 35 18t32 -9q9 -129 111.5 -227.5t274.5 -98.5q92 0 157.5 72t65.5 184q0 236 -264 296q-404 94 -405 450q0 144 110.5 239.5t277.5 95.5z"/>
            <glyph glyph-name="T" unicode="T" horiz-adv-x="1321" d="M1287 1325v-319q0 -14 -38 -14t-38 14q0 276 -262 276h-162q-51 0 -51 -46v-1050q0 -117 189 -117q14 0 14 -38t-14 -38q-92 7 -273 7t-273 -7q-14 0 -14 38t14 38q197 0 197 117v1050q0 46 -48 46h-152q-265 0 -265 -276q0 -14 -38 -14t-38 14v319q0 33 78 33l543 -5 l553 5q78 0 78 -33z"/>
            <glyph glyph-name="U" unicode="U" horiz-adv-x="1497" d="M256 539v633q0 115 -185 115q-13 0 -13 38t13 38q44 -5 276 -5t278 5q13 0 13 -38t-13 -38q-206 0 -206 -115v-631q0 -301 104.5 -397t278.5 -96t275.5 100.5t101.5 338.5v685q0 115 -188 115q-13 0 -13 38t13 38q45 -5 239 -5t239 5q13 0 13 -38t-13 -38 q-180 0 -180 -115v-443q0 -352 -52.5 -475.5t-166 -202t-308.5 -78.5t-304.5 62.5t-155.5 188t-46 315.5z"/>
            <glyph glyph-name="V" unicode="V" horiz-adv-x="1287" d="M33 1287q-13 0 -13 38t13 38q44 -5 228 -5t230 5q13 0 13 -38t-13 -38q-143 0 -143 -74q0 -17 7 -41l304 -880q7 -20 17 -20t19 22l319 869q10 33 10 46q0 78 -102 78q-14 0 -14 38t14 38q46 -5 194 -5t194 5q14 0 14 -38t-14 -38q-154 0 -187 -86l-476 -1214 q-10 -25 -26.5 -25t-31.5 44l-409 1166q-40 115 -147 115z"/>
            <glyph glyph-name="W" unicode="W" horiz-adv-x="1971" d="M33 1287q-13 0 -13 38t13 38q45 -5 213 -5t215 5q13 0 13 -38t-13 -38q-113 0 -113 -57q0 -24 15 -58l395 -880q9 -19 18.5 -19t18.5 21l145 317q8 18 8 39.5t-10 44.5l-214 477q-52 115 -137 115q-13 0 -13 38t13 38q44 -5 208 -5t210 5q13 0 13 -38t-13 -38 q-113 0 -113 -55q0 -24 16 -60l116 -259q11 -23 19 -23t19 25l113 248q17 37 17 63q0 61 -100 61q-14 0 -14 38t14 38q46 -5 190 -5t189 5q13 0 13 -38t-13 -38q-149 0 -188 -86l-175 -388q-11 -25 -11 -43.5t7 -34.5l199 -443q10 -19 19 -19t17 21l396 869q17 37 17 62 q0 62 -99 62q-13 0 -13 38t13 38q47 -5 180 -5t179 5q14 0 14 -38t-14 -38q-130 0 -169 -86l-542 -1194q-17 -36 -28 -36t-26 35l-228 512q-8 16 -16 16t-15 -16l-232 -512q-15 -35 -25.5 -35t-27.5 35l-523 1166q-51 115 -147 115z"/>
            <glyph glyph-name="X" unicode="X" horiz-adv-x="1330" d="M6 1325q0 38 13 38q45 -5 277 -5t280 5q14 0 14 -38t-14 -38q-139 0 -139 -57q0 -25 22 -59l210 -327q11 -16 22 -16t23 16l241 319q38 50 38 78q0 46 -87 46q-14 0 -14 38t14 38q44 -5 198 -5t201 5q13 0 13 -38t-13 -38q-118 0 -185 -51q-40 -31 -127 -144l-240 -314 q-11 -14 -11 -28t9 -28l346 -536q76 -117 240 -117q13 0 13 -38t-13 -38q-77 7 -257 7t-256 -7q-14 0 -14 38t14 38q114 0 114 53q0 26 -29 69l-264 392q-11 17 -20.5 17t-21.5 -17l-204 -281q-95 -131 -95 -182t120 -51q14 0 14 -38t-14 -38q-74 7 -220 7t-233 -7 q-13 0 -13 38t13 38q161 0 226 86l374 496q8 11 8 21.5t-12 28.5l-324 478q-45 67 -93 87t-131 21q-13 0 -13 38z"/>
            <glyph glyph-name="Y" unicode="Y" horiz-adv-x="1235" d="M-13 1287q-13 0 -13 38t13 38q45 -5 237 -5t239 5q13 0 13 -38t-13 -38q-121 0 -121 -57q0 -23 21 -58l281 -472q8 -14 15.5 -14t16.5 14l298 463q27 42 27 71q0 53 -111 53q-14 0 -14 38t14 38q46 -5 198 -5t197 5q13 0 13 -38t-13 -38q-139 0 -211 -109l-308 -473 q-65 -100 -71 -129.5t-6 -86.5v-303q0 -117 164 -117q13 0 13 -38t-13 -38q-75 7 -244 7t-244 -7q-13 0 -13 38t13 38q164 0 164 117v301q0 101 -28 147l-326 538q-70 115 -188 115z"/>
            <glyph glyph-name="Z" unicode="Z" horiz-adv-x="1241" d="M483 0h-365q-35 0 -35 24q0 13 10 27l875 1198q9 12 9 21q0 21 -31 21h-554q-55 0 -77 -30q-72 -92 -96.5 -154.5t-43.5 -129.5q-2 -7 -24 -7t-25 14q33 213 33 363q0 18 37 18q97 -9 147 -9h481q152 0 368 8q25 0 25 -14t-14 -32l-863 -1200q-9 -12 -9 -24q0 -25 30 -25 q435 0 640 13q80 5 163 163q39 74 47 107q3 12 26.5 3.5t23.5 -19.5q-48 -236 -48 -353q0 -13 -15 -16q-115 33 -715 33z"/>
            <glyph glyph-name="bracketleft" unicode="[" horiz-adv-x="725" d="M666 -354h-357q-22 0 -22 22v1843q0 19 20 19h359q17 0 17 -39t-17 -39h-220q-20 0 -20 -22v-1678q0 -28 14 -28h226q17 0 17 -39t-17 -39z"/>
            <glyph glyph-name="backslash" unicode="\" horiz-adv-x="717" d="M631 -18q-17 0 -19 6l-608 1444q-2 2 -2 6q0 14 31 30t51 15q20 0 22 -8l607 -1450v-7q-5 -8 -35 -22t-47 -14z"/>
            <glyph glyph-name="bracketright" unicode="]" horiz-adv-x="739" d="M452 -332q0 -22 -22 -22h-377q-23 0 -23 39t21 39h250q12 0 12 24v1682q0 22 -18 22h-224q-24 0 -24 39t20 39h365q20 0 20 -19v-1843z"/>
            <glyph glyph-name="asciicircum" unicode="^" horiz-adv-x="1096" d="M985 535h-135l-301 682l-303 -682h-140l390 837h104z"/>
            <glyph glyph-name="underscore" unicode="_" horiz-adv-x="1024" d="M1024 -256h-1024v102h1024v-102z"/>
            <glyph glyph-name="grave" unicode="`" horiz-adv-x="569" d="M465 1061q0 -39 -35 -39q-23 0 -41 29l-168 271q-4 5 -4 13q0 26 31 41q30 15 52 15t29 -16l132 -294q4 -11 4 -20z"/>
            <glyph glyph-name="a" unicode="a" horiz-adv-x="797" d="M640 -23q-105 0 -142 136q-76 -76 -121 -106t-116.5 -30t-108.5 31t-52.5 71.5t-15.5 82.5t20 82.5t58.5 73t66.5 47.5l232 129q20 11 20 32v181q0 88 -133 88q-97 0 -135 -50q-5 -7 -16 -99.5t-67 -92.5t-56 56t40.5 112.5t69.5 73.5q128 75 246 75q71 0 137.5 -40 t66.5 -99v-532q0 -115 67 -115q19 0 47 19.5t32 19.5q22 -3 29 -30q0 -3 -1 -5q-41 -69 -76 -90t-92 -21zM481 199v215q0 22 -14 22q-7 0 -60 -26q-170 -85 -170 -222q0 -49 31.5 -79.5t79.5 -30.5t90.5 42.5t42.5 78.5z"/>
            <glyph glyph-name="b" unicode="b" horiz-adv-x="1001" d="M756 414q0 156 -76.5 266.5t-198.5 110.5q-86 0 -147 -50q-23 -18 -23 -94v-346q0 -81 75.5 -172.5t171.5 -91.5t147 110.5t51 266.5zM930 430q0 -218 -111.5 -335.5t-294.5 -117.5q-59 0 -155 46q-24 10 -58 10t-96 -56q-3 -2 -9 -2t-29 9t-23 16q4 61 4 260v918 q0 133 -92 133q-17 0 -17 27.5t17 27.5q25 0 105 41t100.5 59.5t32.5 18.5t13 -25l-6 -124v-500q0 -27 11 -27t22 6q94 55 176 55q176 0 293 -131.5t117 -308.5z"/>
            <glyph glyph-name="c" unicode="c" horiz-adv-x="817" d="M781 109q0 -17 -96.5 -74t-240.5 -57.5t-251 116.5t-107 302t122 329.5t316.5 144.5t231.5 -73q6 -12 6 -36t-22 -51.5t-39 -27.5t-27 14q-78 107 -173 107t-173 -102.5t-78.5 -260.5t89 -254t179 -96t225.5 62q11 5 24.5 -15.5t13.5 -27.5z"/>
            <glyph glyph-name="d" unicode="d" horiz-adv-x="1012" d="M688 199v469q0 75 -22 94q-59 49 -148 49q-134 0 -211.5 -111.5t-77.5 -259.5t83 -257t192 -109q78 0 131 41t53 84zM841 231q0 -149 82 -149q11 0 47 6q12 2 16 -27t-4 -30q-37 -5 -153 -31.5t-124 -32.5q-17 0 -17 49v41q0 23 -11.5 23t-27.5 -14q-94 -89 -196 -89 q-197 0 -292 122.5t-95 311.5t132 324t343 135q70 0 98 -9t35 -9q14 0 14 25v294q0 140 -92 140q-17 0 -17 27.5t17 27.5q25 0 96.5 36.5t103.5 59.5t42 23t9 -15l-6 -108v-1131z"/>
            <glyph glyph-name="e" unicode="e" horiz-adv-x="838" d="M261 630q0 -14 24 -14h321q15 0 15 17q0 44 -54.5 111t-116.5 67q-125 0 -186 -166q-3 -8 -3 -15zM85 431q0 178 113.5 308.5t254.5 130.5t228 -98t87 -160t-51 -63h-449q-30 0 -30 -66q0 -160 76.5 -274.5t211.5 -114.5q101 0 201 60q5 3 14 3t17 -9t8 -18.5t-4 -12.5 q-158 -140 -311 -140t-259.5 138t-106.5 316z"/>
            <glyph glyph-name="f" unicode="f" horiz-adv-x="584" d="M201 127v600q0 37 -37 37h-74q-15 0 -15 27.5t15 27.5q111 0 111 86v19q0 250 141 406.5t330 156.5q114 0 162 -52q24 -25 24 -61t-27.5 -63t-58.5 -27q-56 0 -101.5 54.5t-99.5 54.5q-106 0 -161.5 -85t-55.5 -207v-214q0 -37 37 -37h203q15 0 15 -43t-15 -43h-203 q-37 0 -37 -37v-600q0 -78 148 -78q14 0 14 -28.5t-14 -28.5q-85 8 -211 8t-207 -8q-14 0 -14 28.5t14 28.5q117 0 117 78z"/>
            <glyph glyph-name="g" unicode="g" horiz-adv-x="948" d="M631 543q0 268 -196 268q-69 0 -127 -66.5t-58 -175.5t66 -179.5t145 -70.5q170 0 170 224zM219 -252q0 -98 73 -157.5t211 -59.5t227 66.5t89 160.5q0 187 -244 187h-184q-35 0 -61 -19q-111 -80 -111 -178zM59 -313q0 105 187 239q16 14 16 22q-2 11 -20 15 q-136 39 -136 148q0 51 114 131q10 7 23.5 15t13.5 20t-15 22q-146 93 -146 239t100.5 239t227.5 93t214 -38.5t138 -38.5h172q15 0 15 -43t-15 -43h-166q4 -37 4 -109q0 -145 -94 -241.5t-262 -96.5q-33 0 -65 2t-54 -12q-69 -45 -69 -100q0 -80 149 -80h254 q297 0 297 -228q0 -170 -159.5 -285.5t-347.5 -115.5t-282 70.5t-94 175.5z"/>
            <glyph glyph-name="h" unicode="h" horiz-adv-x="1094" d="M921 127q0 -78 127 -78q14 0 14 -28.5t-14 -28.5q-82 8 -198 8t-195 -8q-14 0 -14 28.5t14 28.5q113 0 113 78v420q0 97 -59 165t-143 68t-148 -51t-64 -100v-502q0 -78 111 -78q14 0 14 -28.5t-14 -28.5q-105 8 -205 8t-180 -8q-14 0 -14 28.5t14 28.5q121 0 121 78 v1047q0 139 -92 139q-17 0 -17 27.5t17 27.5q33 0 97 34q66 34 98 60q56 45 56 8q-6 -107 -6 -165v-514q0 -25 16 -25q9 0 17 8q91 96 238.5 96t221.5 -105.5t74 -215.5v-422z"/>
            <glyph glyph-name="i" unicode="i" horiz-adv-x="524" d="M365 1157q0 -45 -32 -77t-77 -32t-75.5 32t-30.5 77t30.5 75.5t75.5 30.5t77 -30.5t32 -75.5zM280 0q-111 0 -192 -8q-14 0 -14 28.5t14 28.5q113 0 113 78v444q0 138 -92 138q-17 0 -17 28t17 28q33 0 97.5 34t97.5 59t44.5 25t11.5 -16q-6 -108 -6 -166v-574 q0 -78 113 -78q14 0 14 -28.5t-14 -28.5q-76 8 -187 8z"/>
            <glyph glyph-name="j" unicode="j" horiz-adv-x="518" d="M358 59q0 -329 -110 -483q-93 -131 -248 -131q-50 0 -87.5 28t-37.5 64t24.5 55t63.5 19t78.5 -39t64.5 -39q99 0 99 213v825q0 138 -92 138q-17 0 -17 28t17 28q33 0 97.5 34t97.5 59q32 25 44 25t12 -16q-6 -108 -6 -166v-642zM365 1157q0 -45 -32 -77t-77 -32 t-75.5 32t-30.5 77t30.5 75.5t75.5 30.5t77 -30.5t32 -75.5z"/>
            <glyph glyph-name="k" unicode="k" horiz-adv-x="1008" d="M387 412q-33 0 -33 -43v-242q0 -78 119 -78q14 0 14 -28.5t-14 -28.5q-104 8 -198 8t-189 -8q-14 0 -13.5 28.5t13.5 28.5q115 0 115 78v1048q0 138 -92 138q-18 0 -17.5 28t17.5 28q33 0 97.5 34t97.5 59t44.5 25t11.5 -16q-6 -105 -6 -166v-783q0 -43 46 -43t67 23 l197 221q26 29 26 47q0 33 -96 33q-14 0 -14 26.5t14 26.5q92 -6 190 -6t174 6q14 0 14 -26.5t-14 -26.5q-92 0 -163 -68l-213 -205q-19 -18 -19 -34t17 -35l321 -367q39 -45 129 -45q14 0 14 -28.5t-14 -28.5q-95 8 -202 8t-201 -8q-14 0 -14 28.5t14 28.5q82 0 82 29 q0 13 -31 49l-221 254q-28 31 -70 31z"/>
            <glyph glyph-name="l" unicode="l" horiz-adv-x="524" d="M354 127q0 -78 119 -78q14 0 14 -28.5t-14 -28.5q-77 8 -193 8t-196 -8q-14 0 -14 28.5t14 28.5q117 0 117 78v1044q0 140 -92 140q-17 0 -17 27.5t17 27.5q46 0 165 74q34 21 50 33t26 12t10 -15q-6 -57 -6 -97v-1246z"/>
            <glyph glyph-name="m" unicode="m" horiz-adv-x="1607" d="M1364 0q-112 0 -190 -8q-14 0 -14 28.5t14 28.5q110 0 110 78v453q0 117 -56.5 158.5t-143 41.5t-138 -82t-51.5 -221v-350q0 -78 115 -78q14 0 14 -28.5t-14 -28.5q-80 8 -190 8t-188 -8q-14 0 -14 28.5t14 28.5q110 0 110 78v405q0 182 -64 226q-32 22 -92 22t-92 -17 q-140 -73 -140 -173v-463q0 -78 106 -78q14 0 14 -28.5t-14 -28.5q-76 8 -188 8t-192 -8q-14 0 -14 28.5t14 28.5q121 0 121 78v451q0 124 -84 124q-17 0 -17 28t17 28q25 0 83.5 34.5t94 62.5t49.5 28t13 -27q-4 -78 -4 -91t10.5 -13t18.5 8q104 110 244 110t224 -122 q11 -16 19.5 -16t19.5 13q113 125 274 125q122 0 181.5 -68t76 -118.5t16.5 -118.5v-438q0 -78 116 -78q14 0 14 -28.5t-14 -28.5q-77 8 -189 8z"/>
            <glyph glyph-name="n" unicode="n" horiz-adv-x="1069" d="M896 127q0 -78 115 -78q14 0 14 -28.5t-14 -28.5q-77 8 -187 8t-191 -8q-14 0 -14 28.5t14 28.5q110 0 110 78v403q0 178 -60 226q-31 24 -91 24t-94 -17q-144 -72 -144 -173v-463q0 -78 107 -78q14 0 14 -28.5t-14 -28.5q-77 8 -187 8t-188 -8q-14 0 -14 28.5t14 28.5 q115 0 115 78v447q0 128 -84 128q-17 0 -17 28t17 28q69 0 174 92q37 32 51.5 32.5t13.5 -30.5l-2 -73q-1 -21 14 -21q8 0 15 6q107 106 257 106t223 -147q33 -66 33 -248v-348z"/>
            <glyph glyph-name="o" unicode="o" horiz-adv-x="995" d="M247 422q0 -178 81.5 -278.5t176.5 -100.5q95 -1 175 101t80.5 278t-79.5 282q-79 106 -175 106t-177.5 -105t-81.5 -283zM84 428q0 168 125 305t299 137t295 -137t121 -313t-111 -309.5t-297 -133.5t-309 141.5t-123 309.5z"/>
            <glyph glyph-name="p" unicode="p" horiz-adv-x="1001" d="M771 420q0 368 -264 368q-84 0 -160 -100q-20 -26 -20 -94v-389q-1 -164 189 -164q140 0 197.5 111t57.5 268zM945 418q0 -198 -109.5 -319.5t-304.5 -121.5q-110 0 -167 19q-6 2 -11 2q-26 0 -26 -33v-381q0 -86 151 -86q14 0 14 -28.5t-14 -28.5q-85 8 -212 8t-207 -8 q-14 0 -14 28.5t14 28.5q115 0 115 84v999q0 124 -86 124q-17 0 -17 27.5t17 27.5q29 0 99 40t91.5 61.5t39.5 21.5q13 0 13 -27l-4 -68q0 -20 16 -20q9 0 18 8q83 94 191 94t202 -68.5t142.5 -153.5t48.5 -230z"/>
            <glyph glyph-name="q" unicode="q" horiz-adv-x="1012" d="M688 205v418q0 37 -14 59q-66 106 -152 106q-293 1 -293 -353q0 -159 60.5 -276.5t184.5 -117.5q214 0 214 164zM66 419q0 209 121.5 330t264.5 121t259 -59l118 55q46 -2 39 -45q-27 -27 -27 -299v-940q0 -84 133 -84q14 0 14 -28.5t-14 -28.5q-84 8 -210 8t-209 -8 q-14 0 -14 28.5t14 28.5q133 0 133 86v379q0 37 -19 37q-64 -22 -234.5 -22.5t-269.5 116t-99 325.5z"/>
            <glyph glyph-name="r" unicode="r" horiz-adv-x="696" d="M581 870q57 0 92 -45q18 -23 18 -65t-41 -74q-20 -16 -42 -16t-67.5 24.5t-68.5 24.5q-61 0 -103 -60.5t-42 -164.5v-367q0 -78 151 -78q14 0 14 -28.5t-14 -28.5q-84 8 -210 8t-209 -8q-14 0 -14 28.5t14 28.5q115 0 115 78v462q0 113 -84 113q-17 0 -17 28t17 28 q38 0 109 48t87.5 62.5t27.5 14.5q17 0 17 -25q-4 -49 -4 -89.5t13.5 -40.5t27.5 20q89 122 213 122z"/>
            <glyph glyph-name="s" unicode="s" horiz-adv-x="707" d="M649 257q0 -92 -42 -155.5t-115 -95t-154 -31.5q-156 0 -240 60q-20 63 -20 172v45q0 15 23.5 15t25.5 -15q5 -39 65 -126t179 -87q59 0 110 37t51 107t-43 112.5t-153 72t-177 94.5t-67 166t84 171.5t213 70.5t207 -36q31 -84 31 -170v-11q0 -14 -22 -14t-25 14 q-10 54 -67.5 105t-134.5 51t-124 -37.5t-47 -99.5t33.5 -95.5t166.5 -72t187.5 -97t54.5 -150.5z"/>
            <glyph glyph-name="t" unicode="t" horiz-adv-x="674" d="M325.5 1010q20.5 0 20.5 -19v-98q0 -43 41 -43h244q14 0 14 -45t-14 -45h-244q-41 0 -41 -40v-403q0 -131 37.5 -187t124.5 -56q52 0 108 39q14 10 21.5 -4t7.5 -21t-2 -10q-84 -101 -214.5 -101t-183 54.5t-52.5 181.5v507q0 40 -40 40h-73q-14 0 -14 23t14 23 q45 0 93 36q90 66 128 159q4 9 24.5 9z"/>
            <glyph glyph-name="u" unicode="u" horiz-adv-x="1036" d="M728 -33q-16 0 -16 45v45q0 24 -11.5 24t-27.5 -15q-95 -89 -234 -89q-105 0 -185 106t-80 218v335q0 147 -111 147q-15 0 -15 28t15 28q105 0 169.5 9t84 9t18.5 -16q-8 -123 -8 -152v-355q0 -115 39.5 -187.5t124.5 -72.5t153 52t68 126v384q0 147 -111 147 q-15 0 -15 28t15 28q123 0 180.5 9t69.5 9q22 0 20 -27q-6 -87 -6 -139v-464q0 -155 82 -145l47 6q23 3 23 -42q0 -14 -8 -15q-28 -3 -136.5 -27.5t-124.5 -30.5t-20 -6z"/>
            <glyph glyph-name="v" unicode="v" horiz-adv-x="838" d="M12 803q-14 0 -14 26.5t14 26.5q58 -6 176 -6t179 6q14 0 14 -26.5t-14 -26.5q-78 0 -78 -55q0 -17 4 -29l160 -490q6 -18 14 -18t14 18l170 498q4 10 4 23q0 53 -96 53q-14 0 -14 26.5t14 26.5q57 -6 143 -6t146 6q14 0 14 -26.5t-14 -26.5q-96 0 -121 -72l-250 -715 q-13 -39 -42 -39t-40 27l-280 727q-29 72 -103 72z"/>
            <glyph glyph-name="w" unicode="w" horiz-adv-x="1331" d="M12 803q-14 0 -14 26.5t14 26.5q58 -6 176 -6t179 6q14 0 14 -26.5t-14 -26.5q-78 0 -78 -55q0 -17 4 -29l160 -490q6 -18 14 -18t14 18l150 435q6 20 6 28q0 59 -51 94q-27 17 -62 17q-14 0 -14 26.5t14 26.5q58 -6 176 -6t179 6q14 0 14 -26.5t-14 -26.5q-78 0 -78 -55 q0 -17 4 -29l160 -490q6 -18 14 -18t14 18l170 498q4 10 4 23q0 53 -96 53q-14 0 -14 26.5t14 26.5q57 -6 143 -6t146 6q14 0 14 -26.5t-14 -26.5q-96 0 -121 -72l-250 -715q-13 -39 -42 -39t-40 27l-213 549q-8 20 -14 20t-14 -20l-189 -537q-13 -39 -42 -39t-40 27 l-280 727q-29 72 -103 72z"/>
            <glyph glyph-name="x" unicode="x" horiz-adv-x="918" d="M90 803q-14 0 -14 26.5t14 26.5q56 -6 170 -6t172 6q14 0 14 -26.5t-14 -26.5q-76 0 -76 -37q0 -18 17 -45l110 -176q9 -15 19 -15t20 15l121 160q27 35 27 57q0 41 -82 41q-14 0 -14 26.5t14 26.5q57 -6 146 -6t149 6q14 0 14 -26.5t-14 -26.5q-67 0 -125 -72l-195 -237 q-14 -17 -14 -29t10 -27l211 -305q58 -84 148 -84q14 0 14 -28.5t-14 -28.5q-76 8 -194 8t-200 -8q-14 0 -14 28.5t14 28.5q97 0 97 33q0 12 -23 47l-137 215q-9 12 -17 12t-16 -12l-143 -199q-33 -47 -33 -67q0 -29 65 -29q14 0 14 -28.5t-14 -28.5q-79 8 -149 8t-145 -8 q-14 0 -14 28.5t14 28.5q94 0 147 68l225 282q8 11 8 22t-8 23l-207 289q-51 70 -98 70z"/>
            <glyph glyph-name="y" unicode="y" horiz-adv-x="838" d="M-39 803q-14 0 -14 26.5t14 26.5q57 -6 184 -6t187 6q14 0 14 -26.5t-14 -26.5q-96 0 -96 -55q0 -16 4 -29l174 -504q10 -31 25 -31t28 33l195 502q6 13 6 26q0 58 -129 58q-14 0 -14 26.5t14 26.5q57 -6 163 -6t164 6q14 0 14 -26.5t-14 -26.5q-96 0 -125 -72 l-442 -1149q-25 -64 -73.5 -99.5t-96.5 -35.5t-73 25t-25 51q0 76 94.5 76t120.5 63l96 240q11 25 11 39t-13 51l-258 739q-26 72 -121 72z"/>
            <glyph glyph-name="z" unicode="z" horiz-adv-x="735" d="M682 10q0 -37 -27 -37q-10 0 -68.5 13.5t-94.5 13.5h-420q-17 0 -17 14q0 6 2 9l398 729q8 15 8 23q0 18 -29 18h-158q-78 0 -131 -107l-61 -123q-3 -6 -13.5 -2.5t-9.5 8.5l37 267q5 37 23 34l103 -16q26 -4 77 -4h346q15 0 15 -7t-5 -16l-397 -723q-6 -11 -6 -18 q0 -18 27 -22t68.5 -4t72.5 1q106 0 170 72q24 27 80 152q4 9 23 4t18 -13q-31 -229 -31 -266z"/>
            <glyph glyph-name="braceleft" unicode="{" horiz-adv-x="784" d="M715 -319q-224 0 -326 38.5t-102 262.5v442q0 176 -211 176q-10 0 -10 17.5t10 17.5q211 0 211 172v338q0 163 41 237t123.5 92.5t263.5 18.5q14 0 14 -23.5t-14 -23.5q-156 0 -223.5 -52t-67.5 -186v-243q0 -173 -21.5 -244.5t-142.5 -99.5v-7q122 -22 143 -102t21 -219 v-277q0 -172 63 -230t228 -58q14 0 14 -23.5t-14 -23.5z"/>
            <glyph glyph-name="bar" unicode="|" horiz-adv-x="537" d="M354 -334h-121v1768h121v-1768z"/>
            <glyph glyph-name="braceright" unicode="}" horiz-adv-x="821" d="M719 600q-211 0 -211 -176v-442q0 -262 -137.5 -281.5t-290.5 -19.5q-14 0 -14 23.5t14 23.5q165 0 228 58t63 230v277q0 143 15 192t48 83t101 46v7q-77 18 -109 56t-43.5 78.5t-11.5 209.5v243q0 136 -70 187t-221 51q-14 0 -14 23.5t14 23.5q170 0 259.5 -16.5 t129 -95.5t39.5 -236v-338q0 -172 211 -172q10 0 10 -17.5t-10 -17.5z"/>
            <glyph glyph-name="asciitilde" unicode="~" horiz-adv-x="676" d="M653 512q0 -40 -80 -99q-83 -58 -135 -63q-46 0 -140 34t-128 34q-66 0 -121 -66q-3 -3 -11 -3t-14 12v9q0 2 1 3q101 149 211 149q42 0 130 -32t138 -31q48 0 121 71l8 3q20 -2 20 -21z"/>
            <glyph glyph-name="uni00A0" unicode="&#160;" horiz-adv-x="559"/>
            <glyph glyph-name="exclamdown" unicode="¡" horiz-adv-x="520" d="M152 -443q0 63 31 354.5t43 497.5q2 16 34 16t32 -16q8 -199 35 -491t27 -348t-31 -90t-67 -34q-104 0 -104 111zM259 634q-61 0 -91 37t-30 87.5t35 81t88 30.5t86 -36t33 -87t-30 -82t-91 -31z"/>
            <glyph glyph-name="cent" unicode="¢" horiz-adv-x="829" d="M384 395l116 654q-90 -5 -167 -105t-78 -272q-1 -173 129 -277zM567 1315q71 0 66 -27l-31 -175q130 -12 160 -70q6 -12 6 -36t-22 -51.5t-39 -27.5t-27 14q-44 60 -93 86l-120 -681q34 -11 69 -11q77 0 213 62q11 5 24.5 -15.5t13.5 -27.5q-1 -17 -97 -74t-238 -58h-7 l-33 -190q-2 -10 -27 -10q-67 0 -63 24l34 190q-88 26 -158 103q-106 116 -106 302t119 327t300 147l34 189q2 10 22 10z"/>
            <glyph glyph-name="sterling" unicode="£" horiz-adv-x="1126" d="M228 199q-80 0 -110 -33.5t-30 -68.5t32 -60t85 -25q112 0 205 113q-102 74 -182 74zM575 458q0 -107 -67 -292q180 -68 270 -68q134 0 246 99q35 32 43 32q14 0 14 -21.5t-26 -78.5q-78 -170 -264 -170q-128 0 -330 137q-63 -65 -121 -101t-140 -36t-125.5 42t-43.5 103 t46.5 104.5t118.5 43.5t246 -57q23 78 23 135q0 124 -64 325h-274q-15 0 -15 36t15 36h250q-60 163 -60 300t112.5 240t275.5 103q91 0 197 -32.5t106 -80.5q0 -187 -27 -227q-3 -4 -12 -4q-19 0 -39.5 71t-33.5 107t-59.5 77.5t-150.5 41.5q-104 1 -166 -69 q-61 -70 -61 -154t84 -373h323q16 0 16 -36t-16 -36h-307q16 -90 16 -197z"/>
            <glyph glyph-name="currency" unicode="¤" horiz-adv-x="1024" d="M168 668q0 -144 101 -245t245 -101t245 101t101 243t-103 245t-245 103t-243 -101t-101 -245zM80 668q0 148 88 260l-80 80q-11 11 31 53t53 31l80 -78q112 88 260 88t262 -88l78 78q11 11 53 -31t31 -53l-78 -78q88 -115 88 -263t-88 -261l78 -78q12 -12 -31 -53 t-53 -31l-78 78q-116 -89 -260 -89t-262 91l-80 -80q-10 -10 -53 31t-31 53l80 80q-88 112 -88 260z"/>
            <glyph glyph-name="yen" unicode="¥" horiz-adv-x="1325" d="M1096 571q15 0 15 -50t-15 -50h-368v-285q0 -117 164 -117q13 0 13 -38t-13 -38q-75 7 -244 7t-244 -7q-13 0 -13 38t13 38q164 0 164 117v285h-347q-15 0 -15 50t15 50h341q-7 39 -22 63l-62 103h-257q-15 0 -15 50.5t15 50.5h195l-202 334q-70 115 -188 115 q-13 0 -13 38t13 38q44 -5 236.5 -5t239.5 5q13 0 13 -38t-13 -38q-121 0 -121 -57q0 -23 21 -58l281 -472q8 -14 15.5 -14t16.5 14l298 463q27 42 27 71q0 53 -111 53q-14 0 -14 38t14 38q45 -5 197.5 -5t197.5 5q13 0 13 -38t-13 -38q-138 1 -210 -109l-222 -340h204 q15 0 15 -50.5t-15 -50.5h-270l-21 -32q-65 -99 -68 -115t-4 -19h363z"/>
            <glyph glyph-name="brokenbar" unicode="¦" horiz-adv-x="537" d="M354 111h-121v536h121v-536zM354 834h-121v538h121v-538z"/>
            <glyph glyph-name="section" unicode="§" horiz-adv-x="956" d="M754 426q0 124 -224 250q-111 62 -194 121q-121 -72 -121 -199q0 -96 92 -156l334 -219q113 79 113 203zM879 481q0 -195 -183 -299q131 -101 131 -243t-112 -242t-258 -100q-98 0 -203 43q-135 51 -135 129q-1 21 33 49t52 28t58 -45l44 -49q70 -78 167 -78t150 70 t53 152q0 104 -152 206l-278 177q-152 114 -152 251q0 94 52 182t139 122q-115 102 -115 233t101 222t239 91q83 0 166 -32q112 -43 112 -105q0 -29 -28 -53t-44 -25q-14 0 -82 69t-142 69q-74 1 -130 -51t-57 -136q0 -102 150 -196l274 -172q150 -117 150 -267z"/>
            <glyph glyph-name="dieresis" unicode="¨" horiz-adv-x="797" d="M706 1156q0 -45 -31.5 -76.5t-76 -31.5t-76 31.5t-31.5 76.5t31.5 76.5t76 31.5t76 -31.5t31.5 -76.5zM325 1156q0 -45 -31.5 -76.5t-76.5 -31.5t-76.5 31.5t-31.5 76.5t31.5 76.5t76.5 31.5t76.5 -31.5t31.5 -76.5z"/>
            <glyph glyph-name="copyright" unicode="©" horiz-adv-x="1442" d="M1374 748q0 270 -190.5 460.5t-460.5 190.5t-460.5 -190.5t-190.5 -453.5t184 -461t459.5 -198t467 191t191.5 461zM1444 748q0 -299 -211 -510t-510 -211t-510 211t-211 510t211 509.5t510 210.5t510 -210.5t211 -509.5zM347 744q0 116 82 257.5t314 141.5q45 0 137 -16 t94 -16q16 -74 15 -171q-3 -9 -19 -9t-18 8q-15 165 -224 165q-112 0 -194 -101t-82 -245t80 -247.5t194 -103.5q195 0 249 148q2 6 19 6t17 -12q-21 -105 -49 -148q-18 -3 -70 -19t-165 -16q-112 0 -195.5 47.5t-134 131t-50.5 199.5z"/>
            <glyph glyph-name="ordfeminine" unicode="ª" horiz-adv-x="516" d="M277 640v109q-1 14 -7 14t-10 -2q-84 -43 -84 -113t43 -71q58 0 58 63zM418 509q-67 0 -110 49q-14 19 -29 1q-49 -49 -121 -49t-105 51q-16 26 -15 60q0 73 127 139l91 43q21 12 21 28v114q0 43 -55 43t-78 -30q-6 -8 -6 -37q-2 -92 -57 -92t-55 47q0 40 26 76 q68 94 196 94q78 0 121 -30q44 -30 45 -68v-305q0 -68 40 -68q18 -2 43 22q5 5 15 -5t8 -15q-35 -68 -102 -68z"/>
            <glyph glyph-name="guillemotleft" unicode="«" horiz-adv-x="789" d="M366 435q0 28 24 53l299 312q11 11 28.5 -3t8.5 -27l-197 -294q-12 -18 -12 -41t12 -41l197 -290q10 -15 -7.5 -30.5t-29.5 -3.5l-299 312q-24 25 -24 53zM59 435q0 28 24 53l299 312q11 11 28.5 -3t8.5 -27l-197 -294q-12 -18 -12 -41t12 -41l197 -290 q10 -15 -7.5 -30.5t-29.5 -3.5l-299 312q-24 25 -24 53z"/>
            <glyph glyph-name="logicalnot" unicode="¬" horiz-adv-x="1366" d="M1366 0h-123v537h-1243v120h1366v-657z"/>
            <glyph glyph-name="uni00AD" unicode="­" horiz-adv-x="827" d="M707 602q16 0 16 -58t-18 -57h-590q-15 -1 -15 57t15 58h592z"/>
            <glyph glyph-name="registered" unicode="®" horiz-adv-x="1524" d="M1374 748q0 270 -190.5 460.5t-460.5 190.5t-460.5 -190.5t-190.5 -455t185.5 -461t459.5 -196.5t465.5 191t191.5 461zM1444 748q0 -299 -211 -510t-510 -211t-510 211t-211 510t211 509.5t510 210.5t510 -210.5t211 -509.5zM614 768q0 -17 20.5 -21.5t57.5 -4.5 q209 0 209 176q0 71 -56.5 120t-157.5 49h-48q-25 0 -25 -17v-302zM527 487v533q0 59 -102 59q-8 0 -7.5 20.5t7.5 20.5q78 -4 174.5 -2t129.5 2q124 0 194.5 -52t70.5 -150q0 -150 -144 -188q-15 -4 0 -30q78 -139 194 -248q60 -57 101 -57q8 0 7.5 -10.5t-66.5 -10.5 q-117 0 -222 138l-94 138q-26 38 -41 48.5t-45 10.5t-50 2.5t-20 -11.5v-213q0 -63 104 -63q7 0 7.5 -20.5t-7.5 -20.5q-42 4 -144 4t-144 -4q-7 0 -7 20.5t7 20.5q97 0 97 63z"/>
            <glyph glyph-name="macron" unicode="¯" horiz-adv-x="608" d="M528 1198q28 0 28 -47t-32 -47h-446q-29 0 -29 47t29 47h450z"/>
            <glyph glyph-name="degree" unicode="°" horiz-adv-x="713" d="M516 1047q0 103 -63 157q-41 35 -97 35q-89 0 -133 -81q-26 -48 -26 -111q0 -99 62 -157q40 -36 97 -36q89 0 133 81q27 48 27 112zM342 782q-120 0 -190 80t-70 192t83 184t203 73q120 -1 192 -81t71 -198q0 -118 -95 -192q-74 -58 -194 -58z"/>
            <glyph glyph-name="plusminus" unicode="±" horiz-adv-x="1024" d="M907 2h-788v100h788v-100zM907 596h-334v-371h-120v371h-334v100h334v336h120v-336h334v-100z"/>
            <glyph glyph-name="uni00B2" unicode="²" horiz-adv-x="630" d="M282 522q-97 0 -205 -4q-32 0 -32 28q0 13 12 24q96 96 189 222q154 208 152 324t-102 117q-89 0 -145 -99q-7 -13 -26 -1t-13 22q49 95 126 139q50 28 106 28q98 0 154 -62t55 -144q0 -115 -165 -300q-35 -40 -174 -178h177q69 0 97 12t45 47q7 13 32 2q23 -9 20 -17 l-59 -141q-10 -23 -48 -23q-81 5 -148 4h-48z"/>
            <glyph glyph-name="uni00B3" unicode="³" horiz-adv-x="630" d="M538 778q0 -104 -80 -187t-211 -83q-86 0 -136 28t-51 72q0 58 73 58q27 0 56 -33l30 -36q28 -28 60 -28q61 0 93 80q20 52 20 123t-44 113t-91 42t-76 -11q-17 0 -17 32t13 33q92 1 139 45t47 102t-28 88q-28 29 -73 29q-63 0 -124 -93q-8 -12 -27 2t-12 25 q57 85 107 114t118 29t121 -54t53 -127q0 -103 -104 -163q144 -42 144 -200z"/>
            <glyph glyph-name="acute" unicode="´" horiz-adv-x="569" d="M180 1022q-33 0 -33 37q0 12 5 22l135 307q7 13 33 13q26 -1 54 -23t28 -30t-2 -12l-179 -285q-18 -29 -41 -29z"/>
            <glyph glyph-name="uni00B5" unicode="µ" horiz-adv-x="1106" d="M928 256q0 -121 24.5 -150.5t99.5 -18.5q27 4 27 -38q0 -16 -10 -18q-154 -28 -272 -62q-23 0 -23 47v41q0 54 -41 13q-102 -93 -276 -93q-84 0 -144 39q-8 -62 -8 -138t8 -240q7 -130 -100 -130q-88 0 -88 115q0 77 24.5 240t24.5 436v339q0 147 -111 147q-17 0 -17 28 t17 28q64 0 156.5 9t104.5 9t12 -20q-8 -124 -8 -158v-429q0 -186 168 -186q278 0 278 219v353q0 147 -110 147q-16 0 -16 28t16 28q68 0 151 9t101 9t18 -27q-6 -103 -6 -139v-437z"/>
            <glyph glyph-name="paragraph" unicode="¶" horiz-adv-x="997" d="M743 125v1199q1 74 -81 74t-82 -74v-1197q0 -78 82 -78t81 76zM836 127q0 -78 118 -78q14 -1 14 -29t-14 -28q-83 8 -157 8h-256q-82 0 -170 -8q-14 0 -14 28t14 29q116 0 116 76v569q-257 0 -384 140q-87 96 -87 243q0 185 126 282t311 97q277 -4 335 -4t166 6 q14 0 14 -28t-14 -29q-118 0 -118 -77v-1197z"/>
            <glyph glyph-name="periodcentered" unicode="·" horiz-adv-x="745" d="M238 623q0 51 36 82t91 31t85 -37t30 -87.5t-34.5 -81t-87.5 -30.5t-86.5 36t-33.5 87z"/>
            <glyph glyph-name="cedilla" unicode="¸" horiz-adv-x="737" d="M535 -266q0 -90 -77 -143q-60 -44 -136 -44q-119 0 -119 72q0 53 51 53q22 0 58 -30t50 -29q56 0 56 63q0 80 -135 142l123 182h73l-71 -98q127 -78 127 -168z"/>
            <glyph glyph-name="uni00B9" unicode="¹" horiz-adv-x="630" d="M358 692q0 -76 22 -102t76 -27q9 0 9 -22.5t-9 -22.5q-48 4 -170 4t-170 -4q-9 0 -9.5 22.5t9.5 22.5q64 1 85 29t21 99v484q0 39 -12 34q-63 -21 -97 -38q-12 -6 -18.5 13t4.5 23q79 33 209 128q16 12 29 12q26 0 26 -32q-5 -43 -5 -96v-527z"/>
            <glyph glyph-name="ordmasculine" unicode="º" horiz-adv-x="619" d="M429 787q1 99 -37 156t-84 57t-82 -64t-35 -168q-1 -104 37 -155q38 -52 88 -52q50 -1 82 63t31 163zM581 766q0 -112 -72 -184q-73 -72 -191 -72t-198 76t-80 185t72 192t201 83q128 0 207 -95q61 -73 61 -185z"/>
            <glyph glyph-name="guillemotright" unicode="»" horiz-adv-x="789" d="M268 435q0 23 -12 41l-197 294q-9 13 8.5 27t28.5 3l299 -312q24 -25 24 -53t-24 -53l-299 -312q-12 -13 -29.5 3t-7.5 31l197 290q12 18 12 41zM575 435q0 23 -12 41l-197 294q-9 13 8.5 27t28.5 3l299 -312q24 -25 24 -53t-24 -53l-299 -312q-12 -13 -29.5 3t-7.5 31 l197 290q12 18 12 41z"/>
            <glyph glyph-name="onequarter" unicode="¼" horiz-adv-x="1509" d="M1211 1431q7 1 31 -15t17 -27l-891 -1354q-8 -11 -35.5 9.5t-21.5 29.5l888 1351q4 6 12 6zM1384 101q0 -57 66 -57q10 0 10 -24.5t-10 -24.5q-52 5 -152 5t-154 -5q-10 0 -10 24.5t10 24.5q92 0 92 57v140h-299q-57 0 -57 38q0 32 34 79l188 249q122 162 155 214l61 97 q10 12 28 12q55 0 56 -35q0 -6 -3 -11l-401 -530q-6 -8 -6 -17t12 -9h232v278q0 14 74 14t74 -14v-278h80q10 0 10 -44t-10 -43h-80v-140zM393 709q0 -83 23 -112t83 -28q10 0 9.5 -25t-9.5 -25q-53 5 -185 5t-184 -5q-10 0 -10 25t10 25q71 1 93 31t23 107v524q0 42 -14 37 q-68 -23 -104 -41q-13 -6 -20.5 14.5t5.5 24.5q86 36 226 139q18 13 31 13q28 0 28 -35q-5 -46 -5 -104v-570z"/>
            <glyph glyph-name="onehalf" unicode="½" horiz-adv-x="1509" d="M1207 1431q7 1 31 -15t17 -27l-891 -1354q-8 -11 -35.5 9.5t-21.5 29.5l888 1351q4 6 12 6zM393 709q0 -83 23 -112t83 -28q10 0 9.5 -25t-9.5 -25q-53 5 -185 5t-184 -5q-10 0 -10 25t10 25q71 1 93 31t23 107v524q0 42 -14 37q-68 -23 -104 -41q-13 -6 -20.5 14.5 t5.5 24.5q86 36 226 139q18 13 31 13q28 0 28 -35q-5 -46 -5 -104v-570zM1189 0h-52q-105 0 -223 -5q-34 0 -34 30q0 14 13 27q104 104 205 240q166 226 164 352t-110 126q-97 0 -158 -107q-8 -14 -28 -1t-14 24q53 103 137 150q55 31 115 30q106 0 166 -66t60 -157 q0 -125 -179 -325q-38 -43 -188 -193h192q75 0 105 13t48 51q7 14 35 3q25 -10 22 -19l-64 -153q-11 -25 -52 -25q-88 5 -160 5z"/>
            <glyph glyph-name="threequarters" unicode="¾" horiz-adv-x="1509" d="M1211 1431q7 1 31 -15t17 -27l-891 -1354q-8 -11 -35.5 9.5t-21.5 29.5l888 1351q4 6 12 6zM555 804q1 -112 -87 -202t-229 -90q-95 0 -149 30t-54 78q0 63 80 63q29 0 60 -36l33 -39q30 -31 65 -30q66 0 100 86q22 58 22 134t-48 122t-98 45q-51 0 -83 -11q-18 0 -18 34 t14 36q101 0 151 48t50 112t-30 94q-30 32 -79 32q-69 0 -135 -101q-10 -15 -30 1t-12 28q62 92 116 124t128 32t131 -60q57 -59 57 -136q0 -111 -111 -177q156 -46 156 -217zM1384 101q0 -57 66 -57q10 0 10 -24.5t-10 -24.5q-52 5 -152 5t-154 -5q-10 0 -10 24.5t10 24.5 q92 0 92 57v140h-299q-57 0 -57 38q0 32 34 79l188 249q122 162 155 214l61 97q10 12 28 12q55 0 56 -35q0 -6 -3 -11l-401 -530q-6 -8 -6 -17t12 -9h232v278q0 14 74 14t74 -14v-278h80q10 0 10 -44t-10 -43h-80v-140z"/>
            <glyph glyph-name="questiondown" unicode="¿" horiz-adv-x="752" d="M236 -160q0 -194 279 -198h13q30 0 49 -32t19 -54q0 -82 -84 -82q-126 0 -244 133t-118 288t81 199l166 88q74 38 74 92t-20 123q0 18 25 20l15 -2q4 -2 5 -5q75 -138 75 -211q0 -93 -114 -152l-105 -55q-116 -62 -116 -152zM467 866q66 0 100 -50q19 -29 19 -66 q0 -69 -51 -106q-30 -21 -68 -21q-64 0 -99 56q-20 32 -20 71q0 71 58 102q27 14 61 14z"/>
            <glyph glyph-name="Agrave" unicode="À" horiz-adv-x="1398" d="M831 600q25 0 25 16q0 5 -2 11l-170 532q-6 20 -18 20t-19 -20l-197 -532q-2 -5 -2 -11q0 -16 24 -16h359zM1367 69q13 0 13 -38t-13 -38q-73 7 -231 7t-230 -7q-14 0 -14 38t14 38q99 0 99 68q0 23 -8 49l-101 313q-9 32 -44 32h-407q-28 0 -40 -35l-113 -314 q-9 -22 -9 -40q0 -73 151 -73q14 0 14 -38t-14 -38q-85 7 -213 7t-212 -7q-14 0 -13.5 38t13.5 38q97 0 129 28t66 104l377 987q6 17 6 30t-13 26.5t-13 19.5t39.5 27.5t92.5 58.5t65 37q23 0 35 -44q26 -97 49 -166l333 -991q39 -117 192 -117zM839 1509.5 q0 -16.5 -11.5 -26t-25.5 -9.5t-31 9l-281 151q-14 5 -14 24.5t20.5 50t37.5 30.5t23 -5l261 -189q21 -19 21 -35.5z"/>
            <glyph glyph-name="Aacute" unicode="Á" horiz-adv-x="1398" d="M831 600q25 0 25 16q0 5 -2 11l-170 532q-6 20 -18 20t-19 -20l-197 -532q-2 -5 -2 -11q0 -16 24 -16h359zM1367 69q13 0 13 -38t-13 -38q-73 7 -231 7t-230 -7q-14 0 -14 38t14 38q99 0 99 68q0 23 -8 49l-101 313q-9 32 -44 32h-407q-28 0 -40 -35l-113 -314 q-9 -22 -9 -40q0 -73 151 -73q14 0 14 -38t-14 -38q-85 7 -213 7t-212 -7q-14 0 -13.5 38t13.5 38q97 0 129 28t66 104l377 987q6 17 6 30t-13 26.5t-13 19.5t39.5 27.5t92.5 58.5t65 37q23 0 35 -44q26 -97 49 -166l333 -991q39 -117 192 -117zM583 1474q-13 0 -25 8.5 t-12 27.5t23 33l270 199q5 4 13 4q20 0 43.5 -32t23.5 -51t-8 -23l-297 -157q-18 -9 -31 -9z"/>
            <glyph glyph-name="Acircumflex" unicode="Â" horiz-adv-x="1398" d="M991.5 1476q-5.5 0 -7.5 1l-246 139q-16 9 -34 9t-34 -9l-241 -139q-3 -2 -10 -2t-15 8t-8 14t4 10l260 250q23 22 44 22t44 -22l260 -250q9 -9 -1 -20t-15.5 -11zM831 600q25 0 25 16q0 5 -2 11l-170 532q-6 20 -18 20t-19 -20l-197 -532q-2 -5 -2 -11q0 -16 24 -16h359 zM1367 69q13 0 13 -38t-13 -38q-73 7 -231 7t-230 -7q-14 0 -14 38t14 38q99 0 99 68q0 23 -8 49l-101 313q-9 32 -44 32h-407q-28 0 -40 -35l-113 -314q-9 -22 -9 -40q0 -73 151 -73q14 0 14 -38t-14 -38q-85 7 -213 7t-212 -7q-14 0 -13.5 38t13.5 38q97 0 129 28t66 104 l377 987q6 17 6 30t-13 26.5t-13 19.5t39.5 27.5t92.5 58.5t65 37q23 0 35 -44q26 -97 49 -166l333 -991q39 -117 192 -117z"/>
            <glyph glyph-name="Atilde" unicode="Ã" horiz-adv-x="1398" d="M789 1502q-47 0 -138 33t-147 33t-104 -64q-6 -9 -18 3q-12 11 -9 18q29 43 50.5 68.5t67.5 53t92 27.5t135.5 -31.5t123.5 -31.5q61 0 133 72q2 2 6.5 2t13 -7t8.5 -11.5t-1 -6.5q-104 -158 -213 -158zM831 600q25 0 25 16q0 5 -2 11l-170 532q-6 20 -18 20t-19 -20 l-197 -532q-2 -5 -2 -11q0 -16 24 -16h359zM1367 69q13 0 13 -38t-13 -38q-73 7 -231 7t-230 -7q-14 0 -14 38t14 38q99 0 99 68q0 23 -8 49l-101 313q-9 32 -44 32h-407q-28 0 -40 -35l-113 -314q-9 -22 -9 -40q0 -73 151 -73q14 0 14 -38t-14 -38q-85 7 -213 7t-212 -7 q-14 0 -13.5 38t13.5 38q97 0 129 28t66 104l377 987q6 17 6 30t-13 26.5t-13 19.5t39.5 27.5t92.5 58.5t65 37q23 0 35 -44q26 -97 49 -166l333 -991q39 -117 192 -117z"/>
            <glyph glyph-name="Adieresis" unicode="Ä" horiz-adv-x="1398" d="M1026 1608q0 -44 -31.5 -75.5t-75.5 -31.5t-75 31.5t-31 75.5t31 75t75 31t75.5 -31t31.5 -75zM584 1608q0 -44 -31 -75.5t-75 -31.5t-75.5 31.5t-31.5 75.5t31.5 75t75.5 31t75 -31t31 -75zM831 600q25 0 25 16q0 5 -2 11l-170 532q-6 20 -18 20t-19 -20l-197 -532 q-2 -5 -2 -11q0 -16 24 -16h359zM1367 69q13 0 13 -38t-13 -38q-73 7 -231 7t-230 -7q-14 0 -14 38t14 38q99 0 99 68q0 23 -8 49l-101 313q-9 32 -44 32h-407q-28 0 -40 -35l-113 -314q-9 -22 -9 -40q0 -73 151 -73q14 0 14 -38t-14 -38q-85 7 -213 7t-212 -7 q-14 0 -13.5 38t13.5 38q97 0 129 28t66 104l377 987q6 17 6 30t-13 26.5t-13 19.5t39.5 27.5t92.5 58.5t65 37q23 0 35 -44q26 -97 49 -166l333 -991q39 -117 192 -117z"/>
            <glyph glyph-name="Aring" unicode="Å" horiz-adv-x="1398" d="M831 600q24 0 24 14q0 7 -2 13l-169 532q-6 20 -18 20t-19 -20l-197 -532q-2 -5 -2 -13q0 -14 24 -14h359zM810 1516q0 50 -28 82.5t-75.5 32.5t-73 -38.5t-25.5 -89t31 -80t76 -29.5t70 36t25 86zM1367 69q13 0 13 -38t-13 -38q-73 7 -231 7t-230 -7q-14 0 -14 38t14 38 q99 0 99 68q0 23 -8 49l-101 313q-9 32 -44 32h-407q-28 0 -40 -35l-113 -314q-9 -22 -9 -40q0 -73 151 -73q14 0 14 -38t-14 -38q-80 7 -215 7t-210 -7q-13 0 -13 38t13 38q85 0 125 25.5t70 106.5l436 1142q-122 42 -122 170q0 86 63 133.5t143 47.5t129 -59t49 -122 q0 -117 -111 -164q13 -58 51 -172l333 -991q39 -117 192 -117z"/>
            <glyph glyph-name="AE" unicode="Æ" horiz-adv-x="1742" d="M470 676h270q33 0 33 35v479q1 27 -19 27t-30 -21l-272 -491q-4 -7 -4 -15q0 -14 22 -14zM590 31q0 38 13 38q170 0 170 108v396q0 34 -33 34h-317q-29 0 -41 -24l-210 -415q-12 -24 -12 -40q0 -59 152 -59q14 0 14 -38t-14 -38q-74 7 -209 7t-216 -7q-13 0 -13 38t13 38 q121 -1 179 103l576 1024q16 28 16 45q0 41 -83 41q-13 0 -13 38t13 38q139 -6 275 -6l663 6q47 0 57 -7t10 -26v-319q0 -13 -37.5 -13t-37.5 13q0 132 -83.5 203.5t-178.5 73.5l-269 6q-41 1 -41 -40v-538q0 -35 35 -35h213q101 0 101 93v95q0 13 34.5 13t34.5 -13 q-6 -57 -6 -216.5t6 -211.5q0 -13 -34.5 -13t-34.5 13v84q0 87 -101 87h-213q-35 0 -35 -34v-273q0 -122 51.5 -181t116.5 -57l238 7q89 3 168.5 77t79.5 198q0 18 37.5 18t37.5 -18v-325q0 -26 -100 -26l-698 7q-134 0 -261 -7q-13 0 -13 38z"/>
            <glyph glyph-name="Ccedilla" unicode="Ç" horiz-adv-x="1344" d="M858 -277.5q0 -89.5 -77 -143.5q-60 -44 -136 -44q-119 0 -119 72q0 53 51 53q23 0 58.5 -29.5t49.5 -29.5q56 0 56 63q0 80 -135 142l113 168q-157 8 -300 89.5t-235.5 233t-92.5 362.5q-1 211 95 375q203 350 626 351q111 0 268 -30l21 -4q126 -24 129 -24 q29 -134 29 -311q-4 -16 -35.5 -16t-33.5 14q-28 300 -407 300q-204 0 -352.5 -184t-148.5 -423q0 -283 145 -471t353 -188q354 0 452 269q4 11 35.5 11t31.5 -22q-37 -191 -90 -270q-32 -4 -77 -17q-135 -42 -341 -46l-60 -83q127 -78 127 -167.5z"/>
            <glyph glyph-name="Egrave" unicode="È" horiz-adv-x="1235" d="M70 30.5q0 37.5 14 38.5q187 0 187 108v995q0 110 -187 110q-14 0 -14 38t14 38q140 -6 270 -6l663 6q51 0 61.5 -7t10.5 -20v-321q0 -17 -37.5 -17t-37.5 17q0 266 -258 272l-284 7q-41 1 -41 -48v-532q0 -33 28 -33h206q78 0 97.5 29t19.5 88v74q0 13 35 13.5t35 -13.5 q-8 -71 -8 -214t8 -223q0 -13 -35 -13.5t-35 13.5v82q0 43 -19.5 69t-97.5 26h-209q-25 0 -25 -31v-314q0 -113 65 -168q38 -32 91 -32l235 7q259 8 259 271q0 17 37.5 17t37.5 -17v-317q0 -25 -28 -28q-16 -2 -45 -2l-724 7q-129 0 -275 -7q-14 0 -14 37.5zM800 1509.5 q0 -16.5 -11.5 -26t-25.5 -9.5t-31 9l-281 151q-15 5 -15 24.5t20.5 50t37.5 30.5t24 -5l261 -189q21 -19 21 -35.5z"/>
            <glyph glyph-name="Eacute" unicode="É" horiz-adv-x="1235" d="M70 30.5q0 37.5 14 38.5q187 0 187 108v995q0 110 -187 110q-14 0 -14 38t14 38q140 -6 270 -6l663 6q51 0 61.5 -7t10.5 -20v-321q0 -17 -37.5 -17t-37.5 17q0 266 -258 272l-284 7q-41 1 -41 -48v-532q0 -33 28 -33h206q78 0 97.5 29t19.5 88v74q0 13 35 13.5t35 -13.5 q-8 -71 -8 -214t8 -223q0 -13 -35 -13.5t-35 13.5v82q0 43 -19.5 69t-97.5 26h-209q-25 0 -25 -31v-314q0 -113 65 -168q38 -32 91 -32l235 7q259 8 259 271q0 17 37.5 17t37.5 -17v-317q0 -25 -28 -28q-16 -2 -45 -2l-724 7q-129 0 -275 -7q-14 0 -14 37.5zM525 1474 q-13 0 -24.5 8.5t-11.5 27t22 33.5l271 199q4 4 12 4q20 0 43.5 -32t23.5 -51t-8 -23l-297 -157q-18 -9 -31 -9z"/>
            <glyph glyph-name="Ecircumflex" unicode="Ê" horiz-adv-x="1235" d="M919.5 1476q-5.5 0 -7.5 1l-246 139q-16 9 -34 9t-34 -9l-241 -139q-3 -2 -10 -2t-15 8t-8 14t4 10l260 250q23 22 44 22t44 -22l260 -250q9 -9 -1 -20t-15.5 -11zM70 30.5q0 37.5 14 38.5q187 0 187 108v995q0 110 -187 110q-14 0 -14 38t14 38q140 -6 270 -6l663 6 q51 0 61.5 -7t10.5 -20v-321q0 -17 -37.5 -17t-37.5 17q0 266 -258 272l-284 7q-41 1 -41 -48v-532q0 -33 28 -33h206q78 0 97.5 29t19.5 88v74q0 13 35 13.5t35 -13.5q-8 -71 -8 -214t8 -223q0 -13 -35 -13.5t-35 13.5v82q0 43 -19.5 69t-97.5 26h-209q-25 0 -25 -31v-314 q0 -113 65 -168q38 -32 91 -32l235 7q259 8 259 271q0 17 37.5 17t37.5 -17v-317q0 -25 -28 -28q-16 -2 -45 -2l-724 7q-129 0 -275 -7q-14 0 -14 37.5z"/>
            <glyph glyph-name="Edieresis" unicode="Ë" horiz-adv-x="1235" d="M954 1608q0 -44 -31.5 -75.5t-75.5 -31.5t-75 31.5t-31 75.5t31 75t75 31t75.5 -31t31.5 -75zM512 1608q0 -44 -31 -75.5t-75 -31.5t-75.5 31.5t-31.5 75.5t31.5 75t75.5 31t75 -31t31 -75zM70 30.5q0 37.5 14 38.5q187 0 187 108v995q0 110 -187 110q-14 0 -14 38t14 38 q140 -6 270 -6l663 6q51 0 61.5 -7t10.5 -20v-321q0 -17 -37.5 -17t-37.5 17q0 266 -258 272l-284 7q-41 1 -41 -48v-532q0 -33 28 -33h206q78 0 97.5 29t19.5 88v74q0 13 35 13.5t35 -13.5q-8 -71 -8 -214t8 -223q0 -13 -35 -13.5t-35 13.5v82q0 43 -19.5 69t-97.5 26h-209 q-25 0 -25 -31v-314q0 -113 65 -168q38 -32 91 -32l235 7q259 8 259 271q0 17 37.5 17t37.5 -17v-317q0 -25 -28 -28q-16 -2 -45 -2l-724 7q-129 0 -275 -7q-14 0 -14 37.5z"/>
            <glyph glyph-name="Igrave" unicode="Ì" horiz-adv-x="683" d="M271 186v986q0 115 -189 115q-14 0 -14 38t14 38q44 -5 264 -5t265 5q13 0 13 -38t-13 -38q-105 0 -142.5 -25t-37.5 -90v-986q0 -117 180 -117q13 0 13 -38t-13 -38q-86 7 -259 7t-259 -7q-13 0 -13 38t13 38q178 0 178 117zM476 1509.5q0 -16.5 -11.5 -26t-25.5 -9.5 t-31 9l-281 151q-15 5 -15 24.5t21 50t38 30.5t23 -5l261 -189q21 -19 21 -35.5z"/>
            <glyph glyph-name="Iacute" unicode="Í" horiz-adv-x="683" d="M271 186v986q0 115 -189 115q-14 0 -14 38t14 38q44 -5 264 -5t265 5q13 0 13 -38t-13 -38q-105 0 -142.5 -25t-37.5 -90v-986q0 -117 180 -117q13 0 13 -38t-13 -38q-86 7 -259 7t-259 -7q-13 0 -13 38t13 38q178 0 178 117zM292 1474q-13 0 -24.5 8.5t-11.5 27t22 33.5 l271 199q5 4 13 4q19 0 43 -31.5t24 -51t-8 -23.5l-298 -157q-18 -9 -31 -9z"/>
            <glyph glyph-name="Icircumflex" unicode="Î" horiz-adv-x="683" d="M629.5 1476q-5.5 0 -7.5 1l-246 139q-16 9 -34 9t-34 -9l-241 -139q-3 -2 -10 -2t-15 8t-8 14t4 10l260 250q23 22 44 22t44 -22l260 -250q9 -9 -1 -20t-15.5 -11zM271 186v986q0 115 -189 115q-14 0 -14 38t14 38q44 -5 264 -5t265 5q13 0 13 -38t-13 -38 q-105 0 -142.5 -25t-37.5 -90v-986q0 -117 180 -117q13 0 13 -38t-13 -38q-86 7 -259 7t-259 -7q-13 0 -13 38t13 38q178 0 178 117z"/>
            <glyph glyph-name="Idieresis" unicode="Ï" horiz-adv-x="683" d="M674 1608q0 -44 -31.5 -75.5t-75.5 -31.5t-75 31.5t-31 75.5t31 75t75 31t75.5 -31t31.5 -75zM232 1608q0 -44 -31 -75.5t-75 -31.5t-75.5 31.5t-31.5 75.5t31.5 75t75.5 31t75 -31t31 -75zM271 186v986q0 115 -189 115q-14 0 -14 38t14 38q44 -5 264 -5t265 5 q13 0 13 -38t-13 -38q-105 0 -142.5 -25t-37.5 -90v-986q0 -117 180 -117q13 0 13 -38t-13 -38q-86 7 -259 7t-259 -7q-13 0 -13 38t13 38q178 0 178 117z"/>
            <glyph glyph-name="Eth" unicode="Ð" horiz-adv-x="1525" d="M431 298q0 -142 52 -193.5t199 -51.5q243 0 401 178t158 485q0 240 -170 410.5t-450 170.5q-120 0 -155 -23.5t-35 -92.5v-436q0 -35 35 -35h221q13 0 13 -38t-13 -38h-221q-35 0 -35 -34v-302zM78 31q0 38 13 38q180 0 180 117v414q0 34 -34 34h-172q-13 0 -13 38t13 38 h172q34 0 34 35v427q0 110 -189 110q-14 0 -14 38t14 38q140 -6 238 -6l383 6q303 0 516 -164t213 -465q0 -349 -193.5 -542.5t-487.5 -193.5l-432 7q-99 0 -228 -7q-13 0 -13 38z"/>
            <glyph glyph-name="Ntilde" unicode="Ñ" horiz-adv-x="1482" d="M843 1502q-47 0 -138 33t-147 33t-104 -64q-6 -9 -18 3q-12 11 -9 18q29 43 50.5 68.5t67.5 53t92 27.5t135.5 -31.5t123.5 -31.5q61 0 133 72q2 2 6.5 2t13 -7t8.5 -11.5t-1 -6.5q-104 -158 -213 -158zM257 186v924q0 101 -45.5 139t-142.5 38q-13 0 -13 38t13 38 q44 -5 149 -5t137 -7.5t59 -41.5l758 -977q10 -13 24 -13q23 0 23 33v819q0 116 -171 116q-14 0 -14 38t14 38q46 -5 188 -5t187 5q13 0 13 -38t-13 -38q-136 0 -136 -116v-1142q1 -50 -17 -50t-42 30l-867 1095q-11 13 -22 13t-11 -18v-913q0 -117 159 -117q13 0 13 -38 t-13 -38q-81 7 -197 7t-200 -7q-14 0 -14 38t14 38q167 0 167 117z"/>
            <glyph glyph-name="Ograve" unicode="Ò" horiz-adv-x="1461" d="M282 726q0 -310 150 -494t317 -184q212 0 327.5 173t115.5 439t-145.5 460t-319.5 194q-210 0 -327.5 -181t-117.5 -407zM91 656.5q0 273.5 176 501t473 227.5q266 0 454.5 -208t188.5 -514q0 -256 -174 -473t-469 -217t-472 205t-177 478.5zM824 1509.5q0 -16.5 -12 -26 t-25.5 -9.5t-31.5 9l-281 151q-14 5 -14 24.5t20.5 50t37.5 30.5t24 -5l261 -189q21 -19 21 -35.5z"/>
            <glyph glyph-name="Oacute" unicode="Ó" horiz-adv-x="1461" d="M282 726q0 -310 150 -494t317 -184q212 0 327.5 173t115.5 439t-145.5 460t-319.5 194q-210 0 -327.5 -181t-117.5 -407zM91 656.5q0 273.5 176 501t473 227.5q266 0 454.5 -208t188.5 -514q0 -256 -174 -473t-469 -217t-472 205t-177 478.5zM619 1474q-13 0 -25 8.5 t-12 27.5t23 33l270 199q5 4 13 4q20 0 43.5 -32t23.5 -51t-8 -23l-297 -157q-18 -9 -31 -9z"/>
            <glyph glyph-name="Ocircumflex" unicode="Ô" horiz-adv-x="1461" d="M1024.5 1476q-5.5 0 -7.5 1l-246 139q-16 9 -34 9t-34 -9l-241 -139q-3 -2 -10 -2t-15 8t-8 14t4 10l260 250q23 22 44 22t44 -22l260 -250q9 -9 -1 -20t-15.5 -11zM282 726q0 -310 150 -494t317 -184q212 0 327.5 173t115.5 439t-145.5 460t-319.5 194 q-210 0 -327.5 -181t-117.5 -407zM91 656.5q0 273.5 176 501t473 227.5q266 0 454.5 -208t188.5 -514q0 -256 -174 -473t-469 -217t-472 205t-177 478.5z"/>
            <glyph glyph-name="Otilde" unicode="Õ" horiz-adv-x="1461" d="M813 1502q-47 0 -138 33t-147 33t-104 -64q-6 -9 -18 2.5t-9 18.5q29 43 50.5 68.5t67.5 53t92 27.5t135.5 -31.5t123.5 -31.5q61 0 133 72q2 2 6.5 2t13 -7t8.5 -11.5t-1 -6.5q-104 -158 -213 -158zM282 726q0 -310 150 -494t317 -184q212 0 327.5 173t115.5 439 t-145.5 460t-319.5 194q-210 0 -327.5 -181t-117.5 -407zM91 656.5q0 273.5 176 501t473 227.5q266 0 454.5 -208t188.5 -514q0 -256 -174 -473t-469 -217t-472 205t-177 478.5z"/>
            <glyph glyph-name="Odieresis" unicode="Ö" horiz-adv-x="1461" d="M1069 1608q0 -44 -31.5 -75.5t-75.5 -31.5t-75 31.5t-31 75.5t31 75t75 31t75.5 -31t31.5 -75zM627 1608q0 -44 -31.5 -75.5t-75.5 -31.5t-75 31.5t-31 75.5t31 75t75 31t75.5 -31t31.5 -75zM282 726q0 -310 150 -494t317 -184q212 0 327.5 173t115.5 439t-145.5 460 t-319.5 194q-210 0 -327.5 -181t-117.5 -407zM91 656.5q0 273.5 176 501t473 227.5q266 0 454.5 -208t188.5 -514q0 -256 -174 -473t-469 -217t-472 205t-177 478.5z"/>
            <glyph glyph-name="multiply" unicode="×" horiz-adv-x="786" d="M725 98l-84 -86l-244 244l-241 -244l-86 86l241 244l-241 242l86 86l241 -244l244 244l84 -86l-242 -242z"/>
            <glyph glyph-name="Oslash" unicode="Ø" horiz-adv-x="1461" d="M749 48q212 0 327.5 173t115.5 408.5t-89 401.5l-671 -799q150 -184 317 -184zM727 1314q-210 0 -327.5 -181t-117.5 -420t99 -407l674 803q-148 205 -328 205zM1383 681.5q0 -274.5 -174 -491.5t-474 -217q-240 0 -403 140l-100 -119q-3 -3 -11 -3t-32 23t-24 29t1 7 l105 125q-1 2 -3 3q-177 205 -177 478.5t176 501t473 227.5q235 0 410 -163l86 103q4 4 13 4t32.5 -19t23.5 -28t-2 -13l-93 -110q173 -203 173 -477.5z"/>
            <glyph glyph-name="Ugrave" unicode="Ù" horiz-adv-x="1497" d="M256 539v633q0 115 -185 115q-13 0 -13 38t13 38q44 -5 276 -5t278 5q13 0 13 -38t-13 -38q-206 0 -206 -115v-631q0 -301 104.5 -397t278.5 -96t275.5 100.5t101.5 338.5v685q0 115 -188 115q-13 0 -13 38t13 38q45 -5 239 -5t239 5q13 0 13 -38t-13 -38 q-180 0 -180 -115v-443q0 -352 -52.5 -475.5t-166 -202t-308.5 -78.5t-304.5 62.5t-155.5 188t-46 315.5zM924 1509.5q0 -16.5 -11.5 -26t-25.5 -9.5t-31 9l-281 151q-15 5 -15 24.5t21 50t38 30.5t23 -5l261 -189q21 -19 21 -35.5z"/>
            <glyph glyph-name="Uacute" unicode="Ú" horiz-adv-x="1497" d="M256 539v633q0 115 -185 115q-13 0 -13 38t13 38q44 -5 276 -5t278 5q13 0 13 -38t-13 -38q-206 0 -206 -115v-631q0 -301 104.5 -397t278.5 -96t275.5 100.5t101.5 338.5v685q0 115 -188 115q-13 0 -13 38t13 38q45 -5 239 -5t239 5q13 0 13 -38t-13 -38 q-180 0 -180 -115v-443q0 -352 -52.5 -475.5t-166 -202t-308.5 -78.5t-304.5 62.5t-155.5 188t-46 315.5zM696 1474q-13 0 -25 8.5t-12 27.5t23 33l270 199q5 4 13 4q20 0 43.5 -32t23.5 -51t-8 -23l-297 -157q-18 -9 -31 -9z"/>
            <glyph glyph-name="Ucircumflex" unicode="Û" horiz-adv-x="1497" d="M1059.5 1476q-5.5 0 -7.5 1l-246 139q-16 9 -34 9t-34 -9l-241 -139q-3 -2 -10 -2t-15 8t-8 14t4 10l260 250q23 22 44 22t44 -22l260 -250q9 -9 -1 -20t-15.5 -11zM256 539v633q0 115 -185 115q-13 0 -13 38t13 38q44 -5 276 -5t278 5q13 0 13 -38t-13 -38 q-206 0 -206 -115v-631q0 -301 104.5 -397t278.5 -96t275.5 100.5t101.5 338.5v685q0 115 -188 115q-13 0 -13 38t13 38q45 -5 239 -5t239 5q13 0 13 -38t-13 -38q-180 0 -180 -115v-443q0 -352 -52.5 -475.5t-166 -202t-308.5 -78.5t-304.5 62.5t-155.5 188t-46 315.5z"/>
            <glyph glyph-name="Udieresis" unicode="Ü" horiz-adv-x="1497" d="M1126 1608q0 -44 -31.5 -75.5t-75.5 -31.5t-75 31.5t-31 75.5t31 75t75 31t75.5 -31t31.5 -75zM684 1608q0 -44 -31 -75.5t-75 -31.5t-75.5 31.5t-31.5 75.5t31.5 75t75.5 31t75 -31t31 -75zM256 539v633q0 115 -185 115q-13 0 -13 38t13 38q44 -5 276 -5t278 5 q13 0 13 -38t-13 -38q-206 0 -206 -115v-631q0 -301 104.5 -397t278.5 -96t275.5 100.5t101.5 338.5v685q0 115 -188 115q-13 0 -13 38t13 38q45 -5 239 -5t239 5q13 0 13 -38t-13 -38q-180 0 -180 -115v-443q0 -352 -52.5 -475.5t-166 -202t-308.5 -78.5t-304.5 62.5 t-155.5 188t-46 315.5z"/>
            <glyph glyph-name="Yacute" unicode="Ý" horiz-adv-x="1235" d="M-13 1287q-13 0 -13 38t13 38q45 -5 237 -5t239 5q13 0 13 -38t-13 -38q-121 0 -121 -57q0 -23 21 -58l281 -472q8 -14 15.5 -14t16.5 14l298 463q27 42 27 71q0 53 -111 53q-14 0 -14 38t14 38q46 -5 198 -5t197 5q13 0 13 -38t-13 -38q-139 1 -211 -109l-308 -473 q-65 -100 -71 -129.5t-6 -86.5v-303q0 -117 164 -117q13 0 13 -38t-13 -38q-75 7 -244 7t-244 -7q-13 0 -13 38t13 38q164 0 164 117v301q0 101 -28 147l-326 538q-70 115 -188 115zM580 1474q-13 0 -24.5 8.5t-11.5 27t22 33.5l271 199q5 4 13 4q20 0 43 -32t23 -51t-8 -23 l-297 -157q-18 -9 -31 -9z"/>
            <glyph glyph-name="Thorn" unicode="Þ" horiz-adv-x="1157" d="M879 741q0 121 -70.5 295.5t-145.5 174.5q-18 0 -36 -15q-141 -124 -215 -166q-32 -18 -32 -46v-894q0 -31 27 -32q208 0 340 215.5t132 467.5zM1070 741q0 -258 -183.5 -487t-467.5 -271q-38 -6 -39 -45v-213q0 -58 -86 -124l-150 -117q-5 -4 -25 -4t-43.5 30.5 t-23.5 45t7 20.5l109 90q52 43 52 101v1339q0 135 -176 135q-13 0 -13.5 38t13.5 38q99 0 275 61q25 7 38 7q31 0 31 -40q-8 -88 -8 -157v-51q0 -31 15 -31q37 0 233 173q54 48 116 48t87 -20q118 -92 178.5 -245.5t60.5 -320.5z"/>
            <glyph glyph-name="germandbls" unicode="ß" horiz-adv-x="1085" d="M203 125v567q0 21 -25 21h-86q-15 0 -15 27.5t15 27.5q59 0 91 66q20 41 20 90q0 254 141 408.5t330 154.5q127 0 209 -83.5t82 -206.5t-151.5 -256t-151.5 -214q0 -49 25.5 -86t132.5 -91t156.5 -118t49.5 -166q0 -138 -87 -214.5t-204 -76.5q-77 0 -166 60 q-16 57 -16 162q0 14 20.5 14t26.5 -14q0 -66 51.5 -112t110.5 -46t103 52.5t44 103.5q0 133 -122.5 199t-181 127t-58.5 157t63 158l99 96q72 70 91 128.5t19 143.5t-60.5 143t-163.5 58t-163 -71.5t-69 -172.5t-9 -260v-774q0 -78 125 -78q14 0 14 -28.5t-14 -28.5 q-80 8 -196 8t-197 -8q-14 0 -14 28.5t14 28.5q117 0 117 76z"/>
            <glyph glyph-name="agrave" unicode="à" horiz-adv-x="797" d="M469 1061q0 -39 -35 -39q-23 0 -41 29l-168 271q-4 5 -4 13q0 26 31 41t52.5 15t28.5 -16l132 -294q4 -11 4 -20zM640 -23q-105 0 -142 136q-76 -76 -121 -106t-116.5 -30t-108.5 31t-52.5 71.5t-15.5 82.5t20 82.5t58.5 73t66.5 47.5l232 129q20 11 20 32v181 q0 88 -133 88q-97 0 -135 -50q-5 -7 -16 -99.5t-67 -92.5t-56 56t40.5 112.5t69.5 73.5q128 75 246 75q71 0 137.5 -40t66.5 -99v-532q0 -115 67 -115q19 0 47 19.5t32 19.5q22 -3 29 -30q0 -3 -1 -5q-41 -69 -76 -90t-92 -21zM481 199v215q0 22 -14 22q-7 0 -60 -26 q-170 -85 -170 -222q0 -49 31.5 -79.5t79.5 -30.5t90.5 42.5t42.5 78.5z"/>
            <glyph glyph-name="aacute" unicode="á" horiz-adv-x="797" d="M379 1022q-33 0 -33 37q0 12 5 22l135 307q6 13 32.5 13t54.5 -22.5t28 -30.5t-2 -12l-179 -285q-18 -29 -41 -29zM640 -23q-105 0 -142 136q-76 -76 -121 -106t-116.5 -30t-108.5 31t-52.5 71.5t-15.5 82.5t20 82.5t58.5 73t66.5 47.5l232 129q20 11 20 32v181 q0 88 -133 88q-97 0 -135 -50q-5 -7 -16 -99.5t-67 -92.5t-56 56t40.5 112.5t69.5 73.5q128 75 246 75q71 0 137.5 -40t66.5 -99v-532q0 -115 67 -115q19 0 47 19.5t32 19.5q22 -3 29 -30q0 -3 -1 -5q-41 -69 -76 -90t-92 -21zM481 199v215q0 22 -14 22q-7 0 -60 -26 q-170 -85 -170 -222q0 -49 31.5 -79.5t79.5 -30.5t90.5 42.5t42.5 78.5z"/>
            <glyph glyph-name="acircumflex" unicode="â" horiz-adv-x="797" d="M612 992q-3 0 -6 4l-184 217q-22 25 -30 25t-29 -25l-185 -217q-3 -4 -8 -4q-27 0 -27 23l211 375q16 28 38 28t38 -28l211 -375q0 -23 -29 -23zM640 -23q-105 0 -142 136q-76 -76 -121 -106t-116.5 -30t-108.5 31t-52.5 71.5t-15.5 82.5t20 82.5t58.5 73t66.5 47.5 l232 129q20 11 20 32v181q0 88 -133 88q-97 0 -135 -50q-5 -7 -16 -99.5t-67 -92.5t-56 56t40.5 112.5t69.5 73.5q128 75 246 75q71 0 137.5 -40t66.5 -99v-532q0 -115 67 -115q19 0 47 19.5t32 19.5q22 -3 29 -30q0 -3 -1 -5q-41 -69 -76 -90t-92 -21zM481 199v215 q0 22 -14 22q-7 0 -60 -26q-170 -85 -170 -222q0 -49 31.5 -79.5t79.5 -30.5t90.5 42.5t42.5 78.5z"/>
            <glyph glyph-name="atilde" unicode="ã" horiz-adv-x="797" d="M672 1195q0 -39 -79.5 -92t-126.5 -53t-129 31.5t-129.5 31.5t-108.5 -61q-4 -4 -8 -4t-10.5 7.5t-6.5 10.5t1 4q92 143 201 143q44 0 126.5 -29.5t128 -29.5t113.5 68q1 1 4.5 1t13.5 -8.5t10 -19.5zM640 -23q-105 0 -142 136q-76 -76 -121 -106t-116.5 -30t-108.5 31 t-52.5 71.5t-15.5 82.5t20 82.5t58.5 73t66.5 47.5l232 129q20 11 20 32v181q0 88 -133 88q-97 0 -135 -50q-5 -7 -16 -99.5t-67 -92.5t-56 56t40.5 112.5t69.5 73.5q128 75 246 75q71 0 137.5 -40t66.5 -99v-532q0 -115 67 -115q19 0 47 19.5t32 19.5q22 -3 29 -30 q0 -3 -1 -5q-41 -69 -76 -90t-92 -21zM481 199v215q0 22 -14 22q-7 0 -60 -26q-170 -85 -170 -222q0 -49 31.5 -79.5t79.5 -30.5t90.5 42.5t42.5 78.5z"/>
            <glyph glyph-name="adieresis" unicode="ä" horiz-adv-x="797" d="M691 1156q0 -45 -31.5 -76.5t-76 -31.5t-76 31.5t-31.5 76.5t31.5 76.5t76 31.5t76 -31.5t31.5 -76.5zM310 1156q0 -45 -31.5 -76.5t-76.5 -31.5t-76.5 31.5t-31.5 76.5t31.5 76.5t76.5 31.5t76.5 -31.5t31.5 -76.5zM640 -23q-105 0 -142 136q-76 -76 -121 -106 t-116.5 -30t-108.5 31t-52.5 71.5t-15.5 82.5t20 82.5t58.5 73t66.5 47.5l232 129q20 11 20 32v181q0 88 -133 88q-97 0 -135 -50q-5 -7 -16 -99.5t-67 -92.5t-56 56t40.5 112.5t69.5 73.5q128 75 246 75q71 0 137.5 -40t66.5 -99v-532q0 -115 67 -115q19 0 47 19.5t32 19.5 q22 -3 29 -30q0 -3 -1 -5q-41 -69 -76 -90t-92 -21zM481 199v215q0 22 -14 22q-7 0 -60 -26q-170 -85 -170 -222q0 -49 31.5 -79.5t79.5 -30.5t90.5 42.5t42.5 78.5z"/>
            <glyph glyph-name="aring" unicode="å" horiz-adv-x="797" d="M640 -23q-105 0 -142 136q-76 -76 -121 -106t-116.5 -30t-108.5 31t-52.5 71.5t-15.5 82.5t20 82.5t58.5 73t66.5 47.5l232 129q20 11 20 32v181q0 88 -133 88q-97 0 -135 -50q-5 -7 -16 -99.5t-67 -92.5t-56 56t40.5 112.5t69.5 73.5q128 75 246 75q71 0 137.5 -40 t66.5 -99v-532q0 -115 67 -115q19 0 47 19.5t32 19.5q22 -3 29 -30q0 -3 -1 -5q-41 -69 -76 -90t-92 -21zM481 199v215q0 22 -14 22q-7 0 -60 -26q-170 -85 -170 -222q0 -49 31.5 -79.5t79.5 -30.5t90.5 42.5t42.5 78.5zM495 1165q0 74 -49 109q-26 18 -59 18q-59 0 -90 -55 q-19 -33 -19 -72q0 -71 48 -107q27 -20 61 -20q64 0 94 61q14 29 14 66zM591 1153q0 -79 -64.5 -131t-154.5 -52t-148 75q-39 50 -42 120q0 96 77 153q55 41 138.5 41t143.5 -66q50 -61 50 -140z"/>
            <glyph glyph-name="ae" unicode="æ" horiz-adv-x="1145" d="M219 180q0 -106 115 -106q49 0 103.5 59t54.5 86q-7 33 -27 170q-5 35 -21 35q-8 0 -22 -6q-203 -90 -203 -238zM628 593q0 -22 29 -11l269 108q32 12 32 41t-46.5 53.5t-80.5 24.5q-70 0 -120.5 -53.5t-73.5 -122.5q-9 -25 -9 -40zM66 160q0 110 61 165t200.5 114 t139.5 98v112q0 144 -135 144q-106 0 -137 -52q-12 -97 -29 -143t-60 -45q-61 0 -61 53q0 103 119.5 183.5t231.5 80.5t173 -84q13 -18 20 -18t34 23q99 79 213 79t187 -42t73 -99q0 -34 -35 -51l-416 -172q-35 -14 -35 -111t75 -199t183 -102t201 76q11 11 26 0t15 -20.5 t-4 -16.5q-112 -156 -330 -156q-148 0 -239 142q-14 18 -18 18t-17 -16q-105 -131 -219 -131q-217 0 -217 170z"/>
            <glyph glyph-name="ccedilla" unicode="ç" horiz-adv-x="817" d="M781 109q0 -16 -112 -84q-77 -45 -207 -48l-54 -75q127 -78 127 -167.5t-77 -143.5q-60 -44 -136 -44q-119 0 -119 72q0 53 51 53q23 0 58.5 -29.5t49.5 -29.5q56 0 56 63q0 80 -135 142l110 163q-115 18 -211 124t-96 291t122 329.5t316.5 144.5t231.5 -73q6 -12 6 -36 t-22 -51.5t-39 -27.5t-27 14q-78 107 -173 107t-173.5 -102t-78.5 -260.5t89.5 -254.5t179 -96t225.5 62q11 5 24.5 -15.5t13.5 -27.5z"/>
            <glyph glyph-name="egrave" unicode="è" horiz-adv-x="838" d="M538 1061q0 -39 -35 -39q-23 0 -41 29l-168 271q-4 5 -4 13q0 26 31 41t52.5 15t28.5 -16l132 -294q4 -11 4 -20zM261 630q0 -14 24 -14h321q15 0 15 17q0 44 -54.5 111t-116.5 67q-125 0 -186 -166q-3 -8 -3 -15zM85 431q0 178 113.5 308.5t254.5 130.5t228 -98t87 -160 t-51 -63h-449q-30 0 -30 -66q0 -160 76.5 -274.5t211.5 -114.5q101 0 201 60q5 3 14 3t17 -9t8 -18.5t-4 -12.5q-158 -140 -311 -140t-259.5 138t-106.5 316z"/>
            <glyph glyph-name="eacute" unicode="é" horiz-adv-x="838" d="M386 1022q-33 0 -33 37q0 12 5 22l135 307q6 13 32.5 13t54.5 -22.5t28 -30.5t-2 -12l-179 -285q-18 -29 -41 -29zM261 630q0 -14 24 -14h321q15 0 15 17q0 44 -54.5 111t-116.5 67q-125 0 -186 -166q-3 -8 -3 -15zM85 431q0 178 113.5 308.5t254.5 130.5t228 -98 t87 -160t-51 -63h-449q-30 0 -30 -66q0 -160 76.5 -274.5t211.5 -114.5q101 0 201 60q5 3 14 3t17 -9t8 -18.5t-4 -12.5q-158 -140 -311 -140t-259.5 138t-106.5 316z"/>
            <glyph glyph-name="ecircumflex" unicode="ê" horiz-adv-x="838" d="M675 992q-3 0 -6 4l-184 217q-22 25 -30 25t-29 -25l-185 -217q-3 -4 -8 -4q-27 0 -27 23l211 375q16 28 38 28t38 -28l211 -375q0 -23 -29 -23zM261 630q0 -14 24 -14h321q15 0 15 17q0 44 -54.5 111t-116.5 67q-125 0 -186 -166q-3 -8 -3 -15zM85 431 q0 178 113.5 308.5t254.5 130.5t228 -98t87 -160t-51 -63h-449q-30 0 -30 -66q0 -160 76.5 -274.5t211.5 -114.5q101 0 201 60q5 3 14 3t17 -9t8 -18.5t-4 -12.5q-158 -140 -311 -140t-259.5 138t-106.5 316z"/>
            <glyph glyph-name="edieresis" unicode="ë" horiz-adv-x="838" d="M730 1156q0 -45 -31.5 -76.5t-76 -31.5t-76 31.5t-31.5 76.5t31.5 76.5t76 31.5t76 -31.5t31.5 -76.5zM349 1156q0 -45 -31.5 -76.5t-76.5 -31.5t-76.5 31.5t-31.5 76.5t31.5 76.5t76.5 31.5t76.5 -31.5t31.5 -76.5zM261 630q0 -14 24 -14h321q15 0 15 17q0 44 -54.5 111 t-116.5 67q-125 0 -186 -166q-3 -8 -3 -15zM85 431q0 178 113.5 308.5t254.5 130.5t228 -98t87 -160t-51 -63h-449q-30 0 -30 -66q0 -160 76.5 -274.5t211.5 -114.5q101 0 201 60q5 3 14 3t17 -9t8 -18.5t-4 -12.5q-158 -140 -311 -140t-259.5 138t-106.5 316z"/>
            <glyph glyph-name="igrave" unicode="ì" horiz-adv-x="524" d="M368 1061q0 -39 -35 -39q-23 0 -41 29l-168 271q-4 5 -4 13q0 26 31 41t52.5 15t28.5 -16l132 -294q4 -11 4 -20zM280 0q-111 0 -192 -8q-14 0 -14 28.5t14 28.5q113 0 113 78v405q0 114 -21 142t-63 28q-17 0 -17 28t17 28q59 0 202 114q15 11 23 11q18 0 18 -21 q-6 -65 -6 -131v-604q0 -78 113 -78q14 0 14 -28.5t-14 -28.5q-76 8 -187 8z"/>
            <glyph glyph-name="iacute" unicode="í" horiz-adv-x="524" d="M200 1022q-33 0 -33 37q0 12 5 22l135 307q6 13 32.5 13t54.5 -22.5t28 -30.5t-2 -12l-179 -285q-18 -29 -41 -29zM280 0q-111 0 -192 -8q-14 0 -14 28.5t14 28.5q113 0 113 78v405q0 114 -21 142t-63 28q-17 0 -17 28t17 28q59 0 202 114q15 11 23 11q18 0 18 -21 q-6 -65 -6 -131v-604q0 -78 113 -78q14 0 14 -28.5t-14 -28.5q-76 8 -187 8z"/>
            <glyph glyph-name="icircumflex" unicode="î" horiz-adv-x="524" d="M504 992q-3 0 -6 4l-184 217q-22 25 -30 25t-29 -25l-185 -217q-3 -4 -8 -4q-27 0 -27 23l211 375q16 28 38 28t38 -28l211 -375q0 -23 -29 -23zM280 0q-111 0 -192 -8q-14 0 -14 28.5t14 28.5q113 0 113 78v405q0 114 -21 142t-63 28q-17 0 -17 28t17 28q59 0 202 114 q15 11 23 11q18 0 18 -21q-6 -65 -6 -131v-604q0 -78 113 -78q14 0 14 -28.5t-14 -28.5q-76 8 -187 8z"/>
            <glyph glyph-name="idieresis" unicode="ï" horiz-adv-x="524" d="M574 1156q0 -45 -31.5 -76.5t-76 -31.5t-76 31.5t-31.5 76.5t31.5 76.5t76 31.5t76 -31.5t31.5 -76.5zM193 1156q0 -45 -31.5 -76.5t-76.5 -31.5t-76.5 31.5t-31.5 76.5t31.5 76.5t76.5 31.5t76.5 -31.5t31.5 -76.5zM280 0q-111 0 -192 -8q-14 0 -14 28.5t14 28.5 q113 0 113 78v405q0 114 -21 142t-63 28q-17 0 -17 28t17 28q59 0 202 114q15 11 23 11q18 0 18 -21q-6 -65 -6 -131v-604q0 -78 113 -78q14 0 14 -28.5t-14 -28.5q-76 8 -187 8z"/>
            <glyph glyph-name="eth" unicode="ð" horiz-adv-x="1020" d="M254 427.5q0 -170.5 81 -277.5t180.5 -107t177 106t77.5 279t-83 278t-173.5 105t-175 -106.5t-84.5 -277zM80 422q0 182 133 315t299 133q12 0 12 8.5t-6 14.5q-101 88 -208 154q-7 5 -15.5 5t-20.5 -10l-187 -150q-1 -2 -3 -2q-14 0 -82 107q-9 14 -9 20t5 5l84 -21 q24 -6 49 13l86 65q8 6 8 12.5t-12 14.5q-86 53 -190 102q-18 9 -8 40.5t24 31.5q55 0 248 -116q23 -14 41 1l307 246q1 2 5 2q17 0 97 -94q14 -17 14 -23t-14 -3l-73 18q-46 11 -74 -11l-203 -165q-12 -10 -12 -16.5t10 -12.5q173 -101 285 -191.5t193 -219.5t81 -259 q0 -199 -110.5 -329t-303 -130t-321.5 131.5t-129 313.5z"/>
            <glyph glyph-name="ntilde" unicode="ñ" horiz-adv-x="1069" d="M843 1195q0 -39 -79.5 -92t-126.5 -53t-129 31.5t-129.5 31.5t-108.5 -61q-4 -4 -8 -4t-10.5 7.5t-6.5 10.5t1 4q92 143 201 143q44 0 126.5 -29.5t128 -29.5t113.5 68q1 1 4.5 1t13.5 -8.5t10 -19.5zM896 127q0 -78 115 -78q14 0 14 -28.5t-14 -28.5q-77 8 -187 8 t-191 -8q-14 0 -14 28.5t14 28.5q110 0 110 78v403q0 178 -60 226q-31 24 -91 24t-94 -17q-144 -72 -144 -173v-463q0 -78 107 -78q14 0 14 -28.5t-14 -28.5q-77 8 -187 8t-188 -8q-14 0 -14 28.5t14 28.5q115 0 115 78v447q0 128 -84 128q-17 0 -17 28t17 28q69 0 174 92 q37 32 51.5 32.5t13.5 -30.5l-2 -73q-1 -21 14 -21q8 0 15 6q107 106 257 106t223 -147q33 -66 33 -248v-348z"/>
            <glyph glyph-name="ograve" unicode="ò" horiz-adv-x="995" d="M575 1061q0 -39 -35 -39q-23 0 -41 29l-168 271q-4 5 -4 13q0 26 31 41t52.5 15t28.5 -16l132 -294q4 -11 4 -20zM247 422q0 -178 81.5 -278.5t176.5 -100.5t175.5 101.5t80.5 277.5t-80 282t-175.5 106.5t-177 -105t-81.5 -283.5zM84 428q0 168 125 305t299 137 t295 -137t121 -313t-111 -309.5t-297 -133.5t-309 141.5t-123 309.5z"/>
            <glyph glyph-name="oacute" unicode="ó" horiz-adv-x="995" d="M450 1022q-33 0 -33 37q0 12 5 22l135 307q6 13 32.5 13t54.5 -22.5t28 -30.5t-2 -12l-179 -285q-18 -29 -41 -29zM247 422q0 -178 81.5 -278.5t176.5 -100.5t175.5 101.5t80.5 277.5t-80 282t-175.5 106.5t-177 -105t-81.5 -283.5zM84 428q0 168 125 305t299 137 t295 -137t121 -313t-111 -309.5t-297 -133.5t-309 141.5t-123 309.5z"/>
            <glyph glyph-name="ocircumflex" unicode="ô" horiz-adv-x="995" d="M731 992q-3 0 -6 4l-184 217q-22 25 -30 25t-29 -25l-185 -217q-3 -4 -8 -4q-27 0 -27 23l211 375q16 28 38 28t38 -28l211 -375q0 -23 -29 -23zM247 422q0 -178 81.5 -278.5t176.5 -100.5t175.5 101.5t80.5 277.5t-80 282t-175.5 106.5t-177 -105t-81.5 -283.5zM84 428 q0 168 125 305t299 137t295 -137t121 -313t-111 -309.5t-297 -133.5t-309 141.5t-123 309.5z"/>
            <glyph glyph-name="otilde" unicode="õ" horiz-adv-x="995" d="M813 1195q0 -39 -79.5 -92t-126.5 -53t-129 31.5t-129.5 31.5t-108.5 -61q-4 -4 -8 -4t-10.5 7.5t-6.5 10.5t1 4q92 143 201 143q44 0 126.5 -29.5t128 -29.5t113.5 68q1 1 4.5 1t13.5 -8.5t10 -19.5zM247 422q0 -178 81.5 -278.5t176.5 -100.5t175.5 101.5t80.5 277.5 t-80 282t-175.5 106.5t-177 -105t-81.5 -283.5zM84 428q0 168 125 305t299 137t295 -137t121 -313t-111 -309.5t-297 -133.5t-309 141.5t-123 309.5z"/>
            <glyph glyph-name="odieresis" unicode="ö" horiz-adv-x="995" d="M799 1156q0 -45 -31.5 -76.5t-76 -31.5t-76 31.5t-31.5 76.5t31.5 76.5t76 31.5t76 -31.5t31.5 -76.5zM418 1156q0 -45 -31.5 -76.5t-76.5 -31.5t-76.5 31.5t-31.5 76.5t31.5 76.5t76.5 31.5t76.5 -31.5t31.5 -76.5zM247 422q0 -178 81.5 -278.5t176.5 -100.5 q95 -1 175 101t80.5 278t-79.5 282q-79 106 -175 106t-177.5 -105t-81.5 -283zM84 428q0 168 125 305t299 137t295 -137t121 -313t-111 -309.5t-297 -133.5t-309 141.5t-123 309.5z"/>
            <glyph glyph-name="divide" unicode="÷" horiz-adv-x="1051" d="M934 371h-815v100h815v-100zM420 132q0 43 30.5 73.5t73.5 30.5t73.5 -30.5t30.5 -73.5t-30.5 -73.5t-73.5 -30.5t-73.5 30.5t-30.5 73.5zM420 710q0 43 30.5 73.5t73.5 30.5t73.5 -30.5t30.5 -73.5t-30.5 -73.5t-73.5 -30.5t-73.5 30.5t-30.5 73.5z"/>
            <glyph glyph-name="oslash" unicode="ø" horiz-adv-x="995" d="M506 43q92 0 174 101.5t81.5 262.5t-54.5 258l-371 -530q78 -92 170 -92zM501 811q-91 0 -172.5 -105.5t-81.5 -261.5t46 -246l371 528q-72 85 -163 85zM184 -71q-9 0 -29 15.5t-20 22t2 8.5l88 125q-9 9 -17 19q-124 142 -124 309.5t125 304.5t299 137q118 0 212 -63 l76 108q4 5 13 5t27.5 -14.5t18.5 -21.5t-2 -10l-78 -112q13 -12 27 -28q122 -136 122 -313t-111 -310.5t-297 -133.5q-135 0 -237 76l-83 -119q-3 -5 -12 -5z"/>
            <glyph glyph-name="ugrave" unicode="ù" horiz-adv-x="1036" d="M588 1061q0 -39 -35 -39q-23 0 -41 29l-168 271q-4 5 -4 13q0 26 31 41t52.5 15t28.5 -16l132 -294q4 -11 4 -20zM728 -33q-16 0 -16 45v45q0 24 -11.5 24t-27.5 -15q-95 -89 -234 -89q-105 0 -185 106t-80 218v335q0 147 -111 147q-15 0 -15 28t15 28q105 0 169.5 9 t84 9t18.5 -16q-8 -123 -8 -152v-355q0 -115 39.5 -187.5t124.5 -72.5t153 52t68 126v384q0 147 -111 147q-15 0 -15 28t15 28q123 0 180.5 9t69.5 9q22 0 20 -27q-6 -87 -6 -139v-464q0 -155 82 -145l47 6q23 3 23 -42q0 -14 -8 -15q-28 -3 -136.5 -27.5t-124.5 -30.5 t-20 -6z"/>
            <glyph glyph-name="uacute" unicode="ú" horiz-adv-x="1036" d="M464 1022q-33 0 -33 37q0 12 5 22l135 307q6 13 32.5 13t54.5 -22.5t28 -30.5t-2 -12l-179 -285q-18 -29 -41 -29zM728 -33q-16 0 -16 45v45q0 24 -11.5 24t-27.5 -15q-95 -89 -234 -89q-105 0 -185 106t-80 218v335q0 147 -111 147q-15 0 -15 28t15 28q105 0 169.5 9 t84 9t18.5 -16q-8 -123 -8 -152v-355q0 -115 39.5 -187.5t124.5 -72.5t153 52t68 126v384q0 147 -111 147q-15 0 -15 28t15 28q123 0 180.5 9t69.5 9q22 0 20 -27q-6 -87 -6 -139v-464q0 -155 82 -145l47 6q23 3 23 -42q0 -14 -8 -15q-28 -3 -136.5 -27.5t-124.5 -30.5 t-20 -6z"/>
            <glyph glyph-name="ucircumflex" unicode="û" horiz-adv-x="1036" d="M710 992q-3 0 -6 4l-184 217q-22 25 -30 25t-29 -25l-185 -217q-3 -4 -8 -4q-27 0 -27 23l211 375q16 28 38 28t38 -28l211 -375q0 -23 -29 -23zM728 -33q-16 0 -16 45v45q0 24 -11.5 24t-27.5 -15q-95 -89 -234 -89q-105 0 -185 106t-80 218v335q0 147 -111 147 q-15 0 -15 28t15 28q105 0 169.5 9t84 9t18.5 -16q-8 -123 -8 -152v-355q0 -115 39.5 -187.5t124.5 -72.5t153 52t68 126v384q0 147 -111 147q-15 0 -15 28t15 28q123 0 180.5 9t69.5 9q22 0 20 -27q-6 -87 -6 -139v-464q0 -155 82 -145l47 6q23 3 23 -42q0 -14 -8 -15 q-28 -3 -136.5 -27.5t-124.5 -30.5t-20 -6z"/>
            <glyph glyph-name="udieresis" unicode="ü" horiz-adv-x="1036" d="M802 1156q0 -45 -31.5 -76.5t-76 -31.5t-76 31.5t-31.5 76.5t31.5 76.5t76 31.5t76 -31.5t31.5 -76.5zM421 1156q0 -45 -31.5 -76.5t-76.5 -31.5t-76.5 31.5t-31.5 76.5t31.5 76.5t76.5 31.5t76.5 -31.5t31.5 -76.5zM728 -33q-16 0 -16 45v45q0 24 -11.5 24t-27.5 -15 q-95 -89 -234 -89q-105 0 -185 106t-80 218v335q0 147 -111 147q-15 0 -15 28t15 28q105 0 169.5 9t84 9t18.5 -16q-8 -123 -8 -152v-355q0 -115 39.5 -187.5t124.5 -72.5t153 52t68 126v384q0 147 -111 147q-15 0 -15 28t15 28q123 0 180.5 9t69.5 9q22 0 20 -27 q-6 -87 -6 -139v-464q0 -155 82 -145l47 6q23 3 23 -42q0 -14 -8 -15q-28 -3 -136.5 -27.5t-124.5 -30.5t-20 -6z"/>
            <glyph glyph-name="yacute" unicode="ý" horiz-adv-x="838" d="M385 1022q-33 0 -33 37q0 12 5 22l135 307q6 13 32.5 13t54.5 -22.5t28 -30.5t-2 -12l-179 -285q-18 -29 -41 -29zM-39 803q-14 0 -14 26.5t14 26.5q57 -6 184 -6t187 6q14 0 14 -26.5t-14 -26.5q-96 0 -96 -55q0 -16 4 -29l174 -504q10 -31 25 -31t28 33l195 502 q6 13 6 26q0 58 -129 58q-14 0 -14 26.5t14 26.5q57 -6 163 -6t164 6q14 0 14 -26.5t-14 -26.5q-96 0 -125 -72l-442 -1149q-25 -64 -73.5 -99.5t-96.5 -35.5t-73 25t-25 51q0 76 94.5 76t120.5 63l96 240q11 25 11 39t-13 51l-258 739q-26 72 -121 72z"/>
            <glyph glyph-name="thorn" unicode="þ" horiz-adv-x="909" d="M327 90q0 -39 24 -39q50 0 129.5 50.5t133.5 156.5t53.5 230t-41.5 216.5t-123 92.5t-152 -117q-24 -40 -24 -94v-496zM174 -393v1549q0 153 -94 153q-15 0 -15 27.5t15 27.5q41 0 120.5 46t94.5 60.5t28 14.5t12 -27q-8 -172 -8 -219v-442q0 -25 10 -25t22 14 q72 84 166 84q130 0 223 -92.5t93 -257.5q0 -222 -157.5 -369.5t-326.5 -170.5q-30 -4 -30 -31v-367q0 -58 -58 -78l-175 -61q-1 -1 -8 -1q-8 0 -14 12q-6 14 -6 26t6 16l80 53q22 15 22 58z"/>
            <glyph glyph-name="ydieresis" unicode="ÿ" horiz-adv-x="838" d="M706 1156q0 -45 -31.5 -76.5t-76 -31.5t-76 31.5t-31.5 76.5t31.5 76.5t76 31.5t76 -31.5t31.5 -76.5zM325 1156q0 -45 -31.5 -76.5t-76.5 -31.5t-76.5 31.5t-31.5 76.5t31.5 76.5t76.5 31.5t76.5 -31.5t31.5 -76.5zM-39 803q-14 0 -14 26.5t14 26.5q57 -6 184 -6t187 6 q14 0 14 -26.5t-14 -26.5q-96 0 -96 -55q0 -16 4 -29l174 -504q10 -31 25 -31t28 33l195 502q6 13 6 26q0 58 -129 58q-14 0 -14 26.5t14 26.5q57 -6 163 -6t164 6q14 0 14 -26.5t-14 -26.5q-96 0 -125 -72l-442 -1149q-25 -64 -73.5 -99.5t-96.5 -35.5t-73 25t-25 51 q0 76 94.5 76t120.5 63l96 240q11 25 11 39t-13 51l-258 739q-26 72 -121 72z"/>
            <glyph glyph-name="Amacron" unicode="Ā" horiz-adv-x="1398" d="M1004 1651q28 0 28 -47t-32 -47h-578q-29 0 -29 47t29 47h582zM831 600q25 0 25 16q0 5 -2 11l-170 532q-6 20 -18 20t-19 -20l-197 -532q-2 -5 -2 -11q0 -16 24 -16h359zM1367 69q13 0 13 -38t-13 -38q-73 7 -231 7t-230 -7q-14 0 -14 38t14 38q99 0 99 68q0 23 -8 49 l-101 313q-9 32 -44 32h-407q-28 0 -40 -35l-113 -314q-9 -22 -9 -40q0 -73 151 -73q14 0 14 -38t-14 -38q-85 7 -213 7t-212 -7q-14 0 -13.5 38t13.5 38q97 0 129 28t66 104l377 987q6 17 6 30t-13 26.5t-13 19.5t39.5 27.5t92.5 58.5t65 37q23 0 35 -44q26 -97 49 -166 l333 -991q39 -117 192 -117z"/>
            <glyph glyph-name="amacron" unicode="ā" horiz-adv-x="797" d="M606 1198q28 0 28 -47t-32 -47h-446q-29 0 -29 47t29 47h450zM640 -23q-105 0 -142 136q-76 -76 -121 -106t-116.5 -30t-108.5 31t-52.5 71.5t-15.5 82.5t20 82.5t58.5 73t66.5 47.5l232 129q20 11 20 32v181q0 88 -133 88q-97 0 -135 -50q-5 -7 -16 -99.5t-67 -92.5 t-56 56t40.5 112.5t69.5 73.5q128 75 246 75q71 0 137.5 -40t66.5 -99v-532q0 -115 67 -115q19 0 47 19.5t32 19.5q22 -3 29 -30q0 -3 -1 -5q-41 -69 -76 -90t-92 -21zM481 199v215q0 22 -14 22q-7 0 -60 -26q-170 -85 -170 -222q0 -49 31.5 -79.5t79.5 -30.5t90.5 42.5 t42.5 78.5z"/>
            <glyph glyph-name="Abreve" unicode="Ă" horiz-adv-x="1398" d="M713.5 1523q-270.5 0 -270.5 275q8 8 19.5 8t19.5 -8q35 -164 230 -164t233 164q8 8 19.5 8t19.5 -8q0 -275 -270.5 -275zM831 600q25 0 25 16q0 5 -2 11l-170 532q-6 20 -18 20t-19 -20l-197 -532q-2 -5 -2 -11q0 -16 24 -16h359zM1367 69q13 0 13 -38t-13 -38 q-73 7 -231 7t-230 -7q-14 0 -14 38t14 38q99 0 99 68q0 23 -8 49l-101 313q-9 32 -44 32h-407q-28 0 -40 -35l-113 -314q-9 -22 -9 -40q0 -73 151 -73q14 0 14 -38t-14 -38q-85 7 -213 7t-212 -7q-14 0 -13.5 38t13.5 38q97 0 129 28t66 104l377 987q6 17 6 30t-13 26.5 t-13 19.5t39.5 27.5t92.5 58.5t65 37q23 0 35 -44q26 -97 49 -166l333 -991q39 -117 192 -117z"/>
            <glyph glyph-name="abreve" unicode="ă" horiz-adv-x="797" d="M395.5 1020q-270.5 0 -270.5 275q8 8 19.5 8t19.5 -8q35 -164 230 -164t233 164q8 8 19.5 8t19.5 -8q0 -275 -270.5 -275zM640 -23q-105 0 -142 136q-76 -76 -121 -106t-116.5 -30t-108.5 31t-52.5 71.5t-15.5 82.5t20 82.5t58.5 73t66.5 47.5l232 129q20 11 20 32v181 q0 88 -133 88q-97 0 -135 -50q-5 -7 -16 -99.5t-67 -92.5t-56 56t40.5 112.5t69.5 73.5q128 75 246 75q71 0 137.5 -40t66.5 -99v-532q0 -115 67 -115q19 0 47 19.5t32 19.5q22 -3 29 -30q0 -3 -1 -5q-41 -69 -76 -90t-92 -21zM481 199v215q0 22 -14 22q-7 0 -60 -26 q-170 -85 -170 -222q0 -49 31.5 -79.5t79.5 -30.5t90.5 42.5t42.5 78.5z"/>
            <glyph glyph-name="Aogonek" unicode="Ą" horiz-adv-x="1398" d="M831 600q25 0 25 16q0 5 -2 11l-170 532q-6 20 -18 20t-19 -20l-197 -532q-2 -5 -2 -11q0 -16 24 -16h359zM1080 -488q-88 0 -135 52.5t-47 124.5q0 148 175 311q-110 -1 -167 -7q-14 0 -14 38t14 38q99 0 99 68q0 23 -8 49l-101 313q-9 32 -44 32h-407q-28 0 -40 -35 l-113 -314q-9 -22 -9 -40q0 -73 151 -73q14 0 14 -38t-14 -38q-85 7 -213 7t-212 -7q-14 0 -13.5 38t13.5 38q97 0 129 28t66 104l377 987q6 17 6 30t-13 26.5t-13 19.5t39.5 27.5t92.5 58.5t65 37q23 0 35 -44q26 -97 49 -166l333 -991q39 -117 192 -117q13 0 13 -38 t-13 -38q-65 6 -198 7q-130 -141 -130 -249q-1 -128 123 -128q60 0 104 34q20 -7 20 -36q-82 -109 -206 -109z"/>
            <glyph glyph-name="aogonek" unicode="ą" horiz-adv-x="797" d="M481 199v215q0 22 -14 22q-7 0 -60 -26q-170 -85 -170 -222q0 -49 31.5 -79.5t79.5 -30.5t90.5 42.5t42.5 78.5zM523 -488q-88 0 -135 52.5t-47 124.5q0 159 200 333q-28 33 -43 91q-76 -76 -121 -106t-117 -30t-108.5 31t-52 71.5t-15.5 82t20 82.5t58.5 73.5t66.5 47.5 l232 129q20 11 20 32v181q0 88 -133 88q-97 0 -135 -50q-5 -7 -16 -99t-67 -93q-56 0 -56 56t40.5 112.5t69.5 73.5q128 75 246 75q71 0 137.5 -40t66.5 -99v-532q0 -115 67 -115q19 0 47 20t32 19q22 -3 29 -30q0 -3 -1 -5q-41 -69 -76 -90t-75 -21t-60 7 q-115 -131 -115 -233q-1 -128 123 -128q60 0 103 34q21 -7 21 -36q-82 -109 -206 -109z"/>
            </font>
</defs>
</svg>
