<svg xmlns="http://www.w3.org/2000/svg" width="24" height="24" viewBox="0 0 24 24" fill="none">
<g clip-path="url(#clip0_32_1302)">
<path d="M11.829 11.5618C13.4172 11.5618 14.7925 10.9922 15.9162 9.86831C17.0399 8.74459 17.6096 7.36966 17.6096 5.78123C17.6096 4.19334 17.0399 2.81823 15.916 1.69415C14.7921 0.570615 13.417 0.000976562 11.829 0.000976562C10.2405 0.000976562 8.86559 0.570615 7.74188 1.69433C6.61816 2.81804 6.04834 4.19316 6.04834 5.78123C6.04834 7.36966 6.61816 8.74478 7.74206 9.86849C8.86596 10.992 10.2411 11.5618 11.829 11.5618Z" fill="#555041"/>
<path d="M21.9435 18.4558C21.9111 17.9882 21.8455 17.4781 21.749 16.9394C21.6516 16.3966 21.5262 15.8836 21.376 15.4147C21.2209 14.93 21.01 14.4513 20.7493 13.9927C20.4786 13.5166 20.1608 13.102 19.8041 12.7609C19.4311 12.404 18.9744 12.1171 18.4463 11.9078C17.9201 11.6996 17.3369 11.5942 16.7131 11.5942C16.4681 11.5942 16.2311 11.6947 15.7736 11.9926C15.492 12.1763 15.1625 12.3887 14.7949 12.6236C14.4805 12.8239 14.0546 13.0116 13.5285 13.1815C13.0153 13.3476 12.4942 13.4318 11.9798 13.4318C11.4655 13.4318 10.9445 13.3476 10.4308 13.1815C9.90524 13.0118 9.47934 12.8241 9.16532 12.6238C8.80112 12.391 8.47153 12.1786 8.18571 11.9924C7.72868 11.6945 7.49156 11.594 7.24656 11.594C6.62254 11.594 6.03954 11.6996 5.51347 11.908C4.98577 12.1169 4.52892 12.4039 4.15557 12.7611C3.79907 13.1024 3.48101 13.5168 3.21075 13.9927C2.95019 14.4513 2.73925 14.9298 2.58398 15.4148C2.43402 15.8838 2.30859 16.3966 2.21118 16.9394C2.11468 17.4773 2.04913 17.9876 2.01672 18.4564C1.98486 18.9156 1.96875 19.3922 1.96875 19.8736C1.96875 21.1264 2.367 22.1406 3.15234 22.8886C3.92797 23.6267 4.95427 24.0012 6.20231 24.0012H17.7584C19.0065 24.0012 20.0324 23.6269 20.8082 22.8886C21.5937 22.1412 21.992 21.1268 21.992 19.8734C21.9918 19.3899 21.9755 18.9129 21.9435 18.4558Z" fill="#555041"/>
</g>
<defs>
<clipPath id="clip0_32_1302">
<rect width="23.9999" height="24" fill="white" transform="translate(0 0.000976562)"/>
</clipPath>
</defs>
</svg>